%TF.GenerationSoftware,KiCad,Pcbnew,8.0.6*%
%TF.CreationDate,2024-11-05T15:10:12-06:00*%
%TF.ProjectId,werable_unit (1),77657261-626c-4655-9f75-6e6974202831,rev?*%
%TF.SameCoordinates,Original*%
%TF.FileFunction,Soldermask,Bot*%
%TF.FilePolarity,Negative*%
%FSLAX46Y46*%
G04 Gerber Fmt 4.6, Leading zero omitted, Abs format (unit mm)*
G04 Created by KiCad (PCBNEW 8.0.6) date 2024-11-05 15:10:12*
%MOMM*%
%LPD*%
G01*
G04 APERTURE LIST*
G04 Aperture macros list*
%AMRoundRect*
0 Rectangle with rounded corners*
0 $1 Rounding radius*
0 $2 $3 $4 $5 $6 $7 $8 $9 X,Y pos of 4 corners*
0 Add a 4 corners polygon primitive as box body*
4,1,4,$2,$3,$4,$5,$6,$7,$8,$9,$2,$3,0*
0 Add four circle primitives for the rounded corners*
1,1,$1+$1,$2,$3*
1,1,$1+$1,$4,$5*
1,1,$1+$1,$6,$7*
1,1,$1+$1,$8,$9*
0 Add four rect primitives between the rounded corners*
20,1,$1+$1,$2,$3,$4,$5,0*
20,1,$1+$1,$4,$5,$6,$7,0*
20,1,$1+$1,$6,$7,$8,$9,0*
20,1,$1+$1,$8,$9,$2,$3,0*%
G04 Aperture macros list end*
%ADD10R,1.700000X1.700000*%
%ADD11O,1.700000X1.700000*%
%ADD12C,3.200000*%
%ADD13O,3.500000X2.200000*%
%ADD14R,2.500000X1.500000*%
%ADD15O,2.500000X1.500000*%
%ADD16RoundRect,0.250000X0.600000X0.600000X-0.600000X0.600000X-0.600000X-0.600000X0.600000X-0.600000X0*%
%ADD17C,1.700000*%
%ADD18R,2.000000X2.000000*%
%ADD19C,2.000000*%
G04 APERTURE END LIST*
D10*
%TO.C,J5*%
X95986600Y-105613200D03*
D11*
X98526600Y-105613200D03*
X101066600Y-105613200D03*
X103606600Y-105613200D03*
X106146600Y-105613200D03*
%TD*%
D12*
%TO.C,H4*%
X128524000Y-115824000D03*
%TD*%
D13*
%TO.C,U7*%
X71120000Y-98992000D03*
X71120000Y-107192000D03*
D14*
X71120000Y-101092000D03*
D15*
X71120000Y-103092000D03*
X71120000Y-105092000D03*
%TD*%
D10*
%TO.C,J9*%
X103378000Y-78232000D03*
D11*
X100838000Y-78232000D03*
X98298000Y-78232000D03*
X95758000Y-78232000D03*
X93218000Y-78232000D03*
X90678000Y-78232000D03*
%TD*%
D10*
%TO.C,J2*%
X92461000Y-99720400D03*
D11*
X95001000Y-99720400D03*
X97541000Y-99720400D03*
X100081000Y-99720400D03*
X102621000Y-99720400D03*
%TD*%
D16*
%TO.C,J12*%
X128524000Y-74676000D03*
D17*
X125984000Y-74676000D03*
X128524000Y-72136000D03*
X125984000Y-72136000D03*
X128524000Y-69596000D03*
X125984000Y-69596000D03*
X128524000Y-67056000D03*
X125984000Y-67056000D03*
X128524000Y-64516000D03*
X125984000Y-64516000D03*
%TD*%
D10*
%TO.C,J1*%
X73152000Y-61976000D03*
D11*
X73152000Y-64516000D03*
X73152000Y-67056000D03*
X73152000Y-69596000D03*
X73152000Y-72136000D03*
X73152000Y-74676000D03*
%TD*%
D12*
%TO.C,H3*%
X73660000Y-115824000D03*
%TD*%
D18*
%TO.C,U4*%
X123016000Y-88900000D03*
D19*
X128016000Y-88900000D03*
%TD*%
D12*
%TO.C,H1*%
X73660000Y-54356000D03*
%TD*%
D10*
%TO.C,J13*%
X116332000Y-112268000D03*
D11*
X113792000Y-112268000D03*
X111252000Y-112268000D03*
X108712000Y-112268000D03*
X106172000Y-112268000D03*
X103632000Y-112268000D03*
X101092000Y-112268000D03*
X98552000Y-112268000D03*
X96012000Y-112268000D03*
%TD*%
D10*
%TO.C,J11*%
X73152000Y-80772000D03*
D11*
X73152000Y-83312000D03*
X73152000Y-85852000D03*
X73152000Y-88392000D03*
X73152000Y-90932000D03*
%TD*%
D12*
%TO.C,H2*%
X128524000Y-54356000D03*
%TD*%
D10*
%TO.C,J8*%
X111252000Y-52857400D03*
D11*
X113792000Y-52857400D03*
X116332000Y-52857400D03*
X118872000Y-52857400D03*
X121412000Y-52857400D03*
%TD*%
D10*
%TO.C,J3*%
X114960400Y-99568000D03*
D11*
X112420400Y-99568000D03*
X109880400Y-99568000D03*
X107340400Y-99568000D03*
%TD*%
M02*
