%TF.GenerationSoftware,KiCad,Pcbnew,8.0.6*%
%TF.CreationDate,2024-11-05T17:21:10-06:00*%
%TF.ProjectId,werable_unit (1),77657261-626c-4655-9f75-6e6974202831,rev?*%
%TF.SameCoordinates,Original*%
%TF.FileFunction,Copper,L2,Bot*%
%TF.FilePolarity,Positive*%
%FSLAX46Y46*%
G04 Gerber Fmt 4.6, Leading zero omitted, Abs format (unit mm)*
G04 Created by KiCad (PCBNEW 8.0.6) date 2024-11-05 17:21:10*
%MOMM*%
%LPD*%
G01*
G04 APERTURE LIST*
G04 Aperture macros list*
%AMRoundRect*
0 Rectangle with rounded corners*
0 $1 Rounding radius*
0 $2 $3 $4 $5 $6 $7 $8 $9 X,Y pos of 4 corners*
0 Add a 4 corners polygon primitive as box body*
4,1,4,$2,$3,$4,$5,$6,$7,$8,$9,$2,$3,0*
0 Add four circle primitives for the rounded corners*
1,1,$1+$1,$2,$3*
1,1,$1+$1,$4,$5*
1,1,$1+$1,$6,$7*
1,1,$1+$1,$8,$9*
0 Add four rect primitives between the rounded corners*
20,1,$1+$1,$2,$3,$4,$5,0*
20,1,$1+$1,$4,$5,$6,$7,0*
20,1,$1+$1,$6,$7,$8,$9,0*
20,1,$1+$1,$8,$9,$2,$3,0*%
G04 Aperture macros list end*
%TA.AperFunction,ComponentPad*%
%ADD10R,2.000000X2.000000*%
%TD*%
%TA.AperFunction,ComponentPad*%
%ADD11C,2.000000*%
%TD*%
%TA.AperFunction,ComponentPad*%
%ADD12O,3.500000X2.200000*%
%TD*%
%TA.AperFunction,ComponentPad*%
%ADD13R,2.500000X1.500000*%
%TD*%
%TA.AperFunction,ComponentPad*%
%ADD14O,2.500000X1.500000*%
%TD*%
%TA.AperFunction,ComponentPad*%
%ADD15RoundRect,0.250000X0.600000X0.600000X-0.600000X0.600000X-0.600000X-0.600000X0.600000X-0.600000X0*%
%TD*%
%TA.AperFunction,ComponentPad*%
%ADD16C,1.700000*%
%TD*%
%TA.AperFunction,ComponentPad*%
%ADD17R,1.700000X1.700000*%
%TD*%
%TA.AperFunction,ComponentPad*%
%ADD18O,1.700000X1.700000*%
%TD*%
%TA.AperFunction,ViaPad*%
%ADD19C,0.600000*%
%TD*%
%TA.AperFunction,Conductor*%
%ADD20C,0.200000*%
%TD*%
%TA.AperFunction,Conductor*%
%ADD21C,0.500000*%
%TD*%
G04 APERTURE END LIST*
D10*
%TO.P,U4,1,1*%
%TO.N,/BUZZER*%
X126699000Y-93091000D03*
D11*
%TO.P,U4,2,2*%
%TO.N,GND*%
X131699000Y-93091000D03*
%TD*%
D12*
%TO.P,U7,*%
%TO.N,*%
X88138000Y-83058000D03*
X88138000Y-91258000D03*
D13*
%TO.P,U7,1,1*%
%TO.N,/VBAT*%
X88138000Y-85158000D03*
D14*
%TO.P,U7,2,2*%
%TO.N,Net-(J11-BAT)*%
X88138000Y-87158000D03*
%TO.P,U7,3,3*%
%TO.N,GND*%
X88138000Y-89158000D03*
%TD*%
D15*
%TO.P,J12,1,VTref*%
%TO.N,Net-(J12-VTref)*%
X164338000Y-54864000D03*
D16*
%TO.P,J12,2,SWDIO/TMS*%
%TO.N,/MTMS*%
X161798000Y-54864000D03*
%TO.P,J12,3,GND*%
%TO.N,GND*%
X164338000Y-52324000D03*
%TO.P,J12,4,SWDCLK/TCK*%
%TO.N,/MTCK*%
X161798000Y-52324000D03*
%TO.P,J12,5,GND*%
%TO.N,GND*%
X164338000Y-49784000D03*
%TO.P,J12,6,SWO/TDO*%
%TO.N,/MTDO*%
X161798000Y-49784000D03*
%TO.P,J12,7,KEY*%
%TO.N,unconnected-(J12-KEY-Pad7)*%
X164338000Y-47244000D03*
%TO.P,J12,8,NC/TDI*%
%TO.N,/MTDI*%
X161798000Y-47244000D03*
%TO.P,J12,9,GNDDetect*%
%TO.N,GND*%
X164338000Y-44704000D03*
%TO.P,J12,10,~{RESET}*%
%TO.N,/CHIP_PU*%
X161798000Y-44704000D03*
%TD*%
D17*
%TO.P,J13,1,VIN*%
%TO.N,+3V3*%
X138176000Y-74295000D03*
D18*
%TO.P,J13,2,GND*%
%TO.N,GND*%
X135636000Y-74295000D03*
%TO.P,J13,3,EN*%
%TO.N,unconnected-(J13-EN-Pad3)*%
X133096000Y-74295000D03*
%TO.P,J13,4,G0*%
%TO.N,/LORA_G0*%
X130556000Y-74295000D03*
%TO.P,J13,5,SCK*%
%TO.N,/LORA_SCK*%
X128016000Y-74295000D03*
%TO.P,J13,6,MISO*%
%TO.N,/LORA_MISO*%
X125476000Y-74295000D03*
%TO.P,J13,7,MOSI*%
%TO.N,/LORA_MOSI*%
X122936000Y-74295000D03*
%TO.P,J13,8,CS*%
%TO.N,/LORA_CS*%
X120396000Y-74295000D03*
%TO.P,J13,9,RST*%
%TO.N,/LORA_RST*%
X117856000Y-74295000D03*
%TD*%
D17*
%TO.P,J1,1,Pin_1*%
%TO.N,+3V3*%
X96774000Y-67310000D03*
D18*
%TO.P,J1,2,Pin_2*%
%TO.N,GND*%
X96774000Y-64770000D03*
%TO.P,J1,3,Pin_3*%
%TO.N,/LORA_MISO*%
X96774000Y-62230000D03*
%TO.P,J1,4,Pin_4*%
%TO.N,/LORA_SCK*%
X96774000Y-59690000D03*
%TO.P,J1,5,Pin_5*%
%TO.N,/LORA_MOSI*%
X96774000Y-57150000D03*
%TO.P,J1,6,Pin_6*%
%TO.N,/TFT_CS*%
X96774000Y-54610000D03*
%TO.P,J1,7,Pin_7*%
%TO.N,/TFT_DC*%
X96774000Y-52070000D03*
%TO.P,J1,8,Pin_8*%
%TO.N,/TFT_YP*%
X96774000Y-49530000D03*
%TO.P,J1,9,Pin_9*%
%TO.N,/TFT_YM*%
X96774000Y-46990000D03*
%TO.P,J1,10,Pin_10*%
%TO.N,/TFT_XP*%
X96774000Y-44450000D03*
%TO.P,J1,11,Pin_11*%
%TO.N,/TFT_XM*%
X96774000Y-41910000D03*
%TO.P,J1,12,Pin_12*%
%TO.N,/TFT_RST*%
X96774000Y-39370000D03*
%TD*%
D17*
%TO.P,J8,1,Pin_1*%
%TO.N,/RTS*%
X139065000Y-39878000D03*
D18*
%TO.P,J8,2,Pin_2*%
%TO.N,/DTR*%
X141605000Y-39878000D03*
%TO.P,J8,3,Pin_3*%
%TO.N,/TX*%
X144145000Y-39878000D03*
%TO.P,J8,4,Pin_4*%
%TO.N,/RX*%
X146685000Y-39878000D03*
%TO.P,J8,5,Pin_5*%
%TO.N,GND*%
X149225000Y-39878000D03*
%TD*%
D17*
%TO.P,J2,1,Pin_1*%
%TO.N,+3V3*%
X121539000Y-81280000D03*
D18*
%TO.P,J2,2,Pin_2*%
%TO.N,GND*%
X124079000Y-81280000D03*
%TO.P,J2,3,Pin_3*%
%TO.N,/GPIO37*%
X126619000Y-81280000D03*
%TO.P,J2,4,Pin_4*%
%TO.N,/GPIO38*%
X129159000Y-81280000D03*
%TO.P,J2,5,Pin_5*%
%TO.N,/GPIO16*%
X131699000Y-81280000D03*
%TO.P,J2,6,Pin_6*%
%TO.N,/GPIO17*%
X134239000Y-81280000D03*
%TO.P,J2,7,Pin_7*%
%TO.N,/GPIO18*%
X136779000Y-81280000D03*
%TD*%
D17*
%TO.P,J11,1,5V*%
%TO.N,+5V*%
X95758000Y-72517000D03*
D18*
%TO.P,J11,2,D-*%
%TO.N,/D-*%
X95758000Y-75057000D03*
%TO.P,J11,3,D+*%
%TO.N,/D+*%
X95758000Y-77597000D03*
%TO.P,J11,4,GND*%
%TO.N,GND*%
X95758000Y-80137000D03*
%TO.P,J11,5,BAT*%
%TO.N,Net-(J11-BAT)*%
X95758000Y-82677000D03*
%TD*%
D19*
%TO.N,/BUTTON_1*%
X124079000Y-58674000D03*
X146050000Y-71755000D03*
%TO.N,GND*%
X107823000Y-55626000D03*
X135636000Y-57658000D03*
X116967000Y-58293000D03*
X131318000Y-84455000D03*
X119507000Y-69342000D03*
X151384000Y-64897000D03*
X144272000Y-46228000D03*
X105410000Y-74803000D03*
X133985000Y-63119000D03*
X123317000Y-77470000D03*
X120269000Y-79756000D03*
X130810000Y-71628000D03*
X104902000Y-39370000D03*
X117602000Y-79629000D03*
X118237000Y-64643000D03*
X114554000Y-81915000D03*
X112014000Y-73914000D03*
X105537000Y-71120000D03*
X129159000Y-53467000D03*
X100076000Y-45593000D03*
X121920000Y-70612000D03*
X117856000Y-70358000D03*
X137795000Y-50800000D03*
X115316000Y-55753000D03*
X123571000Y-65659000D03*
X138938000Y-60325000D03*
X114300000Y-57277000D03*
X102997000Y-43561000D03*
X102235000Y-97663000D03*
X106172000Y-93980000D03*
X155321000Y-64770000D03*
X117094000Y-54229000D03*
X126365000Y-63881000D03*
X143383000Y-53086000D03*
X99314000Y-50927000D03*
X131191000Y-65659000D03*
X128397000Y-61087000D03*
X119507000Y-96139000D03*
X92964000Y-59817000D03*
X144145000Y-61341000D03*
X99695000Y-53213000D03*
X148463000Y-49149000D03*
X157607000Y-65532000D03*
X106680000Y-69850000D03*
X111506000Y-97663000D03*
X99441000Y-42799000D03*
X128905000Y-64135000D03*
X117348000Y-76327000D03*
X92075000Y-48895000D03*
X99568000Y-57658000D03*
X153416000Y-48133000D03*
X137922000Y-46609000D03*
X122555000Y-57531000D03*
X128524000Y-69342000D03*
X106934000Y-67437000D03*
X98298000Y-79375000D03*
X122174000Y-76454000D03*
%TO.N,/BUTTON_2*%
X126238000Y-59563000D03*
X144907000Y-72517000D03*
%TO.N,/VBAT*%
X90043000Y-86360000D03*
X97028000Y-95885000D03*
%TO.N,+3V3*%
X103505000Y-67056000D03*
X106045000Y-68580000D03*
%TO.N,/CHIP_PU*%
X113792000Y-53086000D03*
X157480000Y-48133000D03*
X160782000Y-46228000D03*
X113792000Y-55118000D03*
%TO.N,/GPIO0_STRAPPING*%
X133096000Y-65659000D03*
X143129000Y-59690000D03*
X143129000Y-58420000D03*
X145923000Y-65405000D03*
X144018000Y-64389000D03*
X136525000Y-65659000D03*
X139319000Y-55880000D03*
X134543385Y-54686615D03*
%TO.N,+5V*%
X101727000Y-63881000D03*
X100838000Y-67183000D03*
%TO.N,/VBAT_SENSE*%
X111506000Y-67891000D03*
X111506000Y-69596000D03*
X113192000Y-42799000D03*
X114392000Y-41910000D03*
X113033963Y-54803963D03*
X113002882Y-52954480D03*
%TO.N,/LED*%
X117983000Y-53213000D03*
X118364000Y-57785000D03*
X112141000Y-50673000D03*
X117475000Y-51435000D03*
%TO.N,/RTS*%
X142113000Y-45685000D03*
X139192000Y-42291000D03*
%TO.N,/RX*%
X135001000Y-42418000D03*
X136652000Y-37973000D03*
%TO.N,/DTR*%
X145161000Y-51181000D03*
X141605000Y-42164000D03*
X142748000Y-47244000D03*
X139813949Y-49909573D03*
%TO.N,/GPIO17*%
X118618000Y-52705000D03*
X119380000Y-86233000D03*
%TO.N,/GPIO16*%
X156591000Y-58766000D03*
X144272000Y-73279000D03*
X124714000Y-48514000D03*
X147447000Y-71882000D03*
%TO.N,/GPIO37*%
X135001000Y-50800000D03*
X155722235Y-59923765D03*
%TO.N,/GPIO38*%
X135001000Y-49530000D03*
X155702000Y-58928000D03*
%TO.N,/GPIO18*%
X114492096Y-51273000D03*
X133096000Y-87122000D03*
%TO.N,/MTMS*%
X136144000Y-43434000D03*
X139700000Y-45085000D03*
%TO.N,Net-(Q3-B)*%
X139248261Y-50475261D03*
X141537265Y-52764265D03*
%TO.N,/GPIO46_STRAPPING*%
X149860000Y-61341000D03*
X121158000Y-53467000D03*
%TO.N,/GPIO3_STRAPPING*%
X148590000Y-62611000D03*
X120269000Y-54102000D03*
%TO.N,/BUZZER*%
X116078000Y-84963000D03*
X114392000Y-52070000D03*
%TO.N,/LORA_CS*%
X120396000Y-66674000D03*
X120396000Y-67945000D03*
%TO.N,/LORA_SCK*%
X131191000Y-52832000D03*
X114935000Y-78994000D03*
X132334000Y-57023000D03*
X91694000Y-64770000D03*
X132334000Y-60960000D03*
X127889000Y-75854000D03*
X128016000Y-73025000D03*
X127508000Y-77101000D03*
X113538000Y-80391000D03*
X107442000Y-82804000D03*
%TO.N,/TFT_XP*%
X122555000Y-51562000D03*
X105352313Y-42602687D03*
%TO.N,/TFT_YP*%
X117094000Y-45339000D03*
X99441000Y-49530000D03*
%TO.N,/LORA_G0*%
X124968000Y-67945000D03*
X125603000Y-58039000D03*
%TO.N,/LORA_MISO*%
X137287000Y-58166000D03*
X114803480Y-78204882D03*
X108712000Y-81534000D03*
X113157000Y-78232000D03*
X92583000Y-67056000D03*
X137287000Y-60071000D03*
%TO.N,/LORA_RST*%
X116078000Y-67310000D03*
X116078000Y-65786000D03*
%TO.N,/LORA_MOSI*%
X113157000Y-77089000D03*
X122936000Y-68072000D03*
X90805000Y-57404000D03*
X122936000Y-66674000D03*
X109728000Y-80518000D03*
X115062000Y-77089000D03*
%TO.N,/TFT_DC*%
X114392000Y-46990000D03*
X100965000Y-51816000D03*
%TO.N,/TFT_CS*%
X110871000Y-46482000D03*
X101219000Y-53975000D03*
X117348000Y-42164000D03*
X113030000Y-41275000D03*
%TO.N,/TFT_YM*%
X102870000Y-41402000D03*
X130810000Y-40640000D03*
%TO.N,/TFT_XM*%
X105918000Y-42037000D03*
X117221000Y-43434000D03*
%TO.N,/TFT_RST*%
X93980000Y-69850000D03*
X115189000Y-64770000D03*
X107823000Y-77978000D03*
X112649000Y-71628000D03*
%TD*%
D20*
%TO.N,/BUTTON_1*%
X132969000Y-58674000D02*
X124079000Y-58674000D01*
X146050000Y-71755000D02*
X132969000Y-58674000D01*
%TO.N,/BUTTON_2*%
X131953000Y-59563000D02*
X126238000Y-59563000D01*
X144907000Y-72517000D02*
X131953000Y-59563000D01*
D21*
%TO.N,/VBAT*%
X97028000Y-93853000D02*
X97028000Y-95885000D01*
X90043000Y-86360000D02*
X90932000Y-87249000D01*
X90932000Y-87249000D02*
X90932000Y-87757000D01*
X90932000Y-87757000D02*
X97028000Y-93853000D01*
%TO.N,+3V3*%
X103505000Y-67056000D02*
X105029000Y-68580000D01*
X105029000Y-68580000D02*
X106045000Y-68580000D01*
D20*
%TO.N,/CHIP_PU*%
X160782000Y-46228000D02*
X158877000Y-48133000D01*
X158877000Y-48133000D02*
X157480000Y-48133000D01*
X113792000Y-55118000D02*
X113792000Y-53086000D01*
%TO.N,/GPIO0_STRAPPING*%
X145034000Y-65405000D02*
X144018000Y-64389000D01*
X133096000Y-65659000D02*
X136525000Y-65659000D01*
X143129000Y-59690000D02*
X143129000Y-58420000D01*
X145923000Y-65405000D02*
X145034000Y-65405000D01*
X139319000Y-55880000D02*
X138049000Y-54610000D01*
X138049000Y-54610000D02*
X134620000Y-54610000D01*
X134620000Y-54610000D02*
X134543385Y-54686615D01*
D21*
%TO.N,+5V*%
X101727000Y-63881000D02*
X101727000Y-66294000D01*
X101727000Y-66294000D02*
X100838000Y-67183000D01*
D20*
%TO.N,/VBAT_SENSE*%
X113033963Y-54803963D02*
X113033963Y-52962963D01*
X114046000Y-41910000D02*
X114392000Y-41910000D01*
X113192000Y-42764000D02*
X114046000Y-41910000D01*
X113192000Y-42799000D02*
X113192000Y-42764000D01*
X111506000Y-69596000D02*
X111506000Y-67891000D01*
X113033963Y-52962963D02*
X113025480Y-52954480D01*
X113025480Y-52954480D02*
X113002882Y-52954480D01*
%TO.N,/LED*%
X117983000Y-57404000D02*
X118364000Y-57785000D01*
X117983000Y-53213000D02*
X117983000Y-57404000D01*
X116713000Y-50673000D02*
X117475000Y-51435000D01*
X112141000Y-50673000D02*
X116713000Y-50673000D01*
%TO.N,/RTS*%
X139192000Y-42764000D02*
X139192000Y-42291000D01*
X142113000Y-45685000D02*
X139192000Y-42764000D01*
%TO.N,/RX*%
X135001000Y-39624000D02*
X135001000Y-42418000D01*
X136652000Y-37973000D02*
X135001000Y-39624000D01*
%TO.N,/DTR*%
X142748000Y-43307000D02*
X141605000Y-42164000D01*
X142748000Y-47244000D02*
X142748000Y-43307000D01*
X145161000Y-51181000D02*
X140970000Y-51181000D01*
X139813949Y-50024949D02*
X139813949Y-49909573D01*
X140970000Y-51181000D02*
X139813949Y-50024949D01*
%TO.N,/GPIO17*%
X119006000Y-85859000D02*
X119006000Y-73818654D01*
X119006000Y-73818654D02*
X118618000Y-73430654D01*
X118618000Y-65110529D02*
X118964000Y-64764529D01*
X119380000Y-86233000D02*
X119006000Y-85859000D01*
X118964000Y-64764529D02*
X118964000Y-53051000D01*
X118618000Y-73430654D02*
X118618000Y-65110529D01*
X118964000Y-53051000D02*
X118618000Y-52705000D01*
%TO.N,/GPIO16*%
X125384000Y-47844000D02*
X124714000Y-48514000D01*
X156591000Y-58766000D02*
X145669000Y-47844000D01*
X144272000Y-73279000D02*
X146050000Y-73279000D01*
X146050000Y-73279000D02*
X147447000Y-71882000D01*
X145669000Y-47844000D02*
X125384000Y-47844000D01*
%TO.N,/GPIO37*%
X155829000Y-59817000D02*
X155722235Y-59923765D01*
X135001000Y-50800000D02*
X136271000Y-50800000D01*
X138049000Y-49022000D02*
X143850529Y-49022000D01*
X143850529Y-49022000D02*
X154645529Y-59817000D01*
X136271000Y-50800000D02*
X138049000Y-49022000D01*
X154645529Y-59817000D02*
X155829000Y-59817000D01*
%TO.N,/GPIO38*%
X147101000Y-51048529D02*
X147101000Y-50708000D01*
X154980471Y-58928000D02*
X147101000Y-51048529D01*
X155702000Y-58928000D02*
X154980471Y-58928000D01*
X144653000Y-48260000D02*
X136271000Y-48260000D01*
X136271000Y-48260000D02*
X135001000Y-49530000D01*
X147101000Y-50708000D02*
X144653000Y-48260000D01*
%TO.N,/GPIO18*%
X102074529Y-56000000D02*
X89796000Y-56000000D01*
X117180529Y-87122000D02*
X133096000Y-87122000D01*
X106801529Y-51273000D02*
X102074529Y-56000000D01*
X99688000Y-81287000D02*
X101473000Y-79502000D01*
X114492096Y-51273000D02*
X106801529Y-51273000D01*
X95281654Y-81287000D02*
X99688000Y-81287000D01*
X93183000Y-79188346D02*
X95281654Y-81287000D01*
X109560529Y-79502000D02*
X117180529Y-87122000D01*
X93183000Y-66807471D02*
X93183000Y-79188346D01*
X88992000Y-56804000D02*
X91053529Y-56804000D01*
X101473000Y-79502000D02*
X109560529Y-79502000D01*
X92334471Y-65958942D02*
X93183000Y-66807471D01*
X89796000Y-56000000D02*
X88992000Y-56804000D01*
X92334471Y-58084942D02*
X92334471Y-65958942D01*
X91053529Y-56804000D02*
X92334471Y-58084942D01*
%TO.N,/MTMS*%
X138049000Y-43434000D02*
X136144000Y-43434000D01*
X139700000Y-45085000D02*
X138049000Y-43434000D01*
%TO.N,Net-(Q3-B)*%
X141537265Y-52764265D02*
X139248261Y-50475261D01*
%TO.N,/GPIO46_STRAPPING*%
X138973000Y-52232000D02*
X122393000Y-52232000D01*
X148082000Y-61341000D02*
X138973000Y-52232000D01*
X149860000Y-61341000D02*
X148082000Y-61341000D01*
X122393000Y-52232000D02*
X121158000Y-53467000D01*
%TO.N,/GPIO3_STRAPPING*%
X131404529Y-57658000D02*
X127848529Y-54102000D01*
X138978471Y-62611000D02*
X134025471Y-57658000D01*
X127848529Y-54102000D02*
X120269000Y-54102000D01*
X134025471Y-57658000D02*
X131404529Y-57658000D01*
X148590000Y-62611000D02*
X138978471Y-62611000D01*
%TO.N,/BUZZER*%
X116078000Y-84963000D02*
X109982000Y-78867000D01*
X109982000Y-78867000D02*
X109982000Y-55126833D01*
X109982000Y-55126833D02*
X113038833Y-52070000D01*
X113038833Y-52070000D02*
X114392000Y-52070000D01*
%TO.N,/LORA_CS*%
X120396000Y-67945000D02*
X120396000Y-66674000D01*
%TO.N,/LORA_SCK*%
X91694000Y-85344000D02*
X93091000Y-86741000D01*
X129032000Y-72009000D02*
X129032000Y-71882000D01*
X113538000Y-80391000D02*
X114935000Y-78994000D01*
X103505000Y-86741000D02*
X107442000Y-82804000D01*
X93091000Y-86741000D02*
X103505000Y-86741000D01*
X127889000Y-76073000D02*
X127889000Y-75854000D01*
X129032000Y-71882000D02*
X132334000Y-68580000D01*
X132334000Y-57023000D02*
X131191000Y-55880000D01*
X91694000Y-64770000D02*
X91694000Y-85344000D01*
X127508000Y-76454000D02*
X127889000Y-76073000D01*
X128016000Y-73025000D02*
X129032000Y-72009000D01*
X132334000Y-68580000D02*
X132334000Y-60960000D01*
X131191000Y-55880000D02*
X131191000Y-52832000D01*
X127508000Y-77101000D02*
X127508000Y-76454000D01*
%TO.N,/TFT_XP*%
X116770686Y-44069000D02*
X122555000Y-49853314D01*
X105352313Y-42602687D02*
X106818626Y-44069000D01*
X106818626Y-44069000D02*
X116770686Y-44069000D01*
X122555000Y-49853314D02*
X122555000Y-51562000D01*
%TO.N,/TFT_YP*%
X116967000Y-44831000D02*
X104140000Y-44831000D01*
X117094000Y-44958000D02*
X117094000Y-45339000D01*
X104140000Y-44831000D02*
X99441000Y-49530000D01*
X117094000Y-44958000D02*
X116967000Y-44831000D01*
%TO.N,/LORA_G0*%
X124968000Y-67945000D02*
X124968000Y-60411529D01*
X124968000Y-60411529D02*
X123479000Y-58922529D01*
X123479000Y-58385000D02*
X123825000Y-58039000D01*
X123479000Y-58922529D02*
X123479000Y-58385000D01*
X123825000Y-58039000D02*
X125603000Y-58039000D01*
%TO.N,/LORA_MISO*%
X114808000Y-78232000D02*
X114808000Y-78209402D01*
X106299000Y-81534000D02*
X108712000Y-81534000D01*
X113157000Y-78232000D02*
X114808000Y-78232000D01*
X92583000Y-84328000D02*
X93980000Y-85725000D01*
X102108000Y-85725000D02*
X106299000Y-81534000D01*
X137287000Y-60071000D02*
X137287000Y-58166000D01*
X92583000Y-67056000D02*
X92583000Y-84328000D01*
X114808000Y-78209402D02*
X114803480Y-78204882D01*
X93980000Y-85725000D02*
X102108000Y-85725000D01*
%TO.N,/LORA_RST*%
X116078000Y-67310000D02*
X116078000Y-65786000D01*
%TO.N,/LORA_MOSI*%
X90805000Y-86233000D02*
X90805000Y-57404000D01*
X122936000Y-68072000D02*
X122936000Y-66674000D01*
X90805000Y-86233000D02*
X92202000Y-87630000D01*
X109728000Y-80518000D02*
X109728000Y-82296000D01*
X104394000Y-87630000D02*
X92202000Y-87630000D01*
X109728000Y-82296000D02*
X104394000Y-87630000D01*
X113157000Y-77089000D02*
X115062000Y-77089000D01*
%TO.N,/TFT_DC*%
X102743000Y-50038000D02*
X100965000Y-51816000D01*
X105283000Y-45466000D02*
X102743000Y-48006000D01*
X111760000Y-45466000D02*
X113284000Y-46990000D01*
X102743000Y-48006000D02*
X102743000Y-50038000D01*
X113284000Y-46990000D02*
X114392000Y-46990000D01*
X105283000Y-45466000D02*
X111760000Y-45466000D01*
%TO.N,/TFT_CS*%
X113030000Y-41275000D02*
X116459000Y-41275000D01*
X103632000Y-48641000D02*
X103632000Y-50546000D01*
X103632000Y-50546000D02*
X101219000Y-52959000D01*
X105791000Y-46482000D02*
X110871000Y-46482000D01*
X101219000Y-52959000D02*
X101219000Y-53975000D01*
X116459000Y-41275000D02*
X117348000Y-42164000D01*
X105791000Y-46482000D02*
X103632000Y-48641000D01*
%TO.N,/TFT_YM*%
X103632000Y-40640000D02*
X130810000Y-40640000D01*
X102870000Y-41402000D02*
X103632000Y-40640000D01*
%TO.N,/TFT_XM*%
X117186000Y-43399000D02*
X117221000Y-43434000D01*
X107280000Y-43399000D02*
X117186000Y-43399000D01*
X105918000Y-42037000D02*
X107280000Y-43399000D01*
%TO.N,/TFT_RST*%
X112649000Y-71628000D02*
X112649000Y-65659000D01*
X93980000Y-69850000D02*
X99187000Y-69850000D01*
X112649000Y-65659000D02*
X113538000Y-64770000D01*
X102616000Y-77978000D02*
X107823000Y-77978000D01*
X100965000Y-76327000D02*
X102616000Y-77978000D01*
X100965000Y-71628000D02*
X100965000Y-76327000D01*
X99187000Y-69850000D02*
X100965000Y-71628000D01*
X113538000Y-64770000D02*
X115189000Y-64770000D01*
%TD*%
%TA.AperFunction,Conductor*%
%TO.N,GND*%
G36*
X163872075Y-52516993D02*
G01*
X163937901Y-52631007D01*
X164030993Y-52724099D01*
X164145007Y-52789925D01*
X164208590Y-52806962D01*
X163572208Y-53443342D01*
X163561788Y-53495193D01*
X163513172Y-53545376D01*
X163491032Y-53555205D01*
X163418674Y-53579182D01*
X163418663Y-53579187D01*
X163269342Y-53671289D01*
X163145289Y-53795342D01*
X163053187Y-53944663D01*
X163053183Y-53944673D01*
X163050335Y-53953268D01*
X163010560Y-54010711D01*
X162946044Y-54037531D01*
X162877268Y-54025214D01*
X162840517Y-53996233D01*
X162840324Y-53996427D01*
X162838682Y-53994785D01*
X162837642Y-53993965D01*
X162836494Y-53992597D01*
X162669402Y-53825506D01*
X162669396Y-53825501D01*
X162483842Y-53695575D01*
X162440217Y-53640998D01*
X162433023Y-53571500D01*
X162464546Y-53509145D01*
X162483842Y-53492425D01*
X162553825Y-53443422D01*
X162669401Y-53362495D01*
X162836495Y-53195401D01*
X162966732Y-53009403D01*
X163021307Y-52965780D01*
X163090805Y-52958586D01*
X163153160Y-52990109D01*
X163169880Y-53009405D01*
X163223073Y-53085373D01*
X163855037Y-52453409D01*
X163872075Y-52516993D01*
G37*
%TD.AperFunction*%
%TA.AperFunction,Conductor*%
G36*
X163872075Y-49976993D02*
G01*
X163937901Y-50091007D01*
X164030993Y-50184099D01*
X164145007Y-50249925D01*
X164208590Y-50266962D01*
X163576625Y-50898925D01*
X163653031Y-50952425D01*
X163696655Y-51007002D01*
X163703848Y-51076501D01*
X163672326Y-51138855D01*
X163653029Y-51155576D01*
X163576625Y-51209072D01*
X164208590Y-51841037D01*
X164145007Y-51858075D01*
X164030993Y-51923901D01*
X163937901Y-52016993D01*
X163872075Y-52131007D01*
X163855037Y-52194589D01*
X163223073Y-51562626D01*
X163169881Y-51638594D01*
X163115304Y-51682219D01*
X163045806Y-51689413D01*
X162983451Y-51657891D01*
X162966730Y-51638594D01*
X162836494Y-51452597D01*
X162669402Y-51285506D01*
X162669396Y-51285501D01*
X162483842Y-51155575D01*
X162440217Y-51100998D01*
X162433023Y-51031500D01*
X162464546Y-50969145D01*
X162483842Y-50952425D01*
X162564475Y-50895965D01*
X162669401Y-50822495D01*
X162836495Y-50655401D01*
X162966732Y-50469403D01*
X163021307Y-50425780D01*
X163090805Y-50418586D01*
X163153160Y-50450109D01*
X163169880Y-50469405D01*
X163223073Y-50545373D01*
X163855037Y-49913409D01*
X163872075Y-49976993D01*
G37*
%TD.AperFunction*%
%TA.AperFunction,Conductor*%
G36*
X163152855Y-47910546D02*
G01*
X163169575Y-47929842D01*
X163299500Y-48115395D01*
X163299505Y-48115401D01*
X163466599Y-48282495D01*
X163652158Y-48412425D01*
X163652594Y-48412730D01*
X163696218Y-48467307D01*
X163703411Y-48536806D01*
X163671889Y-48599160D01*
X163652593Y-48615880D01*
X163576626Y-48669072D01*
X163576625Y-48669072D01*
X164208590Y-49301037D01*
X164145007Y-49318075D01*
X164030993Y-49383901D01*
X163937901Y-49476993D01*
X163872075Y-49591007D01*
X163855037Y-49654589D01*
X163223073Y-49022626D01*
X163169881Y-49098594D01*
X163115304Y-49142219D01*
X163045806Y-49149413D01*
X162983451Y-49117891D01*
X162966730Y-49098594D01*
X162836494Y-48912597D01*
X162669402Y-48745506D01*
X162669396Y-48745501D01*
X162483842Y-48615575D01*
X162440217Y-48560998D01*
X162433023Y-48491500D01*
X162464546Y-48429145D01*
X162483842Y-48412425D01*
X162564475Y-48355965D01*
X162669401Y-48282495D01*
X162836495Y-48115401D01*
X162966425Y-47929842D01*
X163021002Y-47886217D01*
X163090500Y-47879023D01*
X163152855Y-47910546D01*
G37*
%TD.AperFunction*%
%TA.AperFunction,Conductor*%
G36*
X163872075Y-44896993D02*
G01*
X163937901Y-45011007D01*
X164030993Y-45104099D01*
X164145007Y-45169925D01*
X164208590Y-45186962D01*
X163576625Y-45818925D01*
X163652594Y-45872119D01*
X163696219Y-45926696D01*
X163703413Y-45996194D01*
X163671890Y-46058549D01*
X163652595Y-46075269D01*
X163466594Y-46205508D01*
X163299505Y-46372597D01*
X163169575Y-46558158D01*
X163114998Y-46601783D01*
X163045500Y-46608977D01*
X162983145Y-46577454D01*
X162966425Y-46558158D01*
X162836494Y-46372597D01*
X162669402Y-46205506D01*
X162669396Y-46205501D01*
X162483842Y-46075575D01*
X162440217Y-46020998D01*
X162433023Y-45951500D01*
X162464546Y-45889145D01*
X162483842Y-45872425D01*
X162571867Y-45810789D01*
X162669401Y-45742495D01*
X162836495Y-45575401D01*
X162966732Y-45389403D01*
X163021307Y-45345780D01*
X163090805Y-45338586D01*
X163153160Y-45370109D01*
X163169880Y-45389405D01*
X163223073Y-45465373D01*
X163855037Y-44833409D01*
X163872075Y-44896993D01*
G37*
%TD.AperFunction*%
%TA.AperFunction,Conductor*%
G36*
X175210539Y-37350185D02*
G01*
X175256294Y-37402989D01*
X175267500Y-37454500D01*
X175267500Y-99705500D01*
X175247815Y-99772539D01*
X175195011Y-99818294D01*
X175143500Y-99829500D01*
X85968500Y-99829500D01*
X85901461Y-99809815D01*
X85855706Y-99757011D01*
X85844500Y-99705500D01*
X85844500Y-96271711D01*
X87303500Y-96271711D01*
X87303500Y-96514288D01*
X87335161Y-96754785D01*
X87397947Y-96989104D01*
X87447087Y-97107738D01*
X87490776Y-97213212D01*
X87612064Y-97423289D01*
X87612066Y-97423292D01*
X87612067Y-97423293D01*
X87759733Y-97615736D01*
X87759739Y-97615743D01*
X87931256Y-97787260D01*
X87931262Y-97787265D01*
X88123711Y-97934936D01*
X88333788Y-98056224D01*
X88557900Y-98149054D01*
X88792211Y-98211838D01*
X88972586Y-98235584D01*
X89032711Y-98243500D01*
X89032712Y-98243500D01*
X89275289Y-98243500D01*
X89323388Y-98237167D01*
X89515789Y-98211838D01*
X89750100Y-98149054D01*
X89974212Y-98056224D01*
X90184289Y-97934936D01*
X90376738Y-97787265D01*
X90548265Y-97615738D01*
X90695936Y-97423289D01*
X90817224Y-97213212D01*
X90910054Y-96989100D01*
X90972838Y-96754789D01*
X91004500Y-96514288D01*
X91004500Y-96271712D01*
X90972838Y-96031211D01*
X90910054Y-95796900D01*
X90817224Y-95572788D01*
X90695936Y-95362711D01*
X90548265Y-95170262D01*
X90548260Y-95170256D01*
X90376743Y-94998739D01*
X90376736Y-94998733D01*
X90184293Y-94851067D01*
X90184292Y-94851066D01*
X90184289Y-94851064D01*
X89974212Y-94729776D01*
X89974205Y-94729773D01*
X89750104Y-94636947D01*
X89515785Y-94574161D01*
X89275289Y-94542500D01*
X89275288Y-94542500D01*
X89032712Y-94542500D01*
X89032711Y-94542500D01*
X88792214Y-94574161D01*
X88557895Y-94636947D01*
X88333794Y-94729773D01*
X88333785Y-94729777D01*
X88123706Y-94851067D01*
X87931263Y-94998733D01*
X87931256Y-94998739D01*
X87759739Y-95170256D01*
X87759733Y-95170263D01*
X87612067Y-95362706D01*
X87490777Y-95572785D01*
X87490773Y-95572794D01*
X87397947Y-95796895D01*
X87335161Y-96031214D01*
X87303500Y-96271711D01*
X85844500Y-96271711D01*
X85844500Y-92074350D01*
X85864185Y-92007311D01*
X85916989Y-91961556D01*
X85986147Y-91951612D01*
X86049703Y-91980637D01*
X86078985Y-92018056D01*
X86119130Y-92096846D01*
X86267201Y-92300649D01*
X86267205Y-92300654D01*
X86445345Y-92478794D01*
X86445350Y-92478798D01*
X86599784Y-92591000D01*
X86649155Y-92626870D01*
X86774823Y-92690901D01*
X86873616Y-92741239D01*
X86873618Y-92741239D01*
X86873621Y-92741241D01*
X87113215Y-92819090D01*
X87362038Y-92858500D01*
X87362039Y-92858500D01*
X88913961Y-92858500D01*
X88913962Y-92858500D01*
X89162785Y-92819090D01*
X89402379Y-92741241D01*
X89626845Y-92626870D01*
X89830656Y-92478793D01*
X90008793Y-92300656D01*
X90156870Y-92096845D01*
X90271241Y-91872379D01*
X90349090Y-91632785D01*
X90388500Y-91383962D01*
X90388500Y-91132038D01*
X90349090Y-90883215D01*
X90271241Y-90643621D01*
X90271239Y-90643618D01*
X90271239Y-90643616D01*
X90197015Y-90497944D01*
X90156870Y-90419155D01*
X90137952Y-90393117D01*
X90008798Y-90215350D01*
X90008794Y-90215345D01*
X89830654Y-90037205D01*
X89830649Y-90037201D01*
X89742837Y-89973402D01*
X89700171Y-89918072D01*
X89694192Y-89848459D01*
X89705237Y-89816789D01*
X89796418Y-89637837D01*
X89857218Y-89450716D01*
X89863984Y-89408000D01*
X88513278Y-89408000D01*
X88557333Y-89331694D01*
X88588000Y-89217244D01*
X88588000Y-89098756D01*
X88557333Y-88984306D01*
X88513278Y-88908000D01*
X89863984Y-88908000D01*
X89857218Y-88865283D01*
X89796418Y-88678162D01*
X89707095Y-88502856D01*
X89591444Y-88343678D01*
X89493801Y-88246035D01*
X89460316Y-88184712D01*
X89465300Y-88115020D01*
X89493801Y-88070673D01*
X89493802Y-88070672D01*
X89591828Y-87972646D01*
X89707524Y-87813405D01*
X89796884Y-87638025D01*
X89847844Y-87481186D01*
X89887282Y-87423511D01*
X89951640Y-87396313D01*
X90020487Y-87408228D01*
X90053456Y-87431824D01*
X90145181Y-87523549D01*
X90178666Y-87584872D01*
X90181500Y-87611230D01*
X90181500Y-87830918D01*
X90181500Y-87830920D01*
X90181499Y-87830920D01*
X90210340Y-87975907D01*
X90210343Y-87975917D01*
X90266914Y-88112492D01*
X90266915Y-88112494D01*
X90266916Y-88112495D01*
X90279945Y-88131995D01*
X90299812Y-88161727D01*
X90299813Y-88161730D01*
X90349046Y-88235414D01*
X90349052Y-88235421D01*
X96241181Y-94127549D01*
X96274666Y-94188872D01*
X96277500Y-94215230D01*
X96277500Y-95585028D01*
X96270542Y-95625982D01*
X96242631Y-95705747D01*
X96222435Y-95884996D01*
X96222435Y-95885003D01*
X96242630Y-96064249D01*
X96242631Y-96064254D01*
X96302211Y-96234523D01*
X96325578Y-96271711D01*
X96398184Y-96387262D01*
X96525738Y-96514816D01*
X96678478Y-96610789D01*
X96848745Y-96670368D01*
X96848750Y-96670369D01*
X97027996Y-96690565D01*
X97028000Y-96690565D01*
X97028004Y-96690565D01*
X97207249Y-96670369D01*
X97207252Y-96670368D01*
X97207255Y-96670368D01*
X97377522Y-96610789D01*
X97530262Y-96514816D01*
X97657816Y-96387262D01*
X97753789Y-96234522D01*
X97813368Y-96064255D01*
X97817091Y-96031211D01*
X97833565Y-95885003D01*
X97833565Y-95884996D01*
X97819899Y-95763711D01*
X169726500Y-95763711D01*
X169726500Y-96006288D01*
X169758161Y-96246785D01*
X169820947Y-96481104D01*
X169907709Y-96690565D01*
X169913776Y-96705212D01*
X170035064Y-96915289D01*
X170035066Y-96915292D01*
X170035067Y-96915293D01*
X170182733Y-97107736D01*
X170182739Y-97107743D01*
X170354256Y-97279260D01*
X170354262Y-97279265D01*
X170546711Y-97426936D01*
X170756788Y-97548224D01*
X170980900Y-97641054D01*
X171215211Y-97703838D01*
X171395586Y-97727584D01*
X171455711Y-97735500D01*
X171455712Y-97735500D01*
X171698289Y-97735500D01*
X171746388Y-97729167D01*
X171938789Y-97703838D01*
X172173100Y-97641054D01*
X172397212Y-97548224D01*
X172607289Y-97426936D01*
X172799738Y-97279265D01*
X172971265Y-97107738D01*
X173118936Y-96915289D01*
X173240224Y-96705212D01*
X173333054Y-96481100D01*
X173395838Y-96246789D01*
X173427500Y-96006288D01*
X173427500Y-95763712D01*
X173395838Y-95523211D01*
X173333054Y-95288900D01*
X173240224Y-95064788D01*
X173118936Y-94854711D01*
X172971265Y-94662262D01*
X172971260Y-94662256D01*
X172799743Y-94490739D01*
X172799736Y-94490733D01*
X172607293Y-94343067D01*
X172607292Y-94343066D01*
X172607289Y-94343064D01*
X172397212Y-94221776D01*
X172340978Y-94198483D01*
X172173104Y-94128947D01*
X171938785Y-94066161D01*
X171698289Y-94034500D01*
X171698288Y-94034500D01*
X171455712Y-94034500D01*
X171455711Y-94034500D01*
X171215214Y-94066161D01*
X170980895Y-94128947D01*
X170756794Y-94221773D01*
X170756785Y-94221777D01*
X170546706Y-94343067D01*
X170354263Y-94490733D01*
X170354256Y-94490739D01*
X170182739Y-94662256D01*
X170182733Y-94662263D01*
X170035067Y-94854706D01*
X169913777Y-95064785D01*
X169913773Y-95064794D01*
X169820947Y-95288895D01*
X169758161Y-95523214D01*
X169726500Y-95763711D01*
X97819899Y-95763711D01*
X97813368Y-95705747D01*
X97813368Y-95705745D01*
X97785458Y-95625982D01*
X97778500Y-95585028D01*
X97778500Y-93779079D01*
X97749659Y-93634092D01*
X97749658Y-93634091D01*
X97749658Y-93634087D01*
X97693084Y-93497505D01*
X97660186Y-93448270D01*
X97660185Y-93448268D01*
X97610956Y-93374589D01*
X97610952Y-93374584D01*
X96279503Y-92043135D01*
X125198500Y-92043135D01*
X125198500Y-94138870D01*
X125198501Y-94138876D01*
X125204908Y-94198483D01*
X125255202Y-94333328D01*
X125255206Y-94333335D01*
X125341452Y-94448544D01*
X125341455Y-94448547D01*
X125456664Y-94534793D01*
X125456671Y-94534797D01*
X125591517Y-94585091D01*
X125591516Y-94585091D01*
X125598444Y-94585835D01*
X125651127Y-94591500D01*
X127746872Y-94591499D01*
X127806483Y-94585091D01*
X127941331Y-94534796D01*
X128056546Y-94448546D01*
X128142796Y-94333331D01*
X128193091Y-94198483D01*
X128199500Y-94138873D01*
X128199499Y-93090994D01*
X130193859Y-93090994D01*
X130193859Y-93091005D01*
X130214385Y-93338729D01*
X130214387Y-93338738D01*
X130275412Y-93579717D01*
X130375266Y-93807364D01*
X130475564Y-93960882D01*
X131216037Y-93220409D01*
X131233075Y-93283993D01*
X131298901Y-93398007D01*
X131391993Y-93491099D01*
X131506007Y-93556925D01*
X131569590Y-93573962D01*
X130828942Y-94314609D01*
X130875768Y-94351055D01*
X130875770Y-94351056D01*
X131094385Y-94469364D01*
X131094396Y-94469369D01*
X131329506Y-94550083D01*
X131574707Y-94591000D01*
X131823293Y-94591000D01*
X132068493Y-94550083D01*
X132303603Y-94469369D01*
X132303614Y-94469364D01*
X132522228Y-94351057D01*
X132522231Y-94351055D01*
X132569056Y-94314609D01*
X131828409Y-93573962D01*
X131891993Y-93556925D01*
X132006007Y-93491099D01*
X132099099Y-93398007D01*
X132164925Y-93283993D01*
X132181962Y-93220409D01*
X132922434Y-93960882D01*
X133022731Y-93807369D01*
X133122587Y-93579717D01*
X133183612Y-93338738D01*
X133183614Y-93338729D01*
X133204141Y-93091005D01*
X133204141Y-93090994D01*
X133183614Y-92843270D01*
X133183612Y-92843261D01*
X133122587Y-92602282D01*
X133022731Y-92374630D01*
X132922434Y-92221116D01*
X132181962Y-92961589D01*
X132164925Y-92898007D01*
X132099099Y-92783993D01*
X132006007Y-92690901D01*
X131891993Y-92625075D01*
X131828410Y-92608037D01*
X132569057Y-91867390D01*
X132569056Y-91867389D01*
X132522229Y-91830943D01*
X132303614Y-91712635D01*
X132303603Y-91712630D01*
X132068493Y-91631916D01*
X131823293Y-91591000D01*
X131574707Y-91591000D01*
X131329506Y-91631916D01*
X131094396Y-91712630D01*
X131094390Y-91712632D01*
X130875761Y-91830949D01*
X130828942Y-91867388D01*
X130828942Y-91867390D01*
X131569590Y-92608037D01*
X131506007Y-92625075D01*
X131391993Y-92690901D01*
X131298901Y-92783993D01*
X131233075Y-92898007D01*
X131216037Y-92961589D01*
X130475564Y-92221116D01*
X130375267Y-92374632D01*
X130275412Y-92602282D01*
X130214387Y-92843261D01*
X130214385Y-92843270D01*
X130193859Y-93090994D01*
X128199499Y-93090994D01*
X128199499Y-92043128D01*
X128193091Y-91983517D01*
X128181191Y-91951612D01*
X128142797Y-91848671D01*
X128142793Y-91848664D01*
X128056547Y-91733455D01*
X128056544Y-91733452D01*
X127941335Y-91647206D01*
X127941328Y-91647202D01*
X127806482Y-91596908D01*
X127806483Y-91596908D01*
X127746883Y-91590501D01*
X127746881Y-91590500D01*
X127746873Y-91590500D01*
X127746864Y-91590500D01*
X125651129Y-91590500D01*
X125651123Y-91590501D01*
X125591516Y-91596908D01*
X125456671Y-91647202D01*
X125456664Y-91647206D01*
X125341455Y-91733452D01*
X125341452Y-91733455D01*
X125255206Y-91848664D01*
X125255202Y-91848671D01*
X125204908Y-91983517D01*
X125198501Y-92043116D01*
X125198501Y-92043123D01*
X125198500Y-92043135D01*
X96279503Y-92043135D01*
X92678549Y-88442181D01*
X92645064Y-88380858D01*
X92650048Y-88311166D01*
X92691920Y-88255233D01*
X92757384Y-88230816D01*
X92766230Y-88230500D01*
X104307331Y-88230500D01*
X104307347Y-88230501D01*
X104314943Y-88230501D01*
X104473054Y-88230501D01*
X104473057Y-88230501D01*
X104625785Y-88189577D01*
X104675904Y-88160639D01*
X104762716Y-88110520D01*
X104874520Y-87998716D01*
X104874520Y-87998714D01*
X104884728Y-87988507D01*
X104884730Y-87988504D01*
X110086506Y-82786728D01*
X110086511Y-82786724D01*
X110096714Y-82776520D01*
X110096716Y-82776520D01*
X110208520Y-82664716D01*
X110261925Y-82572215D01*
X110287577Y-82527785D01*
X110328500Y-82375057D01*
X110328500Y-82216943D01*
X110328500Y-81418568D01*
X110348185Y-81351529D01*
X110400989Y-81305774D01*
X110470147Y-81295830D01*
X110533703Y-81324855D01*
X110540181Y-81330887D01*
X116695668Y-87486374D01*
X116695678Y-87486385D01*
X116700008Y-87490715D01*
X116700009Y-87490716D01*
X116811813Y-87602520D01*
X116811815Y-87602521D01*
X116811819Y-87602524D01*
X116948738Y-87681573D01*
X116948745Y-87681577D01*
X117051302Y-87709057D01*
X117101471Y-87722500D01*
X117101472Y-87722500D01*
X132513588Y-87722500D01*
X132580627Y-87742185D01*
X132590903Y-87749555D01*
X132593736Y-87751814D01*
X132593738Y-87751816D01*
X132746478Y-87847789D01*
X132916745Y-87907368D01*
X132916750Y-87907369D01*
X133095996Y-87927565D01*
X133096000Y-87927565D01*
X133096004Y-87927565D01*
X133275249Y-87907369D01*
X133275252Y-87907368D01*
X133275255Y-87907368D01*
X133445522Y-87847789D01*
X133598262Y-87751816D01*
X133725816Y-87624262D01*
X133821789Y-87471522D01*
X133881368Y-87301255D01*
X133881369Y-87301249D01*
X133901565Y-87122003D01*
X133901565Y-87121996D01*
X133881369Y-86942750D01*
X133881368Y-86942745D01*
X133821788Y-86772476D01*
X133762409Y-86677975D01*
X133725816Y-86619738D01*
X133598262Y-86492184D01*
X133483158Y-86419859D01*
X133445523Y-86396211D01*
X133275254Y-86336631D01*
X133275249Y-86336630D01*
X133096004Y-86316435D01*
X133095996Y-86316435D01*
X132916750Y-86336630D01*
X132916745Y-86336631D01*
X132746476Y-86396211D01*
X132593736Y-86492185D01*
X132590903Y-86494445D01*
X132588724Y-86495334D01*
X132587842Y-86495889D01*
X132587744Y-86495734D01*
X132526217Y-86520855D01*
X132513588Y-86521500D01*
X120291815Y-86521500D01*
X120224776Y-86501815D01*
X120179021Y-86449011D01*
X120168595Y-86383616D01*
X120185565Y-86233002D01*
X120185565Y-86232996D01*
X120165369Y-86053750D01*
X120165368Y-86053745D01*
X120105789Y-85883478D01*
X120009816Y-85730738D01*
X119882262Y-85603184D01*
X119832382Y-85571842D01*
X119729524Y-85507212D01*
X119729523Y-85507211D01*
X119689544Y-85493222D01*
X119632769Y-85452500D01*
X119607022Y-85387547D01*
X119606500Y-85376181D01*
X119606500Y-80382135D01*
X120188500Y-80382135D01*
X120188500Y-82177870D01*
X120188501Y-82177876D01*
X120194908Y-82237483D01*
X120245202Y-82372328D01*
X120245206Y-82372335D01*
X120331452Y-82487544D01*
X120331455Y-82487547D01*
X120446664Y-82573793D01*
X120446671Y-82573797D01*
X120581517Y-82624091D01*
X120581516Y-82624091D01*
X120587600Y-82624745D01*
X120641127Y-82630500D01*
X122436872Y-82630499D01*
X122496483Y-82624091D01*
X122631331Y-82573796D01*
X122746546Y-82487546D01*
X122832796Y-82372331D01*
X122843737Y-82342998D01*
X122852874Y-82318498D01*
X122882002Y-82240401D01*
X122923872Y-82184468D01*
X122989337Y-82160050D01*
X123057610Y-82174901D01*
X123085865Y-82196053D01*
X123207917Y-82318105D01*
X123401421Y-82453600D01*
X123615507Y-82553429D01*
X123615516Y-82553433D01*
X123829000Y-82610634D01*
X123829000Y-81713012D01*
X123886007Y-81745925D01*
X124013174Y-81780000D01*
X124144826Y-81780000D01*
X124271993Y-81745925D01*
X124329000Y-81713012D01*
X124329000Y-82610633D01*
X124542483Y-82553433D01*
X124542492Y-82553429D01*
X124756578Y-82453600D01*
X124950082Y-82318105D01*
X125117105Y-82151082D01*
X125247119Y-81965405D01*
X125301696Y-81921781D01*
X125371195Y-81914588D01*
X125433549Y-81946110D01*
X125450269Y-81965405D01*
X125580505Y-82151401D01*
X125747599Y-82318495D01*
X125828378Y-82375057D01*
X125941165Y-82454032D01*
X125941167Y-82454033D01*
X125941170Y-82454035D01*
X126155337Y-82553903D01*
X126383592Y-82615063D01*
X126560034Y-82630500D01*
X126618999Y-82635659D01*
X126619000Y-82635659D01*
X126619001Y-82635659D01*
X126677966Y-82630500D01*
X126854408Y-82615063D01*
X127082663Y-82553903D01*
X127296830Y-82454035D01*
X127490401Y-82318495D01*
X127657495Y-82151401D01*
X127787425Y-81965842D01*
X127842002Y-81922217D01*
X127911500Y-81915023D01*
X127973855Y-81946546D01*
X127990575Y-81965842D01*
X128120500Y-82151395D01*
X128120505Y-82151401D01*
X128287599Y-82318495D01*
X128368378Y-82375057D01*
X128481165Y-82454032D01*
X128481167Y-82454033D01*
X128481170Y-82454035D01*
X128695337Y-82553903D01*
X128923592Y-82615063D01*
X129100034Y-82630500D01*
X129158999Y-82635659D01*
X129159000Y-82635659D01*
X129159001Y-82635659D01*
X129217966Y-82630500D01*
X129394408Y-82615063D01*
X129622663Y-82553903D01*
X129836830Y-82454035D01*
X130030401Y-82318495D01*
X130197495Y-82151401D01*
X130327425Y-81965842D01*
X130382002Y-81922217D01*
X130451500Y-81915023D01*
X130513855Y-81946546D01*
X130530575Y-81965842D01*
X130660500Y-82151395D01*
X130660505Y-82151401D01*
X130827599Y-82318495D01*
X130908378Y-82375057D01*
X131021165Y-82454032D01*
X131021167Y-82454033D01*
X131021170Y-82454035D01*
X131235337Y-82553903D01*
X131463592Y-82615063D01*
X131640034Y-82630500D01*
X131698999Y-82635659D01*
X131699000Y-82635659D01*
X131699001Y-82635659D01*
X131757966Y-82630500D01*
X131934408Y-82615063D01*
X132162663Y-82553903D01*
X132376830Y-82454035D01*
X132570401Y-82318495D01*
X132737495Y-82151401D01*
X132867425Y-81965842D01*
X132922002Y-81922217D01*
X132991500Y-81915023D01*
X133053855Y-81946546D01*
X133070575Y-81965842D01*
X133200500Y-82151395D01*
X133200505Y-82151401D01*
X133367599Y-82318495D01*
X133448378Y-82375057D01*
X133561165Y-82454032D01*
X133561167Y-82454033D01*
X133561170Y-82454035D01*
X133775337Y-82553903D01*
X134003592Y-82615063D01*
X134180034Y-82630500D01*
X134238999Y-82635659D01*
X134239000Y-82635659D01*
X134239001Y-82635659D01*
X134297966Y-82630500D01*
X134474408Y-82615063D01*
X134702663Y-82553903D01*
X134916830Y-82454035D01*
X135110401Y-82318495D01*
X135277495Y-82151401D01*
X135407425Y-81965842D01*
X135462002Y-81922217D01*
X135531500Y-81915023D01*
X135593855Y-81946546D01*
X135610575Y-81965842D01*
X135740500Y-82151395D01*
X135740505Y-82151401D01*
X135907599Y-82318495D01*
X135988378Y-82375057D01*
X136101165Y-82454032D01*
X136101167Y-82454033D01*
X136101170Y-82454035D01*
X136315337Y-82553903D01*
X136543592Y-82615063D01*
X136720034Y-82630500D01*
X136778999Y-82635659D01*
X136779000Y-82635659D01*
X136779001Y-82635659D01*
X136837966Y-82630500D01*
X137014408Y-82615063D01*
X137242663Y-82553903D01*
X137456830Y-82454035D01*
X137650401Y-82318495D01*
X137817495Y-82151401D01*
X137953035Y-81957830D01*
X138052903Y-81743663D01*
X138114063Y-81515408D01*
X138134659Y-81280000D01*
X138114063Y-81044592D01*
X138052903Y-80816337D01*
X137953035Y-80602171D01*
X137947731Y-80594595D01*
X137817494Y-80408597D01*
X137650402Y-80241506D01*
X137650395Y-80241501D01*
X137456834Y-80105967D01*
X137456830Y-80105965D01*
X137449399Y-80102500D01*
X137242663Y-80006097D01*
X137242659Y-80006096D01*
X137242655Y-80006094D01*
X137014413Y-79944938D01*
X137014403Y-79944936D01*
X136779001Y-79924341D01*
X136778999Y-79924341D01*
X136543596Y-79944936D01*
X136543586Y-79944938D01*
X136315344Y-80006094D01*
X136315335Y-80006098D01*
X136101171Y-80105964D01*
X136101169Y-80105965D01*
X135907597Y-80241505D01*
X135740505Y-80408597D01*
X135610575Y-80594158D01*
X135555998Y-80637783D01*
X135486500Y-80644977D01*
X135424145Y-80613454D01*
X135407425Y-80594158D01*
X135277494Y-80408597D01*
X135110402Y-80241506D01*
X135110395Y-80241501D01*
X134916834Y-80105967D01*
X134916830Y-80105965D01*
X134909399Y-80102500D01*
X134702663Y-80006097D01*
X134702659Y-80006096D01*
X134702655Y-80006094D01*
X134474413Y-79944938D01*
X134474403Y-79944936D01*
X134239001Y-79924341D01*
X134238999Y-79924341D01*
X134003596Y-79944936D01*
X134003586Y-79944938D01*
X133775344Y-80006094D01*
X133775335Y-80006098D01*
X133561171Y-80105964D01*
X133561169Y-80105965D01*
X133367597Y-80241505D01*
X133200505Y-80408597D01*
X133070575Y-80594158D01*
X133015998Y-80637783D01*
X132946500Y-80644977D01*
X132884145Y-80613454D01*
X132867425Y-80594158D01*
X132737494Y-80408597D01*
X132570402Y-80241506D01*
X132570395Y-80241501D01*
X132376834Y-80105967D01*
X132376830Y-80105965D01*
X132369399Y-80102500D01*
X132162663Y-80006097D01*
X132162659Y-80006096D01*
X132162655Y-80006094D01*
X131934413Y-79944938D01*
X131934403Y-79944936D01*
X131699001Y-79924341D01*
X131698999Y-79924341D01*
X131463596Y-79944936D01*
X131463586Y-79944938D01*
X131235344Y-80006094D01*
X131235335Y-80006098D01*
X131021171Y-80105964D01*
X131021169Y-80105965D01*
X130827597Y-80241505D01*
X130660505Y-80408597D01*
X130530575Y-80594158D01*
X130475998Y-80637783D01*
X130406500Y-80644977D01*
X130344145Y-80613454D01*
X130327425Y-80594158D01*
X130197494Y-80408597D01*
X130030402Y-80241506D01*
X130030395Y-80241501D01*
X129836834Y-80105967D01*
X129836830Y-80105965D01*
X129829399Y-80102500D01*
X129622663Y-80006097D01*
X129622659Y-80006096D01*
X129622655Y-80006094D01*
X129394413Y-79944938D01*
X129394403Y-79944936D01*
X129159001Y-79924341D01*
X129158999Y-79924341D01*
X128923596Y-79944936D01*
X128923586Y-79944938D01*
X128695344Y-80006094D01*
X128695335Y-80006098D01*
X128481171Y-80105964D01*
X128481169Y-80105965D01*
X128287597Y-80241505D01*
X128120505Y-80408597D01*
X127990575Y-80594158D01*
X127935998Y-80637783D01*
X127866500Y-80644977D01*
X127804145Y-80613454D01*
X127787425Y-80594158D01*
X127657494Y-80408597D01*
X127490402Y-80241506D01*
X127490395Y-80241501D01*
X127296834Y-80105967D01*
X127296830Y-80105965D01*
X127289399Y-80102500D01*
X127082663Y-80006097D01*
X127082659Y-80006096D01*
X127082655Y-80006094D01*
X126854413Y-79944938D01*
X126854403Y-79944936D01*
X126619001Y-79924341D01*
X126618999Y-79924341D01*
X126383596Y-79944936D01*
X126383586Y-79944938D01*
X126155344Y-80006094D01*
X126155335Y-80006098D01*
X125941171Y-80105964D01*
X125941169Y-80105965D01*
X125747597Y-80241505D01*
X125580508Y-80408594D01*
X125450269Y-80594595D01*
X125395692Y-80638219D01*
X125326193Y-80645412D01*
X125263839Y-80613890D01*
X125247119Y-80594594D01*
X125117113Y-80408926D01*
X125117108Y-80408920D01*
X124950082Y-80241894D01*
X124756578Y-80106399D01*
X124542492Y-80006570D01*
X124542486Y-80006567D01*
X124329000Y-79949364D01*
X124329000Y-80846988D01*
X124271993Y-80814075D01*
X124144826Y-80780000D01*
X124013174Y-80780000D01*
X123886007Y-80814075D01*
X123829000Y-80846988D01*
X123829000Y-79949364D01*
X123828999Y-79949364D01*
X123615513Y-80006567D01*
X123615507Y-80006570D01*
X123401422Y-80106399D01*
X123401420Y-80106400D01*
X123207926Y-80241886D01*
X123085865Y-80363947D01*
X123024542Y-80397431D01*
X122954850Y-80392447D01*
X122898917Y-80350575D01*
X122882002Y-80319598D01*
X122832797Y-80187671D01*
X122832793Y-80187664D01*
X122746547Y-80072455D01*
X122746544Y-80072452D01*
X122631335Y-79986206D01*
X122631328Y-79986202D01*
X122496482Y-79935908D01*
X122496483Y-79935908D01*
X122436883Y-79929501D01*
X122436881Y-79929500D01*
X122436873Y-79929500D01*
X122436864Y-79929500D01*
X120641129Y-79929500D01*
X120641123Y-79929501D01*
X120581516Y-79935908D01*
X120446671Y-79986202D01*
X120446664Y-79986206D01*
X120331455Y-80072452D01*
X120331452Y-80072455D01*
X120245206Y-80187664D01*
X120245202Y-80187671D01*
X120194908Y-80322517D01*
X120188501Y-80382116D01*
X120188500Y-80382135D01*
X119606500Y-80382135D01*
X119606500Y-75611603D01*
X119626185Y-75544564D01*
X119678989Y-75498809D01*
X119748147Y-75488865D01*
X119782901Y-75499220D01*
X119932337Y-75568903D01*
X120160592Y-75630063D01*
X120337034Y-75645500D01*
X120395999Y-75650659D01*
X120396000Y-75650659D01*
X120396001Y-75650659D01*
X120454966Y-75645500D01*
X120631408Y-75630063D01*
X120859663Y-75568903D01*
X121073830Y-75469035D01*
X121267401Y-75333495D01*
X121434495Y-75166401D01*
X121564425Y-74980842D01*
X121619002Y-74937217D01*
X121688500Y-74930023D01*
X121750855Y-74961546D01*
X121767575Y-74980842D01*
X121897500Y-75166395D01*
X121897505Y-75166401D01*
X122064599Y-75333495D01*
X122146499Y-75390842D01*
X122258165Y-75469032D01*
X122258167Y-75469033D01*
X122258170Y-75469035D01*
X122472337Y-75568903D01*
X122700592Y-75630063D01*
X122877034Y-75645500D01*
X122935999Y-75650659D01*
X122936000Y-75650659D01*
X122936001Y-75650659D01*
X122994966Y-75645500D01*
X123171408Y-75630063D01*
X123399663Y-75568903D01*
X123613830Y-75469035D01*
X123807401Y-75333495D01*
X123974495Y-75166401D01*
X124104425Y-74980842D01*
X124159002Y-74937217D01*
X124228500Y-74930023D01*
X124290855Y-74961546D01*
X124307575Y-74980842D01*
X124437500Y-75166395D01*
X124437505Y-75166401D01*
X124604599Y-75333495D01*
X124686499Y-75390842D01*
X124798165Y-75469032D01*
X124798167Y-75469033D01*
X124798170Y-75469035D01*
X125012337Y-75568903D01*
X125240592Y-75630063D01*
X125417034Y-75645500D01*
X125475999Y-75650659D01*
X125476000Y-75650659D01*
X125476001Y-75650659D01*
X125534966Y-75645500D01*
X125711408Y-75630063D01*
X125939663Y-75568903D01*
X126153830Y-75469035D01*
X126347401Y-75333495D01*
X126514495Y-75166401D01*
X126644425Y-74980842D01*
X126699002Y-74937217D01*
X126768500Y-74930023D01*
X126830855Y-74961546D01*
X126847575Y-74980842D01*
X126977501Y-75166396D01*
X126977506Y-75166402D01*
X127148427Y-75337324D01*
X127147591Y-75338159D01*
X127183053Y-75391461D01*
X127184159Y-75461322D01*
X127169642Y-75494242D01*
X127163209Y-75504480D01*
X127103633Y-75674737D01*
X127103630Y-75674750D01*
X127083435Y-75853996D01*
X127083435Y-75854002D01*
X127094503Y-75952233D01*
X127082449Y-76021055D01*
X127058965Y-76053797D01*
X127027480Y-76085282D01*
X126985196Y-76158522D01*
X126948424Y-76222211D01*
X126948423Y-76222212D01*
X126926607Y-76303631D01*
X126907499Y-76374943D01*
X126907499Y-76374945D01*
X126907499Y-76518589D01*
X126887814Y-76585628D01*
X126880445Y-76595903D01*
X126878184Y-76598737D01*
X126782211Y-76751476D01*
X126722631Y-76921745D01*
X126722630Y-76921750D01*
X126702435Y-77100996D01*
X126702435Y-77101003D01*
X126722630Y-77280249D01*
X126722631Y-77280254D01*
X126782211Y-77450523D01*
X126798055Y-77475738D01*
X126878184Y-77603262D01*
X127005738Y-77730816D01*
X127158478Y-77826789D01*
X127317622Y-77882476D01*
X127328745Y-77886368D01*
X127328750Y-77886369D01*
X127507996Y-77906565D01*
X127508000Y-77906565D01*
X127508004Y-77906565D01*
X127687249Y-77886369D01*
X127687252Y-77886368D01*
X127687255Y-77886368D01*
X127857522Y-77826789D01*
X128010262Y-77730816D01*
X128137816Y-77603262D01*
X128233789Y-77450522D01*
X128293368Y-77280255D01*
X128294720Y-77268255D01*
X128313565Y-77101003D01*
X128313565Y-77100996D01*
X128293369Y-76921750D01*
X128293368Y-76921745D01*
X128233790Y-76751480D01*
X128233789Y-76751478D01*
X128223756Y-76735512D01*
X128204756Y-76668280D01*
X128225122Y-76601444D01*
X128262775Y-76564549D01*
X128391262Y-76483816D01*
X128518816Y-76356262D01*
X128614789Y-76203522D01*
X128674368Y-76033255D01*
X128694565Y-75854000D01*
X128681138Y-75734834D01*
X128674369Y-75674753D01*
X128674368Y-75674751D01*
X128674368Y-75674745D01*
X128651403Y-75609118D01*
X128647841Y-75539340D01*
X128682570Y-75478713D01*
X128697314Y-75466594D01*
X128887401Y-75333495D01*
X129054495Y-75166401D01*
X129184425Y-74980842D01*
X129239002Y-74937217D01*
X129308500Y-74930023D01*
X129370855Y-74961546D01*
X129387575Y-74980842D01*
X129517500Y-75166395D01*
X129517505Y-75166401D01*
X129684599Y-75333495D01*
X129766499Y-75390842D01*
X129878165Y-75469032D01*
X129878167Y-75469033D01*
X129878170Y-75469035D01*
X130092337Y-75568903D01*
X130320592Y-75630063D01*
X130497034Y-75645500D01*
X130555999Y-75650659D01*
X130556000Y-75650659D01*
X130556001Y-75650659D01*
X130614966Y-75645500D01*
X130791408Y-75630063D01*
X131019663Y-75568903D01*
X131233830Y-75469035D01*
X131427401Y-75333495D01*
X131594495Y-75166401D01*
X131724425Y-74980842D01*
X131779002Y-74937217D01*
X131848500Y-74930023D01*
X131910855Y-74961546D01*
X131927575Y-74980842D01*
X132057500Y-75166395D01*
X132057505Y-75166401D01*
X132224599Y-75333495D01*
X132306499Y-75390842D01*
X132418165Y-75469032D01*
X132418167Y-75469033D01*
X132418170Y-75469035D01*
X132632337Y-75568903D01*
X132860592Y-75630063D01*
X133037034Y-75645500D01*
X133095999Y-75650659D01*
X133096000Y-75650659D01*
X133096001Y-75650659D01*
X133154966Y-75645500D01*
X133331408Y-75630063D01*
X133559663Y-75568903D01*
X133773830Y-75469035D01*
X133967401Y-75333495D01*
X134134495Y-75166401D01*
X134264730Y-74980405D01*
X134319307Y-74936781D01*
X134388805Y-74929587D01*
X134451160Y-74961110D01*
X134467879Y-74980405D01*
X134597890Y-75166078D01*
X134764917Y-75333105D01*
X134958421Y-75468600D01*
X135172507Y-75568429D01*
X135172516Y-75568433D01*
X135386000Y-75625634D01*
X135386000Y-74728012D01*
X135443007Y-74760925D01*
X135570174Y-74795000D01*
X135701826Y-74795000D01*
X135828993Y-74760925D01*
X135886000Y-74728012D01*
X135886000Y-75625633D01*
X136099483Y-75568433D01*
X136099492Y-75568429D01*
X136313578Y-75468600D01*
X136507078Y-75333108D01*
X136629133Y-75211053D01*
X136690456Y-75177568D01*
X136760148Y-75182552D01*
X136816082Y-75224423D01*
X136832997Y-75255401D01*
X136882202Y-75387328D01*
X136882206Y-75387335D01*
X136968452Y-75502544D01*
X136968455Y-75502547D01*
X137083664Y-75588793D01*
X137083671Y-75588797D01*
X137218517Y-75639091D01*
X137218516Y-75639091D01*
X137225444Y-75639835D01*
X137278127Y-75645500D01*
X139073872Y-75645499D01*
X139133483Y-75639091D01*
X139268331Y-75588796D01*
X139383546Y-75502546D01*
X139469796Y-75387331D01*
X139520091Y-75252483D01*
X139526500Y-75192873D01*
X139526499Y-73397128D01*
X139520091Y-73337517D01*
X139519002Y-73334598D01*
X139469797Y-73202671D01*
X139469793Y-73202664D01*
X139383547Y-73087455D01*
X139383544Y-73087452D01*
X139268335Y-73001206D01*
X139268328Y-73001202D01*
X139133482Y-72950908D01*
X139133483Y-72950908D01*
X139073883Y-72944501D01*
X139073881Y-72944500D01*
X139073873Y-72944500D01*
X139073864Y-72944500D01*
X137278129Y-72944500D01*
X137278123Y-72944501D01*
X137218516Y-72950908D01*
X137083671Y-73001202D01*
X137083664Y-73001206D01*
X136968455Y-73087452D01*
X136968452Y-73087455D01*
X136882206Y-73202664D01*
X136882202Y-73202671D01*
X136832997Y-73334598D01*
X136791126Y-73390532D01*
X136725661Y-73414949D01*
X136657388Y-73400097D01*
X136629134Y-73378946D01*
X136507082Y-73256894D01*
X136313578Y-73121399D01*
X136099492Y-73021570D01*
X136099486Y-73021567D01*
X135886000Y-72964364D01*
X135886000Y-73861988D01*
X135828993Y-73829075D01*
X135701826Y-73795000D01*
X135570174Y-73795000D01*
X135443007Y-73829075D01*
X135386000Y-73861988D01*
X135386000Y-72964364D01*
X135385999Y-72964364D01*
X135172513Y-73021567D01*
X135172507Y-73021570D01*
X134958422Y-73121399D01*
X134958420Y-73121400D01*
X134764926Y-73256886D01*
X134764920Y-73256891D01*
X134597891Y-73423920D01*
X134597890Y-73423922D01*
X134467880Y-73609595D01*
X134413303Y-73653219D01*
X134343804Y-73660412D01*
X134281450Y-73628890D01*
X134264730Y-73609594D01*
X134134494Y-73423597D01*
X133967402Y-73256506D01*
X133967395Y-73256501D01*
X133942545Y-73239101D01*
X133890518Y-73202671D01*
X133773834Y-73120967D01*
X133773830Y-73120965D01*
X133728334Y-73099750D01*
X133559663Y-73021097D01*
X133559659Y-73021096D01*
X133559655Y-73021094D01*
X133331413Y-72959938D01*
X133331403Y-72959936D01*
X133096001Y-72939341D01*
X133095999Y-72939341D01*
X132860596Y-72959936D01*
X132860586Y-72959938D01*
X132632344Y-73021094D01*
X132632335Y-73021098D01*
X132418171Y-73120964D01*
X132418169Y-73120965D01*
X132224597Y-73256505D01*
X132057505Y-73423597D01*
X131927575Y-73609158D01*
X131872998Y-73652783D01*
X131803500Y-73659977D01*
X131741145Y-73628454D01*
X131724425Y-73609158D01*
X131594494Y-73423597D01*
X131427402Y-73256506D01*
X131427395Y-73256501D01*
X131402545Y-73239101D01*
X131350518Y-73202671D01*
X131233834Y-73120967D01*
X131233830Y-73120965D01*
X131188334Y-73099750D01*
X131019663Y-73021097D01*
X131019659Y-73021096D01*
X131019655Y-73021094D01*
X130791413Y-72959938D01*
X130791403Y-72959936D01*
X130556001Y-72939341D01*
X130555999Y-72939341D01*
X130320596Y-72959936D01*
X130320586Y-72959938D01*
X130092344Y-73021094D01*
X130092335Y-73021098D01*
X129878171Y-73120964D01*
X129878169Y-73120965D01*
X129684597Y-73256505D01*
X129517505Y-73423597D01*
X129387575Y-73609158D01*
X129332998Y-73652783D01*
X129263500Y-73659977D01*
X129201145Y-73628454D01*
X129184425Y-73609158D01*
X129054494Y-73423597D01*
X128887402Y-73256506D01*
X128887396Y-73256501D01*
X128862546Y-73239101D01*
X128818921Y-73184524D01*
X128810450Y-73123634D01*
X128811163Y-73117311D01*
X128838237Y-73052904D01*
X128846690Y-73043543D01*
X129390506Y-72499728D01*
X129390511Y-72499724D01*
X129400714Y-72489520D01*
X129400716Y-72489520D01*
X129512520Y-72377716D01*
X129585843Y-72250716D01*
X129591577Y-72240785D01*
X129608280Y-72178447D01*
X129640371Y-72122862D01*
X132692506Y-69070728D01*
X132692511Y-69070724D01*
X132702714Y-69060520D01*
X132702716Y-69060520D01*
X132814520Y-68948716D01*
X132867259Y-68857368D01*
X132893577Y-68811785D01*
X132934500Y-68659057D01*
X132934500Y-68500943D01*
X132934500Y-66585124D01*
X132954185Y-66518085D01*
X133006989Y-66472330D01*
X133072384Y-66461904D01*
X133086960Y-66463546D01*
X133095999Y-66464565D01*
X133096000Y-66464565D01*
X133096004Y-66464565D01*
X133275249Y-66444369D01*
X133275252Y-66444368D01*
X133275255Y-66444368D01*
X133445522Y-66384789D01*
X133598262Y-66288816D01*
X133598267Y-66288810D01*
X133601097Y-66286555D01*
X133603275Y-66285665D01*
X133604158Y-66285111D01*
X133604255Y-66285265D01*
X133665783Y-66260145D01*
X133678412Y-66259500D01*
X135942588Y-66259500D01*
X136009627Y-66279185D01*
X136019903Y-66286555D01*
X136022736Y-66288814D01*
X136022738Y-66288816D01*
X136175478Y-66384789D01*
X136293778Y-66426184D01*
X136345745Y-66444368D01*
X136345750Y-66444369D01*
X136524996Y-66464565D01*
X136525000Y-66464565D01*
X136525004Y-66464565D01*
X136704249Y-66444369D01*
X136704252Y-66444368D01*
X136704255Y-66444368D01*
X136874522Y-66384789D01*
X137027262Y-66288816D01*
X137154816Y-66161262D01*
X137250789Y-66008522D01*
X137262984Y-65973671D01*
X137303704Y-65916894D01*
X137368656Y-65891145D01*
X137437218Y-65904600D01*
X137467707Y-65926942D01*
X143917849Y-72377084D01*
X143951334Y-72438407D01*
X143946350Y-72508099D01*
X143904478Y-72564032D01*
X143896141Y-72569758D01*
X143769740Y-72649182D01*
X143769737Y-72649184D01*
X143642184Y-72776737D01*
X143546211Y-72929476D01*
X143486631Y-73099745D01*
X143486630Y-73099750D01*
X143466435Y-73278996D01*
X143466435Y-73279003D01*
X143486630Y-73458249D01*
X143486631Y-73458254D01*
X143546211Y-73628523D01*
X143642184Y-73781262D01*
X143769738Y-73908816D01*
X143922478Y-74004789D01*
X144010011Y-74035418D01*
X144092745Y-74064368D01*
X144092750Y-74064369D01*
X144271996Y-74084565D01*
X144272000Y-74084565D01*
X144272004Y-74084565D01*
X144451249Y-74064369D01*
X144451252Y-74064368D01*
X144451255Y-74064368D01*
X144621522Y-74004789D01*
X144774262Y-73908816D01*
X144774267Y-73908810D01*
X144777097Y-73906555D01*
X144779275Y-73905665D01*
X144780158Y-73905111D01*
X144780255Y-73905265D01*
X144841783Y-73880145D01*
X144854412Y-73879500D01*
X145963331Y-73879500D01*
X145963347Y-73879501D01*
X145970943Y-73879501D01*
X146129054Y-73879501D01*
X146129057Y-73879501D01*
X146281785Y-73838577D01*
X146349693Y-73799370D01*
X146418716Y-73759520D01*
X146530520Y-73647716D01*
X146530520Y-73647714D01*
X146540724Y-73637511D01*
X146540728Y-73637506D01*
X147465535Y-72712698D01*
X147526856Y-72679215D01*
X147539311Y-72677163D01*
X147626255Y-72667368D01*
X147796522Y-72607789D01*
X147949262Y-72511816D01*
X148076816Y-72384262D01*
X148172789Y-72231522D01*
X148232368Y-72061255D01*
X148232369Y-72061249D01*
X148252565Y-71882003D01*
X148252565Y-71881996D01*
X148232369Y-71702750D01*
X148232368Y-71702745D01*
X148206215Y-71628003D01*
X148172789Y-71532478D01*
X148160727Y-71513282D01*
X148105045Y-71424664D01*
X148076816Y-71379738D01*
X147949262Y-71252184D01*
X147903141Y-71223204D01*
X147796523Y-71156211D01*
X147626254Y-71096631D01*
X147626249Y-71096630D01*
X147447004Y-71076435D01*
X147446996Y-71076435D01*
X147267750Y-71096630D01*
X147267745Y-71096631D01*
X147097476Y-71156211D01*
X146944737Y-71252184D01*
X146891777Y-71305144D01*
X146830454Y-71338628D01*
X146760762Y-71333643D01*
X146704829Y-71291772D01*
X146699103Y-71283433D01*
X146679818Y-71252740D01*
X146552262Y-71125184D01*
X146399521Y-71029210D01*
X146229249Y-70969630D01*
X146142331Y-70959837D01*
X146077917Y-70932770D01*
X146068534Y-70924298D01*
X139848410Y-64704174D01*
X139533232Y-64388996D01*
X143212435Y-64388996D01*
X143212435Y-64389003D01*
X143232630Y-64568249D01*
X143232631Y-64568254D01*
X143292211Y-64738523D01*
X143333668Y-64804501D01*
X143388184Y-64891262D01*
X143515738Y-65018816D01*
X143668478Y-65114789D01*
X143838745Y-65174368D01*
X143925669Y-65184161D01*
X143990080Y-65211226D01*
X143999465Y-65219700D01*
X144549139Y-65769374D01*
X144549149Y-65769385D01*
X144553479Y-65773715D01*
X144553480Y-65773716D01*
X144665284Y-65885520D01*
X144737031Y-65926942D01*
X144752095Y-65935639D01*
X144752097Y-65935641D01*
X144790151Y-65957611D01*
X144802215Y-65964577D01*
X144954943Y-66005501D01*
X144954946Y-66005501D01*
X145120653Y-66005501D01*
X145120669Y-66005500D01*
X145340588Y-66005500D01*
X145407627Y-66025185D01*
X145417903Y-66032555D01*
X145420736Y-66034814D01*
X145420738Y-66034816D01*
X145573478Y-66130789D01*
X145660565Y-66161262D01*
X145743745Y-66190368D01*
X145743750Y-66190369D01*
X145922996Y-66210565D01*
X145923000Y-66210565D01*
X145923004Y-66210565D01*
X146102249Y-66190369D01*
X146102252Y-66190368D01*
X146102255Y-66190368D01*
X146272522Y-66130789D01*
X146425262Y-66034816D01*
X146552816Y-65907262D01*
X146648789Y-65754522D01*
X146708368Y-65584255D01*
X146709347Y-65575565D01*
X146728565Y-65405003D01*
X146728565Y-65404996D01*
X146708369Y-65225750D01*
X146708368Y-65225745D01*
X146691829Y-65178480D01*
X146648789Y-65055478D01*
X146634595Y-65032889D01*
X146585862Y-64955331D01*
X146552816Y-64902738D01*
X146425262Y-64775184D01*
X146272523Y-64679211D01*
X146102254Y-64619631D01*
X146102249Y-64619630D01*
X145923004Y-64599435D01*
X145922996Y-64599435D01*
X145743750Y-64619630D01*
X145743745Y-64619631D01*
X145573476Y-64679211D01*
X145420736Y-64775185D01*
X145417903Y-64777445D01*
X145415724Y-64778334D01*
X145414842Y-64778889D01*
X145414744Y-64778734D01*
X145353217Y-64803855D01*
X145340588Y-64804500D01*
X145334097Y-64804500D01*
X145267058Y-64784815D01*
X145246416Y-64768181D01*
X144848700Y-64370465D01*
X144815215Y-64309142D01*
X144813163Y-64296686D01*
X144803368Y-64209745D01*
X144743789Y-64039478D01*
X144647816Y-63886738D01*
X144520262Y-63759184D01*
X144367523Y-63663211D01*
X144197254Y-63603631D01*
X144197249Y-63603630D01*
X144018004Y-63583435D01*
X144017996Y-63583435D01*
X143838750Y-63603630D01*
X143838745Y-63603631D01*
X143668476Y-63663211D01*
X143515737Y-63759184D01*
X143388184Y-63886737D01*
X143292211Y-64039476D01*
X143232631Y-64209745D01*
X143232630Y-64209750D01*
X143212435Y-64388996D01*
X139533232Y-64388996D01*
X133614415Y-58470180D01*
X133580931Y-58408858D01*
X133585915Y-58339166D01*
X133627787Y-58283233D01*
X133693251Y-58258816D01*
X133702097Y-58258500D01*
X133725374Y-58258500D01*
X133792413Y-58278185D01*
X133813054Y-58294818D01*
X138609755Y-63091520D01*
X138609757Y-63091521D01*
X138609761Y-63091524D01*
X138720072Y-63155211D01*
X138746687Y-63170577D01*
X138899414Y-63211501D01*
X138899416Y-63211501D01*
X139065125Y-63211501D01*
X139065141Y-63211500D01*
X148007588Y-63211500D01*
X148074627Y-63231185D01*
X148084903Y-63238555D01*
X148087736Y-63240814D01*
X148087738Y-63240816D01*
X148240478Y-63336789D01*
X148410745Y-63396368D01*
X148410750Y-63396369D01*
X148589996Y-63416565D01*
X148590000Y-63416565D01*
X148590004Y-63416565D01*
X148769249Y-63396369D01*
X148769252Y-63396368D01*
X148769255Y-63396368D01*
X148939522Y-63336789D01*
X149092262Y-63240816D01*
X149219816Y-63113262D01*
X149315789Y-62960522D01*
X149375368Y-62790255D01*
X149386251Y-62693664D01*
X149395565Y-62611003D01*
X149395565Y-62610996D01*
X149375369Y-62431750D01*
X149375368Y-62431745D01*
X149315788Y-62261475D01*
X149275682Y-62197648D01*
X149256681Y-62130411D01*
X149277048Y-62063576D01*
X149330316Y-62018361D01*
X149399572Y-62009123D01*
X149446648Y-62026682D01*
X149510475Y-62066788D01*
X149680745Y-62126368D01*
X149680750Y-62126369D01*
X149859996Y-62146565D01*
X149860000Y-62146565D01*
X149860004Y-62146565D01*
X150039249Y-62126369D01*
X150039252Y-62126368D01*
X150039255Y-62126368D01*
X150209522Y-62066789D01*
X150362262Y-61970816D01*
X150489816Y-61843262D01*
X150585789Y-61690522D01*
X150645368Y-61520255D01*
X150651238Y-61468158D01*
X150665565Y-61341003D01*
X150665565Y-61340996D01*
X150645369Y-61161750D01*
X150645368Y-61161745D01*
X150604466Y-61044855D01*
X150585789Y-60991478D01*
X150489816Y-60838738D01*
X150362262Y-60711184D01*
X150321017Y-60685268D01*
X150209523Y-60615211D01*
X150039254Y-60555631D01*
X150039249Y-60555630D01*
X149860004Y-60535435D01*
X149859996Y-60535435D01*
X149680750Y-60555630D01*
X149680745Y-60555631D01*
X149510476Y-60615211D01*
X149357736Y-60711185D01*
X149354903Y-60713445D01*
X149352724Y-60714334D01*
X149351842Y-60714889D01*
X149351744Y-60714734D01*
X149290217Y-60739855D01*
X149277588Y-60740500D01*
X148382097Y-60740500D01*
X148315058Y-60720815D01*
X148294416Y-60704181D01*
X141362746Y-53772511D01*
X141329261Y-53711188D01*
X141334245Y-53641496D01*
X141376117Y-53585563D01*
X141441581Y-53561146D01*
X141464309Y-53561609D01*
X141491615Y-53564686D01*
X141537263Y-53569830D01*
X141537265Y-53569830D01*
X141537269Y-53569830D01*
X141716514Y-53549634D01*
X141716517Y-53549633D01*
X141716520Y-53549633D01*
X141886787Y-53490054D01*
X142039527Y-53394081D01*
X142167081Y-53266527D01*
X142263054Y-53113787D01*
X142322633Y-52943520D01*
X142322872Y-52941401D01*
X142342830Y-52764268D01*
X142342830Y-52764261D01*
X142322634Y-52585015D01*
X142322633Y-52585010D01*
X142301895Y-52525745D01*
X142263054Y-52414743D01*
X142167081Y-52262003D01*
X142039527Y-52134449D01*
X142034049Y-52131007D01*
X141886786Y-52038475D01*
X141841250Y-52022542D01*
X141784474Y-51981821D01*
X141758726Y-51916868D01*
X141772182Y-51848306D01*
X141820569Y-51797903D01*
X141882204Y-51781500D01*
X144578588Y-51781500D01*
X144645627Y-51801185D01*
X144655903Y-51808555D01*
X144658736Y-51810814D01*
X144658738Y-51810816D01*
X144811478Y-51906789D01*
X144975678Y-51964245D01*
X144981745Y-51966368D01*
X144981750Y-51966369D01*
X145160996Y-51986565D01*
X145161000Y-51986565D01*
X145161004Y-51986565D01*
X145340249Y-51966369D01*
X145340252Y-51966368D01*
X145340255Y-51966368D01*
X145510522Y-51906789D01*
X145657433Y-51814478D01*
X145724668Y-51795478D01*
X145791503Y-51815845D01*
X145811085Y-51831791D01*
X154160668Y-60181374D01*
X154160678Y-60181385D01*
X154165008Y-60185715D01*
X154165009Y-60185716D01*
X154276813Y-60297520D01*
X154276815Y-60297521D01*
X154276819Y-60297524D01*
X154399868Y-60368565D01*
X154413745Y-60376577D01*
X154502740Y-60400423D01*
X154566471Y-60417500D01*
X154566472Y-60417500D01*
X155032530Y-60417500D01*
X155099569Y-60437185D01*
X155120211Y-60453819D01*
X155219973Y-60553581D01*
X155242017Y-60567432D01*
X155331956Y-60623945D01*
X155372713Y-60649554D01*
X155474778Y-60685268D01*
X155542980Y-60709133D01*
X155542985Y-60709134D01*
X155722231Y-60729330D01*
X155722235Y-60729330D01*
X155722239Y-60729330D01*
X155901484Y-60709134D01*
X155901487Y-60709133D01*
X155901490Y-60709133D01*
X156071757Y-60649554D01*
X156224497Y-60553581D01*
X156352051Y-60426027D01*
X156448024Y-60273287D01*
X156507603Y-60103020D01*
X156507604Y-60103014D01*
X156527800Y-59923768D01*
X156527800Y-59923761D01*
X156507604Y-59744515D01*
X156507602Y-59744507D01*
X156503901Y-59733929D01*
X156500340Y-59664150D01*
X156535069Y-59603523D01*
X156597063Y-59571296D01*
X156607048Y-59569756D01*
X156693304Y-59560038D01*
X156770250Y-59551369D01*
X156770253Y-59551368D01*
X156770255Y-59551368D01*
X156940522Y-59491789D01*
X157093262Y-59395816D01*
X157220816Y-59268262D01*
X157316789Y-59115522D01*
X157376368Y-58945255D01*
X157376369Y-58945249D01*
X157396565Y-58766003D01*
X157396565Y-58765996D01*
X157376369Y-58586750D01*
X157376368Y-58586745D01*
X157334467Y-58466998D01*
X157316789Y-58416478D01*
X157220816Y-58263738D01*
X157093262Y-58136184D01*
X156993501Y-58073500D01*
X156940521Y-58040210D01*
X156770249Y-57980630D01*
X156683331Y-57970837D01*
X156618917Y-57943770D01*
X156609534Y-57935298D01*
X146807231Y-48132996D01*
X156674435Y-48132996D01*
X156674435Y-48133003D01*
X156694630Y-48312249D01*
X156694631Y-48312254D01*
X156754211Y-48482523D01*
X156836525Y-48613524D01*
X156850184Y-48635262D01*
X156977738Y-48762816D01*
X157043616Y-48804210D01*
X157119945Y-48852171D01*
X157130478Y-48858789D01*
X157284258Y-48912599D01*
X157300745Y-48918368D01*
X157300750Y-48918369D01*
X157479996Y-48938565D01*
X157480000Y-48938565D01*
X157480004Y-48938565D01*
X157659249Y-48918369D01*
X157659252Y-48918368D01*
X157659255Y-48918368D01*
X157829522Y-48858789D01*
X157982262Y-48762816D01*
X157982267Y-48762810D01*
X157985097Y-48760555D01*
X157987275Y-48759665D01*
X157988158Y-48759111D01*
X157988255Y-48759265D01*
X158049783Y-48734145D01*
X158062412Y-48733500D01*
X158790331Y-48733500D01*
X158790347Y-48733501D01*
X158797943Y-48733501D01*
X158956054Y-48733501D01*
X158956057Y-48733501D01*
X159108785Y-48692577D01*
X159194017Y-48643368D01*
X159245716Y-48613520D01*
X159357520Y-48501716D01*
X159357520Y-48501714D01*
X159367724Y-48491511D01*
X159367729Y-48491505D01*
X160293506Y-47565727D01*
X160354827Y-47532244D01*
X160424519Y-47537228D01*
X160480452Y-47579100D01*
X160500960Y-47621316D01*
X160524095Y-47707657D01*
X160524097Y-47707663D01*
X160595787Y-47861402D01*
X160623965Y-47921830D01*
X160623967Y-47921834D01*
X160698655Y-48028498D01*
X160759501Y-48115396D01*
X160759506Y-48115402D01*
X160926597Y-48282493D01*
X160926603Y-48282498D01*
X161112158Y-48412425D01*
X161155783Y-48467002D01*
X161162977Y-48536500D01*
X161131454Y-48598855D01*
X161112158Y-48615575D01*
X160926597Y-48745505D01*
X160759505Y-48912597D01*
X160623965Y-49106169D01*
X160623964Y-49106171D01*
X160524098Y-49320335D01*
X160524094Y-49320344D01*
X160462938Y-49548586D01*
X160462936Y-49548596D01*
X160442341Y-49783999D01*
X160442341Y-49784000D01*
X160462936Y-50019403D01*
X160462938Y-50019413D01*
X160524094Y-50247655D01*
X160524096Y-50247659D01*
X160524097Y-50247663D01*
X160595787Y-50401402D01*
X160623965Y-50461830D01*
X160623967Y-50461834D01*
X160698655Y-50568498D01*
X160759505Y-50655401D01*
X160926597Y-50822493D01*
X160926603Y-50822498D01*
X161112158Y-50952425D01*
X161155783Y-51007002D01*
X161162977Y-51076500D01*
X161131454Y-51138855D01*
X161112158Y-51155575D01*
X160926597Y-51285505D01*
X160759505Y-51452597D01*
X160623965Y-51646169D01*
X160623964Y-51646171D01*
X160524098Y-51860335D01*
X160524094Y-51860344D01*
X160462938Y-52088586D01*
X160462936Y-52088596D01*
X160442341Y-52323999D01*
X160442341Y-52324000D01*
X160462936Y-52559403D01*
X160462938Y-52559413D01*
X160524094Y-52787655D01*
X160524096Y-52787659D01*
X160524097Y-52787663D01*
X160596772Y-52943514D01*
X160623965Y-53001830D01*
X160623967Y-53001834D01*
X160713753Y-53130060D01*
X160759501Y-53195396D01*
X160759506Y-53195402D01*
X160926597Y-53362493D01*
X160926603Y-53362498D01*
X161112158Y-53492425D01*
X161155783Y-53547002D01*
X161162977Y-53616500D01*
X161131454Y-53678855D01*
X161112158Y-53695575D01*
X160926597Y-53825505D01*
X160759505Y-53992597D01*
X160623965Y-54186169D01*
X160623964Y-54186171D01*
X160524098Y-54400335D01*
X160524094Y-54400344D01*
X160462938Y-54628586D01*
X160462936Y-54628596D01*
X160442341Y-54863999D01*
X160442341Y-54864000D01*
X160462936Y-55099403D01*
X160462938Y-55099413D01*
X160524094Y-55327655D01*
X160524096Y-55327659D01*
X160524097Y-55327663D01*
X160618332Y-55529751D01*
X160623965Y-55541830D01*
X160623967Y-55541834D01*
X160686588Y-55631265D01*
X160759505Y-55735401D01*
X160926599Y-55902495D01*
X160969675Y-55932657D01*
X161120165Y-56038032D01*
X161120167Y-56038033D01*
X161120170Y-56038035D01*
X161334337Y-56137903D01*
X161562592Y-56199063D01*
X161739034Y-56214500D01*
X161797999Y-56219659D01*
X161798000Y-56219659D01*
X161798001Y-56219659D01*
X161856966Y-56214500D01*
X162033408Y-56199063D01*
X162261663Y-56137903D01*
X162475830Y-56038035D01*
X162669401Y-55902495D01*
X162836495Y-55735401D01*
X162836504Y-55735388D01*
X162837636Y-55734040D01*
X162838293Y-55733602D01*
X162840323Y-55731573D01*
X162840730Y-55731980D01*
X162895805Y-55695334D01*
X162965666Y-55694220D01*
X163025038Y-55731053D01*
X163050335Y-55774733D01*
X163053186Y-55783334D01*
X163145288Y-55932656D01*
X163269344Y-56056712D01*
X163418666Y-56148814D01*
X163585203Y-56203999D01*
X163687991Y-56214500D01*
X164988008Y-56214499D01*
X165090797Y-56203999D01*
X165257334Y-56148814D01*
X165406656Y-56056712D01*
X165530712Y-55932656D01*
X165622814Y-55783334D01*
X165677999Y-55616797D01*
X165688500Y-55514009D01*
X165688499Y-54213992D01*
X165677999Y-54111203D01*
X165622814Y-53944666D01*
X165530712Y-53795344D01*
X165406656Y-53671288D01*
X165290654Y-53599738D01*
X165257336Y-53579187D01*
X165257331Y-53579185D01*
X165234139Y-53571500D01*
X165184966Y-53555205D01*
X165127522Y-53515433D01*
X165100699Y-53450917D01*
X165100585Y-53440137D01*
X164467409Y-52806962D01*
X164530993Y-52789925D01*
X164645007Y-52724099D01*
X164738099Y-52631007D01*
X164803925Y-52516993D01*
X164820962Y-52453410D01*
X165452925Y-53085373D01*
X165452926Y-53085373D01*
X165511598Y-53001582D01*
X165511600Y-53001578D01*
X165611429Y-52787492D01*
X165611433Y-52787483D01*
X165672567Y-52559326D01*
X165672569Y-52559315D01*
X165693157Y-52324001D01*
X165693157Y-52323998D01*
X165672569Y-52088684D01*
X165672567Y-52088673D01*
X165611433Y-51860516D01*
X165611429Y-51860507D01*
X165511600Y-51646423D01*
X165511599Y-51646421D01*
X165452925Y-51562626D01*
X165452925Y-51562625D01*
X164820962Y-52194588D01*
X164803925Y-52131007D01*
X164738099Y-52016993D01*
X164645007Y-51923901D01*
X164530993Y-51858075D01*
X164467410Y-51841037D01*
X165099373Y-51209073D01*
X165022969Y-51155576D01*
X164979344Y-51100999D01*
X164972150Y-51031501D01*
X165003672Y-50969146D01*
X165022968Y-50952425D01*
X165099373Y-50898925D01*
X164467409Y-50266962D01*
X164530993Y-50249925D01*
X164645007Y-50184099D01*
X164738099Y-50091007D01*
X164803925Y-49976993D01*
X164820962Y-49913410D01*
X165452925Y-50545373D01*
X165452926Y-50545373D01*
X165511598Y-50461582D01*
X165511600Y-50461578D01*
X165611429Y-50247492D01*
X165611433Y-50247483D01*
X165672567Y-50019326D01*
X165672569Y-50019315D01*
X165693157Y-49784001D01*
X165693157Y-49783998D01*
X165672569Y-49548684D01*
X165672567Y-49548673D01*
X165611433Y-49320516D01*
X165611429Y-49320507D01*
X165511600Y-49106423D01*
X165511599Y-49106421D01*
X165452925Y-49022626D01*
X165452925Y-49022625D01*
X164820962Y-49654588D01*
X164803925Y-49591007D01*
X164738099Y-49476993D01*
X164645007Y-49383901D01*
X164530993Y-49318075D01*
X164467410Y-49301037D01*
X165099373Y-48669073D01*
X165099373Y-48669072D01*
X165023405Y-48615880D01*
X164979780Y-48561304D01*
X164972586Y-48491805D01*
X165004108Y-48429451D01*
X165023399Y-48412734D01*
X165209401Y-48282495D01*
X165376495Y-48115401D01*
X165512035Y-47921830D01*
X165611903Y-47707663D01*
X165673063Y-47479408D01*
X165693659Y-47244000D01*
X165673063Y-47008592D01*
X165611903Y-46780337D01*
X165512035Y-46566171D01*
X165506425Y-46558158D01*
X165376494Y-46372597D01*
X165209402Y-46205506D01*
X165209401Y-46205505D01*
X165023405Y-46075269D01*
X164979781Y-46020692D01*
X164972588Y-45951193D01*
X165004110Y-45888839D01*
X165023405Y-45872119D01*
X165099373Y-45818925D01*
X164467409Y-45186962D01*
X164530993Y-45169925D01*
X164645007Y-45104099D01*
X164738099Y-45011007D01*
X164803925Y-44896993D01*
X164820962Y-44833410D01*
X165452925Y-45465373D01*
X165452926Y-45465373D01*
X165511598Y-45381582D01*
X165511600Y-45381578D01*
X165611429Y-45167492D01*
X165611433Y-45167483D01*
X165672567Y-44939326D01*
X165672569Y-44939315D01*
X165693157Y-44704001D01*
X165693157Y-44703998D01*
X165672569Y-44468684D01*
X165672567Y-44468673D01*
X165611433Y-44240516D01*
X165611429Y-44240507D01*
X165511600Y-44026423D01*
X165511599Y-44026421D01*
X165452925Y-43942626D01*
X165452925Y-43942625D01*
X164820962Y-44574588D01*
X164803925Y-44511007D01*
X164738099Y-44396993D01*
X164645007Y-44303901D01*
X164530993Y-44238075D01*
X164467410Y-44221037D01*
X165099373Y-43589073D01*
X165099373Y-43589072D01*
X165015583Y-43530402D01*
X165015579Y-43530400D01*
X164801492Y-43430570D01*
X164801483Y-43430566D01*
X164573326Y-43369432D01*
X164573315Y-43369430D01*
X164338002Y-43348843D01*
X164337998Y-43348843D01*
X164102684Y-43369430D01*
X164102673Y-43369432D01*
X163874516Y-43430566D01*
X163874507Y-43430570D01*
X163660419Y-43530401D01*
X163576625Y-43589072D01*
X164208590Y-44221037D01*
X164145007Y-44238075D01*
X164030993Y-44303901D01*
X163937901Y-44396993D01*
X163872075Y-44511007D01*
X163855037Y-44574589D01*
X163223073Y-43942626D01*
X163169881Y-44018594D01*
X163115304Y-44062219D01*
X163045806Y-44069413D01*
X162983451Y-44037891D01*
X162966730Y-44018594D01*
X162836494Y-43832597D01*
X162669402Y-43665506D01*
X162669395Y-43665501D01*
X162475834Y-43529967D01*
X162475830Y-43529965D01*
X162453208Y-43519416D01*
X162261663Y-43430097D01*
X162261659Y-43430096D01*
X162261655Y-43430094D01*
X162033413Y-43368938D01*
X162033403Y-43368936D01*
X161798001Y-43348341D01*
X161797999Y-43348341D01*
X161562596Y-43368936D01*
X161562586Y-43368938D01*
X161334344Y-43430094D01*
X161334335Y-43430098D01*
X161120171Y-43529964D01*
X161120169Y-43529965D01*
X160926597Y-43665505D01*
X160759505Y-43832597D01*
X160623965Y-44026169D01*
X160623964Y-44026171D01*
X160524098Y-44240335D01*
X160524094Y-44240344D01*
X160462938Y-44468586D01*
X160462936Y-44468596D01*
X160442341Y-44703999D01*
X160442341Y-44704000D01*
X160462936Y-44939403D01*
X160462938Y-44939413D01*
X160524094Y-45167655D01*
X160524099Y-45167669D01*
X160587452Y-45303530D01*
X160597944Y-45372607D01*
X160569424Y-45436391D01*
X160516025Y-45472975D01*
X160432480Y-45502208D01*
X160279737Y-45598184D01*
X160152184Y-45725737D01*
X160056210Y-45878478D01*
X159996630Y-46048750D01*
X159986837Y-46135668D01*
X159959770Y-46200082D01*
X159951298Y-46209465D01*
X158664584Y-47496181D01*
X158603261Y-47529666D01*
X158576903Y-47532500D01*
X158062412Y-47532500D01*
X157995373Y-47512815D01*
X157985097Y-47505445D01*
X157982263Y-47503185D01*
X157982262Y-47503184D01*
X157925496Y-47467515D01*
X157829523Y-47407211D01*
X157659254Y-47347631D01*
X157659249Y-47347630D01*
X157480004Y-47327435D01*
X157479996Y-47327435D01*
X157300750Y-47347630D01*
X157300745Y-47347631D01*
X157130476Y-47407211D01*
X156977737Y-47503184D01*
X156850184Y-47630737D01*
X156754211Y-47783476D01*
X156694631Y-47953745D01*
X156694630Y-47953750D01*
X156674435Y-48132996D01*
X146807231Y-48132996D01*
X146156590Y-47482355D01*
X146156588Y-47482352D01*
X146037717Y-47363481D01*
X146037716Y-47363480D01*
X145950904Y-47313360D01*
X145950904Y-47313359D01*
X145950900Y-47313358D01*
X145900785Y-47284423D01*
X145748057Y-47243499D01*
X145589943Y-47243499D01*
X145582347Y-47243499D01*
X145582331Y-47243500D01*
X143664322Y-47243500D01*
X143597283Y-47223815D01*
X143551528Y-47171011D01*
X143541102Y-47133383D01*
X143533369Y-47064750D01*
X143533368Y-47064748D01*
X143533368Y-47064745D01*
X143473789Y-46894478D01*
X143377816Y-46741738D01*
X143377814Y-46741736D01*
X143377813Y-46741734D01*
X143375550Y-46738896D01*
X143374659Y-46736715D01*
X143374111Y-46735842D01*
X143374264Y-46735745D01*
X143349144Y-46674209D01*
X143348500Y-46661587D01*
X143348500Y-43227944D01*
X143348500Y-43227943D01*
X143341915Y-43203368D01*
X143307577Y-43075215D01*
X143251597Y-42978255D01*
X143228520Y-42938284D01*
X143116716Y-42826480D01*
X143112385Y-42822149D01*
X143112374Y-42822139D01*
X142435700Y-42145465D01*
X142402215Y-42084142D01*
X142400163Y-42071686D01*
X142390368Y-41984745D01*
X142330789Y-41814478D01*
X142234816Y-41661738D01*
X142107262Y-41534184D01*
X142043840Y-41494333D01*
X141954519Y-41438209D01*
X141920077Y-41426157D01*
X141863301Y-41385435D01*
X141837554Y-41320483D01*
X141851010Y-41251921D01*
X141899398Y-41201518D01*
X141928935Y-41189342D01*
X142068663Y-41151903D01*
X142282830Y-41052035D01*
X142476401Y-40916495D01*
X142643495Y-40749401D01*
X142773425Y-40563842D01*
X142828002Y-40520217D01*
X142897500Y-40513023D01*
X142959855Y-40544546D01*
X142976575Y-40563842D01*
X143106281Y-40749082D01*
X143106505Y-40749401D01*
X143273599Y-40916495D01*
X143370384Y-40984265D01*
X143467165Y-41052032D01*
X143467167Y-41052033D01*
X143467170Y-41052035D01*
X143681337Y-41151903D01*
X143681343Y-41151904D01*
X143681344Y-41151905D01*
X143688088Y-41153712D01*
X143909592Y-41213063D01*
X144086034Y-41228500D01*
X144144999Y-41233659D01*
X144145000Y-41233659D01*
X144145001Y-41233659D01*
X144203966Y-41228500D01*
X144380408Y-41213063D01*
X144608663Y-41151903D01*
X144822830Y-41052035D01*
X145016401Y-40916495D01*
X145183495Y-40749401D01*
X145313425Y-40563842D01*
X145368002Y-40520217D01*
X145437500Y-40513023D01*
X145499855Y-40544546D01*
X145516575Y-40563842D01*
X145646281Y-40749082D01*
X145646505Y-40749401D01*
X145813599Y-40916495D01*
X145910384Y-40984265D01*
X146007165Y-41052032D01*
X146007167Y-41052033D01*
X146007170Y-41052035D01*
X146221337Y-41151903D01*
X146221343Y-41151904D01*
X146221344Y-41151905D01*
X146228088Y-41153712D01*
X146449592Y-41213063D01*
X146626034Y-41228500D01*
X146684999Y-41233659D01*
X146685000Y-41233659D01*
X146685001Y-41233659D01*
X146743966Y-41228500D01*
X146920408Y-41213063D01*
X147148663Y-41151903D01*
X147362830Y-41052035D01*
X147556401Y-40916495D01*
X147723495Y-40749401D01*
X147853730Y-40563405D01*
X147908307Y-40519781D01*
X147977805Y-40512587D01*
X148040160Y-40544110D01*
X148056879Y-40563405D01*
X148186890Y-40749078D01*
X148353917Y-40916105D01*
X148547421Y-41051600D01*
X148761507Y-41151429D01*
X148761516Y-41151433D01*
X148975000Y-41208634D01*
X148975000Y-40311012D01*
X149032007Y-40343925D01*
X149159174Y-40378000D01*
X149290826Y-40378000D01*
X149417993Y-40343925D01*
X149475000Y-40311012D01*
X149475000Y-41208633D01*
X149679981Y-41153711D01*
X170234500Y-41153711D01*
X170234500Y-41396288D01*
X170266161Y-41636785D01*
X170328947Y-41871104D01*
X170421773Y-42095205D01*
X170421776Y-42095212D01*
X170543064Y-42305289D01*
X170543066Y-42305292D01*
X170543067Y-42305293D01*
X170690733Y-42497736D01*
X170690739Y-42497743D01*
X170862256Y-42669260D01*
X170862263Y-42669266D01*
X170922601Y-42715565D01*
X171054711Y-42816936D01*
X171264788Y-42938224D01*
X171488900Y-43031054D01*
X171723211Y-43093838D01*
X171903586Y-43117584D01*
X171963711Y-43125500D01*
X171963712Y-43125500D01*
X172206289Y-43125500D01*
X172254388Y-43119167D01*
X172446789Y-43093838D01*
X172681100Y-43031054D01*
X172905212Y-42938224D01*
X173115289Y-42816936D01*
X173307738Y-42669265D01*
X173479265Y-42497738D01*
X173626936Y-42305289D01*
X173748224Y-42095212D01*
X173841054Y-41871100D01*
X173903838Y-41636789D01*
X173935500Y-41396288D01*
X173935500Y-41153712D01*
X173935199Y-41151429D01*
X173926526Y-41085544D01*
X173903838Y-40913211D01*
X173841054Y-40678900D01*
X173748224Y-40454788D01*
X173626936Y-40244711D01*
X173479265Y-40052262D01*
X173479260Y-40052256D01*
X173307743Y-39880739D01*
X173307736Y-39880733D01*
X173115293Y-39733067D01*
X173115292Y-39733066D01*
X173115289Y-39733064D01*
X172905212Y-39611776D01*
X172905205Y-39611773D01*
X172681104Y-39518947D01*
X172446785Y-39456161D01*
X172206289Y-39424500D01*
X172206288Y-39424500D01*
X171963712Y-39424500D01*
X171963711Y-39424500D01*
X171723214Y-39456161D01*
X171488895Y-39518947D01*
X171264794Y-39611773D01*
X171264785Y-39611777D01*
X171054706Y-39733067D01*
X170862263Y-39880733D01*
X170862256Y-39880739D01*
X170690739Y-40052256D01*
X170690733Y-40052263D01*
X170543067Y-40244706D01*
X170421777Y-40454785D01*
X170421773Y-40454794D01*
X170328947Y-40678895D01*
X170266161Y-40913214D01*
X170234500Y-41153711D01*
X149679981Y-41153711D01*
X149688483Y-41151433D01*
X149688492Y-41151429D01*
X149902578Y-41051600D01*
X150096082Y-40916105D01*
X150263105Y-40749082D01*
X150398600Y-40555578D01*
X150498429Y-40341492D01*
X150498432Y-40341486D01*
X150555636Y-40128000D01*
X149658012Y-40128000D01*
X149690925Y-40070993D01*
X149725000Y-39943826D01*
X149725000Y-39812174D01*
X149690925Y-39685007D01*
X149658012Y-39628000D01*
X150555636Y-39628000D01*
X150555635Y-39627999D01*
X150498432Y-39414513D01*
X150498429Y-39414507D01*
X150398600Y-39200422D01*
X150398599Y-39200420D01*
X150263113Y-39006926D01*
X150263108Y-39006920D01*
X150096082Y-38839894D01*
X149902578Y-38704399D01*
X149688492Y-38604570D01*
X149688486Y-38604567D01*
X149475000Y-38547364D01*
X149475000Y-39444988D01*
X149417993Y-39412075D01*
X149290826Y-39378000D01*
X149159174Y-39378000D01*
X149032007Y-39412075D01*
X148975000Y-39444988D01*
X148975000Y-38547364D01*
X148974999Y-38547364D01*
X148761513Y-38604567D01*
X148761507Y-38604570D01*
X148547422Y-38704399D01*
X148547420Y-38704400D01*
X148353926Y-38839886D01*
X148353920Y-38839891D01*
X148186891Y-39006920D01*
X148186890Y-39006922D01*
X148056880Y-39192595D01*
X148002303Y-39236219D01*
X147932804Y-39243412D01*
X147870450Y-39211890D01*
X147853730Y-39192594D01*
X147723494Y-39006597D01*
X147556402Y-38839506D01*
X147556395Y-38839501D01*
X147362834Y-38703967D01*
X147362830Y-38703965D01*
X147337533Y-38692169D01*
X147148663Y-38604097D01*
X147148659Y-38604096D01*
X147148655Y-38604094D01*
X146920413Y-38542938D01*
X146920403Y-38542936D01*
X146685001Y-38522341D01*
X146684999Y-38522341D01*
X146449596Y-38542936D01*
X146449586Y-38542938D01*
X146221344Y-38604094D01*
X146221335Y-38604098D01*
X146007171Y-38703964D01*
X146007169Y-38703965D01*
X145813597Y-38839505D01*
X145646505Y-39006597D01*
X145516575Y-39192158D01*
X145461998Y-39235783D01*
X145392500Y-39242977D01*
X145330145Y-39211454D01*
X145313425Y-39192158D01*
X145183494Y-39006597D01*
X145016402Y-38839506D01*
X145016395Y-38839501D01*
X144822834Y-38703967D01*
X144822830Y-38703965D01*
X144797533Y-38692169D01*
X144608663Y-38604097D01*
X144608659Y-38604096D01*
X144608655Y-38604094D01*
X144380413Y-38542938D01*
X144380403Y-38542936D01*
X144145001Y-38522341D01*
X144144999Y-38522341D01*
X143909596Y-38542936D01*
X143909586Y-38542938D01*
X143681344Y-38604094D01*
X143681335Y-38604098D01*
X143467171Y-38703964D01*
X143467169Y-38703965D01*
X143273597Y-38839505D01*
X143106505Y-39006597D01*
X142976575Y-39192158D01*
X142921998Y-39235783D01*
X142852500Y-39242977D01*
X142790145Y-39211454D01*
X142773425Y-39192158D01*
X142643494Y-39006597D01*
X142476402Y-38839506D01*
X142476395Y-38839501D01*
X142282834Y-38703967D01*
X142282830Y-38703965D01*
X142257533Y-38692169D01*
X142068663Y-38604097D01*
X142068659Y-38604096D01*
X142068655Y-38604094D01*
X141840413Y-38542938D01*
X141840403Y-38542936D01*
X141605001Y-38522341D01*
X141604999Y-38522341D01*
X141369596Y-38542936D01*
X141369586Y-38542938D01*
X141141344Y-38604094D01*
X141141335Y-38604098D01*
X140927171Y-38703964D01*
X140927169Y-38703965D01*
X140733600Y-38839503D01*
X140611673Y-38961430D01*
X140550350Y-38994914D01*
X140480658Y-38989930D01*
X140424725Y-38948058D01*
X140407810Y-38917081D01*
X140358797Y-38785671D01*
X140358793Y-38785664D01*
X140272547Y-38670455D01*
X140272544Y-38670452D01*
X140157335Y-38584206D01*
X140157328Y-38584202D01*
X140022482Y-38533908D01*
X140022483Y-38533908D01*
X139962883Y-38527501D01*
X139962881Y-38527500D01*
X139962873Y-38527500D01*
X139962864Y-38527500D01*
X138167129Y-38527500D01*
X138167123Y-38527501D01*
X138107516Y-38533908D01*
X137972671Y-38584202D01*
X137972664Y-38584206D01*
X137857455Y-38670452D01*
X137857452Y-38670455D01*
X137771206Y-38785664D01*
X137771202Y-38785671D01*
X137720908Y-38920517D01*
X137714501Y-38980116D01*
X137714500Y-38980135D01*
X137714500Y-40775870D01*
X137714501Y-40775876D01*
X137720908Y-40835483D01*
X137771202Y-40970328D01*
X137771206Y-40970335D01*
X137857452Y-41085544D01*
X137857455Y-41085547D01*
X137972664Y-41171793D01*
X137972671Y-41171797D01*
X138107517Y-41222091D01*
X138107516Y-41222091D01*
X138113600Y-41222745D01*
X138167127Y-41228500D01*
X139962872Y-41228499D01*
X140022483Y-41222091D01*
X140157331Y-41171796D01*
X140272546Y-41085546D01*
X140358796Y-40970331D01*
X140407810Y-40838916D01*
X140449681Y-40782984D01*
X140515145Y-40758566D01*
X140583418Y-40773417D01*
X140611673Y-40794569D01*
X140733599Y-40916495D01*
X140830384Y-40984265D01*
X140927165Y-41052032D01*
X140927167Y-41052033D01*
X140927170Y-41052035D01*
X141141337Y-41151903D01*
X141141343Y-41151904D01*
X141141344Y-41151905D01*
X141148088Y-41153712D01*
X141281060Y-41189341D01*
X141340720Y-41225705D01*
X141371250Y-41288552D01*
X141362956Y-41357928D01*
X141318471Y-41411806D01*
X141289923Y-41426157D01*
X141255479Y-41438209D01*
X141102737Y-41534184D01*
X140975184Y-41661737D01*
X140879211Y-41814476D01*
X140819631Y-41984745D01*
X140819630Y-41984750D01*
X140799435Y-42163996D01*
X140799435Y-42164003D01*
X140819630Y-42343249D01*
X140819631Y-42343254D01*
X140879211Y-42513523D01*
X140959010Y-42640522D01*
X140975184Y-42666262D01*
X141102738Y-42793816D01*
X141255478Y-42889789D01*
X141425745Y-42949368D01*
X141512669Y-42959161D01*
X141577080Y-42986226D01*
X141586465Y-42994700D01*
X142111181Y-43519416D01*
X142144666Y-43580739D01*
X142147500Y-43607097D01*
X142147500Y-44570903D01*
X142127815Y-44637942D01*
X142075011Y-44683697D01*
X142005853Y-44693641D01*
X141942297Y-44664616D01*
X141935819Y-44658584D01*
X139972874Y-42695639D01*
X139939389Y-42634316D01*
X139943513Y-42567004D01*
X139977368Y-42470255D01*
X139979709Y-42449478D01*
X139997565Y-42291003D01*
X139997565Y-42290996D01*
X139977369Y-42111750D01*
X139977368Y-42111745D01*
X139962228Y-42068478D01*
X139917789Y-41941478D01*
X139901615Y-41915738D01*
X139873570Y-41871104D01*
X139821816Y-41788738D01*
X139694262Y-41661184D01*
X139655438Y-41636789D01*
X139541523Y-41565211D01*
X139371254Y-41505631D01*
X139371249Y-41505630D01*
X139192004Y-41485435D01*
X139191996Y-41485435D01*
X139012750Y-41505630D01*
X139012745Y-41505631D01*
X138842476Y-41565211D01*
X138689737Y-41661184D01*
X138562184Y-41788737D01*
X138466211Y-41941476D01*
X138406631Y-42111745D01*
X138406630Y-42111750D01*
X138386435Y-42290996D01*
X138386435Y-42291003D01*
X138406630Y-42470249D01*
X138406631Y-42470254D01*
X138466211Y-42640523D01*
X138496284Y-42688383D01*
X138532495Y-42746013D01*
X138536402Y-42752230D01*
X138555402Y-42819466D01*
X138535034Y-42886302D01*
X138481767Y-42931516D01*
X138412510Y-42940754D01*
X138369409Y-42925590D01*
X138350799Y-42914846D01*
X138307400Y-42889789D01*
X138307398Y-42889788D01*
X138280785Y-42874423D01*
X138280784Y-42874422D01*
X138280783Y-42874422D01*
X138224881Y-42859443D01*
X138128057Y-42833499D01*
X137969943Y-42833499D01*
X137962347Y-42833499D01*
X137962331Y-42833500D01*
X136726412Y-42833500D01*
X136659373Y-42813815D01*
X136649097Y-42806445D01*
X136646263Y-42804185D01*
X136646262Y-42804184D01*
X136563578Y-42752230D01*
X136493523Y-42708211D01*
X136323254Y-42648631D01*
X136323249Y-42648630D01*
X136144004Y-42628435D01*
X136143996Y-42628435D01*
X135964750Y-42648630D01*
X135964740Y-42648633D01*
X135959287Y-42650541D01*
X135889508Y-42654100D01*
X135828882Y-42619370D01*
X135796657Y-42557375D01*
X135795116Y-42519614D01*
X135806565Y-42418002D01*
X135806565Y-42417996D01*
X135786369Y-42238750D01*
X135786368Y-42238745D01*
X135768390Y-42187368D01*
X135726789Y-42068478D01*
X135630816Y-41915738D01*
X135630814Y-41915736D01*
X135630813Y-41915734D01*
X135628550Y-41912896D01*
X135627659Y-41910715D01*
X135627111Y-41909842D01*
X135627264Y-41909745D01*
X135602144Y-41848209D01*
X135601500Y-41835587D01*
X135601500Y-39924097D01*
X135621185Y-39857058D01*
X135637819Y-39836416D01*
X136132141Y-39342094D01*
X136670536Y-38803698D01*
X136731857Y-38770215D01*
X136744310Y-38768163D01*
X136831255Y-38758368D01*
X137001522Y-38698789D01*
X137154262Y-38602816D01*
X137281816Y-38475262D01*
X137377789Y-38322522D01*
X137437368Y-38152255D01*
X137437369Y-38152249D01*
X137457565Y-37973003D01*
X137457565Y-37972996D01*
X137437369Y-37793750D01*
X137437368Y-37793745D01*
X137377788Y-37623476D01*
X137313066Y-37520472D01*
X137294066Y-37453236D01*
X137314434Y-37386400D01*
X137367701Y-37341186D01*
X137418060Y-37330500D01*
X175143500Y-37330500D01*
X175210539Y-37350185D01*
G37*
%TD.AperFunction*%
%TA.AperFunction,Conductor*%
G36*
X86049703Y-83780637D02*
G01*
X86078985Y-83818056D01*
X86119130Y-83896846D01*
X86267201Y-84100649D01*
X86267205Y-84100654D01*
X86359061Y-84192510D01*
X86392546Y-84253833D01*
X86394669Y-84293446D01*
X86387501Y-84360116D01*
X86387500Y-84360135D01*
X86387500Y-85955870D01*
X86387501Y-85955876D01*
X86393908Y-86015483D01*
X86444202Y-86150328D01*
X86444206Y-86150335D01*
X86530451Y-86265543D01*
X86530452Y-86265544D01*
X86530454Y-86265546D01*
X86568777Y-86294234D01*
X86610647Y-86350167D01*
X86615631Y-86419859D01*
X86594784Y-86466385D01*
X86568475Y-86502595D01*
X86479117Y-86677970D01*
X86418290Y-86865173D01*
X86387500Y-87059577D01*
X86387500Y-87256422D01*
X86418290Y-87450826D01*
X86479117Y-87638029D01*
X86537095Y-87751816D01*
X86568476Y-87813405D01*
X86684172Y-87972646D01*
X86684174Y-87972648D01*
X86782198Y-88070672D01*
X86815683Y-88131995D01*
X86810699Y-88201687D01*
X86782199Y-88246033D01*
X86684557Y-88343676D01*
X86684555Y-88343678D01*
X86568904Y-88502856D01*
X86479581Y-88678162D01*
X86418781Y-88865283D01*
X86412016Y-88908000D01*
X87762722Y-88908000D01*
X87718667Y-88984306D01*
X87688000Y-89098756D01*
X87688000Y-89217244D01*
X87718667Y-89331694D01*
X87762722Y-89408000D01*
X86412016Y-89408000D01*
X86418781Y-89450716D01*
X86479581Y-89637837D01*
X86570762Y-89816789D01*
X86583658Y-89885459D01*
X86557381Y-89950199D01*
X86533163Y-89973401D01*
X86445350Y-90037202D01*
X86445341Y-90037209D01*
X86267205Y-90215345D01*
X86267201Y-90215350D01*
X86119132Y-90419151D01*
X86078985Y-90497944D01*
X86031010Y-90548740D01*
X85963189Y-90565535D01*
X85897054Y-90542998D01*
X85853603Y-90488282D01*
X85844500Y-90441649D01*
X85844500Y-83874350D01*
X85864185Y-83807311D01*
X85916989Y-83761556D01*
X85986147Y-83751612D01*
X86049703Y-83780637D01*
G37*
%TD.AperFunction*%
%TA.AperFunction,Conductor*%
G36*
X116479942Y-51293185D02*
G01*
X116500584Y-51309819D01*
X116644298Y-51453533D01*
X116677783Y-51514856D01*
X116679837Y-51527330D01*
X116689630Y-51614249D01*
X116689631Y-51614254D01*
X116689632Y-51614255D01*
X116692524Y-51622519D01*
X116749210Y-51784521D01*
X116827940Y-51909819D01*
X116845184Y-51937262D01*
X116972738Y-52064816D01*
X117125478Y-52160789D01*
X117295579Y-52220310D01*
X117295745Y-52220368D01*
X117295750Y-52220369D01*
X117474996Y-52240565D01*
X117475000Y-52240565D01*
X117475003Y-52240565D01*
X117568483Y-52230032D01*
X117654255Y-52220368D01*
X117654256Y-52220367D01*
X117654767Y-52220310D01*
X117723589Y-52232364D01*
X117774969Y-52279713D01*
X117792593Y-52347324D01*
X117770867Y-52413729D01*
X117716688Y-52457847D01*
X117709606Y-52460571D01*
X117633480Y-52487208D01*
X117480737Y-52583184D01*
X117353184Y-52710737D01*
X117257211Y-52863476D01*
X117197631Y-53033745D01*
X117197630Y-53033750D01*
X117177435Y-53212996D01*
X117177435Y-53213003D01*
X117197630Y-53392249D01*
X117197631Y-53392254D01*
X117257211Y-53562523D01*
X117296769Y-53625478D01*
X117345354Y-53702801D01*
X117353185Y-53715263D01*
X117355445Y-53718097D01*
X117356334Y-53720275D01*
X117356889Y-53721158D01*
X117356734Y-53721255D01*
X117381855Y-53782783D01*
X117382500Y-53795412D01*
X117382500Y-57317330D01*
X117382499Y-57317348D01*
X117382499Y-57483054D01*
X117382498Y-57483054D01*
X117423423Y-57635785D01*
X117433256Y-57652816D01*
X117502477Y-57772712D01*
X117502481Y-57772717D01*
X117533298Y-57803534D01*
X117566783Y-57864857D01*
X117568837Y-57877331D01*
X117578630Y-57964249D01*
X117638210Y-58134521D01*
X117707931Y-58245481D01*
X117734184Y-58287262D01*
X117861738Y-58414816D01*
X118014478Y-58510789D01*
X118184745Y-58570368D01*
X118253384Y-58578101D01*
X118317796Y-58605166D01*
X118357352Y-58662760D01*
X118363500Y-58701321D01*
X118363500Y-64464431D01*
X118343815Y-64531470D01*
X118327181Y-64552112D01*
X118137481Y-64741811D01*
X118137480Y-64741813D01*
X118101288Y-64804500D01*
X118076573Y-64847307D01*
X118061376Y-64873630D01*
X118058423Y-64878744D01*
X118017499Y-65031472D01*
X118017499Y-65031474D01*
X118017499Y-65199575D01*
X118017500Y-65199588D01*
X118017500Y-72818148D01*
X117997815Y-72885187D01*
X117945011Y-72930942D01*
X117882693Y-72941676D01*
X117856002Y-72939341D01*
X117855999Y-72939341D01*
X117620596Y-72959936D01*
X117620586Y-72959938D01*
X117392344Y-73021094D01*
X117392335Y-73021098D01*
X117178171Y-73120964D01*
X117178169Y-73120965D01*
X116984597Y-73256505D01*
X116817505Y-73423597D01*
X116681965Y-73617169D01*
X116681964Y-73617171D01*
X116582098Y-73831335D01*
X116582094Y-73831344D01*
X116520938Y-74059586D01*
X116520936Y-74059596D01*
X116500341Y-74294999D01*
X116500341Y-74295000D01*
X116520936Y-74530403D01*
X116520938Y-74530413D01*
X116582094Y-74758655D01*
X116582096Y-74758659D01*
X116582097Y-74758663D01*
X116662004Y-74930023D01*
X116681965Y-74972830D01*
X116681967Y-74972834D01*
X116790281Y-75127521D01*
X116817505Y-75166401D01*
X116984599Y-75333495D01*
X117066499Y-75390842D01*
X117178165Y-75469032D01*
X117178167Y-75469033D01*
X117178170Y-75469035D01*
X117392337Y-75568903D01*
X117620592Y-75630063D01*
X117797034Y-75645500D01*
X117855999Y-75650659D01*
X117856000Y-75650659D01*
X117856001Y-75650659D01*
X117914966Y-75645500D01*
X118091408Y-75630063D01*
X118245417Y-75588797D01*
X118249407Y-75587728D01*
X118319257Y-75589391D01*
X118377119Y-75628554D01*
X118404623Y-75692782D01*
X118405500Y-75707503D01*
X118405500Y-85772330D01*
X118405499Y-85772348D01*
X118405499Y-85938054D01*
X118405498Y-85938054D01*
X118440321Y-86068011D01*
X118446423Y-86090785D01*
X118456651Y-86108500D01*
X118525477Y-86227712D01*
X118525481Y-86227717D01*
X118549298Y-86251534D01*
X118582783Y-86312857D01*
X118584837Y-86325330D01*
X118591405Y-86383615D01*
X118579351Y-86452437D01*
X118532003Y-86503817D01*
X118468185Y-86521500D01*
X117480626Y-86521500D01*
X117413587Y-86501815D01*
X117392945Y-86485181D01*
X116628102Y-85720338D01*
X116594617Y-85659015D01*
X116599601Y-85589323D01*
X116628102Y-85544976D01*
X116665867Y-85507211D01*
X116707816Y-85465262D01*
X116803789Y-85312522D01*
X116863368Y-85142255D01*
X116863369Y-85142249D01*
X116883565Y-84963003D01*
X116883565Y-84962996D01*
X116863369Y-84783750D01*
X116863368Y-84783745D01*
X116803788Y-84613476D01*
X116707815Y-84460737D01*
X116580262Y-84333184D01*
X116427521Y-84237210D01*
X116257249Y-84177630D01*
X116170330Y-84167837D01*
X116105916Y-84140770D01*
X116096533Y-84132298D01*
X113363481Y-81399246D01*
X113329996Y-81337923D01*
X113334980Y-81268231D01*
X113376852Y-81212298D01*
X113442316Y-81187881D01*
X113465044Y-81188344D01*
X113492350Y-81191421D01*
X113537998Y-81196565D01*
X113538000Y-81196565D01*
X113538004Y-81196565D01*
X113717249Y-81176369D01*
X113717252Y-81176368D01*
X113717255Y-81176368D01*
X113887522Y-81116789D01*
X114040262Y-81020816D01*
X114167816Y-80893262D01*
X114263789Y-80740522D01*
X114323368Y-80570255D01*
X114333161Y-80483329D01*
X114360226Y-80418918D01*
X114368690Y-80409543D01*
X114953535Y-79824698D01*
X115014856Y-79791215D01*
X115027311Y-79789163D01*
X115114255Y-79779368D01*
X115284522Y-79719789D01*
X115437262Y-79623816D01*
X115564816Y-79496262D01*
X115660789Y-79343522D01*
X115720368Y-79173255D01*
X115720369Y-79173249D01*
X115740565Y-78994003D01*
X115740565Y-78993996D01*
X115720369Y-78814750D01*
X115720368Y-78814745D01*
X115660787Y-78644473D01*
X115587839Y-78528378D01*
X115568838Y-78461142D01*
X115575791Y-78421451D01*
X115579361Y-78411249D01*
X115588848Y-78384137D01*
X115595227Y-78327522D01*
X115609045Y-78204885D01*
X115609045Y-78204878D01*
X115588849Y-78025632D01*
X115588846Y-78025619D01*
X115528607Y-77853468D01*
X115525045Y-77783689D01*
X115559367Y-77723769D01*
X115559338Y-77723740D01*
X115559447Y-77723630D01*
X115559773Y-77723062D01*
X115561716Y-77721361D01*
X115564259Y-77718817D01*
X115564262Y-77718816D01*
X115691816Y-77591262D01*
X115787789Y-77438522D01*
X115847368Y-77268255D01*
X115855889Y-77192630D01*
X115867565Y-77089003D01*
X115867565Y-77088996D01*
X115847369Y-76909750D01*
X115847368Y-76909745D01*
X115811598Y-76807520D01*
X115787789Y-76739478D01*
X115760291Y-76695716D01*
X115699355Y-76598737D01*
X115691816Y-76586738D01*
X115564262Y-76459184D01*
X115506620Y-76422965D01*
X115411523Y-76363211D01*
X115241254Y-76303631D01*
X115241249Y-76303630D01*
X115062004Y-76283435D01*
X115061996Y-76283435D01*
X114882750Y-76303630D01*
X114882745Y-76303631D01*
X114712476Y-76363211D01*
X114559736Y-76459185D01*
X114556903Y-76461445D01*
X114554724Y-76462334D01*
X114553842Y-76462889D01*
X114553744Y-76462734D01*
X114492217Y-76487855D01*
X114479588Y-76488500D01*
X113739412Y-76488500D01*
X113672373Y-76468815D01*
X113662097Y-76461445D01*
X113659263Y-76459185D01*
X113659262Y-76459184D01*
X113601620Y-76422965D01*
X113506523Y-76363211D01*
X113336254Y-76303631D01*
X113336249Y-76303630D01*
X113157004Y-76283435D01*
X113156996Y-76283435D01*
X112977750Y-76303630D01*
X112977745Y-76303631D01*
X112807476Y-76363211D01*
X112654737Y-76459184D01*
X112527184Y-76586737D01*
X112431211Y-76739476D01*
X112371631Y-76909745D01*
X112371630Y-76909750D01*
X112351435Y-77088996D01*
X112351435Y-77089003D01*
X112371630Y-77268249D01*
X112371631Y-77268254D01*
X112431211Y-77438523D01*
X112529236Y-77594528D01*
X112548236Y-77661765D01*
X112529236Y-77726472D01*
X112431211Y-77882476D01*
X112371631Y-78052745D01*
X112371630Y-78052750D01*
X112351435Y-78231996D01*
X112351435Y-78232003D01*
X112371630Y-78411249D01*
X112371631Y-78411254D01*
X112431211Y-78581523D01*
X112521264Y-78724841D01*
X112527184Y-78734262D01*
X112654738Y-78861816D01*
X112738269Y-78914302D01*
X112805523Y-78956561D01*
X112807478Y-78957789D01*
X112910952Y-78993996D01*
X112977745Y-79017368D01*
X112977750Y-79017369D01*
X113156996Y-79037565D01*
X113157000Y-79037565D01*
X113157004Y-79037565D01*
X113336249Y-79017369D01*
X113336252Y-79017368D01*
X113336255Y-79017368D01*
X113506522Y-78957789D01*
X113659262Y-78861816D01*
X113659267Y-78861810D01*
X113662097Y-78859555D01*
X113664275Y-78858665D01*
X113665158Y-78858111D01*
X113665255Y-78858265D01*
X113726783Y-78833145D01*
X113739412Y-78832500D01*
X113947902Y-78832500D01*
X114014941Y-78852185D01*
X114060696Y-78904989D01*
X114070640Y-78974147D01*
X114041615Y-79037703D01*
X114035583Y-79044181D01*
X113519465Y-79560298D01*
X113458142Y-79593783D01*
X113445668Y-79595837D01*
X113358750Y-79605630D01*
X113188478Y-79665210D01*
X113035737Y-79761184D01*
X112908184Y-79888737D01*
X112812211Y-80041476D01*
X112752631Y-80211745D01*
X112752630Y-80211750D01*
X112732435Y-80390996D01*
X112732435Y-80391004D01*
X112740654Y-80463954D01*
X112728599Y-80532776D01*
X112681250Y-80584155D01*
X112613639Y-80601779D01*
X112547234Y-80580052D01*
X112529753Y-80565518D01*
X110618819Y-78654584D01*
X110585334Y-78593261D01*
X110582500Y-78566903D01*
X110582500Y-70061280D01*
X110602185Y-69994241D01*
X110654989Y-69948486D01*
X110724147Y-69938542D01*
X110787703Y-69967567D01*
X110811492Y-69995306D01*
X110876184Y-70098262D01*
X111003738Y-70225816D01*
X111094080Y-70282582D01*
X111152478Y-70319276D01*
X111156478Y-70321789D01*
X111307206Y-70374531D01*
X111326745Y-70381368D01*
X111326750Y-70381369D01*
X111505996Y-70401565D01*
X111506000Y-70401565D01*
X111506004Y-70401565D01*
X111685249Y-70381369D01*
X111685252Y-70381368D01*
X111685255Y-70381368D01*
X111855522Y-70321789D01*
X111858524Y-70319903D01*
X111860741Y-70319276D01*
X111861795Y-70318769D01*
X111861883Y-70318953D01*
X111925760Y-70300900D01*
X111992596Y-70321265D01*
X112037812Y-70374531D01*
X112048500Y-70424894D01*
X112048500Y-71045587D01*
X112028815Y-71112626D01*
X112021450Y-71122896D01*
X112019186Y-71125734D01*
X111923211Y-71278476D01*
X111863631Y-71448745D01*
X111863630Y-71448750D01*
X111843435Y-71627996D01*
X111843435Y-71628003D01*
X111863630Y-71807249D01*
X111863631Y-71807254D01*
X111923211Y-71977523D01*
X111975820Y-72061249D01*
X112019184Y-72130262D01*
X112146738Y-72257816D01*
X112299478Y-72353789D01*
X112386565Y-72384262D01*
X112469745Y-72413368D01*
X112469750Y-72413369D01*
X112648996Y-72433565D01*
X112649000Y-72433565D01*
X112649004Y-72433565D01*
X112828249Y-72413369D01*
X112828252Y-72413368D01*
X112828255Y-72413368D01*
X112998522Y-72353789D01*
X113151262Y-72257816D01*
X113278816Y-72130262D01*
X113374789Y-71977522D01*
X113434368Y-71807255D01*
X113434369Y-71807249D01*
X113454565Y-71628003D01*
X113454565Y-71627996D01*
X113434369Y-71448750D01*
X113434368Y-71448745D01*
X113417829Y-71401480D01*
X113374789Y-71278478D01*
X113362732Y-71259290D01*
X113340057Y-71223202D01*
X113278816Y-71125738D01*
X113278814Y-71125736D01*
X113278813Y-71125734D01*
X113276550Y-71122896D01*
X113275659Y-71120715D01*
X113275111Y-71119842D01*
X113275264Y-71119745D01*
X113250144Y-71058209D01*
X113249500Y-71045587D01*
X113249500Y-65959097D01*
X113269185Y-65892058D01*
X113285819Y-65871416D01*
X113750416Y-65406819D01*
X113811739Y-65373334D01*
X113838097Y-65370500D01*
X114606588Y-65370500D01*
X114673627Y-65390185D01*
X114683903Y-65397555D01*
X114686736Y-65399814D01*
X114686738Y-65399816D01*
X114839478Y-65495789D01*
X115009745Y-65555368D01*
X115009749Y-65555369D01*
X115106625Y-65566283D01*
X115171582Y-65573602D01*
X115235995Y-65600668D01*
X115275550Y-65658263D01*
X115280918Y-65710705D01*
X115272435Y-65785996D01*
X115272435Y-65786003D01*
X115292630Y-65965249D01*
X115292631Y-65965254D01*
X115352211Y-66135523D01*
X115399364Y-66210565D01*
X115447111Y-66286555D01*
X115448185Y-66288263D01*
X115450445Y-66291097D01*
X115451334Y-66293275D01*
X115451889Y-66294158D01*
X115451734Y-66294255D01*
X115476855Y-66355783D01*
X115477500Y-66368412D01*
X115477500Y-66727587D01*
X115457815Y-66794626D01*
X115450450Y-66804896D01*
X115448186Y-66807734D01*
X115352211Y-66960476D01*
X115292631Y-67130745D01*
X115292630Y-67130750D01*
X115272435Y-67309996D01*
X115272435Y-67310003D01*
X115292630Y-67489249D01*
X115292631Y-67489254D01*
X115352211Y-67659523D01*
X115429038Y-67781792D01*
X115448184Y-67812262D01*
X115575738Y-67939816D01*
X115728478Y-68035789D01*
X115898745Y-68095368D01*
X115898750Y-68095369D01*
X116077996Y-68115565D01*
X116078000Y-68115565D01*
X116078004Y-68115565D01*
X116257249Y-68095369D01*
X116257252Y-68095368D01*
X116257255Y-68095368D01*
X116427522Y-68035789D01*
X116580262Y-67939816D01*
X116707816Y-67812262D01*
X116803789Y-67659522D01*
X116863368Y-67489255D01*
X116868610Y-67442734D01*
X116883565Y-67310003D01*
X116883565Y-67309996D01*
X116863369Y-67130750D01*
X116863368Y-67130745D01*
X116837215Y-67056003D01*
X116803789Y-66960478D01*
X116707816Y-66807738D01*
X116707814Y-66807736D01*
X116707813Y-66807734D01*
X116705550Y-66804896D01*
X116704659Y-66802715D01*
X116704111Y-66801842D01*
X116704264Y-66801745D01*
X116679144Y-66740209D01*
X116678500Y-66727587D01*
X116678500Y-66368412D01*
X116698185Y-66301373D01*
X116705555Y-66291097D01*
X116707810Y-66288267D01*
X116707816Y-66288262D01*
X116803789Y-66135522D01*
X116863368Y-65965255D01*
X116863369Y-65965249D01*
X116883565Y-65786003D01*
X116883565Y-65785996D01*
X116863369Y-65606750D01*
X116863368Y-65606745D01*
X116803788Y-65436476D01*
X116732451Y-65322945D01*
X116707816Y-65283738D01*
X116580262Y-65156184D01*
X116427523Y-65060211D01*
X116257254Y-65000631D01*
X116257249Y-65000630D01*
X116095419Y-64982397D01*
X116031005Y-64955331D01*
X115991449Y-64897736D01*
X115986082Y-64845294D01*
X115994565Y-64770003D01*
X115994565Y-64769996D01*
X115974369Y-64590750D01*
X115974368Y-64590745D01*
X115949613Y-64519999D01*
X115914789Y-64420478D01*
X115818816Y-64267738D01*
X115691262Y-64140184D01*
X115690996Y-64140017D01*
X115538523Y-64044211D01*
X115368254Y-63984631D01*
X115368249Y-63984630D01*
X115189004Y-63964435D01*
X115188996Y-63964435D01*
X115009750Y-63984630D01*
X115009745Y-63984631D01*
X114839476Y-64044211D01*
X114686736Y-64140185D01*
X114683903Y-64142445D01*
X114681724Y-64143334D01*
X114680842Y-64143889D01*
X114680744Y-64143734D01*
X114619217Y-64168855D01*
X114606588Y-64169500D01*
X113624669Y-64169500D01*
X113624653Y-64169499D01*
X113617057Y-64169499D01*
X113458943Y-64169499D01*
X113344397Y-64200192D01*
X113306214Y-64210423D01*
X113271403Y-64230522D01*
X113271402Y-64230522D01*
X113169287Y-64289477D01*
X113169282Y-64289481D01*
X112168481Y-65290282D01*
X112168480Y-65290284D01*
X112129130Y-65358441D01*
X112089423Y-65427215D01*
X112048499Y-65579943D01*
X112048499Y-65579945D01*
X112048499Y-65748046D01*
X112048500Y-65748059D01*
X112048500Y-67062105D01*
X112028815Y-67129144D01*
X111976011Y-67174899D01*
X111906853Y-67184843D01*
X111858532Y-67167101D01*
X111855526Y-67165212D01*
X111685254Y-67105631D01*
X111685249Y-67105630D01*
X111506004Y-67085435D01*
X111505996Y-67085435D01*
X111326750Y-67105630D01*
X111326745Y-67105631D01*
X111156476Y-67165211D01*
X111003737Y-67261184D01*
X110876184Y-67388737D01*
X110811494Y-67491691D01*
X110759159Y-67537982D01*
X110690105Y-67548630D01*
X110626257Y-67520255D01*
X110587885Y-67461865D01*
X110582500Y-67425719D01*
X110582500Y-55426930D01*
X110602185Y-55359891D01*
X110618819Y-55339249D01*
X112221782Y-53736286D01*
X112283105Y-53702801D01*
X112352797Y-53707785D01*
X112408730Y-53749657D01*
X112433147Y-53815121D01*
X112433463Y-53823967D01*
X112433463Y-54221550D01*
X112413778Y-54288589D01*
X112406413Y-54298859D01*
X112404149Y-54301697D01*
X112308174Y-54454439D01*
X112248594Y-54624708D01*
X112248593Y-54624713D01*
X112228398Y-54803959D01*
X112228398Y-54803966D01*
X112248593Y-54983212D01*
X112248594Y-54983217D01*
X112308174Y-55153486D01*
X112368934Y-55250184D01*
X112404147Y-55306225D01*
X112531701Y-55433779D01*
X112542275Y-55440423D01*
X112659384Y-55514008D01*
X112684441Y-55529752D01*
X112827764Y-55579903D01*
X112854708Y-55589331D01*
X112854713Y-55589332D01*
X113033960Y-55609528D01*
X113033961Y-55609528D01*
X113033961Y-55609527D01*
X113033963Y-55609528D01*
X113080212Y-55604316D01*
X113149032Y-55616369D01*
X113181777Y-55639855D01*
X113289738Y-55747816D01*
X113442478Y-55843789D01*
X113545952Y-55879996D01*
X113612745Y-55903368D01*
X113612750Y-55903369D01*
X113791996Y-55923565D01*
X113792000Y-55923565D01*
X113792004Y-55923565D01*
X113971249Y-55903369D01*
X113971252Y-55903368D01*
X113971255Y-55903368D01*
X114141522Y-55843789D01*
X114294262Y-55747816D01*
X114421816Y-55620262D01*
X114517789Y-55467522D01*
X114577368Y-55297255D01*
X114578430Y-55287830D01*
X114597565Y-55118003D01*
X114597565Y-55117996D01*
X114577369Y-54938750D01*
X114577368Y-54938745D01*
X114551868Y-54865870D01*
X114517789Y-54768478D01*
X114511277Y-54758115D01*
X114478083Y-54705286D01*
X114421816Y-54615738D01*
X114421814Y-54615736D01*
X114421813Y-54615734D01*
X114419550Y-54612896D01*
X114418659Y-54610715D01*
X114418111Y-54609842D01*
X114418264Y-54609745D01*
X114393144Y-54548209D01*
X114392500Y-54535587D01*
X114392500Y-53668412D01*
X114412185Y-53601373D01*
X114419555Y-53591097D01*
X114421810Y-53588267D01*
X114421816Y-53588262D01*
X114517789Y-53435522D01*
X114577368Y-53265255D01*
X114583143Y-53214001D01*
X114597565Y-53086003D01*
X114597565Y-53085996D01*
X114582639Y-52953523D01*
X114594693Y-52884702D01*
X114642043Y-52833322D01*
X114664901Y-52822599D01*
X114741522Y-52795789D01*
X114894262Y-52699816D01*
X115021816Y-52572262D01*
X115117789Y-52419522D01*
X115177368Y-52249255D01*
X115180623Y-52220368D01*
X115197565Y-52070003D01*
X115197565Y-52069996D01*
X115177369Y-51890753D01*
X115177368Y-51890751D01*
X115177368Y-51890745D01*
X115151298Y-51816244D01*
X115147737Y-51746466D01*
X115163347Y-51709317D01*
X115179719Y-51683262D01*
X115217885Y-51622522D01*
X115277464Y-51452255D01*
X115279409Y-51435000D01*
X115285198Y-51383617D01*
X115312264Y-51319203D01*
X115369859Y-51279648D01*
X115408418Y-51273500D01*
X116412903Y-51273500D01*
X116479942Y-51293185D01*
G37*
%TD.AperFunction*%
%TA.AperFunction,Conductor*%
G36*
X135952979Y-37350185D02*
G01*
X135998734Y-37402989D01*
X136008678Y-37472147D01*
X135990934Y-37520472D01*
X135926210Y-37623478D01*
X135866630Y-37793750D01*
X135856837Y-37880667D01*
X135829770Y-37945081D01*
X135821298Y-37954464D01*
X134632286Y-39143478D01*
X134520481Y-39255282D01*
X134520479Y-39255285D01*
X134470361Y-39342094D01*
X134470359Y-39342096D01*
X134441425Y-39392209D01*
X134441424Y-39392210D01*
X134441423Y-39392215D01*
X134400499Y-39544943D01*
X134400499Y-39544945D01*
X134400499Y-39713046D01*
X134400500Y-39713059D01*
X134400500Y-41835587D01*
X134380815Y-41902626D01*
X134373450Y-41912896D01*
X134371186Y-41915734D01*
X134275211Y-42068476D01*
X134215631Y-42238745D01*
X134215630Y-42238750D01*
X134195435Y-42417996D01*
X134195435Y-42418003D01*
X134215630Y-42597249D01*
X134215631Y-42597254D01*
X134275211Y-42767523D01*
X134352037Y-42889790D01*
X134371184Y-42920262D01*
X134498738Y-43047816D01*
X134547452Y-43078425D01*
X134634310Y-43133002D01*
X134651478Y-43143789D01*
X134754963Y-43180000D01*
X134821745Y-43203368D01*
X134821750Y-43203369D01*
X135000996Y-43223565D01*
X135001000Y-43223565D01*
X135001004Y-43223565D01*
X135180249Y-43203369D01*
X135180249Y-43203368D01*
X135180255Y-43203368D01*
X135185702Y-43201461D01*
X135255479Y-43197896D01*
X135316109Y-43232620D01*
X135348340Y-43294612D01*
X135349883Y-43332384D01*
X135338435Y-43433995D01*
X135338435Y-43434003D01*
X135358630Y-43613249D01*
X135358631Y-43613254D01*
X135418211Y-43783523D01*
X135449048Y-43832599D01*
X135514184Y-43936262D01*
X135641738Y-44063816D01*
X135659130Y-44074744D01*
X135778634Y-44149834D01*
X135794478Y-44159789D01*
X135920826Y-44204000D01*
X135964745Y-44219368D01*
X135964750Y-44219369D01*
X136143996Y-44239565D01*
X136144000Y-44239565D01*
X136144004Y-44239565D01*
X136323249Y-44219369D01*
X136323252Y-44219368D01*
X136323255Y-44219368D01*
X136493522Y-44159789D01*
X136646262Y-44063816D01*
X136646267Y-44063810D01*
X136649097Y-44061555D01*
X136651275Y-44060665D01*
X136652158Y-44060111D01*
X136652255Y-44060265D01*
X136713783Y-44035145D01*
X136726412Y-44034500D01*
X137748903Y-44034500D01*
X137815942Y-44054185D01*
X137836584Y-44070819D01*
X138869298Y-45103534D01*
X138902783Y-45164857D01*
X138904837Y-45177331D01*
X138914630Y-45264249D01*
X138974210Y-45434521D01*
X139008126Y-45488498D01*
X139070184Y-45587262D01*
X139197738Y-45714816D01*
X139350478Y-45810789D01*
X139381303Y-45821575D01*
X139520745Y-45870368D01*
X139520750Y-45870369D01*
X139699996Y-45890565D01*
X139700000Y-45890565D01*
X139700004Y-45890565D01*
X139879249Y-45870369D01*
X139879252Y-45870368D01*
X139879255Y-45870368D01*
X140049522Y-45810789D01*
X140202262Y-45714816D01*
X140329816Y-45587262D01*
X140425789Y-45434522D01*
X140485368Y-45264255D01*
X140492755Y-45198685D01*
X140519820Y-45134276D01*
X140577414Y-45094720D01*
X140647251Y-45092581D01*
X140703656Y-45124891D01*
X141282298Y-45703533D01*
X141315783Y-45764856D01*
X141317837Y-45777330D01*
X141327630Y-45864249D01*
X141387210Y-46034521D01*
X141387211Y-46034522D01*
X141483184Y-46187262D01*
X141610738Y-46314816D01*
X141763478Y-46410789D01*
X141844692Y-46439207D01*
X141933745Y-46470368D01*
X141933749Y-46470369D01*
X142022857Y-46480408D01*
X142037383Y-46482045D01*
X142101797Y-46509111D01*
X142141352Y-46566705D01*
X142147500Y-46605265D01*
X142147500Y-46661587D01*
X142127815Y-46728626D01*
X142120450Y-46738896D01*
X142118186Y-46741734D01*
X142022210Y-46894478D01*
X141962630Y-47064750D01*
X141954898Y-47133383D01*
X141927832Y-47197797D01*
X141870237Y-47237352D01*
X141831678Y-47243500D01*
X125463057Y-47243500D01*
X125304943Y-47243500D01*
X125152215Y-47284423D01*
X125152214Y-47284423D01*
X125152212Y-47284424D01*
X125152209Y-47284425D01*
X125102096Y-47313359D01*
X125102095Y-47313360D01*
X125058689Y-47338420D01*
X125015285Y-47363479D01*
X125015282Y-47363481D01*
X124903478Y-47475286D01*
X124695465Y-47683298D01*
X124634142Y-47716783D01*
X124621668Y-47718837D01*
X124534750Y-47728630D01*
X124364478Y-47788210D01*
X124211737Y-47884184D01*
X124084184Y-48011737D01*
X123988211Y-48164476D01*
X123928631Y-48334745D01*
X123928630Y-48334750D01*
X123908435Y-48513996D01*
X123908435Y-48514003D01*
X123928630Y-48693249D01*
X123928631Y-48693254D01*
X123988211Y-48863523D01*
X124075315Y-49002147D01*
X124084184Y-49016262D01*
X124211738Y-49143816D01*
X124364478Y-49239789D01*
X124490826Y-49284000D01*
X124534745Y-49299368D01*
X124534750Y-49299369D01*
X124713996Y-49319565D01*
X124714000Y-49319565D01*
X124714004Y-49319565D01*
X124893249Y-49299369D01*
X124893252Y-49299368D01*
X124893255Y-49299368D01*
X125063522Y-49239789D01*
X125216262Y-49143816D01*
X125343816Y-49016262D01*
X125439789Y-48863522D01*
X125499368Y-48693255D01*
X125509161Y-48606329D01*
X125536226Y-48541919D01*
X125544689Y-48532544D01*
X125596418Y-48480817D01*
X125657742Y-48447333D01*
X125684098Y-48444500D01*
X134937902Y-48444500D01*
X135004941Y-48464185D01*
X135050696Y-48516989D01*
X135060640Y-48586147D01*
X135031615Y-48649703D01*
X135025582Y-48656182D01*
X134982464Y-48699299D01*
X134921141Y-48732784D01*
X134908668Y-48734837D01*
X134821750Y-48744630D01*
X134651478Y-48804210D01*
X134498737Y-48900184D01*
X134371184Y-49027737D01*
X134275211Y-49180476D01*
X134215631Y-49350745D01*
X134215630Y-49350750D01*
X134195435Y-49529996D01*
X134195435Y-49530003D01*
X134215630Y-49709249D01*
X134215631Y-49709254D01*
X134275211Y-49879523D01*
X134371184Y-50032262D01*
X134371185Y-50032263D01*
X134416241Y-50077320D01*
X134449725Y-50138643D01*
X134444740Y-50208335D01*
X134416241Y-50252680D01*
X134371184Y-50297737D01*
X134275211Y-50450476D01*
X134215631Y-50620745D01*
X134215630Y-50620750D01*
X134195435Y-50799996D01*
X134195435Y-50800003D01*
X134215630Y-50979249D01*
X134215631Y-50979254D01*
X134275211Y-51149523D01*
X134371184Y-51302262D01*
X134488741Y-51419819D01*
X134522226Y-51481142D01*
X134517242Y-51550834D01*
X134475370Y-51606767D01*
X134409906Y-51631184D01*
X134401060Y-51631500D01*
X123479209Y-51631500D01*
X123412170Y-51611815D01*
X123366415Y-51559011D01*
X123355989Y-51521383D01*
X123340369Y-51382750D01*
X123340368Y-51382745D01*
X123310535Y-51297487D01*
X123280789Y-51212478D01*
X123278649Y-51209073D01*
X123241231Y-51149522D01*
X123184816Y-51059738D01*
X123184814Y-51059736D01*
X123184813Y-51059734D01*
X123182550Y-51056896D01*
X123181659Y-51054715D01*
X123181111Y-51053842D01*
X123181264Y-51053745D01*
X123156144Y-50992209D01*
X123155500Y-50979587D01*
X123155500Y-49774259D01*
X123155500Y-49774257D01*
X123121288Y-49646577D01*
X123114578Y-49621533D01*
X123114577Y-49621530D01*
X123114577Y-49621529D01*
X123077598Y-49557480D01*
X123035520Y-49484598D01*
X122923716Y-49372794D01*
X122923715Y-49372793D01*
X122919385Y-49368463D01*
X122919374Y-49368453D01*
X117756680Y-44205759D01*
X117723195Y-44144436D01*
X117728179Y-44074744D01*
X117756676Y-44030401D01*
X117850816Y-43936262D01*
X117946789Y-43783522D01*
X118006368Y-43613255D01*
X118012849Y-43555735D01*
X118026565Y-43434003D01*
X118026565Y-43433996D01*
X118006369Y-43254750D01*
X118006368Y-43254745D01*
X117996990Y-43227944D01*
X117946789Y-43084478D01*
X117850816Y-42931738D01*
X117850814Y-42931736D01*
X117849991Y-42930426D01*
X117830991Y-42863190D01*
X117851358Y-42796354D01*
X117867295Y-42776782D01*
X117977816Y-42666262D01*
X118073789Y-42513522D01*
X118133368Y-42343255D01*
X118133369Y-42343249D01*
X118153565Y-42164003D01*
X118153565Y-42163996D01*
X118133369Y-41984750D01*
X118133368Y-41984745D01*
X118118228Y-41941478D01*
X118073789Y-41814478D01*
X118057615Y-41788738D01*
X118034230Y-41751521D01*
X117977816Y-41661738D01*
X117850262Y-41534184D01*
X117786840Y-41494333D01*
X117747309Y-41469494D01*
X117701018Y-41417159D01*
X117690370Y-41348105D01*
X117718745Y-41284257D01*
X117777135Y-41245885D01*
X117813281Y-41240500D01*
X130227588Y-41240500D01*
X130294627Y-41260185D01*
X130304903Y-41267555D01*
X130307736Y-41269814D01*
X130307738Y-41269816D01*
X130460478Y-41365789D01*
X130563952Y-41401996D01*
X130630745Y-41425368D01*
X130630750Y-41425369D01*
X130809996Y-41445565D01*
X130810000Y-41445565D01*
X130810004Y-41445565D01*
X130989249Y-41425369D01*
X130989252Y-41425368D01*
X130989255Y-41425368D01*
X131159522Y-41365789D01*
X131312262Y-41269816D01*
X131439816Y-41142262D01*
X131535789Y-40989522D01*
X131595368Y-40819255D01*
X131596873Y-40805900D01*
X131615565Y-40640003D01*
X131615565Y-40639996D01*
X131595369Y-40460750D01*
X131595368Y-40460745D01*
X131593284Y-40454788D01*
X131535789Y-40290478D01*
X131504952Y-40241402D01*
X131465907Y-40179262D01*
X131439816Y-40137738D01*
X131312262Y-40010184D01*
X131308361Y-40007733D01*
X131159523Y-39914211D01*
X130989254Y-39854631D01*
X130989249Y-39854630D01*
X130810004Y-39834435D01*
X130809996Y-39834435D01*
X130630750Y-39854630D01*
X130630745Y-39854631D01*
X130460476Y-39914211D01*
X130307736Y-40010185D01*
X130304903Y-40012445D01*
X130302724Y-40013334D01*
X130301842Y-40013889D01*
X130301744Y-40013734D01*
X130240217Y-40038855D01*
X130227588Y-40039500D01*
X103718670Y-40039500D01*
X103718654Y-40039499D01*
X103711058Y-40039499D01*
X103552943Y-40039499D01*
X103476579Y-40059961D01*
X103400214Y-40080423D01*
X103400209Y-40080426D01*
X103263290Y-40159475D01*
X103263282Y-40159481D01*
X102851465Y-40571298D01*
X102790142Y-40604783D01*
X102777668Y-40606837D01*
X102690750Y-40616630D01*
X102520478Y-40676210D01*
X102367737Y-40772184D01*
X102240184Y-40899737D01*
X102144211Y-41052476D01*
X102084631Y-41222745D01*
X102084630Y-41222750D01*
X102064435Y-41401996D01*
X102064435Y-41402003D01*
X102084630Y-41581249D01*
X102084631Y-41581254D01*
X102144211Y-41751523D01*
X102239156Y-41902626D01*
X102240184Y-41904262D01*
X102367738Y-42031816D01*
X102426082Y-42068476D01*
X102499780Y-42114784D01*
X102520478Y-42127789D01*
X102623952Y-42163996D01*
X102690745Y-42187368D01*
X102690750Y-42187369D01*
X102869996Y-42207565D01*
X102870000Y-42207565D01*
X102870004Y-42207565D01*
X103049249Y-42187369D01*
X103049252Y-42187368D01*
X103049255Y-42187368D01*
X103219522Y-42127789D01*
X103372262Y-42031816D01*
X103499816Y-41904262D01*
X103595789Y-41751522D01*
X103655368Y-41581255D01*
X103665161Y-41494329D01*
X103692226Y-41429919D01*
X103700701Y-41420533D01*
X103844419Y-41276818D01*
X103905742Y-41243334D01*
X103932099Y-41240500D01*
X105283060Y-41240500D01*
X105350099Y-41260185D01*
X105395854Y-41312989D01*
X105405798Y-41382147D01*
X105376773Y-41445703D01*
X105370741Y-41452181D01*
X105288184Y-41534737D01*
X105192212Y-41687474D01*
X105162832Y-41771435D01*
X105122109Y-41828210D01*
X105086748Y-41847519D01*
X105002787Y-41876899D01*
X104850050Y-41972871D01*
X104722497Y-42100424D01*
X104626524Y-42253163D01*
X104566944Y-42423432D01*
X104566943Y-42423437D01*
X104546748Y-42602683D01*
X104546748Y-42602690D01*
X104566943Y-42781936D01*
X104566944Y-42781941D01*
X104626524Y-42952210D01*
X104709634Y-43084478D01*
X104722497Y-43104949D01*
X104850051Y-43232503D01*
X105002791Y-43328476D01*
X105173058Y-43388055D01*
X105259982Y-43397848D01*
X105324393Y-43424913D01*
X105333778Y-43433387D01*
X105919209Y-44018819D01*
X105952694Y-44080142D01*
X105947710Y-44149834D01*
X105905838Y-44205767D01*
X105840374Y-44230184D01*
X105831528Y-44230500D01*
X104226670Y-44230500D01*
X104226654Y-44230499D01*
X104219058Y-44230499D01*
X104060943Y-44230499D01*
X103984579Y-44250961D01*
X103908214Y-44271423D01*
X103908209Y-44271426D01*
X103771290Y-44350475D01*
X103771282Y-44350481D01*
X99422465Y-48699298D01*
X99361142Y-48732783D01*
X99348668Y-48734837D01*
X99261750Y-48744630D01*
X99091478Y-48804210D01*
X98938737Y-48900184D01*
X98811184Y-49027737D01*
X98715211Y-49180476D01*
X98655631Y-49350745D01*
X98655630Y-49350750D01*
X98635435Y-49529996D01*
X98635435Y-49530003D01*
X98655630Y-49709249D01*
X98655631Y-49709254D01*
X98715211Y-49879523D01*
X98786931Y-49993664D01*
X98811184Y-50032262D01*
X98938738Y-50159816D01*
X99029080Y-50216582D01*
X99082145Y-50249925D01*
X99091478Y-50255789D01*
X99250268Y-50311352D01*
X99261745Y-50315368D01*
X99261750Y-50315369D01*
X99440996Y-50335565D01*
X99441000Y-50335565D01*
X99441004Y-50335565D01*
X99620249Y-50315369D01*
X99620252Y-50315368D01*
X99620255Y-50315368D01*
X99790522Y-50255789D01*
X99943262Y-50159816D01*
X100070816Y-50032262D01*
X100166789Y-49879522D01*
X100226368Y-49709255D01*
X100236161Y-49622329D01*
X100263226Y-49557918D01*
X100271690Y-49548543D01*
X101930819Y-47889415D01*
X101992141Y-47855931D01*
X102061833Y-47860915D01*
X102117766Y-47902787D01*
X102142183Y-47968251D01*
X102142499Y-47977097D01*
X102142499Y-48095046D01*
X102142500Y-48095059D01*
X102142500Y-49737902D01*
X102122815Y-49804941D01*
X102106181Y-49825583D01*
X100946465Y-50985298D01*
X100885142Y-51018783D01*
X100872668Y-51020837D01*
X100785750Y-51030630D01*
X100615478Y-51090210D01*
X100462737Y-51186184D01*
X100335187Y-51313735D01*
X100335184Y-51313737D01*
X100239211Y-51466476D01*
X100179631Y-51636745D01*
X100179630Y-51636750D01*
X100159435Y-51815996D01*
X100159435Y-51816003D01*
X100179630Y-51995249D01*
X100179631Y-51995254D01*
X100239211Y-52165523D01*
X100291820Y-52249249D01*
X100335184Y-52318262D01*
X100462738Y-52445816D01*
X100528613Y-52487208D01*
X100621374Y-52545494D01*
X100620342Y-52547135D01*
X100665076Y-52587516D01*
X100683395Y-52654941D01*
X100666810Y-52714420D01*
X100659423Y-52727214D01*
X100659423Y-52727215D01*
X100618499Y-52879943D01*
X100618499Y-52879945D01*
X100618499Y-53048046D01*
X100618500Y-53048059D01*
X100618500Y-53392587D01*
X100598815Y-53459626D01*
X100591450Y-53469896D01*
X100589186Y-53472734D01*
X100493211Y-53625476D01*
X100433631Y-53795745D01*
X100433630Y-53795750D01*
X100413435Y-53974996D01*
X100413435Y-53975003D01*
X100433630Y-54154249D01*
X100433631Y-54154254D01*
X100493211Y-54324523D01*
X100540853Y-54400344D01*
X100589184Y-54477262D01*
X100716738Y-54604816D01*
X100869478Y-54700789D01*
X101033306Y-54758115D01*
X101039745Y-54760368D01*
X101039750Y-54760369D01*
X101218996Y-54780565D01*
X101219000Y-54780565D01*
X101219004Y-54780565D01*
X101398249Y-54760369D01*
X101398252Y-54760368D01*
X101398255Y-54760368D01*
X101568522Y-54700789D01*
X101721262Y-54604816D01*
X101848816Y-54477262D01*
X101944789Y-54324522D01*
X102004368Y-54154255D01*
X102004369Y-54154249D01*
X102024565Y-53975003D01*
X102024565Y-53974996D01*
X102004369Y-53795750D01*
X102004368Y-53795745D01*
X101960819Y-53671289D01*
X101944789Y-53625478D01*
X101928615Y-53599738D01*
X101900634Y-53555206D01*
X101848816Y-53472738D01*
X101848814Y-53472736D01*
X101848813Y-53472734D01*
X101846550Y-53469896D01*
X101845659Y-53467715D01*
X101845111Y-53466842D01*
X101845264Y-53466745D01*
X101820144Y-53405209D01*
X101819500Y-53392587D01*
X101819500Y-53259096D01*
X101839185Y-53192057D01*
X101855814Y-53171420D01*
X103990506Y-51036727D01*
X103990511Y-51036724D01*
X104000714Y-51026520D01*
X104000716Y-51026520D01*
X104112520Y-50914716D01*
X104191577Y-50777784D01*
X104224369Y-50655401D01*
X104232500Y-50625058D01*
X104232500Y-50466943D01*
X104232500Y-48941097D01*
X104252185Y-48874058D01*
X104268819Y-48853416D01*
X106003416Y-47118819D01*
X106064739Y-47085334D01*
X106091097Y-47082500D01*
X110288588Y-47082500D01*
X110355627Y-47102185D01*
X110365903Y-47109555D01*
X110368736Y-47111814D01*
X110368738Y-47111816D01*
X110521478Y-47207789D01*
X110624963Y-47244000D01*
X110691745Y-47267368D01*
X110691750Y-47267369D01*
X110870996Y-47287565D01*
X110871000Y-47287565D01*
X110871004Y-47287565D01*
X111050249Y-47267369D01*
X111050252Y-47267368D01*
X111050255Y-47267368D01*
X111220522Y-47207789D01*
X111373262Y-47111816D01*
X111500816Y-46984262D01*
X111596789Y-46831522D01*
X111656368Y-46661255D01*
X111662677Y-46605265D01*
X111667081Y-46566171D01*
X111673071Y-46513004D01*
X111700137Y-46448591D01*
X111757731Y-46409036D01*
X111827568Y-46406897D01*
X111883972Y-46439207D01*
X112799139Y-47354374D01*
X112799149Y-47354385D01*
X112803479Y-47358715D01*
X112803480Y-47358716D01*
X112915284Y-47470520D01*
X112915286Y-47470521D01*
X112915290Y-47470524D01*
X113010475Y-47525478D01*
X113052216Y-47549577D01*
X113141211Y-47573423D01*
X113204942Y-47590500D01*
X113204943Y-47590500D01*
X113809588Y-47590500D01*
X113876627Y-47610185D01*
X113886903Y-47617555D01*
X113889736Y-47619814D01*
X113889738Y-47619816D01*
X113990769Y-47683298D01*
X114029545Y-47707663D01*
X114042478Y-47715789D01*
X114209450Y-47774215D01*
X114212745Y-47775368D01*
X114212750Y-47775369D01*
X114391996Y-47795565D01*
X114392000Y-47795565D01*
X114392004Y-47795565D01*
X114571249Y-47775369D01*
X114571252Y-47775368D01*
X114571255Y-47775368D01*
X114741522Y-47715789D01*
X114894262Y-47619816D01*
X115021816Y-47492262D01*
X115117789Y-47339522D01*
X115177368Y-47169255D01*
X115189143Y-47064750D01*
X115197565Y-46990003D01*
X115197565Y-46989996D01*
X115177369Y-46810750D01*
X115177368Y-46810745D01*
X115117788Y-46640476D01*
X115071099Y-46566171D01*
X115021816Y-46487738D01*
X114894262Y-46360184D01*
X114883117Y-46353181D01*
X114741523Y-46264211D01*
X114571254Y-46204631D01*
X114571249Y-46204630D01*
X114392004Y-46184435D01*
X114391996Y-46184435D01*
X114212750Y-46204630D01*
X114212745Y-46204631D01*
X114042476Y-46264211D01*
X113889736Y-46360185D01*
X113886903Y-46362445D01*
X113884724Y-46363334D01*
X113883842Y-46363889D01*
X113883744Y-46363734D01*
X113822217Y-46388855D01*
X113809588Y-46389500D01*
X113584097Y-46389500D01*
X113517058Y-46369815D01*
X113496416Y-46353181D01*
X112786416Y-45643181D01*
X112752931Y-45581858D01*
X112757915Y-45512166D01*
X112799787Y-45456233D01*
X112865251Y-45431816D01*
X112874097Y-45431500D01*
X116190293Y-45431500D01*
X116257332Y-45451185D01*
X116303087Y-45503989D01*
X116307335Y-45514546D01*
X116308631Y-45518251D01*
X116308632Y-45518255D01*
X116328629Y-45575402D01*
X116368210Y-45688521D01*
X116448289Y-45815965D01*
X116464184Y-45841262D01*
X116591738Y-45968816D01*
X116744478Y-46064789D01*
X116898258Y-46118599D01*
X116914745Y-46124368D01*
X116914750Y-46124369D01*
X117093996Y-46144565D01*
X117094000Y-46144565D01*
X117094004Y-46144565D01*
X117273249Y-46124369D01*
X117273252Y-46124368D01*
X117273255Y-46124368D01*
X117443522Y-46064789D01*
X117596262Y-45968816D01*
X117621084Y-45943992D01*
X117682404Y-45910509D01*
X117752096Y-45915493D01*
X117796445Y-45943994D01*
X121918181Y-50065730D01*
X121951666Y-50127053D01*
X121954500Y-50153411D01*
X121954500Y-50979587D01*
X121934815Y-51046626D01*
X121927450Y-51056896D01*
X121925186Y-51059734D01*
X121829211Y-51212476D01*
X121769631Y-51382745D01*
X121769630Y-51382750D01*
X121749435Y-51561996D01*
X121749435Y-51562003D01*
X121769630Y-51741249D01*
X121769633Y-51741262D01*
X121812557Y-51863929D01*
X121816119Y-51933708D01*
X121783197Y-51992565D01*
X121139465Y-52636298D01*
X121078142Y-52669783D01*
X121065668Y-52671837D01*
X120978750Y-52681630D01*
X120808478Y-52741210D01*
X120655737Y-52837184D01*
X120528184Y-52964737D01*
X120432209Y-53117480D01*
X120398435Y-53214001D01*
X120357714Y-53270777D01*
X120292761Y-53296524D01*
X120275964Y-53296353D01*
X120275964Y-53296435D01*
X120268996Y-53296435D01*
X120089750Y-53316630D01*
X120089745Y-53316631D01*
X119919476Y-53376211D01*
X119766737Y-53472184D01*
X119765814Y-53472921D01*
X119765104Y-53473210D01*
X119760842Y-53475889D01*
X119760372Y-53475142D01*
X119701127Y-53499330D01*
X119632432Y-53486575D01*
X119581537Y-53438705D01*
X119564500Y-53375975D01*
X119564500Y-53140059D01*
X119564501Y-53140046D01*
X119564501Y-52971945D01*
X119564501Y-52971943D01*
X119523577Y-52819215D01*
X119505360Y-52787663D01*
X119491851Y-52764264D01*
X119491851Y-52764263D01*
X119444524Y-52682290D01*
X119444521Y-52682287D01*
X119444520Y-52682284D01*
X119444517Y-52682281D01*
X119439574Y-52675839D01*
X119441916Y-52674041D01*
X119415215Y-52625141D01*
X119413163Y-52612684D01*
X119403368Y-52525745D01*
X119343789Y-52355478D01*
X119338665Y-52347324D01*
X119282649Y-52258174D01*
X119247816Y-52202738D01*
X119120262Y-52075184D01*
X118967523Y-51979211D01*
X118797254Y-51919631D01*
X118797249Y-51919630D01*
X118618004Y-51899435D01*
X118617996Y-51899435D01*
X118438750Y-51919630D01*
X118438742Y-51919632D01*
X118356754Y-51948321D01*
X118286975Y-51951882D01*
X118226348Y-51917153D01*
X118194121Y-51855159D01*
X118198759Y-51790324D01*
X118260366Y-51614262D01*
X118260369Y-51614249D01*
X118280565Y-51435003D01*
X118280565Y-51434996D01*
X118260369Y-51255750D01*
X118260368Y-51255745D01*
X118245228Y-51212478D01*
X118200789Y-51085478D01*
X118195148Y-51076501D01*
X118134253Y-50979587D01*
X118104816Y-50932738D01*
X117977262Y-50805184D01*
X117824521Y-50709210D01*
X117670742Y-50655401D01*
X117654255Y-50649632D01*
X117654254Y-50649631D01*
X117654249Y-50649630D01*
X117567330Y-50639837D01*
X117502916Y-50612770D01*
X117493533Y-50604298D01*
X117200590Y-50311355D01*
X117200588Y-50311352D01*
X117081717Y-50192481D01*
X117081709Y-50192475D01*
X116979936Y-50133717D01*
X116979934Y-50133716D01*
X116944790Y-50113425D01*
X116944789Y-50113424D01*
X116902337Y-50102049D01*
X116792057Y-50072499D01*
X116633943Y-50072499D01*
X116626347Y-50072499D01*
X116626331Y-50072500D01*
X112723412Y-50072500D01*
X112656373Y-50052815D01*
X112646097Y-50045445D01*
X112643263Y-50043185D01*
X112643262Y-50043184D01*
X112586496Y-50007515D01*
X112490523Y-49947211D01*
X112320254Y-49887631D01*
X112320249Y-49887630D01*
X112141004Y-49867435D01*
X112140996Y-49867435D01*
X111961750Y-49887630D01*
X111961745Y-49887631D01*
X111791476Y-49947211D01*
X111638737Y-50043184D01*
X111511184Y-50170737D01*
X111415210Y-50323478D01*
X111355630Y-50493750D01*
X111347898Y-50562383D01*
X111320832Y-50626797D01*
X111263237Y-50666352D01*
X111224678Y-50672500D01*
X106888199Y-50672500D01*
X106888183Y-50672499D01*
X106880587Y-50672499D01*
X106722472Y-50672499D01*
X106646108Y-50692961D01*
X106569743Y-50713423D01*
X106569738Y-50713426D01*
X106432819Y-50792475D01*
X106432811Y-50792481D01*
X101862113Y-55363181D01*
X101800790Y-55396666D01*
X101774432Y-55399500D01*
X98090603Y-55399500D01*
X98023564Y-55379815D01*
X97977809Y-55327011D01*
X97967865Y-55257853D01*
X97978220Y-55223098D01*
X98047903Y-55073663D01*
X98109063Y-54845408D01*
X98129659Y-54610000D01*
X98129205Y-54604816D01*
X98109063Y-54374596D01*
X98109063Y-54374592D01*
X98047903Y-54146337D01*
X97948035Y-53932171D01*
X97926382Y-53901246D01*
X97812494Y-53738597D01*
X97645402Y-53571506D01*
X97645396Y-53571501D01*
X97459842Y-53441575D01*
X97416217Y-53386998D01*
X97409023Y-53317500D01*
X97440546Y-53255145D01*
X97459842Y-53238425D01*
X97496148Y-53213003D01*
X97645401Y-53108495D01*
X97812495Y-52941401D01*
X97948035Y-52747830D01*
X98047903Y-52533663D01*
X98109063Y-52305408D01*
X98129659Y-52070000D01*
X98129205Y-52064816D01*
X98124860Y-52015147D01*
X98109063Y-51834592D01*
X98052239Y-51622519D01*
X98047905Y-51606344D01*
X98047904Y-51606343D01*
X98047903Y-51606337D01*
X97948035Y-51392171D01*
X97942046Y-51383617D01*
X97812494Y-51198597D01*
X97645402Y-51031506D01*
X97645396Y-51031501D01*
X97459842Y-50901575D01*
X97416217Y-50846998D01*
X97409023Y-50777500D01*
X97440546Y-50715145D01*
X97459842Y-50698425D01*
X97521286Y-50655401D01*
X97645401Y-50568495D01*
X97812495Y-50401401D01*
X97948035Y-50207830D01*
X98047903Y-49993663D01*
X98109063Y-49765408D01*
X98129659Y-49530000D01*
X98109063Y-49294592D01*
X98047903Y-49066337D01*
X97948035Y-48852171D01*
X97914454Y-48804211D01*
X97812494Y-48658597D01*
X97645402Y-48491506D01*
X97645396Y-48491501D01*
X97459842Y-48361575D01*
X97416217Y-48306998D01*
X97409023Y-48237500D01*
X97440546Y-48175145D01*
X97459842Y-48158425D01*
X97496148Y-48133003D01*
X97645401Y-48028495D01*
X97812495Y-47861401D01*
X97948035Y-47667830D01*
X98047903Y-47453663D01*
X98109063Y-47225408D01*
X98129659Y-46990000D01*
X98109063Y-46754592D01*
X98047903Y-46526337D01*
X97948035Y-46312171D01*
X97914454Y-46264211D01*
X97812494Y-46118597D01*
X97645402Y-45951506D01*
X97645396Y-45951501D01*
X97459842Y-45821575D01*
X97416217Y-45766998D01*
X97409023Y-45697500D01*
X97440546Y-45635145D01*
X97459842Y-45618425D01*
X97521286Y-45575401D01*
X97645401Y-45488495D01*
X97812495Y-45321401D01*
X97948035Y-45127830D01*
X98047903Y-44913663D01*
X98109063Y-44685408D01*
X98129659Y-44450000D01*
X98109063Y-44214592D01*
X98047903Y-43986337D01*
X97948035Y-43772171D01*
X97873345Y-43665501D01*
X97812494Y-43578597D01*
X97645402Y-43411506D01*
X97645396Y-43411501D01*
X97459842Y-43281575D01*
X97416217Y-43226998D01*
X97409023Y-43157500D01*
X97440546Y-43095145D01*
X97459842Y-43078425D01*
X97503557Y-43047815D01*
X97645401Y-42948495D01*
X97812495Y-42781401D01*
X97948035Y-42587830D01*
X98047903Y-42373663D01*
X98109063Y-42145408D01*
X98129659Y-41910000D01*
X98129205Y-41904816D01*
X98121302Y-41814478D01*
X98109063Y-41674592D01*
X98047903Y-41446337D01*
X97948035Y-41232171D01*
X97945464Y-41228498D01*
X97812494Y-41038597D01*
X97645402Y-40871506D01*
X97645396Y-40871501D01*
X97459842Y-40741575D01*
X97416217Y-40686998D01*
X97409023Y-40617500D01*
X97440546Y-40555145D01*
X97459842Y-40538425D01*
X97579279Y-40454794D01*
X97645401Y-40408495D01*
X97812495Y-40241401D01*
X97948035Y-40047830D01*
X98047903Y-39833663D01*
X98109063Y-39605408D01*
X98129659Y-39370000D01*
X98127217Y-39342094D01*
X98125539Y-39322918D01*
X98109063Y-39134592D01*
X98059082Y-38948058D01*
X98047905Y-38906344D01*
X98047904Y-38906343D01*
X98047903Y-38906337D01*
X97948035Y-38692171D01*
X97932830Y-38670455D01*
X97812494Y-38498597D01*
X97645402Y-38331506D01*
X97645395Y-38331501D01*
X97451834Y-38195967D01*
X97451830Y-38195965D01*
X97451828Y-38195964D01*
X97237663Y-38096097D01*
X97237659Y-38096096D01*
X97237655Y-38096094D01*
X97009413Y-38034938D01*
X97009403Y-38034936D01*
X96774001Y-38014341D01*
X96773999Y-38014341D01*
X96538596Y-38034936D01*
X96538586Y-38034938D01*
X96310344Y-38096094D01*
X96310335Y-38096098D01*
X96096171Y-38195964D01*
X96096169Y-38195965D01*
X95902597Y-38331505D01*
X95735505Y-38498597D01*
X95599965Y-38692169D01*
X95599964Y-38692171D01*
X95500098Y-38906335D01*
X95500094Y-38906344D01*
X95438938Y-39134586D01*
X95438936Y-39134596D01*
X95418341Y-39369999D01*
X95418341Y-39370000D01*
X95438936Y-39605403D01*
X95438938Y-39605413D01*
X95500094Y-39833655D01*
X95500096Y-39833659D01*
X95500097Y-39833663D01*
X95581268Y-40007735D01*
X95599965Y-40047830D01*
X95599967Y-40047834D01*
X95735501Y-40241395D01*
X95735506Y-40241402D01*
X95902597Y-40408493D01*
X95902603Y-40408498D01*
X96088158Y-40538425D01*
X96131783Y-40593002D01*
X96138977Y-40662500D01*
X96107454Y-40724855D01*
X96088158Y-40741575D01*
X95902597Y-40871505D01*
X95735505Y-41038597D01*
X95599965Y-41232169D01*
X95599964Y-41232171D01*
X95500098Y-41446335D01*
X95500094Y-41446344D01*
X95438938Y-41674586D01*
X95438936Y-41674596D01*
X95418341Y-41909999D01*
X95418341Y-41910000D01*
X95438936Y-42145403D01*
X95438938Y-42145413D01*
X95500094Y-42373655D01*
X95500096Y-42373659D01*
X95500097Y-42373663D01*
X95557957Y-42497743D01*
X95599965Y-42587830D01*
X95599967Y-42587834D01*
X95735501Y-42781395D01*
X95735506Y-42781402D01*
X95902597Y-42948493D01*
X95902603Y-42948498D01*
X96088158Y-43078425D01*
X96131783Y-43133002D01*
X96138977Y-43202500D01*
X96107454Y-43264855D01*
X96088158Y-43281575D01*
X95902597Y-43411505D01*
X95735505Y-43578597D01*
X95599965Y-43772169D01*
X95599964Y-43772171D01*
X95500098Y-43986335D01*
X95500094Y-43986344D01*
X95438938Y-44214586D01*
X95438936Y-44214596D01*
X95418341Y-44449999D01*
X95418341Y-44450000D01*
X95438936Y-44685403D01*
X95438938Y-44685413D01*
X95500094Y-44913655D01*
X95500096Y-44913659D01*
X95500097Y-44913663D01*
X95567194Y-45057553D01*
X95599965Y-45127830D01*
X95599967Y-45127834D01*
X95735501Y-45321395D01*
X95735506Y-45321402D01*
X95902597Y-45488493D01*
X95902603Y-45488498D01*
X96088158Y-45618425D01*
X96131783Y-45673002D01*
X96138977Y-45742500D01*
X96107454Y-45804855D01*
X96088158Y-45821575D01*
X95902597Y-45951505D01*
X95735505Y-46118597D01*
X95599965Y-46312169D01*
X95599964Y-46312171D01*
X95500098Y-46526335D01*
X95500094Y-46526344D01*
X95438938Y-46754586D01*
X95438936Y-46754596D01*
X95418341Y-46989999D01*
X95418341Y-46990000D01*
X95438936Y-47225403D01*
X95438938Y-47225413D01*
X95500094Y-47453655D01*
X95500096Y-47453659D01*
X95500097Y-47453663D01*
X95573085Y-47610185D01*
X95599965Y-47667830D01*
X95599967Y-47667834D01*
X95735501Y-47861395D01*
X95735506Y-47861402D01*
X95902597Y-48028493D01*
X95902603Y-48028498D01*
X96088158Y-48158425D01*
X96131783Y-48213002D01*
X96138977Y-48282500D01*
X96107454Y-48344855D01*
X96088158Y-48361575D01*
X95902597Y-48491505D01*
X95735505Y-48658597D01*
X95599965Y-48852169D01*
X95599964Y-48852171D01*
X95500098Y-49066335D01*
X95500094Y-49066344D01*
X95438938Y-49294586D01*
X95438936Y-49294596D01*
X95418341Y-49529999D01*
X95418341Y-49530000D01*
X95438936Y-49765403D01*
X95438938Y-49765413D01*
X95500094Y-49993655D01*
X95500096Y-49993659D01*
X95500097Y-49993663D01*
X95574589Y-50153411D01*
X95599965Y-50207830D01*
X95599967Y-50207834D01*
X95735501Y-50401395D01*
X95735506Y-50401402D01*
X95902597Y-50568493D01*
X95902603Y-50568498D01*
X96088158Y-50698425D01*
X96131783Y-50753002D01*
X96138977Y-50822500D01*
X96107454Y-50884855D01*
X96088158Y-50901575D01*
X95902597Y-51031505D01*
X95735505Y-51198597D01*
X95599965Y-51392169D01*
X95599964Y-51392171D01*
X95500098Y-51606335D01*
X95500094Y-51606344D01*
X95438938Y-51834586D01*
X95438936Y-51834596D01*
X95418341Y-52069999D01*
X95418341Y-52070000D01*
X95438936Y-52305403D01*
X95438938Y-52305413D01*
X95500094Y-52533655D01*
X95500096Y-52533659D01*
X95500097Y-52533663D01*
X95569096Y-52681632D01*
X95599965Y-52747830D01*
X95599967Y-52747834D01*
X95735501Y-52941395D01*
X95735506Y-52941402D01*
X95902597Y-53108493D01*
X95902603Y-53108498D01*
X96088158Y-53238425D01*
X96131783Y-53293002D01*
X96138977Y-53362500D01*
X96107454Y-53424855D01*
X96088158Y-53441575D01*
X95902597Y-53571505D01*
X95735505Y-53738597D01*
X95599965Y-53932169D01*
X95599964Y-53932171D01*
X95500098Y-54146335D01*
X95500094Y-54146344D01*
X95438938Y-54374586D01*
X95438936Y-54374596D01*
X95418341Y-54609999D01*
X95418341Y-54610000D01*
X95438936Y-54845403D01*
X95438938Y-54845413D01*
X95500094Y-55073655D01*
X95500097Y-55073664D01*
X95512102Y-55099408D01*
X95569779Y-55223096D01*
X95580271Y-55292172D01*
X95551751Y-55355956D01*
X95493275Y-55394196D01*
X95457397Y-55399500D01*
X89882670Y-55399500D01*
X89882654Y-55399499D01*
X89875058Y-55399499D01*
X89716943Y-55399499D01*
X89640579Y-55419961D01*
X89564214Y-55440423D01*
X89564209Y-55440426D01*
X89427290Y-55519475D01*
X89427282Y-55519481D01*
X88511482Y-56435281D01*
X88511480Y-56435283D01*
X88511480Y-56435284D01*
X88468449Y-56509816D01*
X88432423Y-56572215D01*
X88391499Y-56724943D01*
X88391499Y-56724945D01*
X88391499Y-56883054D01*
X88391498Y-56883054D01*
X88391499Y-56883057D01*
X88428997Y-57023000D01*
X88432424Y-57035787D01*
X88445947Y-57059209D01*
X88445948Y-57059211D01*
X88511477Y-57172712D01*
X88511479Y-57172715D01*
X88511480Y-57172716D01*
X88623284Y-57284520D01*
X88697768Y-57327523D01*
X88760215Y-57363577D01*
X88912943Y-57404501D01*
X88912946Y-57404501D01*
X89078653Y-57404501D01*
X89078669Y-57404500D01*
X89888678Y-57404500D01*
X89955717Y-57424185D01*
X90001472Y-57476989D01*
X90011898Y-57514617D01*
X90019630Y-57583249D01*
X90079210Y-57753521D01*
X90079211Y-57753522D01*
X90174064Y-57904480D01*
X90175185Y-57906263D01*
X90177445Y-57909097D01*
X90178334Y-57911275D01*
X90178889Y-57912158D01*
X90178734Y-57912255D01*
X90203855Y-57973783D01*
X90204500Y-57986412D01*
X90204500Y-81911689D01*
X90184815Y-81978728D01*
X90132011Y-82024483D01*
X90062853Y-82034427D01*
X89999297Y-82005402D01*
X89992819Y-81999370D01*
X89830654Y-81837205D01*
X89830649Y-81837201D01*
X89626848Y-81689132D01*
X89626847Y-81689131D01*
X89626845Y-81689130D01*
X89541218Y-81645501D01*
X89402383Y-81574760D01*
X89162785Y-81496910D01*
X89011780Y-81472993D01*
X88913962Y-81457500D01*
X87362038Y-81457500D01*
X87264220Y-81472993D01*
X87113214Y-81496910D01*
X86873616Y-81574760D01*
X86649151Y-81689132D01*
X86445350Y-81837201D01*
X86445345Y-81837205D01*
X86267205Y-82015345D01*
X86267201Y-82015350D01*
X86119132Y-82219151D01*
X86078985Y-82297944D01*
X86031010Y-82348740D01*
X85963189Y-82365535D01*
X85897054Y-82342998D01*
X85853603Y-82288282D01*
X85844500Y-82241649D01*
X85844500Y-41280711D01*
X87557500Y-41280711D01*
X87557500Y-41523288D01*
X87589161Y-41763785D01*
X87651947Y-41998104D01*
X87738709Y-42207565D01*
X87744776Y-42222212D01*
X87866064Y-42432289D01*
X87866066Y-42432292D01*
X87866067Y-42432293D01*
X88013733Y-42624736D01*
X88013739Y-42624743D01*
X88185256Y-42796260D01*
X88185263Y-42796266D01*
X88287118Y-42874422D01*
X88377711Y-42943936D01*
X88587788Y-43065224D01*
X88750729Y-43132716D01*
X88810562Y-43157500D01*
X88811900Y-43158054D01*
X89046211Y-43220838D01*
X89226097Y-43244520D01*
X89286711Y-43252500D01*
X89286712Y-43252500D01*
X89529289Y-43252500D01*
X89577388Y-43246167D01*
X89769789Y-43220838D01*
X90004100Y-43158054D01*
X90228212Y-43065224D01*
X90438289Y-42943936D01*
X90630738Y-42796265D01*
X90802265Y-42624738D01*
X90949936Y-42432289D01*
X91071224Y-42222212D01*
X91164054Y-41998100D01*
X91226838Y-41763789D01*
X91258500Y-41523288D01*
X91258500Y-41280712D01*
X91257065Y-41269815D01*
X91241780Y-41153711D01*
X91226838Y-41040211D01*
X91164054Y-40805900D01*
X91071224Y-40581788D01*
X90949936Y-40371711D01*
X90849941Y-40241395D01*
X90802266Y-40179263D01*
X90802260Y-40179256D01*
X90630743Y-40007739D01*
X90630736Y-40007733D01*
X90438293Y-39860067D01*
X90438292Y-39860066D01*
X90438289Y-39860064D01*
X90228212Y-39738776D01*
X90228205Y-39738773D01*
X90004104Y-39645947D01*
X89769785Y-39583161D01*
X89529289Y-39551500D01*
X89529288Y-39551500D01*
X89286712Y-39551500D01*
X89286711Y-39551500D01*
X89046214Y-39583161D01*
X88811895Y-39645947D01*
X88587794Y-39738773D01*
X88587785Y-39738777D01*
X88377706Y-39860067D01*
X88185263Y-40007733D01*
X88185256Y-40007739D01*
X88013739Y-40179256D01*
X88013733Y-40179263D01*
X87866067Y-40371706D01*
X87744777Y-40581785D01*
X87744773Y-40581794D01*
X87651947Y-40805895D01*
X87589161Y-41040214D01*
X87557500Y-41280711D01*
X85844500Y-41280711D01*
X85844500Y-37454500D01*
X85864185Y-37387461D01*
X85916989Y-37341706D01*
X85968500Y-37330500D01*
X135885940Y-37330500D01*
X135952979Y-37350185D01*
G37*
%TD.AperFunction*%
%TA.AperFunction,Conductor*%
G36*
X98953942Y-70470185D02*
G01*
X98974584Y-70486819D01*
X100328181Y-71840416D01*
X100361666Y-71901739D01*
X100364500Y-71928097D01*
X100364500Y-76240330D01*
X100364499Y-76240348D01*
X100364499Y-76406054D01*
X100364498Y-76406054D01*
X100405423Y-76558785D01*
X100405424Y-76558788D01*
X100407116Y-76561718D01*
X100407119Y-76561723D01*
X100484477Y-76695712D01*
X100484481Y-76695717D01*
X100603349Y-76814585D01*
X100603354Y-76814589D01*
X102247284Y-78458520D01*
X102247286Y-78458521D01*
X102247290Y-78458524D01*
X102368283Y-78528378D01*
X102384216Y-78537577D01*
X102536943Y-78578501D01*
X102536945Y-78578501D01*
X102702654Y-78578501D01*
X102702670Y-78578500D01*
X107240588Y-78578500D01*
X107307627Y-78598185D01*
X107317903Y-78605555D01*
X107320736Y-78607814D01*
X107320738Y-78607816D01*
X107364786Y-78635493D01*
X107423691Y-78672506D01*
X107469982Y-78724841D01*
X107480630Y-78793895D01*
X107452255Y-78857743D01*
X107393865Y-78896115D01*
X107357719Y-78901500D01*
X101393942Y-78901500D01*
X101241214Y-78942423D01*
X101223486Y-78952659D01*
X101216728Y-78956561D01*
X101195391Y-78968880D01*
X101104285Y-79021479D01*
X101104282Y-79021481D01*
X101026874Y-79098890D01*
X100992480Y-79133284D01*
X100992478Y-79133286D01*
X100227559Y-79898206D01*
X99475584Y-80650181D01*
X99414261Y-80683666D01*
X99387903Y-80686500D01*
X97169985Y-80686500D01*
X97102946Y-80666815D01*
X97057191Y-80614011D01*
X97047247Y-80544853D01*
X97050210Y-80530406D01*
X97088636Y-80387000D01*
X96191012Y-80387000D01*
X96223925Y-80329993D01*
X96258000Y-80202826D01*
X96258000Y-80071174D01*
X96223925Y-79944007D01*
X96191012Y-79887000D01*
X97088636Y-79887000D01*
X97088635Y-79886999D01*
X97031432Y-79673513D01*
X97031429Y-79673507D01*
X96931600Y-79459422D01*
X96931599Y-79459420D01*
X96796113Y-79265926D01*
X96796108Y-79265920D01*
X96629078Y-79098890D01*
X96443405Y-78968879D01*
X96399780Y-78914302D01*
X96392588Y-78844804D01*
X96424110Y-78782449D01*
X96443406Y-78765730D01*
X96629401Y-78635495D01*
X96796495Y-78468401D01*
X96932035Y-78274830D01*
X97031903Y-78060663D01*
X97093063Y-77832408D01*
X97113659Y-77597000D01*
X97093063Y-77361592D01*
X97031903Y-77133337D01*
X96932035Y-76919171D01*
X96925439Y-76909750D01*
X96796494Y-76725597D01*
X96629402Y-76558506D01*
X96629396Y-76558501D01*
X96443842Y-76428575D01*
X96400217Y-76373998D01*
X96393023Y-76304500D01*
X96424546Y-76242145D01*
X96443842Y-76225425D01*
X96475123Y-76203522D01*
X96629401Y-76095495D01*
X96796495Y-75928401D01*
X96932035Y-75734830D01*
X97031903Y-75520663D01*
X97093063Y-75292408D01*
X97113659Y-75057000D01*
X97093063Y-74821592D01*
X97031903Y-74593337D01*
X96932035Y-74379171D01*
X96873097Y-74294999D01*
X96796496Y-74185600D01*
X96796495Y-74185599D01*
X96674567Y-74063671D01*
X96641084Y-74002351D01*
X96646068Y-73932659D01*
X96687939Y-73876725D01*
X96718915Y-73859810D01*
X96850331Y-73810796D01*
X96965546Y-73724546D01*
X97051796Y-73609331D01*
X97102091Y-73474483D01*
X97108500Y-73414873D01*
X97108499Y-71619128D01*
X97102091Y-71559517D01*
X97098147Y-71548943D01*
X97051797Y-71424671D01*
X97051793Y-71424664D01*
X96965547Y-71309455D01*
X96965544Y-71309452D01*
X96850335Y-71223206D01*
X96850328Y-71223202D01*
X96715482Y-71172908D01*
X96715483Y-71172908D01*
X96655883Y-71166501D01*
X96655881Y-71166500D01*
X96655873Y-71166500D01*
X96655864Y-71166500D01*
X94860129Y-71166500D01*
X94860123Y-71166501D01*
X94800516Y-71172908D01*
X94665671Y-71223202D01*
X94665664Y-71223206D01*
X94550455Y-71309452D01*
X94550452Y-71309455D01*
X94464206Y-71424664D01*
X94464202Y-71424671D01*
X94413908Y-71559517D01*
X94407501Y-71619116D01*
X94407501Y-71619123D01*
X94407500Y-71619135D01*
X94407500Y-73414870D01*
X94407501Y-73414876D01*
X94413908Y-73474483D01*
X94464202Y-73609328D01*
X94464206Y-73609335D01*
X94550452Y-73724544D01*
X94550455Y-73724547D01*
X94665664Y-73810793D01*
X94665671Y-73810797D01*
X94797081Y-73859810D01*
X94853015Y-73901681D01*
X94877432Y-73967145D01*
X94862580Y-74035418D01*
X94841430Y-74063673D01*
X94719503Y-74185600D01*
X94583965Y-74379169D01*
X94583964Y-74379171D01*
X94484098Y-74593335D01*
X94484094Y-74593344D01*
X94422938Y-74821586D01*
X94422936Y-74821596D01*
X94402341Y-75056999D01*
X94402341Y-75057000D01*
X94422936Y-75292403D01*
X94422938Y-75292413D01*
X94484094Y-75520655D01*
X94484096Y-75520659D01*
X94484097Y-75520663D01*
X94555943Y-75674737D01*
X94583965Y-75734830D01*
X94583967Y-75734834D01*
X94719501Y-75928395D01*
X94719506Y-75928402D01*
X94886597Y-76095493D01*
X94886603Y-76095498D01*
X95072158Y-76225425D01*
X95115783Y-76280002D01*
X95122977Y-76349500D01*
X95091454Y-76411855D01*
X95072158Y-76428575D01*
X94886597Y-76558505D01*
X94719505Y-76725597D01*
X94583965Y-76919169D01*
X94583964Y-76919171D01*
X94484098Y-77133335D01*
X94484094Y-77133344D01*
X94422938Y-77361586D01*
X94422936Y-77361596D01*
X94402341Y-77596999D01*
X94402341Y-77597000D01*
X94422936Y-77832403D01*
X94422938Y-77832413D01*
X94484094Y-78060655D01*
X94484096Y-78060659D01*
X94484097Y-78060663D01*
X94529139Y-78157255D01*
X94583965Y-78274830D01*
X94583967Y-78274834D01*
X94660503Y-78384138D01*
X94719505Y-78468401D01*
X94886599Y-78635495D01*
X95069220Y-78763368D01*
X95072594Y-78765730D01*
X95116219Y-78820307D01*
X95123413Y-78889805D01*
X95091890Y-78952160D01*
X95072595Y-78968880D01*
X94886922Y-79098890D01*
X94886920Y-79098891D01*
X94719891Y-79265920D01*
X94719886Y-79265926D01*
X94584400Y-79459420D01*
X94584398Y-79459424D01*
X94569849Y-79490624D01*
X94523675Y-79543063D01*
X94456481Y-79562213D01*
X94389601Y-79541996D01*
X94369787Y-79525898D01*
X93819819Y-78975930D01*
X93786334Y-78914607D01*
X93783500Y-78888249D01*
X93783500Y-70772181D01*
X93803185Y-70705142D01*
X93855989Y-70659387D01*
X93921383Y-70648961D01*
X93979996Y-70655565D01*
X93980000Y-70655565D01*
X93980004Y-70655565D01*
X94159249Y-70635369D01*
X94159252Y-70635368D01*
X94159255Y-70635368D01*
X94329522Y-70575789D01*
X94482262Y-70479816D01*
X94482267Y-70479810D01*
X94485097Y-70477555D01*
X94487275Y-70476665D01*
X94488158Y-70476111D01*
X94488255Y-70476265D01*
X94549783Y-70451145D01*
X94562412Y-70450500D01*
X98886903Y-70450500D01*
X98953942Y-70470185D01*
G37*
%TD.AperFunction*%
%TA.AperFunction,Conductor*%
G36*
X112153774Y-51893185D02*
G01*
X112199529Y-51945989D01*
X112209473Y-52015147D01*
X112180448Y-52078703D01*
X112174416Y-52085181D01*
X109501481Y-54758115D01*
X109501475Y-54758123D01*
X109461255Y-54827788D01*
X109461255Y-54827789D01*
X109422423Y-54895048D01*
X109381499Y-55047776D01*
X109381499Y-55047778D01*
X109381499Y-55215879D01*
X109381500Y-55215892D01*
X109381500Y-78777500D01*
X109361815Y-78844539D01*
X109309011Y-78890294D01*
X109257500Y-78901500D01*
X108288281Y-78901500D01*
X108221242Y-78881815D01*
X108175487Y-78829011D01*
X108165543Y-78759853D01*
X108194568Y-78696297D01*
X108222309Y-78672506D01*
X108250831Y-78654584D01*
X108325262Y-78607816D01*
X108452816Y-78480262D01*
X108548789Y-78327522D01*
X108608368Y-78157255D01*
X108619251Y-78060664D01*
X108628565Y-77978003D01*
X108628565Y-77977996D01*
X108608369Y-77798750D01*
X108608368Y-77798745D01*
X108599440Y-77773229D01*
X108548789Y-77628478D01*
X108529009Y-77596999D01*
X108452815Y-77475737D01*
X108325262Y-77348184D01*
X108172523Y-77252211D01*
X108002254Y-77192631D01*
X108002249Y-77192630D01*
X107823004Y-77172435D01*
X107822996Y-77172435D01*
X107643750Y-77192630D01*
X107643745Y-77192631D01*
X107473476Y-77252211D01*
X107320736Y-77348185D01*
X107317903Y-77350445D01*
X107315724Y-77351334D01*
X107314842Y-77351889D01*
X107314744Y-77351734D01*
X107253217Y-77376855D01*
X107240588Y-77377500D01*
X102916098Y-77377500D01*
X102849059Y-77357815D01*
X102828417Y-77341181D01*
X101601819Y-76114583D01*
X101568334Y-76053260D01*
X101565500Y-76026902D01*
X101565500Y-71717060D01*
X101565501Y-71717047D01*
X101565501Y-71548944D01*
X101561089Y-71532478D01*
X101524577Y-71396216D01*
X101474486Y-71309455D01*
X101445524Y-71259290D01*
X101445518Y-71259282D01*
X99674590Y-69488355D01*
X99674588Y-69488352D01*
X99555717Y-69369481D01*
X99555709Y-69369475D01*
X99438245Y-69301658D01*
X99438245Y-69301657D01*
X99438240Y-69301656D01*
X99431451Y-69297736D01*
X99418786Y-69290423D01*
X99380603Y-69280192D01*
X99266057Y-69249499D01*
X99107943Y-69249499D01*
X99100347Y-69249499D01*
X99100331Y-69249500D01*
X94562412Y-69249500D01*
X94495373Y-69229815D01*
X94485097Y-69222445D01*
X94482263Y-69220185D01*
X94482262Y-69220184D01*
X94425496Y-69184515D01*
X94329523Y-69124211D01*
X94159254Y-69064631D01*
X94159249Y-69064630D01*
X93980004Y-69044435D01*
X93980002Y-69044435D01*
X93980000Y-69044435D01*
X93965933Y-69046019D01*
X93921381Y-69051039D01*
X93852560Y-69038983D01*
X93801181Y-68991633D01*
X93783500Y-68927818D01*
X93783500Y-66728416D01*
X93783498Y-66728407D01*
X93779066Y-66711864D01*
X93777623Y-66706478D01*
X93742577Y-66575686D01*
X93696814Y-66496423D01*
X93663520Y-66438755D01*
X93551716Y-66326951D01*
X93551715Y-66326950D01*
X93547385Y-66322620D01*
X93547374Y-66322610D01*
X92971290Y-65746526D01*
X92937805Y-65685203D01*
X92934971Y-65658845D01*
X92934971Y-58174002D01*
X92934972Y-58173989D01*
X92934972Y-58005886D01*
X92931475Y-57992834D01*
X92894048Y-57853158D01*
X92865398Y-57803534D01*
X92814995Y-57716232D01*
X92814989Y-57716224D01*
X92383283Y-57284518D01*
X91910944Y-56812180D01*
X91877460Y-56750858D01*
X91882444Y-56681167D01*
X91924316Y-56625233D01*
X91989780Y-56600816D01*
X91998626Y-56600500D01*
X95361497Y-56600500D01*
X95428536Y-56620185D01*
X95474291Y-56672989D01*
X95484235Y-56742147D01*
X95481272Y-56756593D01*
X95438938Y-56914586D01*
X95438936Y-56914596D01*
X95418341Y-57149999D01*
X95418341Y-57150000D01*
X95438936Y-57385403D01*
X95438938Y-57385413D01*
X95500094Y-57613655D01*
X95500096Y-57613659D01*
X95500097Y-57613663D01*
X95547922Y-57716224D01*
X95599965Y-57827830D01*
X95599967Y-57827834D01*
X95735501Y-58021395D01*
X95735506Y-58021402D01*
X95902597Y-58188493D01*
X95902603Y-58188498D01*
X96088158Y-58318425D01*
X96131783Y-58373002D01*
X96138977Y-58442500D01*
X96107454Y-58504855D01*
X96088158Y-58521575D01*
X95902597Y-58651505D01*
X95735505Y-58818597D01*
X95599965Y-59012169D01*
X95599964Y-59012171D01*
X95500098Y-59226335D01*
X95500094Y-59226344D01*
X95438938Y-59454586D01*
X95438936Y-59454596D01*
X95418341Y-59689999D01*
X95418341Y-59690000D01*
X95438936Y-59925403D01*
X95438938Y-59925413D01*
X95500094Y-60153655D01*
X95500096Y-60153659D01*
X95500097Y-60153663D01*
X95582410Y-60330184D01*
X95599965Y-60367830D01*
X95599967Y-60367834D01*
X95685920Y-60490586D01*
X95731465Y-60555632D01*
X95735501Y-60561395D01*
X95735506Y-60561402D01*
X95902597Y-60728493D01*
X95902603Y-60728498D01*
X96088158Y-60858425D01*
X96131783Y-60913002D01*
X96138977Y-60982500D01*
X96107454Y-61044855D01*
X96088158Y-61061575D01*
X95902597Y-61191505D01*
X95735505Y-61358597D01*
X95599965Y-61552169D01*
X95599964Y-61552171D01*
X95500098Y-61766335D01*
X95500094Y-61766344D01*
X95438938Y-61994586D01*
X95438936Y-61994596D01*
X95418341Y-62229999D01*
X95418341Y-62230000D01*
X95438936Y-62465403D01*
X95438938Y-62465413D01*
X95500094Y-62693655D01*
X95500096Y-62693659D01*
X95500097Y-62693663D01*
X95545139Y-62790255D01*
X95599965Y-62907830D01*
X95599967Y-62907834D01*
X95636860Y-62960522D01*
X95735505Y-63101401D01*
X95902599Y-63268495D01*
X96085220Y-63396368D01*
X96088594Y-63398730D01*
X96132219Y-63453307D01*
X96139413Y-63522805D01*
X96107890Y-63585160D01*
X96088595Y-63601880D01*
X95902922Y-63731890D01*
X95902920Y-63731891D01*
X95735891Y-63898920D01*
X95735886Y-63898926D01*
X95600400Y-64092420D01*
X95600399Y-64092422D01*
X95500570Y-64306507D01*
X95500567Y-64306513D01*
X95443364Y-64519999D01*
X95443364Y-64520000D01*
X96340988Y-64520000D01*
X96308075Y-64577007D01*
X96274000Y-64704174D01*
X96274000Y-64835826D01*
X96308075Y-64962993D01*
X96340988Y-65020000D01*
X95443364Y-65020000D01*
X95500567Y-65233486D01*
X95500570Y-65233492D01*
X95600399Y-65447578D01*
X95735894Y-65641082D01*
X95857946Y-65763134D01*
X95891431Y-65824457D01*
X95886447Y-65894149D01*
X95844575Y-65950082D01*
X95813598Y-65966997D01*
X95681671Y-66016202D01*
X95681664Y-66016206D01*
X95566455Y-66102452D01*
X95566452Y-66102455D01*
X95480206Y-66217664D01*
X95480202Y-66217671D01*
X95429908Y-66352517D01*
X95426439Y-66384788D01*
X95423501Y-66412123D01*
X95423500Y-66412135D01*
X95423500Y-68207870D01*
X95423501Y-68207876D01*
X95429908Y-68267483D01*
X95480202Y-68402328D01*
X95480206Y-68402335D01*
X95566452Y-68517544D01*
X95566455Y-68517547D01*
X95681664Y-68603793D01*
X95681671Y-68603797D01*
X95816517Y-68654091D01*
X95816516Y-68654091D01*
X95823444Y-68654835D01*
X95876127Y-68660500D01*
X97671872Y-68660499D01*
X97731483Y-68654091D01*
X97866331Y-68603796D01*
X97981546Y-68517546D01*
X98067796Y-68402331D01*
X98118091Y-68267483D01*
X98124500Y-68207873D01*
X98124499Y-67182996D01*
X100032435Y-67182996D01*
X100032435Y-67183003D01*
X100052630Y-67362249D01*
X100052631Y-67362254D01*
X100112211Y-67532523D01*
X100151769Y-67595478D01*
X100208184Y-67685262D01*
X100335738Y-67812816D01*
X100488478Y-67908789D01*
X100577148Y-67939816D01*
X100658745Y-67968368D01*
X100658750Y-67968369D01*
X100837996Y-67988565D01*
X100838000Y-67988565D01*
X100838004Y-67988565D01*
X101017249Y-67968369D01*
X101017252Y-67968368D01*
X101017255Y-67968368D01*
X101187522Y-67908789D01*
X101340262Y-67812816D01*
X101467816Y-67685262D01*
X101563789Y-67532522D01*
X101563790Y-67532518D01*
X101566811Y-67526246D01*
X101568655Y-67527134D01*
X101591305Y-67491061D01*
X102026371Y-67055996D01*
X102699435Y-67055996D01*
X102699435Y-67056003D01*
X102719630Y-67235249D01*
X102719631Y-67235254D01*
X102779211Y-67405523D01*
X102855067Y-67526246D01*
X102875184Y-67558262D01*
X103002738Y-67685816D01*
X103129944Y-67765745D01*
X103155483Y-67781792D01*
X103161753Y-67784812D01*
X103160864Y-67786656D01*
X103196937Y-67809305D01*
X104446048Y-69058415D01*
X104446049Y-69058416D01*
X104511844Y-69124211D01*
X104550585Y-69162952D01*
X104673498Y-69245080D01*
X104673511Y-69245087D01*
X104782963Y-69290423D01*
X104810087Y-69301658D01*
X104810091Y-69301658D01*
X104810092Y-69301659D01*
X104955079Y-69330500D01*
X104955082Y-69330500D01*
X105745028Y-69330500D01*
X105785983Y-69337458D01*
X105865745Y-69365368D01*
X105865750Y-69365369D01*
X106044996Y-69385565D01*
X106045000Y-69385565D01*
X106045004Y-69385565D01*
X106224249Y-69365369D01*
X106224252Y-69365368D01*
X106224255Y-69365368D01*
X106394522Y-69305789D01*
X106547262Y-69209816D01*
X106674816Y-69082262D01*
X106770789Y-68929522D01*
X106830368Y-68759255D01*
X106841495Y-68660498D01*
X106850565Y-68580003D01*
X106850565Y-68579996D01*
X106830369Y-68400750D01*
X106830368Y-68400745D01*
X106788083Y-68279902D01*
X106770789Y-68230478D01*
X106756583Y-68207870D01*
X106731582Y-68168080D01*
X106674816Y-68077738D01*
X106547262Y-67950184D01*
X106394523Y-67854211D01*
X106224254Y-67794631D01*
X106224249Y-67794630D01*
X106045004Y-67774435D01*
X106044996Y-67774435D01*
X105865750Y-67794630D01*
X105865745Y-67794631D01*
X105785983Y-67822542D01*
X105745028Y-67829500D01*
X105391229Y-67829500D01*
X105324190Y-67809815D01*
X105303548Y-67793181D01*
X104811789Y-67301422D01*
X104258305Y-66747937D01*
X104235656Y-66711864D01*
X104233812Y-66712753D01*
X104230791Y-66706480D01*
X104148607Y-66575686D01*
X104134816Y-66553738D01*
X104007262Y-66426184D01*
X103984892Y-66412128D01*
X103854523Y-66330211D01*
X103684254Y-66270631D01*
X103684249Y-66270630D01*
X103505004Y-66250435D01*
X103504996Y-66250435D01*
X103325750Y-66270630D01*
X103325745Y-66270631D01*
X103155476Y-66330211D01*
X103002737Y-66426184D01*
X102875184Y-66553737D01*
X102779211Y-66706476D01*
X102719631Y-66876745D01*
X102719630Y-66876750D01*
X102699435Y-67055996D01*
X102026371Y-67055996D01*
X102309952Y-66772416D01*
X102350411Y-66711864D01*
X102376895Y-66672228D01*
X102376897Y-66672223D01*
X102376901Y-66672218D01*
X102392084Y-66649495D01*
X102448658Y-66512913D01*
X102465910Y-66426184D01*
X102477500Y-66367920D01*
X102477500Y-64180972D01*
X102484458Y-64140017D01*
X102512368Y-64060254D01*
X102512369Y-64060249D01*
X102532565Y-63881003D01*
X102532565Y-63880996D01*
X102512369Y-63701750D01*
X102512368Y-63701745D01*
X102471573Y-63585160D01*
X102452789Y-63531478D01*
X102447339Y-63522805D01*
X102367894Y-63396369D01*
X102356816Y-63378738D01*
X102229262Y-63251184D01*
X102076523Y-63155211D01*
X101906254Y-63095631D01*
X101906249Y-63095630D01*
X101727004Y-63075435D01*
X101726996Y-63075435D01*
X101547750Y-63095630D01*
X101547745Y-63095631D01*
X101377476Y-63155211D01*
X101224737Y-63251184D01*
X101097184Y-63378737D01*
X101001211Y-63531476D01*
X100941631Y-63701745D01*
X100941630Y-63701750D01*
X100921435Y-63880996D01*
X100921435Y-63881003D01*
X100941630Y-64060249D01*
X100941631Y-64060254D01*
X100969542Y-64140017D01*
X100976500Y-64180972D01*
X100976500Y-65931769D01*
X100956815Y-65998808D01*
X100940181Y-66019450D01*
X100529937Y-66429693D01*
X100493876Y-66452362D01*
X100494756Y-66454188D01*
X100488478Y-66457211D01*
X100335737Y-66553184D01*
X100208184Y-66680737D01*
X100112211Y-66833476D01*
X100052631Y-67003745D01*
X100052630Y-67003750D01*
X100032435Y-67182996D01*
X98124499Y-67182996D01*
X98124499Y-66412128D01*
X98118091Y-66352517D01*
X98109771Y-66330211D01*
X98067797Y-66217671D01*
X98067793Y-66217664D01*
X97981547Y-66102455D01*
X97981544Y-66102452D01*
X97866335Y-66016206D01*
X97866328Y-66016202D01*
X97734401Y-65966997D01*
X97678467Y-65925126D01*
X97654050Y-65859662D01*
X97668902Y-65791389D01*
X97690053Y-65763133D01*
X97812108Y-65641078D01*
X97947600Y-65447578D01*
X98047429Y-65233492D01*
X98047432Y-65233486D01*
X98104636Y-65020000D01*
X97207012Y-65020000D01*
X97239925Y-64962993D01*
X97274000Y-64835826D01*
X97274000Y-64704174D01*
X97239925Y-64577007D01*
X97207012Y-64520000D01*
X98104636Y-64520000D01*
X98104635Y-64519999D01*
X98047432Y-64306513D01*
X98047429Y-64306507D01*
X97947600Y-64092422D01*
X97947599Y-64092420D01*
X97812113Y-63898926D01*
X97812108Y-63898920D01*
X97645078Y-63731890D01*
X97459405Y-63601879D01*
X97415780Y-63547302D01*
X97408588Y-63477804D01*
X97440110Y-63415449D01*
X97459406Y-63398730D01*
X97462778Y-63396369D01*
X97645401Y-63268495D01*
X97812495Y-63101401D01*
X97948035Y-62907830D01*
X98047903Y-62693663D01*
X98109063Y-62465408D01*
X98129659Y-62230000D01*
X98109063Y-61994592D01*
X98047903Y-61766337D01*
X97948035Y-61552171D01*
X97925688Y-61520255D01*
X97812494Y-61358597D01*
X97645402Y-61191506D01*
X97645396Y-61191501D01*
X97459842Y-61061575D01*
X97416217Y-61006998D01*
X97409023Y-60937500D01*
X97440546Y-60875145D01*
X97459842Y-60858425D01*
X97570780Y-60780745D01*
X97645401Y-60728495D01*
X97812495Y-60561401D01*
X97948035Y-60367830D01*
X98047903Y-60153663D01*
X98109063Y-59925408D01*
X98129659Y-59690000D01*
X98109063Y-59454592D01*
X98047903Y-59226337D01*
X97948035Y-59012171D01*
X97940624Y-59001586D01*
X97812494Y-58818597D01*
X97645402Y-58651506D01*
X97645396Y-58651501D01*
X97459842Y-58521575D01*
X97416217Y-58466998D01*
X97409023Y-58397500D01*
X97440546Y-58335145D01*
X97459842Y-58318425D01*
X97517255Y-58278224D01*
X97645401Y-58188495D01*
X97812495Y-58021401D01*
X97948035Y-57827830D01*
X98047903Y-57613663D01*
X98109063Y-57385408D01*
X98129659Y-57150000D01*
X98109063Y-56914592D01*
X98066728Y-56756593D01*
X98068391Y-56686743D01*
X98107554Y-56628881D01*
X98171782Y-56601377D01*
X98186503Y-56600500D01*
X101987860Y-56600500D01*
X101987876Y-56600501D01*
X101995472Y-56600501D01*
X102153583Y-56600501D01*
X102153586Y-56600501D01*
X102306314Y-56559577D01*
X102356676Y-56530500D01*
X102443245Y-56480520D01*
X102555049Y-56368716D01*
X102555049Y-56368714D01*
X102565253Y-56358511D01*
X102565256Y-56358506D01*
X107013946Y-51909819D01*
X107075269Y-51876334D01*
X107101627Y-51873500D01*
X112086735Y-51873500D01*
X112153774Y-51893185D01*
G37*
%TD.AperFunction*%
%TA.AperFunction,Conductor*%
G36*
X127615471Y-54722185D02*
G01*
X127636113Y-54738819D01*
X130759113Y-57861819D01*
X130792598Y-57923142D01*
X130787614Y-57992834D01*
X130745742Y-58048767D01*
X130680278Y-58073184D01*
X130671432Y-58073500D01*
X126523266Y-58073500D01*
X126456227Y-58053815D01*
X126410472Y-58001011D01*
X126400046Y-57963384D01*
X126388369Y-57859749D01*
X126388368Y-57859745D01*
X126373228Y-57816478D01*
X126328789Y-57689478D01*
X126312615Y-57663738D01*
X126271750Y-57598701D01*
X126232816Y-57536738D01*
X126105262Y-57409184D01*
X126097809Y-57404501D01*
X125952523Y-57313211D01*
X125782254Y-57253631D01*
X125782249Y-57253630D01*
X125603004Y-57233435D01*
X125602996Y-57233435D01*
X125423750Y-57253630D01*
X125423745Y-57253631D01*
X125253476Y-57313211D01*
X125100736Y-57409185D01*
X125097903Y-57411445D01*
X125095724Y-57412334D01*
X125094842Y-57412889D01*
X125094744Y-57412734D01*
X125033217Y-57437855D01*
X125020588Y-57438500D01*
X123911669Y-57438500D01*
X123911653Y-57438499D01*
X123904057Y-57438499D01*
X123745943Y-57438499D01*
X123638587Y-57467265D01*
X123593210Y-57479424D01*
X123593209Y-57479425D01*
X123558066Y-57499716D01*
X123558064Y-57499717D01*
X123456290Y-57558475D01*
X123456282Y-57558481D01*
X122998481Y-58016282D01*
X122998477Y-58016287D01*
X122956196Y-58089522D01*
X122919424Y-58153211D01*
X122919423Y-58153212D01*
X122898595Y-58230946D01*
X122878499Y-58305943D01*
X122878499Y-58305945D01*
X122878499Y-58474046D01*
X122878500Y-58474059D01*
X122878500Y-58835859D01*
X122878499Y-58835877D01*
X122878499Y-59001583D01*
X122878498Y-59001583D01*
X122909029Y-59115522D01*
X122919423Y-59154314D01*
X122922578Y-59159779D01*
X122922580Y-59159785D01*
X122922582Y-59159785D01*
X122998477Y-59291241D01*
X122998481Y-59291246D01*
X123117349Y-59410114D01*
X123117355Y-59410119D01*
X124331181Y-60623945D01*
X124364666Y-60685268D01*
X124367500Y-60711626D01*
X124367500Y-67362587D01*
X124347815Y-67429626D01*
X124340450Y-67439896D01*
X124338186Y-67442734D01*
X124242211Y-67595476D01*
X124182631Y-67765745D01*
X124182630Y-67765750D01*
X124162435Y-67944996D01*
X124162435Y-67945003D01*
X124182630Y-68124249D01*
X124182631Y-68124254D01*
X124242211Y-68294523D01*
X124309950Y-68402328D01*
X124338184Y-68447262D01*
X124465738Y-68574816D01*
X124511861Y-68603797D01*
X124602101Y-68660499D01*
X124618478Y-68670789D01*
X124707148Y-68701816D01*
X124788745Y-68730368D01*
X124788750Y-68730369D01*
X124967996Y-68750565D01*
X124968000Y-68750565D01*
X124968004Y-68750565D01*
X125147249Y-68730369D01*
X125147252Y-68730368D01*
X125147255Y-68730368D01*
X125317522Y-68670789D01*
X125470262Y-68574816D01*
X125597816Y-68447262D01*
X125693789Y-68294522D01*
X125753368Y-68124255D01*
X125758609Y-68077738D01*
X125773565Y-67945003D01*
X125773565Y-67944996D01*
X125753369Y-67765750D01*
X125753368Y-67765745D01*
X125738228Y-67722478D01*
X125693789Y-67595478D01*
X125677615Y-67569738D01*
X125654230Y-67532521D01*
X125597816Y-67442738D01*
X125597814Y-67442736D01*
X125597813Y-67442734D01*
X125595550Y-67439896D01*
X125594659Y-67437715D01*
X125594111Y-67436842D01*
X125594264Y-67436745D01*
X125569144Y-67375209D01*
X125568500Y-67362587D01*
X125568500Y-60500588D01*
X125568501Y-60500575D01*
X125568501Y-60332475D01*
X125567804Y-60327184D01*
X125578565Y-60258148D01*
X125624942Y-60205889D01*
X125692209Y-60186999D01*
X125756714Y-60205996D01*
X125863806Y-60273287D01*
X125888478Y-60288789D01*
X126058745Y-60348368D01*
X126058750Y-60348369D01*
X126237996Y-60368565D01*
X126238000Y-60368565D01*
X126238004Y-60368565D01*
X126417249Y-60348369D01*
X126417252Y-60348368D01*
X126417255Y-60348368D01*
X126587522Y-60288789D01*
X126740262Y-60192816D01*
X126740267Y-60192810D01*
X126743097Y-60190555D01*
X126745275Y-60189665D01*
X126746158Y-60189111D01*
X126746255Y-60189265D01*
X126807783Y-60164145D01*
X126820412Y-60163500D01*
X131652903Y-60163500D01*
X131719942Y-60183185D01*
X131740584Y-60199819D01*
X131763662Y-60222897D01*
X131797147Y-60284220D01*
X131792163Y-60353912D01*
X131763663Y-60398259D01*
X131704183Y-60457739D01*
X131608211Y-60610476D01*
X131548631Y-60780745D01*
X131548630Y-60780750D01*
X131528435Y-60959996D01*
X131528435Y-60960003D01*
X131548630Y-61139249D01*
X131548631Y-61139254D01*
X131608211Y-61309523D01*
X131704185Y-61462263D01*
X131706445Y-61465097D01*
X131707334Y-61467275D01*
X131707889Y-61468158D01*
X131707734Y-61468255D01*
X131732855Y-61529783D01*
X131733500Y-61542412D01*
X131733500Y-68279902D01*
X131713815Y-68346941D01*
X131697181Y-68367583D01*
X128551481Y-71513282D01*
X128551479Y-71513285D01*
X128530892Y-71548944D01*
X128502465Y-71598182D01*
X128485248Y-71628003D01*
X128472422Y-71650217D01*
X128455718Y-71712553D01*
X128423625Y-71768138D01*
X127997465Y-72194298D01*
X127936142Y-72227783D01*
X127923668Y-72229837D01*
X127836750Y-72239630D01*
X127666478Y-72299210D01*
X127513737Y-72395184D01*
X127386184Y-72522737D01*
X127290211Y-72675476D01*
X127230631Y-72845745D01*
X127230630Y-72845750D01*
X127210435Y-73024996D01*
X127210435Y-73025002D01*
X127221549Y-73123644D01*
X127209494Y-73192466D01*
X127169454Y-73239101D01*
X127144601Y-73256503D01*
X127144595Y-73256508D01*
X126977505Y-73423597D01*
X126847575Y-73609158D01*
X126792998Y-73652783D01*
X126723500Y-73659977D01*
X126661145Y-73628454D01*
X126644425Y-73609158D01*
X126514494Y-73423597D01*
X126347402Y-73256506D01*
X126347395Y-73256501D01*
X126322545Y-73239101D01*
X126270518Y-73202671D01*
X126153834Y-73120967D01*
X126153830Y-73120965D01*
X126108334Y-73099750D01*
X125939663Y-73021097D01*
X125939659Y-73021096D01*
X125939655Y-73021094D01*
X125711413Y-72959938D01*
X125711403Y-72959936D01*
X125476001Y-72939341D01*
X125475999Y-72939341D01*
X125240596Y-72959936D01*
X125240586Y-72959938D01*
X125012344Y-73021094D01*
X125012335Y-73021098D01*
X124798171Y-73120964D01*
X124798169Y-73120965D01*
X124604597Y-73256505D01*
X124437505Y-73423597D01*
X124307575Y-73609158D01*
X124252998Y-73652783D01*
X124183500Y-73659977D01*
X124121145Y-73628454D01*
X124104425Y-73609158D01*
X123974494Y-73423597D01*
X123807402Y-73256506D01*
X123807395Y-73256501D01*
X123782545Y-73239101D01*
X123730518Y-73202671D01*
X123613834Y-73120967D01*
X123613830Y-73120965D01*
X123568334Y-73099750D01*
X123399663Y-73021097D01*
X123399659Y-73021096D01*
X123399655Y-73021094D01*
X123171413Y-72959938D01*
X123171403Y-72959936D01*
X122936001Y-72939341D01*
X122935999Y-72939341D01*
X122700596Y-72959936D01*
X122700586Y-72959938D01*
X122472344Y-73021094D01*
X122472335Y-73021098D01*
X122258171Y-73120964D01*
X122258169Y-73120965D01*
X122064597Y-73256505D01*
X121897505Y-73423597D01*
X121767575Y-73609158D01*
X121712998Y-73652783D01*
X121643500Y-73659977D01*
X121581145Y-73628454D01*
X121564425Y-73609158D01*
X121434494Y-73423597D01*
X121267402Y-73256506D01*
X121267395Y-73256501D01*
X121242545Y-73239101D01*
X121190518Y-73202671D01*
X121073834Y-73120967D01*
X121073830Y-73120965D01*
X121028334Y-73099750D01*
X120859663Y-73021097D01*
X120859659Y-73021096D01*
X120859655Y-73021094D01*
X120631413Y-72959938D01*
X120631403Y-72959936D01*
X120396001Y-72939341D01*
X120395999Y-72939341D01*
X120160596Y-72959936D01*
X120160586Y-72959938D01*
X119932344Y-73021094D01*
X119932335Y-73021098D01*
X119718171Y-73120964D01*
X119718169Y-73120965D01*
X119524597Y-73256505D01*
X119496523Y-73284580D01*
X119435200Y-73318065D01*
X119365508Y-73313081D01*
X119321161Y-73284580D01*
X119254819Y-73218238D01*
X119221334Y-73156915D01*
X119218500Y-73130557D01*
X119218500Y-66673996D01*
X119590435Y-66673996D01*
X119590435Y-66674003D01*
X119610630Y-66853249D01*
X119610631Y-66853254D01*
X119670211Y-67023523D01*
X119766185Y-67176263D01*
X119768445Y-67179097D01*
X119769334Y-67181275D01*
X119769889Y-67182158D01*
X119769734Y-67182255D01*
X119794855Y-67243783D01*
X119795500Y-67256412D01*
X119795500Y-67362587D01*
X119775815Y-67429626D01*
X119768450Y-67439896D01*
X119766186Y-67442734D01*
X119670211Y-67595476D01*
X119610631Y-67765745D01*
X119610630Y-67765750D01*
X119590435Y-67944996D01*
X119590435Y-67945003D01*
X119610630Y-68124249D01*
X119610631Y-68124254D01*
X119670211Y-68294523D01*
X119737950Y-68402328D01*
X119766184Y-68447262D01*
X119893738Y-68574816D01*
X119939861Y-68603797D01*
X120030101Y-68660499D01*
X120046478Y-68670789D01*
X120135148Y-68701816D01*
X120216745Y-68730368D01*
X120216750Y-68730369D01*
X120395996Y-68750565D01*
X120396000Y-68750565D01*
X120396004Y-68750565D01*
X120575249Y-68730369D01*
X120575252Y-68730368D01*
X120575255Y-68730368D01*
X120745522Y-68670789D01*
X120898262Y-68574816D01*
X121025816Y-68447262D01*
X121121789Y-68294522D01*
X121181368Y-68124255D01*
X121186609Y-68077738D01*
X121201565Y-67945003D01*
X121201565Y-67944996D01*
X121181369Y-67765750D01*
X121181368Y-67765745D01*
X121166228Y-67722478D01*
X121121789Y-67595478D01*
X121105615Y-67569738D01*
X121082230Y-67532521D01*
X121025816Y-67442738D01*
X121025814Y-67442736D01*
X121025813Y-67442734D01*
X121023550Y-67439896D01*
X121022659Y-67437715D01*
X121022111Y-67436842D01*
X121022264Y-67436745D01*
X120997144Y-67375209D01*
X120996500Y-67362587D01*
X120996500Y-67256412D01*
X121016185Y-67189373D01*
X121023555Y-67179097D01*
X121025810Y-67176267D01*
X121025816Y-67176262D01*
X121121789Y-67023522D01*
X121181368Y-66853255D01*
X121181369Y-66853249D01*
X121201565Y-66674003D01*
X121201565Y-66673996D01*
X122130435Y-66673996D01*
X122130435Y-66674003D01*
X122150630Y-66853249D01*
X122150631Y-66853254D01*
X122210211Y-67023523D01*
X122306185Y-67176263D01*
X122308445Y-67179097D01*
X122309334Y-67181275D01*
X122309889Y-67182158D01*
X122309734Y-67182255D01*
X122334855Y-67243783D01*
X122335500Y-67256412D01*
X122335500Y-67489587D01*
X122315815Y-67556626D01*
X122308450Y-67566896D01*
X122306186Y-67569734D01*
X122210211Y-67722476D01*
X122150631Y-67892745D01*
X122150630Y-67892750D01*
X122130435Y-68071996D01*
X122130435Y-68072003D01*
X122150630Y-68251249D01*
X122150631Y-68251254D01*
X122210211Y-68421523D01*
X122306184Y-68574262D01*
X122433738Y-68701816D01*
X122586478Y-68797789D01*
X122756734Y-68857364D01*
X122756745Y-68857368D01*
X122756750Y-68857369D01*
X122935996Y-68877565D01*
X122936000Y-68877565D01*
X122936004Y-68877565D01*
X123115249Y-68857369D01*
X123115252Y-68857368D01*
X123115255Y-68857368D01*
X123285522Y-68797789D01*
X123438262Y-68701816D01*
X123565816Y-68574262D01*
X123661789Y-68421522D01*
X123721368Y-68251255D01*
X123721369Y-68251249D01*
X123741565Y-68072003D01*
X123741565Y-68071996D01*
X123721369Y-67892750D01*
X123721368Y-67892745D01*
X123696803Y-67822542D01*
X123661789Y-67722478D01*
X123565816Y-67569738D01*
X123565814Y-67569736D01*
X123565813Y-67569734D01*
X123563550Y-67566896D01*
X123562659Y-67564715D01*
X123562111Y-67563842D01*
X123562264Y-67563745D01*
X123537144Y-67502209D01*
X123536500Y-67489587D01*
X123536500Y-67256412D01*
X123556185Y-67189373D01*
X123563555Y-67179097D01*
X123565810Y-67176267D01*
X123565816Y-67176262D01*
X123661789Y-67023522D01*
X123721368Y-66853255D01*
X123721369Y-66853249D01*
X123741565Y-66674003D01*
X123741565Y-66673996D01*
X123721369Y-66494750D01*
X123721368Y-66494745D01*
X123707176Y-66454188D01*
X123661789Y-66324478D01*
X123660615Y-66322610D01*
X123615265Y-66250435D01*
X123565816Y-66171738D01*
X123438262Y-66044184D01*
X123398898Y-66019450D01*
X123285523Y-65948211D01*
X123115254Y-65888631D01*
X123115249Y-65888630D01*
X122936004Y-65868435D01*
X122935996Y-65868435D01*
X122756750Y-65888630D01*
X122756745Y-65888631D01*
X122586476Y-65948211D01*
X122433737Y-66044184D01*
X122306184Y-66171737D01*
X122210211Y-66324476D01*
X122150631Y-66494745D01*
X122150630Y-66494750D01*
X122130435Y-66673996D01*
X121201565Y-66673996D01*
X121181369Y-66494750D01*
X121181368Y-66494745D01*
X121167176Y-66454188D01*
X121121789Y-66324478D01*
X121120615Y-66322610D01*
X121075265Y-66250435D01*
X121025816Y-66171738D01*
X120898262Y-66044184D01*
X120858898Y-66019450D01*
X120745523Y-65948211D01*
X120575254Y-65888631D01*
X120575249Y-65888630D01*
X120396004Y-65868435D01*
X120395996Y-65868435D01*
X120216750Y-65888630D01*
X120216745Y-65888631D01*
X120046476Y-65948211D01*
X119893737Y-66044184D01*
X119766184Y-66171737D01*
X119670211Y-66324476D01*
X119610631Y-66494745D01*
X119610630Y-66494750D01*
X119590435Y-66673996D01*
X119218500Y-66673996D01*
X119218500Y-65410626D01*
X119238185Y-65343587D01*
X119254815Y-65322948D01*
X119322506Y-65255256D01*
X119322510Y-65255254D01*
X119332714Y-65245049D01*
X119332716Y-65245049D01*
X119444520Y-65133245D01*
X119520418Y-65001785D01*
X119523577Y-64996314D01*
X119564501Y-64843586D01*
X119564501Y-64685472D01*
X119564501Y-64677877D01*
X119564500Y-64677859D01*
X119564500Y-54828024D01*
X119584185Y-54760985D01*
X119636989Y-54715230D01*
X119706147Y-54705286D01*
X119760436Y-54728756D01*
X119760842Y-54728111D01*
X119765028Y-54730741D01*
X119765823Y-54731085D01*
X119766728Y-54731806D01*
X119766738Y-54731816D01*
X119919478Y-54827789D01*
X120089745Y-54887368D01*
X120089750Y-54887369D01*
X120268996Y-54907565D01*
X120269000Y-54907565D01*
X120269004Y-54907565D01*
X120448249Y-54887369D01*
X120448252Y-54887368D01*
X120448255Y-54887368D01*
X120618522Y-54827789D01*
X120771262Y-54731816D01*
X120771267Y-54731810D01*
X120774097Y-54729555D01*
X120776275Y-54728665D01*
X120777158Y-54728111D01*
X120777255Y-54728265D01*
X120838783Y-54703145D01*
X120851412Y-54702500D01*
X127548432Y-54702500D01*
X127615471Y-54722185D01*
G37*
%TD.AperFunction*%
%TA.AperFunction,Conductor*%
G36*
X133139703Y-61599384D02*
G01*
X133146181Y-61605416D01*
X136257057Y-64716292D01*
X136290542Y-64777615D01*
X136285558Y-64847307D01*
X136243686Y-64903240D01*
X136210332Y-64921014D01*
X136175479Y-64933209D01*
X136022736Y-65029185D01*
X136019903Y-65031445D01*
X136017724Y-65032334D01*
X136016842Y-65032889D01*
X136016744Y-65032734D01*
X135955217Y-65057855D01*
X135942588Y-65058500D01*
X133678412Y-65058500D01*
X133611373Y-65038815D01*
X133601097Y-65031445D01*
X133598263Y-65029185D01*
X133598262Y-65029184D01*
X133523801Y-64982397D01*
X133445523Y-64933211D01*
X133275254Y-64873631D01*
X133275249Y-64873630D01*
X133096004Y-64853435D01*
X133096003Y-64853435D01*
X133096001Y-64853435D01*
X133096000Y-64853435D01*
X133078674Y-64855387D01*
X133072381Y-64856096D01*
X133003559Y-64844039D01*
X132952181Y-64796689D01*
X132934500Y-64732875D01*
X132934500Y-61693097D01*
X132954185Y-61626058D01*
X133006989Y-61580303D01*
X133076147Y-61570359D01*
X133139703Y-61599384D01*
G37*
%TD.AperFunction*%
%TA.AperFunction,Conductor*%
G36*
X138739942Y-52852185D02*
G01*
X138760584Y-52868819D01*
X143303518Y-57411753D01*
X143337003Y-57473076D01*
X143332019Y-57542768D01*
X143290147Y-57598701D01*
X143224683Y-57623118D01*
X143201954Y-57622654D01*
X143129004Y-57614435D01*
X143128996Y-57614435D01*
X142949750Y-57634630D01*
X142949745Y-57634631D01*
X142779476Y-57694211D01*
X142626737Y-57790184D01*
X142499184Y-57917737D01*
X142403211Y-58070476D01*
X142343631Y-58240745D01*
X142343630Y-58240750D01*
X142323435Y-58419996D01*
X142323435Y-58420003D01*
X142343630Y-58599249D01*
X142343631Y-58599254D01*
X142403211Y-58769523D01*
X142499185Y-58922263D01*
X142501445Y-58925097D01*
X142502334Y-58927275D01*
X142502889Y-58928158D01*
X142502734Y-58928255D01*
X142527855Y-58989783D01*
X142528500Y-59002412D01*
X142528500Y-59107587D01*
X142508815Y-59174626D01*
X142501450Y-59184896D01*
X142499186Y-59187734D01*
X142403211Y-59340476D01*
X142343631Y-59510745D01*
X142343630Y-59510750D01*
X142323435Y-59689996D01*
X142323435Y-59690003D01*
X142343630Y-59869249D01*
X142343631Y-59869254D01*
X142403211Y-60039523D01*
X142495069Y-60185713D01*
X142499184Y-60192262D01*
X142626738Y-60319816D01*
X142703152Y-60367830D01*
X142755021Y-60400422D01*
X142779478Y-60415789D01*
X142899364Y-60457739D01*
X142949745Y-60475368D01*
X142949750Y-60475369D01*
X143128996Y-60495565D01*
X143129000Y-60495565D01*
X143129004Y-60495565D01*
X143308249Y-60475369D01*
X143308252Y-60475368D01*
X143308255Y-60475368D01*
X143478522Y-60415789D01*
X143631262Y-60319816D01*
X143758816Y-60192262D01*
X143854789Y-60039522D01*
X143914368Y-59869255D01*
X143928423Y-59744515D01*
X143934565Y-59690003D01*
X143934565Y-59689996D01*
X143914369Y-59510750D01*
X143914368Y-59510745D01*
X143876684Y-59403050D01*
X143854789Y-59340478D01*
X143758816Y-59187738D01*
X143758814Y-59187736D01*
X143758813Y-59187734D01*
X143756550Y-59184896D01*
X143755659Y-59182715D01*
X143755111Y-59181842D01*
X143755264Y-59181745D01*
X143730144Y-59120209D01*
X143729500Y-59107587D01*
X143729500Y-59002412D01*
X143749185Y-58935373D01*
X143756555Y-58925097D01*
X143758810Y-58922267D01*
X143758816Y-58922262D01*
X143854789Y-58769522D01*
X143914368Y-58599255D01*
X143917623Y-58570367D01*
X143934565Y-58420003D01*
X143934565Y-58419997D01*
X143926345Y-58347046D01*
X143938399Y-58278224D01*
X143985748Y-58226845D01*
X144053358Y-58209220D01*
X144119764Y-58230946D01*
X144137246Y-58245481D01*
X147597139Y-61705374D01*
X147597149Y-61705385D01*
X147601479Y-61709715D01*
X147601480Y-61709716D01*
X147690584Y-61798820D01*
X147724068Y-61860141D01*
X147719084Y-61929833D01*
X147677213Y-61985767D01*
X147611749Y-62010184D01*
X147602902Y-62010500D01*
X139278569Y-62010500D01*
X139211530Y-61990815D01*
X139190888Y-61974181D01*
X137937792Y-60721085D01*
X137904307Y-60659762D01*
X137909291Y-60590070D01*
X137920479Y-60567432D01*
X137924269Y-60561401D01*
X138012789Y-60420522D01*
X138072368Y-60250255D01*
X138072369Y-60250249D01*
X138092565Y-60071003D01*
X138092565Y-60070996D01*
X138072369Y-59891750D01*
X138072368Y-59891745D01*
X138012788Y-59721476D01*
X137916813Y-59568734D01*
X137914550Y-59565896D01*
X137913659Y-59563715D01*
X137913111Y-59562842D01*
X137913264Y-59562745D01*
X137888144Y-59501209D01*
X137887500Y-59488587D01*
X137887500Y-58748412D01*
X137907185Y-58681373D01*
X137914555Y-58671097D01*
X137916810Y-58668267D01*
X137916816Y-58668262D01*
X138012789Y-58515522D01*
X138072368Y-58345255D01*
X138076797Y-58305945D01*
X138092565Y-58166003D01*
X138092565Y-58165996D01*
X138072369Y-57986750D01*
X138072368Y-57986745D01*
X138043582Y-57904480D01*
X138012789Y-57816478D01*
X137996267Y-57790184D01*
X137935963Y-57694211D01*
X137916816Y-57663738D01*
X137789262Y-57536184D01*
X137636523Y-57440211D01*
X137466254Y-57380631D01*
X137466249Y-57380630D01*
X137287004Y-57360435D01*
X137286996Y-57360435D01*
X137107750Y-57380630D01*
X137107745Y-57380631D01*
X136937476Y-57440211D01*
X136784737Y-57536184D01*
X136657184Y-57663737D01*
X136561211Y-57816476D01*
X136501631Y-57986745D01*
X136501630Y-57986750D01*
X136481435Y-58165996D01*
X136481435Y-58166003D01*
X136501630Y-58345249D01*
X136501631Y-58345254D01*
X136561211Y-58515523D01*
X136608328Y-58590508D01*
X136646655Y-58651506D01*
X136657185Y-58668263D01*
X136659445Y-58671097D01*
X136660334Y-58673275D01*
X136660889Y-58674158D01*
X136660734Y-58674255D01*
X136685855Y-58735783D01*
X136686500Y-58748412D01*
X136686500Y-59170431D01*
X136666815Y-59237470D01*
X136614011Y-59283225D01*
X136544853Y-59293169D01*
X136481297Y-59264144D01*
X136474819Y-59258112D01*
X134513061Y-57296355D01*
X134513059Y-57296352D01*
X134394188Y-57177481D01*
X134394187Y-57177480D01*
X134307375Y-57127360D01*
X134307375Y-57127359D01*
X134307371Y-57127358D01*
X134257256Y-57098423D01*
X134104528Y-57057499D01*
X133946414Y-57057499D01*
X133938818Y-57057499D01*
X133938802Y-57057500D01*
X133254266Y-57057500D01*
X133187227Y-57037815D01*
X133141472Y-56985011D01*
X133131046Y-56947384D01*
X133119369Y-56843749D01*
X133119368Y-56843745D01*
X133077797Y-56724943D01*
X133059789Y-56673478D01*
X132963816Y-56520738D01*
X132836262Y-56393184D01*
X132818880Y-56382262D01*
X132683521Y-56297210D01*
X132513249Y-56237630D01*
X132426330Y-56227837D01*
X132361916Y-56200770D01*
X132352533Y-56192298D01*
X131827819Y-55667584D01*
X131794334Y-55606261D01*
X131791500Y-55579903D01*
X131791500Y-54686611D01*
X133737820Y-54686611D01*
X133737820Y-54686618D01*
X133758015Y-54865864D01*
X133758016Y-54865869D01*
X133817596Y-55036138D01*
X133857355Y-55099413D01*
X133913569Y-55188877D01*
X134041123Y-55316431D01*
X134193863Y-55412404D01*
X134351381Y-55467522D01*
X134364130Y-55471983D01*
X134364135Y-55471984D01*
X134543381Y-55492180D01*
X134543385Y-55492180D01*
X134543389Y-55492180D01*
X134722634Y-55471984D01*
X134722637Y-55471983D01*
X134722640Y-55471983D01*
X134892907Y-55412404D01*
X135045647Y-55316431D01*
X135115259Y-55246819D01*
X135176582Y-55213334D01*
X135202940Y-55210500D01*
X137748903Y-55210500D01*
X137815942Y-55230185D01*
X137836584Y-55246819D01*
X138488298Y-55898533D01*
X138521783Y-55959856D01*
X138523837Y-55972330D01*
X138533630Y-56059249D01*
X138593210Y-56229521D01*
X138652249Y-56323480D01*
X138689184Y-56382262D01*
X138816738Y-56509816D01*
X138849666Y-56530506D01*
X138961563Y-56600816D01*
X138969478Y-56605789D01*
X139139745Y-56665368D01*
X139139750Y-56665369D01*
X139318996Y-56685565D01*
X139319000Y-56685565D01*
X139319004Y-56685565D01*
X139498249Y-56665369D01*
X139498252Y-56665368D01*
X139498255Y-56665368D01*
X139668522Y-56605789D01*
X139821262Y-56509816D01*
X139948816Y-56382262D01*
X140044789Y-56229522D01*
X140104368Y-56059255D01*
X140106759Y-56038034D01*
X140124565Y-55880003D01*
X140124565Y-55879996D01*
X140104369Y-55700750D01*
X140104368Y-55700745D01*
X140074993Y-55616797D01*
X140044789Y-55530478D01*
X140037878Y-55519480D01*
X140005231Y-55467522D01*
X139948816Y-55377738D01*
X139821262Y-55250184D01*
X139762616Y-55213334D01*
X139668521Y-55154210D01*
X139498249Y-55094630D01*
X139411330Y-55084837D01*
X139346916Y-55057770D01*
X139337533Y-55049298D01*
X138536590Y-54248355D01*
X138536588Y-54248352D01*
X138417717Y-54129481D01*
X138417709Y-54129475D01*
X138321482Y-54073919D01*
X138321480Y-54073918D01*
X138280790Y-54050425D01*
X138280789Y-54050424D01*
X138268263Y-54047067D01*
X138128057Y-54009499D01*
X137969943Y-54009499D01*
X137962347Y-54009499D01*
X137962331Y-54009500D01*
X135006095Y-54009500D01*
X134940122Y-53990493D01*
X134892909Y-53960826D01*
X134722639Y-53901246D01*
X134722634Y-53901245D01*
X134543389Y-53881050D01*
X134543381Y-53881050D01*
X134364135Y-53901245D01*
X134364130Y-53901246D01*
X134193861Y-53960826D01*
X134041122Y-54056799D01*
X133913569Y-54184352D01*
X133817596Y-54337091D01*
X133758016Y-54507360D01*
X133758015Y-54507365D01*
X133737820Y-54686611D01*
X131791500Y-54686611D01*
X131791500Y-53414412D01*
X131811185Y-53347373D01*
X131818555Y-53337097D01*
X131820810Y-53334267D01*
X131820816Y-53334262D01*
X131916789Y-53181522D01*
X131976368Y-53011255D01*
X131976577Y-53009405D01*
X131984102Y-52942617D01*
X132011168Y-52878203D01*
X132068763Y-52838648D01*
X132107322Y-52832500D01*
X138672903Y-52832500D01*
X138739942Y-52852185D01*
G37*
%TD.AperFunction*%
%TA.AperFunction,Conductor*%
G36*
X130341717Y-52852185D02*
G01*
X130387472Y-52904989D01*
X130397898Y-52942617D01*
X130405630Y-53011249D01*
X130465210Y-53181521D01*
X130511471Y-53255145D01*
X130550106Y-53316632D01*
X130561185Y-53334263D01*
X130563445Y-53337097D01*
X130564334Y-53339275D01*
X130564889Y-53340158D01*
X130564734Y-53340255D01*
X130589855Y-53401783D01*
X130590500Y-53414412D01*
X130590500Y-55695374D01*
X130570815Y-55762413D01*
X130518011Y-55808168D01*
X130448853Y-55818112D01*
X130385297Y-55789087D01*
X130378819Y-55783055D01*
X128336119Y-53740355D01*
X128336117Y-53740352D01*
X128217246Y-53621481D01*
X128217245Y-53621480D01*
X128123187Y-53567176D01*
X128123186Y-53567175D01*
X128080319Y-53542425D01*
X128080316Y-53542423D01*
X128011563Y-53524001D01*
X127927586Y-53501499D01*
X127769472Y-53501499D01*
X127761876Y-53501499D01*
X127761860Y-53501500D01*
X122272097Y-53501500D01*
X122205058Y-53481815D01*
X122159303Y-53429011D01*
X122149359Y-53359853D01*
X122178384Y-53296297D01*
X122184416Y-53289819D01*
X122334177Y-53140059D01*
X122605417Y-52868819D01*
X122666740Y-52835334D01*
X122693098Y-52832500D01*
X130274678Y-52832500D01*
X130341717Y-52852185D01*
G37*
%TD.AperFunction*%
%TA.AperFunction,Conductor*%
G36*
X138738231Y-49642185D02*
G01*
X138783986Y-49694989D01*
X138793930Y-49764147D01*
X138764905Y-49827703D01*
X138748505Y-49843447D01*
X138745996Y-49845447D01*
X138618445Y-49972998D01*
X138522472Y-50125737D01*
X138462892Y-50296006D01*
X138462891Y-50296011D01*
X138442696Y-50475257D01*
X138442696Y-50475264D01*
X138462891Y-50654510D01*
X138462892Y-50654515D01*
X138522472Y-50824784D01*
X138578981Y-50914717D01*
X138618445Y-50977523D01*
X138745999Y-51105077D01*
X138898739Y-51201050D01*
X139069006Y-51260629D01*
X139155930Y-51270422D01*
X139220341Y-51297487D01*
X139229726Y-51305961D01*
X139464849Y-51541084D01*
X139498334Y-51602407D01*
X139493350Y-51672099D01*
X139451478Y-51728032D01*
X139386014Y-51752449D01*
X139317741Y-51737597D01*
X139315169Y-51736153D01*
X139268687Y-51709317D01*
X139223558Y-51683262D01*
X139204785Y-51672423D01*
X139052057Y-51631499D01*
X138893943Y-51631499D01*
X138886347Y-51631499D01*
X138886331Y-51631500D01*
X136429828Y-51631500D01*
X136362789Y-51611815D01*
X136317034Y-51559011D01*
X136307090Y-51489853D01*
X136336115Y-51426297D01*
X136394893Y-51388523D01*
X136397673Y-51387741D01*
X136502785Y-51359577D01*
X136582180Y-51313738D01*
X136639716Y-51280520D01*
X136751520Y-51168716D01*
X136751520Y-51168714D01*
X136761724Y-51158511D01*
X136761727Y-51158506D01*
X138261417Y-49658819D01*
X138322740Y-49625334D01*
X138349098Y-49622500D01*
X138671192Y-49622500D01*
X138738231Y-49642185D01*
G37*
%TD.AperFunction*%
%TD*%
M02*
