%TF.GenerationSoftware,KiCad,Pcbnew,8.0.6*%
%TF.CreationDate,2024-11-05T17:21:10-06:00*%
%TF.ProjectId,werable_unit (1),77657261-626c-4655-9f75-6e6974202831,rev?*%
%TF.SameCoordinates,Original*%
%TF.FileFunction,Legend,Top*%
%TF.FilePolarity,Positive*%
%FSLAX46Y46*%
G04 Gerber Fmt 4.6, Leading zero omitted, Abs format (unit mm)*
G04 Created by KiCad (PCBNEW 8.0.6) date 2024-11-05 17:21:10*
%MOMM*%
%LPD*%
G01*
G04 APERTURE LIST*
%ADD10C,0.125000*%
%ADD11C,0.100000*%
%ADD12C,0.150000*%
%ADD13C,0.120000*%
%ADD14C,0.152400*%
G04 APERTURE END LIST*
D10*
X154591379Y-73771992D02*
X154543760Y-73819612D01*
X154543760Y-73819612D02*
X154400903Y-73867231D01*
X154400903Y-73867231D02*
X154305665Y-73867231D01*
X154305665Y-73867231D02*
X154162808Y-73819612D01*
X154162808Y-73819612D02*
X154067570Y-73724373D01*
X154067570Y-73724373D02*
X154019951Y-73629135D01*
X154019951Y-73629135D02*
X153972332Y-73438659D01*
X153972332Y-73438659D02*
X153972332Y-73295802D01*
X153972332Y-73295802D02*
X154019951Y-73105326D01*
X154019951Y-73105326D02*
X154067570Y-73010088D01*
X154067570Y-73010088D02*
X154162808Y-72914850D01*
X154162808Y-72914850D02*
X154305665Y-72867231D01*
X154305665Y-72867231D02*
X154400903Y-72867231D01*
X154400903Y-72867231D02*
X154543760Y-72914850D01*
X154543760Y-72914850D02*
X154591379Y-72962469D01*
X155400903Y-73819612D02*
X155305665Y-73867231D01*
X155305665Y-73867231D02*
X155115189Y-73867231D01*
X155115189Y-73867231D02*
X155019951Y-73819612D01*
X155019951Y-73819612D02*
X154972332Y-73724373D01*
X154972332Y-73724373D02*
X154972332Y-73343421D01*
X154972332Y-73343421D02*
X155019951Y-73248183D01*
X155019951Y-73248183D02*
X155115189Y-73200564D01*
X155115189Y-73200564D02*
X155305665Y-73200564D01*
X155305665Y-73200564D02*
X155400903Y-73248183D01*
X155400903Y-73248183D02*
X155448522Y-73343421D01*
X155448522Y-73343421D02*
X155448522Y-73438659D01*
X155448522Y-73438659D02*
X154972332Y-73533897D01*
X155877094Y-73200564D02*
X155877094Y-73867231D01*
X155877094Y-73295802D02*
X155924713Y-73248183D01*
X155924713Y-73248183D02*
X156019951Y-73200564D01*
X156019951Y-73200564D02*
X156162808Y-73200564D01*
X156162808Y-73200564D02*
X156258046Y-73248183D01*
X156258046Y-73248183D02*
X156305665Y-73343421D01*
X156305665Y-73343421D02*
X156305665Y-73867231D01*
X156638999Y-73200564D02*
X157019951Y-73200564D01*
X156781856Y-72867231D02*
X156781856Y-73724373D01*
X156781856Y-73724373D02*
X156829475Y-73819612D01*
X156829475Y-73819612D02*
X156924713Y-73867231D01*
X156924713Y-73867231D02*
X157019951Y-73867231D01*
X157353285Y-73867231D02*
X157353285Y-73200564D01*
X157353285Y-73391040D02*
X157400904Y-73295802D01*
X157400904Y-73295802D02*
X157448523Y-73248183D01*
X157448523Y-73248183D02*
X157543761Y-73200564D01*
X157543761Y-73200564D02*
X157638999Y-73200564D01*
X158400904Y-73867231D02*
X158400904Y-73343421D01*
X158400904Y-73343421D02*
X158353285Y-73248183D01*
X158353285Y-73248183D02*
X158258047Y-73200564D01*
X158258047Y-73200564D02*
X158067571Y-73200564D01*
X158067571Y-73200564D02*
X157972333Y-73248183D01*
X158400904Y-73819612D02*
X158305666Y-73867231D01*
X158305666Y-73867231D02*
X158067571Y-73867231D01*
X158067571Y-73867231D02*
X157972333Y-73819612D01*
X157972333Y-73819612D02*
X157924714Y-73724373D01*
X157924714Y-73724373D02*
X157924714Y-73629135D01*
X157924714Y-73629135D02*
X157972333Y-73533897D01*
X157972333Y-73533897D02*
X158067571Y-73486278D01*
X158067571Y-73486278D02*
X158305666Y-73486278D01*
X158305666Y-73486278D02*
X158400904Y-73438659D01*
X159019952Y-73867231D02*
X158924714Y-73819612D01*
X158924714Y-73819612D02*
X158877095Y-73724373D01*
X158877095Y-73724373D02*
X158877095Y-72867231D01*
X160162810Y-72867231D02*
X160162810Y-73676754D01*
X160162810Y-73676754D02*
X160210429Y-73771992D01*
X160210429Y-73771992D02*
X160258048Y-73819612D01*
X160258048Y-73819612D02*
X160353286Y-73867231D01*
X160353286Y-73867231D02*
X160543762Y-73867231D01*
X160543762Y-73867231D02*
X160639000Y-73819612D01*
X160639000Y-73819612D02*
X160686619Y-73771992D01*
X160686619Y-73771992D02*
X160734238Y-73676754D01*
X160734238Y-73676754D02*
X160734238Y-72867231D01*
X161210429Y-73200564D02*
X161210429Y-73867231D01*
X161210429Y-73295802D02*
X161258048Y-73248183D01*
X161258048Y-73248183D02*
X161353286Y-73200564D01*
X161353286Y-73200564D02*
X161496143Y-73200564D01*
X161496143Y-73200564D02*
X161591381Y-73248183D01*
X161591381Y-73248183D02*
X161639000Y-73343421D01*
X161639000Y-73343421D02*
X161639000Y-73867231D01*
X162115191Y-73867231D02*
X162115191Y-73200564D01*
X162115191Y-72867231D02*
X162067572Y-72914850D01*
X162067572Y-72914850D02*
X162115191Y-72962469D01*
X162115191Y-72962469D02*
X162162810Y-72914850D01*
X162162810Y-72914850D02*
X162115191Y-72867231D01*
X162115191Y-72867231D02*
X162115191Y-72962469D01*
X162448524Y-73200564D02*
X162829476Y-73200564D01*
X162591381Y-72867231D02*
X162591381Y-73724373D01*
X162591381Y-73724373D02*
X162639000Y-73819612D01*
X162639000Y-73819612D02*
X162734238Y-73867231D01*
X162734238Y-73867231D02*
X162829476Y-73867231D01*
X163781858Y-72867231D02*
X164115191Y-73867231D01*
X164115191Y-73867231D02*
X164448524Y-72867231D01*
X165210429Y-73200564D02*
X165210429Y-73867231D01*
X164972334Y-72819612D02*
X164734239Y-73533897D01*
X164734239Y-73533897D02*
X165353286Y-73533897D01*
X154877095Y-74572413D02*
X154924714Y-74524794D01*
X154924714Y-74524794D02*
X155019952Y-74477175D01*
X155019952Y-74477175D02*
X155258047Y-74477175D01*
X155258047Y-74477175D02*
X155353285Y-74524794D01*
X155353285Y-74524794D02*
X155400904Y-74572413D01*
X155400904Y-74572413D02*
X155448523Y-74667651D01*
X155448523Y-74667651D02*
X155448523Y-74762889D01*
X155448523Y-74762889D02*
X155400904Y-74905746D01*
X155400904Y-74905746D02*
X154829476Y-75477175D01*
X154829476Y-75477175D02*
X155448523Y-75477175D01*
X156067571Y-74477175D02*
X156162809Y-74477175D01*
X156162809Y-74477175D02*
X156258047Y-74524794D01*
X156258047Y-74524794D02*
X156305666Y-74572413D01*
X156305666Y-74572413D02*
X156353285Y-74667651D01*
X156353285Y-74667651D02*
X156400904Y-74858127D01*
X156400904Y-74858127D02*
X156400904Y-75096222D01*
X156400904Y-75096222D02*
X156353285Y-75286698D01*
X156353285Y-75286698D02*
X156305666Y-75381936D01*
X156305666Y-75381936D02*
X156258047Y-75429556D01*
X156258047Y-75429556D02*
X156162809Y-75477175D01*
X156162809Y-75477175D02*
X156067571Y-75477175D01*
X156067571Y-75477175D02*
X155972333Y-75429556D01*
X155972333Y-75429556D02*
X155924714Y-75381936D01*
X155924714Y-75381936D02*
X155877095Y-75286698D01*
X155877095Y-75286698D02*
X155829476Y-75096222D01*
X155829476Y-75096222D02*
X155829476Y-74858127D01*
X155829476Y-74858127D02*
X155877095Y-74667651D01*
X155877095Y-74667651D02*
X155924714Y-74572413D01*
X155924714Y-74572413D02*
X155972333Y-74524794D01*
X155972333Y-74524794D02*
X156067571Y-74477175D01*
X156781857Y-74572413D02*
X156829476Y-74524794D01*
X156829476Y-74524794D02*
X156924714Y-74477175D01*
X156924714Y-74477175D02*
X157162809Y-74477175D01*
X157162809Y-74477175D02*
X157258047Y-74524794D01*
X157258047Y-74524794D02*
X157305666Y-74572413D01*
X157305666Y-74572413D02*
X157353285Y-74667651D01*
X157353285Y-74667651D02*
X157353285Y-74762889D01*
X157353285Y-74762889D02*
X157305666Y-74905746D01*
X157305666Y-74905746D02*
X156734238Y-75477175D01*
X156734238Y-75477175D02*
X157353285Y-75477175D01*
X158210428Y-74810508D02*
X158210428Y-75477175D01*
X157972333Y-74429556D02*
X157734238Y-75143841D01*
X157734238Y-75143841D02*
X158353285Y-75143841D01*
X158734238Y-75096222D02*
X159496143Y-75096222D01*
X160496142Y-75477175D02*
X159924714Y-75477175D01*
X160210428Y-75477175D02*
X160210428Y-74477175D01*
X160210428Y-74477175D02*
X160115190Y-74620032D01*
X160115190Y-74620032D02*
X160019952Y-74715270D01*
X160019952Y-74715270D02*
X159924714Y-74762889D01*
X161448523Y-75477175D02*
X160877095Y-75477175D01*
X161162809Y-75477175D02*
X161162809Y-74477175D01*
X161162809Y-74477175D02*
X161067571Y-74620032D01*
X161067571Y-74620032D02*
X160972333Y-74715270D01*
X160972333Y-74715270D02*
X160877095Y-74762889D01*
X162591380Y-74429556D02*
X161734238Y-75715270D01*
X163115190Y-74477175D02*
X163210428Y-74477175D01*
X163210428Y-74477175D02*
X163305666Y-74524794D01*
X163305666Y-74524794D02*
X163353285Y-74572413D01*
X163353285Y-74572413D02*
X163400904Y-74667651D01*
X163400904Y-74667651D02*
X163448523Y-74858127D01*
X163448523Y-74858127D02*
X163448523Y-75096222D01*
X163448523Y-75096222D02*
X163400904Y-75286698D01*
X163400904Y-75286698D02*
X163353285Y-75381936D01*
X163353285Y-75381936D02*
X163305666Y-75429556D01*
X163305666Y-75429556D02*
X163210428Y-75477175D01*
X163210428Y-75477175D02*
X163115190Y-75477175D01*
X163115190Y-75477175D02*
X163019952Y-75429556D01*
X163019952Y-75429556D02*
X162972333Y-75381936D01*
X162972333Y-75381936D02*
X162924714Y-75286698D01*
X162924714Y-75286698D02*
X162877095Y-75096222D01*
X162877095Y-75096222D02*
X162877095Y-74858127D01*
X162877095Y-74858127D02*
X162924714Y-74667651D01*
X162924714Y-74667651D02*
X162972333Y-74572413D01*
X162972333Y-74572413D02*
X163019952Y-74524794D01*
X163019952Y-74524794D02*
X163115190Y-74477175D01*
X164353285Y-74477175D02*
X163877095Y-74477175D01*
X163877095Y-74477175D02*
X163829476Y-74953365D01*
X163829476Y-74953365D02*
X163877095Y-74905746D01*
X163877095Y-74905746D02*
X163972333Y-74858127D01*
X163972333Y-74858127D02*
X164210428Y-74858127D01*
X164210428Y-74858127D02*
X164305666Y-74905746D01*
X164305666Y-74905746D02*
X164353285Y-74953365D01*
X164353285Y-74953365D02*
X164400904Y-75048603D01*
X164400904Y-75048603D02*
X164400904Y-75286698D01*
X164400904Y-75286698D02*
X164353285Y-75381936D01*
X164353285Y-75381936D02*
X164305666Y-75429556D01*
X164305666Y-75429556D02*
X164210428Y-75477175D01*
X164210428Y-75477175D02*
X163972333Y-75477175D01*
X163972333Y-75477175D02*
X163877095Y-75429556D01*
X163877095Y-75429556D02*
X163829476Y-75381936D01*
X156472333Y-76087119D02*
X157043761Y-76087119D01*
X156758047Y-77087119D02*
X156758047Y-76087119D01*
X157758047Y-77039500D02*
X157662809Y-77087119D01*
X157662809Y-77087119D02*
X157472333Y-77087119D01*
X157472333Y-77087119D02*
X157377095Y-77039500D01*
X157377095Y-77039500D02*
X157329476Y-76944261D01*
X157329476Y-76944261D02*
X157329476Y-76563309D01*
X157329476Y-76563309D02*
X157377095Y-76468071D01*
X157377095Y-76468071D02*
X157472333Y-76420452D01*
X157472333Y-76420452D02*
X157662809Y-76420452D01*
X157662809Y-76420452D02*
X157758047Y-76468071D01*
X157758047Y-76468071D02*
X157805666Y-76563309D01*
X157805666Y-76563309D02*
X157805666Y-76658547D01*
X157805666Y-76658547D02*
X157329476Y-76753785D01*
X158662809Y-77087119D02*
X158662809Y-76563309D01*
X158662809Y-76563309D02*
X158615190Y-76468071D01*
X158615190Y-76468071D02*
X158519952Y-76420452D01*
X158519952Y-76420452D02*
X158329476Y-76420452D01*
X158329476Y-76420452D02*
X158234238Y-76468071D01*
X158662809Y-77039500D02*
X158567571Y-77087119D01*
X158567571Y-77087119D02*
X158329476Y-77087119D01*
X158329476Y-77087119D02*
X158234238Y-77039500D01*
X158234238Y-77039500D02*
X158186619Y-76944261D01*
X158186619Y-76944261D02*
X158186619Y-76849023D01*
X158186619Y-76849023D02*
X158234238Y-76753785D01*
X158234238Y-76753785D02*
X158329476Y-76706166D01*
X158329476Y-76706166D02*
X158567571Y-76706166D01*
X158567571Y-76706166D02*
X158662809Y-76658547D01*
X159139000Y-77087119D02*
X159139000Y-76420452D01*
X159139000Y-76515690D02*
X159186619Y-76468071D01*
X159186619Y-76468071D02*
X159281857Y-76420452D01*
X159281857Y-76420452D02*
X159424714Y-76420452D01*
X159424714Y-76420452D02*
X159519952Y-76468071D01*
X159519952Y-76468071D02*
X159567571Y-76563309D01*
X159567571Y-76563309D02*
X159567571Y-77087119D01*
X159567571Y-76563309D02*
X159615190Y-76468071D01*
X159615190Y-76468071D02*
X159710428Y-76420452D01*
X159710428Y-76420452D02*
X159853285Y-76420452D01*
X159853285Y-76420452D02*
X159948524Y-76468071D01*
X159948524Y-76468071D02*
X159996143Y-76563309D01*
X159996143Y-76563309D02*
X159996143Y-77087119D01*
X161758047Y-77087119D02*
X161186619Y-77087119D01*
X161472333Y-77087119D02*
X161472333Y-76087119D01*
X161472333Y-76087119D02*
X161377095Y-76229976D01*
X161377095Y-76229976D02*
X161281857Y-76325214D01*
X161281857Y-76325214D02*
X161186619Y-76372833D01*
X162091381Y-76087119D02*
X162758047Y-76087119D01*
X162758047Y-76087119D02*
X162329476Y-77087119D01*
D11*
X126032191Y-113022419D02*
X126222667Y-113022419D01*
X126222667Y-113022419D02*
X126317905Y-112974800D01*
X126317905Y-112974800D02*
X126365524Y-112927180D01*
X126365524Y-112927180D02*
X126460762Y-112784323D01*
X126460762Y-112784323D02*
X126508381Y-112593847D01*
X126508381Y-112593847D02*
X126508381Y-112212895D01*
X126508381Y-112212895D02*
X126460762Y-112117657D01*
X126460762Y-112117657D02*
X126413143Y-112070038D01*
X126413143Y-112070038D02*
X126317905Y-112022419D01*
X126317905Y-112022419D02*
X126127429Y-112022419D01*
X126127429Y-112022419D02*
X126032191Y-112070038D01*
X126032191Y-112070038D02*
X125984572Y-112117657D01*
X125984572Y-112117657D02*
X125936953Y-112212895D01*
X125936953Y-112212895D02*
X125936953Y-112450990D01*
X125936953Y-112450990D02*
X125984572Y-112546228D01*
X125984572Y-112546228D02*
X126032191Y-112593847D01*
X126032191Y-112593847D02*
X126127429Y-112641466D01*
X126127429Y-112641466D02*
X126317905Y-112641466D01*
X126317905Y-112641466D02*
X126413143Y-112593847D01*
X126413143Y-112593847D02*
X126460762Y-112546228D01*
X126460762Y-112546228D02*
X126508381Y-112450990D01*
X127127429Y-112022419D02*
X127222667Y-112022419D01*
X127222667Y-112022419D02*
X127317905Y-112070038D01*
X127317905Y-112070038D02*
X127365524Y-112117657D01*
X127365524Y-112117657D02*
X127413143Y-112212895D01*
X127413143Y-112212895D02*
X127460762Y-112403371D01*
X127460762Y-112403371D02*
X127460762Y-112641466D01*
X127460762Y-112641466D02*
X127413143Y-112831942D01*
X127413143Y-112831942D02*
X127365524Y-112927180D01*
X127365524Y-112927180D02*
X127317905Y-112974800D01*
X127317905Y-112974800D02*
X127222667Y-113022419D01*
X127222667Y-113022419D02*
X127127429Y-113022419D01*
X127127429Y-113022419D02*
X127032191Y-112974800D01*
X127032191Y-112974800D02*
X126984572Y-112927180D01*
X126984572Y-112927180D02*
X126936953Y-112831942D01*
X126936953Y-112831942D02*
X126889334Y-112641466D01*
X126889334Y-112641466D02*
X126889334Y-112403371D01*
X126889334Y-112403371D02*
X126936953Y-112212895D01*
X126936953Y-112212895D02*
X126984572Y-112117657D01*
X126984572Y-112117657D02*
X127032191Y-112070038D01*
X127032191Y-112070038D02*
X127127429Y-112022419D01*
X127889334Y-112927180D02*
X127936953Y-112974800D01*
X127936953Y-112974800D02*
X127889334Y-113022419D01*
X127889334Y-113022419D02*
X127841715Y-112974800D01*
X127841715Y-112974800D02*
X127889334Y-112927180D01*
X127889334Y-112927180D02*
X127889334Y-113022419D01*
X128794095Y-112355752D02*
X128794095Y-113022419D01*
X128556000Y-111974800D02*
X128317905Y-112689085D01*
X128317905Y-112689085D02*
X128936952Y-112689085D01*
X129270286Y-112117657D02*
X129317905Y-112070038D01*
X129317905Y-112070038D02*
X129413143Y-112022419D01*
X129413143Y-112022419D02*
X129651238Y-112022419D01*
X129651238Y-112022419D02*
X129746476Y-112070038D01*
X129746476Y-112070038D02*
X129794095Y-112117657D01*
X129794095Y-112117657D02*
X129841714Y-112212895D01*
X129841714Y-112212895D02*
X129841714Y-112308133D01*
X129841714Y-112308133D02*
X129794095Y-112450990D01*
X129794095Y-112450990D02*
X129222667Y-113022419D01*
X129222667Y-113022419D02*
X129841714Y-113022419D01*
X130698857Y-112355752D02*
X130698857Y-113022419D01*
X130460762Y-111974800D02*
X130222667Y-112689085D01*
X130222667Y-112689085D02*
X130841714Y-112689085D01*
X131413143Y-112022419D02*
X131508381Y-112022419D01*
X131508381Y-112022419D02*
X131603619Y-112070038D01*
X131603619Y-112070038D02*
X131651238Y-112117657D01*
X131651238Y-112117657D02*
X131698857Y-112212895D01*
X131698857Y-112212895D02*
X131746476Y-112403371D01*
X131746476Y-112403371D02*
X131746476Y-112641466D01*
X131746476Y-112641466D02*
X131698857Y-112831942D01*
X131698857Y-112831942D02*
X131651238Y-112927180D01*
X131651238Y-112927180D02*
X131603619Y-112974800D01*
X131603619Y-112974800D02*
X131508381Y-113022419D01*
X131508381Y-113022419D02*
X131413143Y-113022419D01*
X131413143Y-113022419D02*
X131317905Y-112974800D01*
X131317905Y-112974800D02*
X131270286Y-112927180D01*
X131270286Y-112927180D02*
X131222667Y-112831942D01*
X131222667Y-112831942D02*
X131175048Y-112641466D01*
X131175048Y-112641466D02*
X131175048Y-112403371D01*
X131175048Y-112403371D02*
X131222667Y-112212895D01*
X131222667Y-112212895D02*
X131270286Y-112117657D01*
X131270286Y-112117657D02*
X131317905Y-112070038D01*
X131317905Y-112070038D02*
X131413143Y-112022419D01*
X132936953Y-113022419D02*
X132936953Y-112355752D01*
X132936953Y-112450990D02*
X132984572Y-112403371D01*
X132984572Y-112403371D02*
X133079810Y-112355752D01*
X133079810Y-112355752D02*
X133222667Y-112355752D01*
X133222667Y-112355752D02*
X133317905Y-112403371D01*
X133317905Y-112403371D02*
X133365524Y-112498609D01*
X133365524Y-112498609D02*
X133365524Y-113022419D01*
X133365524Y-112498609D02*
X133413143Y-112403371D01*
X133413143Y-112403371D02*
X133508381Y-112355752D01*
X133508381Y-112355752D02*
X133651238Y-112355752D01*
X133651238Y-112355752D02*
X133746477Y-112403371D01*
X133746477Y-112403371D02*
X133794096Y-112498609D01*
X133794096Y-112498609D02*
X133794096Y-113022419D01*
X134270286Y-113022419D02*
X134270286Y-112355752D01*
X134270286Y-112450990D02*
X134317905Y-112403371D01*
X134317905Y-112403371D02*
X134413143Y-112355752D01*
X134413143Y-112355752D02*
X134556000Y-112355752D01*
X134556000Y-112355752D02*
X134651238Y-112403371D01*
X134651238Y-112403371D02*
X134698857Y-112498609D01*
X134698857Y-112498609D02*
X134698857Y-113022419D01*
X134698857Y-112498609D02*
X134746476Y-112403371D01*
X134746476Y-112403371D02*
X134841714Y-112355752D01*
X134841714Y-112355752D02*
X134984571Y-112355752D01*
X134984571Y-112355752D02*
X135079810Y-112403371D01*
X135079810Y-112403371D02*
X135127429Y-112498609D01*
X135127429Y-112498609D02*
X135127429Y-113022419D01*
X85344000Y-100830000D02*
X85344000Y-114251420D01*
X175768000Y-100830000D02*
X175768000Y-114251420D01*
X85344000Y-113665000D02*
X175768000Y-113665000D01*
X85344000Y-113665000D02*
X175768000Y-113665000D01*
X85344000Y-113665000D02*
X86470504Y-113078579D01*
X85344000Y-113665000D02*
X86470504Y-114251421D01*
X175768000Y-113665000D02*
X174641496Y-114251421D01*
X175768000Y-113665000D02*
X174641496Y-113078579D01*
X126032191Y-24503419D02*
X126222667Y-24503419D01*
X126222667Y-24503419D02*
X126317905Y-24455800D01*
X126317905Y-24455800D02*
X126365524Y-24408180D01*
X126365524Y-24408180D02*
X126460762Y-24265323D01*
X126460762Y-24265323D02*
X126508381Y-24074847D01*
X126508381Y-24074847D02*
X126508381Y-23693895D01*
X126508381Y-23693895D02*
X126460762Y-23598657D01*
X126460762Y-23598657D02*
X126413143Y-23551038D01*
X126413143Y-23551038D02*
X126317905Y-23503419D01*
X126317905Y-23503419D02*
X126127429Y-23503419D01*
X126127429Y-23503419D02*
X126032191Y-23551038D01*
X126032191Y-23551038D02*
X125984572Y-23598657D01*
X125984572Y-23598657D02*
X125936953Y-23693895D01*
X125936953Y-23693895D02*
X125936953Y-23931990D01*
X125936953Y-23931990D02*
X125984572Y-24027228D01*
X125984572Y-24027228D02*
X126032191Y-24074847D01*
X126032191Y-24074847D02*
X126127429Y-24122466D01*
X126127429Y-24122466D02*
X126317905Y-24122466D01*
X126317905Y-24122466D02*
X126413143Y-24074847D01*
X126413143Y-24074847D02*
X126460762Y-24027228D01*
X126460762Y-24027228D02*
X126508381Y-23931990D01*
X127127429Y-23503419D02*
X127222667Y-23503419D01*
X127222667Y-23503419D02*
X127317905Y-23551038D01*
X127317905Y-23551038D02*
X127365524Y-23598657D01*
X127365524Y-23598657D02*
X127413143Y-23693895D01*
X127413143Y-23693895D02*
X127460762Y-23884371D01*
X127460762Y-23884371D02*
X127460762Y-24122466D01*
X127460762Y-24122466D02*
X127413143Y-24312942D01*
X127413143Y-24312942D02*
X127365524Y-24408180D01*
X127365524Y-24408180D02*
X127317905Y-24455800D01*
X127317905Y-24455800D02*
X127222667Y-24503419D01*
X127222667Y-24503419D02*
X127127429Y-24503419D01*
X127127429Y-24503419D02*
X127032191Y-24455800D01*
X127032191Y-24455800D02*
X126984572Y-24408180D01*
X126984572Y-24408180D02*
X126936953Y-24312942D01*
X126936953Y-24312942D02*
X126889334Y-24122466D01*
X126889334Y-24122466D02*
X126889334Y-23884371D01*
X126889334Y-23884371D02*
X126936953Y-23693895D01*
X126936953Y-23693895D02*
X126984572Y-23598657D01*
X126984572Y-23598657D02*
X127032191Y-23551038D01*
X127032191Y-23551038D02*
X127127429Y-23503419D01*
X127889334Y-24408180D02*
X127936953Y-24455800D01*
X127936953Y-24455800D02*
X127889334Y-24503419D01*
X127889334Y-24503419D02*
X127841715Y-24455800D01*
X127841715Y-24455800D02*
X127889334Y-24408180D01*
X127889334Y-24408180D02*
X127889334Y-24503419D01*
X128794095Y-23836752D02*
X128794095Y-24503419D01*
X128556000Y-23455800D02*
X128317905Y-24170085D01*
X128317905Y-24170085D02*
X128936952Y-24170085D01*
X129270286Y-23598657D02*
X129317905Y-23551038D01*
X129317905Y-23551038D02*
X129413143Y-23503419D01*
X129413143Y-23503419D02*
X129651238Y-23503419D01*
X129651238Y-23503419D02*
X129746476Y-23551038D01*
X129746476Y-23551038D02*
X129794095Y-23598657D01*
X129794095Y-23598657D02*
X129841714Y-23693895D01*
X129841714Y-23693895D02*
X129841714Y-23789133D01*
X129841714Y-23789133D02*
X129794095Y-23931990D01*
X129794095Y-23931990D02*
X129222667Y-24503419D01*
X129222667Y-24503419D02*
X129841714Y-24503419D01*
X130698857Y-23836752D02*
X130698857Y-24503419D01*
X130460762Y-23455800D02*
X130222667Y-24170085D01*
X130222667Y-24170085D02*
X130841714Y-24170085D01*
X131413143Y-23503419D02*
X131508381Y-23503419D01*
X131508381Y-23503419D02*
X131603619Y-23551038D01*
X131603619Y-23551038D02*
X131651238Y-23598657D01*
X131651238Y-23598657D02*
X131698857Y-23693895D01*
X131698857Y-23693895D02*
X131746476Y-23884371D01*
X131746476Y-23884371D02*
X131746476Y-24122466D01*
X131746476Y-24122466D02*
X131698857Y-24312942D01*
X131698857Y-24312942D02*
X131651238Y-24408180D01*
X131651238Y-24408180D02*
X131603619Y-24455800D01*
X131603619Y-24455800D02*
X131508381Y-24503419D01*
X131508381Y-24503419D02*
X131413143Y-24503419D01*
X131413143Y-24503419D02*
X131317905Y-24455800D01*
X131317905Y-24455800D02*
X131270286Y-24408180D01*
X131270286Y-24408180D02*
X131222667Y-24312942D01*
X131222667Y-24312942D02*
X131175048Y-24122466D01*
X131175048Y-24122466D02*
X131175048Y-23884371D01*
X131175048Y-23884371D02*
X131222667Y-23693895D01*
X131222667Y-23693895D02*
X131270286Y-23598657D01*
X131270286Y-23598657D02*
X131317905Y-23551038D01*
X131317905Y-23551038D02*
X131413143Y-23503419D01*
X132936953Y-24503419D02*
X132936953Y-23836752D01*
X132936953Y-23931990D02*
X132984572Y-23884371D01*
X132984572Y-23884371D02*
X133079810Y-23836752D01*
X133079810Y-23836752D02*
X133222667Y-23836752D01*
X133222667Y-23836752D02*
X133317905Y-23884371D01*
X133317905Y-23884371D02*
X133365524Y-23979609D01*
X133365524Y-23979609D02*
X133365524Y-24503419D01*
X133365524Y-23979609D02*
X133413143Y-23884371D01*
X133413143Y-23884371D02*
X133508381Y-23836752D01*
X133508381Y-23836752D02*
X133651238Y-23836752D01*
X133651238Y-23836752D02*
X133746477Y-23884371D01*
X133746477Y-23884371D02*
X133794096Y-23979609D01*
X133794096Y-23979609D02*
X133794096Y-24503419D01*
X134270286Y-24503419D02*
X134270286Y-23836752D01*
X134270286Y-23931990D02*
X134317905Y-23884371D01*
X134317905Y-23884371D02*
X134413143Y-23836752D01*
X134413143Y-23836752D02*
X134556000Y-23836752D01*
X134556000Y-23836752D02*
X134651238Y-23884371D01*
X134651238Y-23884371D02*
X134698857Y-23979609D01*
X134698857Y-23979609D02*
X134698857Y-24503419D01*
X134698857Y-23979609D02*
X134746476Y-23884371D01*
X134746476Y-23884371D02*
X134841714Y-23836752D01*
X134841714Y-23836752D02*
X134984571Y-23836752D01*
X134984571Y-23836752D02*
X135079810Y-23884371D01*
X135079810Y-23884371D02*
X135127429Y-23979609D01*
X135127429Y-23979609D02*
X135127429Y-24503419D01*
X85344000Y-36330000D02*
X85344000Y-24559580D01*
X175768000Y-36330000D02*
X175768000Y-24559580D01*
X85344000Y-25146000D02*
X175768000Y-25146000D01*
X85344000Y-25146000D02*
X175768000Y-25146000D01*
X85344000Y-25146000D02*
X86470504Y-24559579D01*
X85344000Y-25146000D02*
X86470504Y-25732421D01*
X175768000Y-25146000D02*
X174641496Y-25732421D01*
X175768000Y-25146000D02*
X174641496Y-24559579D01*
X191397419Y-72722856D02*
X191397419Y-72913332D01*
X191397419Y-72913332D02*
X191445038Y-73008570D01*
X191445038Y-73008570D02*
X191492657Y-73056189D01*
X191492657Y-73056189D02*
X191635514Y-73151427D01*
X191635514Y-73151427D02*
X191825990Y-73199046D01*
X191825990Y-73199046D02*
X192206942Y-73199046D01*
X192206942Y-73199046D02*
X192302180Y-73151427D01*
X192302180Y-73151427D02*
X192349800Y-73103808D01*
X192349800Y-73103808D02*
X192397419Y-73008570D01*
X192397419Y-73008570D02*
X192397419Y-72818094D01*
X192397419Y-72818094D02*
X192349800Y-72722856D01*
X192349800Y-72722856D02*
X192302180Y-72675237D01*
X192302180Y-72675237D02*
X192206942Y-72627618D01*
X192206942Y-72627618D02*
X191968847Y-72627618D01*
X191968847Y-72627618D02*
X191873609Y-72675237D01*
X191873609Y-72675237D02*
X191825990Y-72722856D01*
X191825990Y-72722856D02*
X191778371Y-72818094D01*
X191778371Y-72818094D02*
X191778371Y-73008570D01*
X191778371Y-73008570D02*
X191825990Y-73103808D01*
X191825990Y-73103808D02*
X191873609Y-73151427D01*
X191873609Y-73151427D02*
X191968847Y-73199046D01*
X191397419Y-72294284D02*
X191397419Y-71675237D01*
X191397419Y-71675237D02*
X191778371Y-72008570D01*
X191778371Y-72008570D02*
X191778371Y-71865713D01*
X191778371Y-71865713D02*
X191825990Y-71770475D01*
X191825990Y-71770475D02*
X191873609Y-71722856D01*
X191873609Y-71722856D02*
X191968847Y-71675237D01*
X191968847Y-71675237D02*
X192206942Y-71675237D01*
X192206942Y-71675237D02*
X192302180Y-71722856D01*
X192302180Y-71722856D02*
X192349800Y-71770475D01*
X192349800Y-71770475D02*
X192397419Y-71865713D01*
X192397419Y-71865713D02*
X192397419Y-72151427D01*
X192397419Y-72151427D02*
X192349800Y-72246665D01*
X192349800Y-72246665D02*
X192302180Y-72294284D01*
X192302180Y-71246665D02*
X192349800Y-71199046D01*
X192349800Y-71199046D02*
X192397419Y-71246665D01*
X192397419Y-71246665D02*
X192349800Y-71294284D01*
X192349800Y-71294284D02*
X192302180Y-71246665D01*
X192302180Y-71246665D02*
X192397419Y-71246665D01*
X191397419Y-70294285D02*
X191397419Y-70770475D01*
X191397419Y-70770475D02*
X191873609Y-70818094D01*
X191873609Y-70818094D02*
X191825990Y-70770475D01*
X191825990Y-70770475D02*
X191778371Y-70675237D01*
X191778371Y-70675237D02*
X191778371Y-70437142D01*
X191778371Y-70437142D02*
X191825990Y-70341904D01*
X191825990Y-70341904D02*
X191873609Y-70294285D01*
X191873609Y-70294285D02*
X191968847Y-70246666D01*
X191968847Y-70246666D02*
X192206942Y-70246666D01*
X192206942Y-70246666D02*
X192302180Y-70294285D01*
X192302180Y-70294285D02*
X192349800Y-70341904D01*
X192349800Y-70341904D02*
X192397419Y-70437142D01*
X192397419Y-70437142D02*
X192397419Y-70675237D01*
X192397419Y-70675237D02*
X192349800Y-70770475D01*
X192349800Y-70770475D02*
X192302180Y-70818094D01*
X191397419Y-69627618D02*
X191397419Y-69532380D01*
X191397419Y-69532380D02*
X191445038Y-69437142D01*
X191445038Y-69437142D02*
X191492657Y-69389523D01*
X191492657Y-69389523D02*
X191587895Y-69341904D01*
X191587895Y-69341904D02*
X191778371Y-69294285D01*
X191778371Y-69294285D02*
X192016466Y-69294285D01*
X192016466Y-69294285D02*
X192206942Y-69341904D01*
X192206942Y-69341904D02*
X192302180Y-69389523D01*
X192302180Y-69389523D02*
X192349800Y-69437142D01*
X192349800Y-69437142D02*
X192397419Y-69532380D01*
X192397419Y-69532380D02*
X192397419Y-69627618D01*
X192397419Y-69627618D02*
X192349800Y-69722856D01*
X192349800Y-69722856D02*
X192302180Y-69770475D01*
X192302180Y-69770475D02*
X192206942Y-69818094D01*
X192206942Y-69818094D02*
X192016466Y-69865713D01*
X192016466Y-69865713D02*
X191778371Y-69865713D01*
X191778371Y-69865713D02*
X191587895Y-69818094D01*
X191587895Y-69818094D02*
X191492657Y-69770475D01*
X191492657Y-69770475D02*
X191445038Y-69722856D01*
X191445038Y-69722856D02*
X191397419Y-69627618D01*
X191397419Y-68675237D02*
X191397419Y-68579999D01*
X191397419Y-68579999D02*
X191445038Y-68484761D01*
X191445038Y-68484761D02*
X191492657Y-68437142D01*
X191492657Y-68437142D02*
X191587895Y-68389523D01*
X191587895Y-68389523D02*
X191778371Y-68341904D01*
X191778371Y-68341904D02*
X192016466Y-68341904D01*
X192016466Y-68341904D02*
X192206942Y-68389523D01*
X192206942Y-68389523D02*
X192302180Y-68437142D01*
X192302180Y-68437142D02*
X192349800Y-68484761D01*
X192349800Y-68484761D02*
X192397419Y-68579999D01*
X192397419Y-68579999D02*
X192397419Y-68675237D01*
X192397419Y-68675237D02*
X192349800Y-68770475D01*
X192349800Y-68770475D02*
X192302180Y-68818094D01*
X192302180Y-68818094D02*
X192206942Y-68865713D01*
X192206942Y-68865713D02*
X192016466Y-68913332D01*
X192016466Y-68913332D02*
X191778371Y-68913332D01*
X191778371Y-68913332D02*
X191587895Y-68865713D01*
X191587895Y-68865713D02*
X191492657Y-68818094D01*
X191492657Y-68818094D02*
X191445038Y-68770475D01*
X191445038Y-68770475D02*
X191397419Y-68675237D01*
X191397419Y-67722856D02*
X191397419Y-67627618D01*
X191397419Y-67627618D02*
X191445038Y-67532380D01*
X191445038Y-67532380D02*
X191492657Y-67484761D01*
X191492657Y-67484761D02*
X191587895Y-67437142D01*
X191587895Y-67437142D02*
X191778371Y-67389523D01*
X191778371Y-67389523D02*
X192016466Y-67389523D01*
X192016466Y-67389523D02*
X192206942Y-67437142D01*
X192206942Y-67437142D02*
X192302180Y-67484761D01*
X192302180Y-67484761D02*
X192349800Y-67532380D01*
X192349800Y-67532380D02*
X192397419Y-67627618D01*
X192397419Y-67627618D02*
X192397419Y-67722856D01*
X192397419Y-67722856D02*
X192349800Y-67818094D01*
X192349800Y-67818094D02*
X192302180Y-67865713D01*
X192302180Y-67865713D02*
X192206942Y-67913332D01*
X192206942Y-67913332D02*
X192016466Y-67960951D01*
X192016466Y-67960951D02*
X191778371Y-67960951D01*
X191778371Y-67960951D02*
X191587895Y-67913332D01*
X191587895Y-67913332D02*
X191492657Y-67865713D01*
X191492657Y-67865713D02*
X191445038Y-67818094D01*
X191445038Y-67818094D02*
X191397419Y-67722856D01*
X192397419Y-66199046D02*
X191730752Y-66199046D01*
X191825990Y-66199046D02*
X191778371Y-66151427D01*
X191778371Y-66151427D02*
X191730752Y-66056189D01*
X191730752Y-66056189D02*
X191730752Y-65913332D01*
X191730752Y-65913332D02*
X191778371Y-65818094D01*
X191778371Y-65818094D02*
X191873609Y-65770475D01*
X191873609Y-65770475D02*
X192397419Y-65770475D01*
X191873609Y-65770475D02*
X191778371Y-65722856D01*
X191778371Y-65722856D02*
X191730752Y-65627618D01*
X191730752Y-65627618D02*
X191730752Y-65484761D01*
X191730752Y-65484761D02*
X191778371Y-65389522D01*
X191778371Y-65389522D02*
X191873609Y-65341903D01*
X191873609Y-65341903D02*
X192397419Y-65341903D01*
X192397419Y-64865713D02*
X191730752Y-64865713D01*
X191825990Y-64865713D02*
X191778371Y-64818094D01*
X191778371Y-64818094D02*
X191730752Y-64722856D01*
X191730752Y-64722856D02*
X191730752Y-64579999D01*
X191730752Y-64579999D02*
X191778371Y-64484761D01*
X191778371Y-64484761D02*
X191873609Y-64437142D01*
X191873609Y-64437142D02*
X192397419Y-64437142D01*
X191873609Y-64437142D02*
X191778371Y-64389523D01*
X191778371Y-64389523D02*
X191730752Y-64294285D01*
X191730752Y-64294285D02*
X191730752Y-64151428D01*
X191730752Y-64151428D02*
X191778371Y-64056189D01*
X191778371Y-64056189D02*
X191873609Y-64008570D01*
X191873609Y-64008570D02*
X192397419Y-64008570D01*
X176268000Y-36830000D02*
X193626420Y-36830000D01*
X176268000Y-100330000D02*
X193626420Y-100330000D01*
X193040000Y-36830000D02*
X193040000Y-100330000D01*
X193040000Y-36830000D02*
X193040000Y-100330000D01*
X193040000Y-36830000D02*
X193626421Y-37956504D01*
X193040000Y-36830000D02*
X192453579Y-37956504D01*
X193040000Y-100330000D02*
X192453579Y-99203496D01*
X193040000Y-100330000D02*
X193626421Y-99203496D01*
X64143419Y-72722856D02*
X64143419Y-72913332D01*
X64143419Y-72913332D02*
X64191038Y-73008570D01*
X64191038Y-73008570D02*
X64238657Y-73056189D01*
X64238657Y-73056189D02*
X64381514Y-73151427D01*
X64381514Y-73151427D02*
X64571990Y-73199046D01*
X64571990Y-73199046D02*
X64952942Y-73199046D01*
X64952942Y-73199046D02*
X65048180Y-73151427D01*
X65048180Y-73151427D02*
X65095800Y-73103808D01*
X65095800Y-73103808D02*
X65143419Y-73008570D01*
X65143419Y-73008570D02*
X65143419Y-72818094D01*
X65143419Y-72818094D02*
X65095800Y-72722856D01*
X65095800Y-72722856D02*
X65048180Y-72675237D01*
X65048180Y-72675237D02*
X64952942Y-72627618D01*
X64952942Y-72627618D02*
X64714847Y-72627618D01*
X64714847Y-72627618D02*
X64619609Y-72675237D01*
X64619609Y-72675237D02*
X64571990Y-72722856D01*
X64571990Y-72722856D02*
X64524371Y-72818094D01*
X64524371Y-72818094D02*
X64524371Y-73008570D01*
X64524371Y-73008570D02*
X64571990Y-73103808D01*
X64571990Y-73103808D02*
X64619609Y-73151427D01*
X64619609Y-73151427D02*
X64714847Y-73199046D01*
X64143419Y-72294284D02*
X64143419Y-71675237D01*
X64143419Y-71675237D02*
X64524371Y-72008570D01*
X64524371Y-72008570D02*
X64524371Y-71865713D01*
X64524371Y-71865713D02*
X64571990Y-71770475D01*
X64571990Y-71770475D02*
X64619609Y-71722856D01*
X64619609Y-71722856D02*
X64714847Y-71675237D01*
X64714847Y-71675237D02*
X64952942Y-71675237D01*
X64952942Y-71675237D02*
X65048180Y-71722856D01*
X65048180Y-71722856D02*
X65095800Y-71770475D01*
X65095800Y-71770475D02*
X65143419Y-71865713D01*
X65143419Y-71865713D02*
X65143419Y-72151427D01*
X65143419Y-72151427D02*
X65095800Y-72246665D01*
X65095800Y-72246665D02*
X65048180Y-72294284D01*
X65048180Y-71246665D02*
X65095800Y-71199046D01*
X65095800Y-71199046D02*
X65143419Y-71246665D01*
X65143419Y-71246665D02*
X65095800Y-71294284D01*
X65095800Y-71294284D02*
X65048180Y-71246665D01*
X65048180Y-71246665D02*
X65143419Y-71246665D01*
X64143419Y-70294285D02*
X64143419Y-70770475D01*
X64143419Y-70770475D02*
X64619609Y-70818094D01*
X64619609Y-70818094D02*
X64571990Y-70770475D01*
X64571990Y-70770475D02*
X64524371Y-70675237D01*
X64524371Y-70675237D02*
X64524371Y-70437142D01*
X64524371Y-70437142D02*
X64571990Y-70341904D01*
X64571990Y-70341904D02*
X64619609Y-70294285D01*
X64619609Y-70294285D02*
X64714847Y-70246666D01*
X64714847Y-70246666D02*
X64952942Y-70246666D01*
X64952942Y-70246666D02*
X65048180Y-70294285D01*
X65048180Y-70294285D02*
X65095800Y-70341904D01*
X65095800Y-70341904D02*
X65143419Y-70437142D01*
X65143419Y-70437142D02*
X65143419Y-70675237D01*
X65143419Y-70675237D02*
X65095800Y-70770475D01*
X65095800Y-70770475D02*
X65048180Y-70818094D01*
X64143419Y-69627618D02*
X64143419Y-69532380D01*
X64143419Y-69532380D02*
X64191038Y-69437142D01*
X64191038Y-69437142D02*
X64238657Y-69389523D01*
X64238657Y-69389523D02*
X64333895Y-69341904D01*
X64333895Y-69341904D02*
X64524371Y-69294285D01*
X64524371Y-69294285D02*
X64762466Y-69294285D01*
X64762466Y-69294285D02*
X64952942Y-69341904D01*
X64952942Y-69341904D02*
X65048180Y-69389523D01*
X65048180Y-69389523D02*
X65095800Y-69437142D01*
X65095800Y-69437142D02*
X65143419Y-69532380D01*
X65143419Y-69532380D02*
X65143419Y-69627618D01*
X65143419Y-69627618D02*
X65095800Y-69722856D01*
X65095800Y-69722856D02*
X65048180Y-69770475D01*
X65048180Y-69770475D02*
X64952942Y-69818094D01*
X64952942Y-69818094D02*
X64762466Y-69865713D01*
X64762466Y-69865713D02*
X64524371Y-69865713D01*
X64524371Y-69865713D02*
X64333895Y-69818094D01*
X64333895Y-69818094D02*
X64238657Y-69770475D01*
X64238657Y-69770475D02*
X64191038Y-69722856D01*
X64191038Y-69722856D02*
X64143419Y-69627618D01*
X64143419Y-68675237D02*
X64143419Y-68579999D01*
X64143419Y-68579999D02*
X64191038Y-68484761D01*
X64191038Y-68484761D02*
X64238657Y-68437142D01*
X64238657Y-68437142D02*
X64333895Y-68389523D01*
X64333895Y-68389523D02*
X64524371Y-68341904D01*
X64524371Y-68341904D02*
X64762466Y-68341904D01*
X64762466Y-68341904D02*
X64952942Y-68389523D01*
X64952942Y-68389523D02*
X65048180Y-68437142D01*
X65048180Y-68437142D02*
X65095800Y-68484761D01*
X65095800Y-68484761D02*
X65143419Y-68579999D01*
X65143419Y-68579999D02*
X65143419Y-68675237D01*
X65143419Y-68675237D02*
X65095800Y-68770475D01*
X65095800Y-68770475D02*
X65048180Y-68818094D01*
X65048180Y-68818094D02*
X64952942Y-68865713D01*
X64952942Y-68865713D02*
X64762466Y-68913332D01*
X64762466Y-68913332D02*
X64524371Y-68913332D01*
X64524371Y-68913332D02*
X64333895Y-68865713D01*
X64333895Y-68865713D02*
X64238657Y-68818094D01*
X64238657Y-68818094D02*
X64191038Y-68770475D01*
X64191038Y-68770475D02*
X64143419Y-68675237D01*
X64143419Y-67722856D02*
X64143419Y-67627618D01*
X64143419Y-67627618D02*
X64191038Y-67532380D01*
X64191038Y-67532380D02*
X64238657Y-67484761D01*
X64238657Y-67484761D02*
X64333895Y-67437142D01*
X64333895Y-67437142D02*
X64524371Y-67389523D01*
X64524371Y-67389523D02*
X64762466Y-67389523D01*
X64762466Y-67389523D02*
X64952942Y-67437142D01*
X64952942Y-67437142D02*
X65048180Y-67484761D01*
X65048180Y-67484761D02*
X65095800Y-67532380D01*
X65095800Y-67532380D02*
X65143419Y-67627618D01*
X65143419Y-67627618D02*
X65143419Y-67722856D01*
X65143419Y-67722856D02*
X65095800Y-67818094D01*
X65095800Y-67818094D02*
X65048180Y-67865713D01*
X65048180Y-67865713D02*
X64952942Y-67913332D01*
X64952942Y-67913332D02*
X64762466Y-67960951D01*
X64762466Y-67960951D02*
X64524371Y-67960951D01*
X64524371Y-67960951D02*
X64333895Y-67913332D01*
X64333895Y-67913332D02*
X64238657Y-67865713D01*
X64238657Y-67865713D02*
X64191038Y-67818094D01*
X64191038Y-67818094D02*
X64143419Y-67722856D01*
X65143419Y-66199046D02*
X64476752Y-66199046D01*
X64571990Y-66199046D02*
X64524371Y-66151427D01*
X64524371Y-66151427D02*
X64476752Y-66056189D01*
X64476752Y-66056189D02*
X64476752Y-65913332D01*
X64476752Y-65913332D02*
X64524371Y-65818094D01*
X64524371Y-65818094D02*
X64619609Y-65770475D01*
X64619609Y-65770475D02*
X65143419Y-65770475D01*
X64619609Y-65770475D02*
X64524371Y-65722856D01*
X64524371Y-65722856D02*
X64476752Y-65627618D01*
X64476752Y-65627618D02*
X64476752Y-65484761D01*
X64476752Y-65484761D02*
X64524371Y-65389522D01*
X64524371Y-65389522D02*
X64619609Y-65341903D01*
X64619609Y-65341903D02*
X65143419Y-65341903D01*
X65143419Y-64865713D02*
X64476752Y-64865713D01*
X64571990Y-64865713D02*
X64524371Y-64818094D01*
X64524371Y-64818094D02*
X64476752Y-64722856D01*
X64476752Y-64722856D02*
X64476752Y-64579999D01*
X64476752Y-64579999D02*
X64524371Y-64484761D01*
X64524371Y-64484761D02*
X64619609Y-64437142D01*
X64619609Y-64437142D02*
X65143419Y-64437142D01*
X64619609Y-64437142D02*
X64524371Y-64389523D01*
X64524371Y-64389523D02*
X64476752Y-64294285D01*
X64476752Y-64294285D02*
X64476752Y-64151428D01*
X64476752Y-64151428D02*
X64524371Y-64056189D01*
X64524371Y-64056189D02*
X64619609Y-64008570D01*
X64619609Y-64008570D02*
X65143419Y-64008570D01*
X84844000Y-36830000D02*
X65199580Y-36830000D01*
X84844000Y-100330000D02*
X65199580Y-100330000D01*
X65786000Y-36830000D02*
X65786000Y-100330000D01*
X65786000Y-36830000D02*
X65786000Y-100330000D01*
X65786000Y-36830000D02*
X66372421Y-37956504D01*
X65786000Y-36830000D02*
X65199579Y-37956504D01*
X65786000Y-100330000D02*
X65199579Y-99203496D01*
X65786000Y-100330000D02*
X66372421Y-99203496D01*
D12*
X139962142Y-56843819D02*
X139628809Y-56367628D01*
X139390714Y-56843819D02*
X139390714Y-55843819D01*
X139390714Y-55843819D02*
X139771666Y-55843819D01*
X139771666Y-55843819D02*
X139866904Y-55891438D01*
X139866904Y-55891438D02*
X139914523Y-55939057D01*
X139914523Y-55939057D02*
X139962142Y-56034295D01*
X139962142Y-56034295D02*
X139962142Y-56177152D01*
X139962142Y-56177152D02*
X139914523Y-56272390D01*
X139914523Y-56272390D02*
X139866904Y-56320009D01*
X139866904Y-56320009D02*
X139771666Y-56367628D01*
X139771666Y-56367628D02*
X139390714Y-56367628D01*
X140343095Y-55939057D02*
X140390714Y-55891438D01*
X140390714Y-55891438D02*
X140485952Y-55843819D01*
X140485952Y-55843819D02*
X140724047Y-55843819D01*
X140724047Y-55843819D02*
X140819285Y-55891438D01*
X140819285Y-55891438D02*
X140866904Y-55939057D01*
X140866904Y-55939057D02*
X140914523Y-56034295D01*
X140914523Y-56034295D02*
X140914523Y-56129533D01*
X140914523Y-56129533D02*
X140866904Y-56272390D01*
X140866904Y-56272390D02*
X140295476Y-56843819D01*
X140295476Y-56843819D02*
X140914523Y-56843819D01*
X141533571Y-55843819D02*
X141628809Y-55843819D01*
X141628809Y-55843819D02*
X141724047Y-55891438D01*
X141724047Y-55891438D02*
X141771666Y-55939057D01*
X141771666Y-55939057D02*
X141819285Y-56034295D01*
X141819285Y-56034295D02*
X141866904Y-56224771D01*
X141866904Y-56224771D02*
X141866904Y-56462866D01*
X141866904Y-56462866D02*
X141819285Y-56653342D01*
X141819285Y-56653342D02*
X141771666Y-56748580D01*
X141771666Y-56748580D02*
X141724047Y-56796200D01*
X141724047Y-56796200D02*
X141628809Y-56843819D01*
X141628809Y-56843819D02*
X141533571Y-56843819D01*
X141533571Y-56843819D02*
X141438333Y-56796200D01*
X141438333Y-56796200D02*
X141390714Y-56748580D01*
X141390714Y-56748580D02*
X141343095Y-56653342D01*
X141343095Y-56653342D02*
X141295476Y-56462866D01*
X141295476Y-56462866D02*
X141295476Y-56224771D01*
X141295476Y-56224771D02*
X141343095Y-56034295D01*
X141343095Y-56034295D02*
X141390714Y-55939057D01*
X141390714Y-55939057D02*
X141438333Y-55891438D01*
X141438333Y-55891438D02*
X141533571Y-55843819D01*
X153974666Y-66132819D02*
X153974666Y-66847104D01*
X153974666Y-66847104D02*
X153927047Y-66989961D01*
X153927047Y-66989961D02*
X153831809Y-67085200D01*
X153831809Y-67085200D02*
X153688952Y-67132819D01*
X153688952Y-67132819D02*
X153593714Y-67132819D01*
X154450857Y-67132819D02*
X154450857Y-66132819D01*
X154450857Y-66132819D02*
X154831809Y-66132819D01*
X154831809Y-66132819D02*
X154927047Y-66180438D01*
X154927047Y-66180438D02*
X154974666Y-66228057D01*
X154974666Y-66228057D02*
X155022285Y-66323295D01*
X155022285Y-66323295D02*
X155022285Y-66466152D01*
X155022285Y-66466152D02*
X154974666Y-66561390D01*
X154974666Y-66561390D02*
X154927047Y-66609009D01*
X154927047Y-66609009D02*
X154831809Y-66656628D01*
X154831809Y-66656628D02*
X154450857Y-66656628D01*
X155403238Y-66228057D02*
X155450857Y-66180438D01*
X155450857Y-66180438D02*
X155546095Y-66132819D01*
X155546095Y-66132819D02*
X155784190Y-66132819D01*
X155784190Y-66132819D02*
X155879428Y-66180438D01*
X155879428Y-66180438D02*
X155927047Y-66228057D01*
X155927047Y-66228057D02*
X155974666Y-66323295D01*
X155974666Y-66323295D02*
X155974666Y-66418533D01*
X155974666Y-66418533D02*
X155927047Y-66561390D01*
X155927047Y-66561390D02*
X155355619Y-67132819D01*
X155355619Y-67132819D02*
X155974666Y-67132819D01*
X128437095Y-85375819D02*
X128437095Y-86185342D01*
X128437095Y-86185342D02*
X128484714Y-86280580D01*
X128484714Y-86280580D02*
X128532333Y-86328200D01*
X128532333Y-86328200D02*
X128627571Y-86375819D01*
X128627571Y-86375819D02*
X128818047Y-86375819D01*
X128818047Y-86375819D02*
X128913285Y-86328200D01*
X128913285Y-86328200D02*
X128960904Y-86280580D01*
X128960904Y-86280580D02*
X129008523Y-86185342D01*
X129008523Y-86185342D02*
X129008523Y-85375819D01*
X129913285Y-85709152D02*
X129913285Y-86375819D01*
X129675190Y-85328200D02*
X129437095Y-86042485D01*
X129437095Y-86042485D02*
X130056142Y-86042485D01*
X87122095Y-79337819D02*
X87122095Y-80147342D01*
X87122095Y-80147342D02*
X87169714Y-80242580D01*
X87169714Y-80242580D02*
X87217333Y-80290200D01*
X87217333Y-80290200D02*
X87312571Y-80337819D01*
X87312571Y-80337819D02*
X87503047Y-80337819D01*
X87503047Y-80337819D02*
X87598285Y-80290200D01*
X87598285Y-80290200D02*
X87645904Y-80242580D01*
X87645904Y-80242580D02*
X87693523Y-80147342D01*
X87693523Y-80147342D02*
X87693523Y-79337819D01*
X88074476Y-79337819D02*
X88741142Y-79337819D01*
X88741142Y-79337819D02*
X88312571Y-80337819D01*
X108037333Y-54809819D02*
X107704000Y-54333628D01*
X107465905Y-54809819D02*
X107465905Y-53809819D01*
X107465905Y-53809819D02*
X107846857Y-53809819D01*
X107846857Y-53809819D02*
X107942095Y-53857438D01*
X107942095Y-53857438D02*
X107989714Y-53905057D01*
X107989714Y-53905057D02*
X108037333Y-54000295D01*
X108037333Y-54000295D02*
X108037333Y-54143152D01*
X108037333Y-54143152D02*
X107989714Y-54238390D01*
X107989714Y-54238390D02*
X107942095Y-54286009D01*
X107942095Y-54286009D02*
X107846857Y-54333628D01*
X107846857Y-54333628D02*
X107465905Y-54333628D01*
X108370667Y-53809819D02*
X109037333Y-53809819D01*
X109037333Y-53809819D02*
X108608762Y-54809819D01*
X162258476Y-60418819D02*
X162258476Y-61133104D01*
X162258476Y-61133104D02*
X162210857Y-61275961D01*
X162210857Y-61275961D02*
X162115619Y-61371200D01*
X162115619Y-61371200D02*
X161972762Y-61418819D01*
X161972762Y-61418819D02*
X161877524Y-61418819D01*
X163258476Y-61418819D02*
X162687048Y-61418819D01*
X162972762Y-61418819D02*
X162972762Y-60418819D01*
X162972762Y-60418819D02*
X162877524Y-60561676D01*
X162877524Y-60561676D02*
X162782286Y-60656914D01*
X162782286Y-60656914D02*
X162687048Y-60704533D01*
X163639429Y-60514057D02*
X163687048Y-60466438D01*
X163687048Y-60466438D02*
X163782286Y-60418819D01*
X163782286Y-60418819D02*
X164020381Y-60418819D01*
X164020381Y-60418819D02*
X164115619Y-60466438D01*
X164115619Y-60466438D02*
X164163238Y-60514057D01*
X164163238Y-60514057D02*
X164210857Y-60609295D01*
X164210857Y-60609295D02*
X164210857Y-60704533D01*
X164210857Y-60704533D02*
X164163238Y-60847390D01*
X164163238Y-60847390D02*
X163591810Y-61418819D01*
X163591810Y-61418819D02*
X164210857Y-61418819D01*
X106339819Y-89955904D02*
X107149342Y-89955904D01*
X107149342Y-89955904D02*
X107244580Y-89908285D01*
X107244580Y-89908285D02*
X107292200Y-89860666D01*
X107292200Y-89860666D02*
X107339819Y-89765428D01*
X107339819Y-89765428D02*
X107339819Y-89574952D01*
X107339819Y-89574952D02*
X107292200Y-89479714D01*
X107292200Y-89479714D02*
X107244580Y-89432095D01*
X107244580Y-89432095D02*
X107149342Y-89384476D01*
X107149342Y-89384476D02*
X106339819Y-89384476D01*
X106339819Y-88432095D02*
X106339819Y-88908285D01*
X106339819Y-88908285D02*
X106816009Y-88955904D01*
X106816009Y-88955904D02*
X106768390Y-88908285D01*
X106768390Y-88908285D02*
X106720771Y-88813047D01*
X106720771Y-88813047D02*
X106720771Y-88574952D01*
X106720771Y-88574952D02*
X106768390Y-88479714D01*
X106768390Y-88479714D02*
X106816009Y-88432095D01*
X106816009Y-88432095D02*
X106911247Y-88384476D01*
X106911247Y-88384476D02*
X107149342Y-88384476D01*
X107149342Y-88384476D02*
X107244580Y-88432095D01*
X107244580Y-88432095D02*
X107292200Y-88479714D01*
X107292200Y-88479714D02*
X107339819Y-88574952D01*
X107339819Y-88574952D02*
X107339819Y-88813047D01*
X107339819Y-88813047D02*
X107292200Y-88908285D01*
X107292200Y-88908285D02*
X107244580Y-88955904D01*
X113104819Y-68079857D02*
X112628628Y-68413190D01*
X113104819Y-68651285D02*
X112104819Y-68651285D01*
X112104819Y-68651285D02*
X112104819Y-68270333D01*
X112104819Y-68270333D02*
X112152438Y-68175095D01*
X112152438Y-68175095D02*
X112200057Y-68127476D01*
X112200057Y-68127476D02*
X112295295Y-68079857D01*
X112295295Y-68079857D02*
X112438152Y-68079857D01*
X112438152Y-68079857D02*
X112533390Y-68127476D01*
X112533390Y-68127476D02*
X112581009Y-68175095D01*
X112581009Y-68175095D02*
X112628628Y-68270333D01*
X112628628Y-68270333D02*
X112628628Y-68651285D01*
X112200057Y-67698904D02*
X112152438Y-67651285D01*
X112152438Y-67651285D02*
X112104819Y-67556047D01*
X112104819Y-67556047D02*
X112104819Y-67317952D01*
X112104819Y-67317952D02*
X112152438Y-67222714D01*
X112152438Y-67222714D02*
X112200057Y-67175095D01*
X112200057Y-67175095D02*
X112295295Y-67127476D01*
X112295295Y-67127476D02*
X112390533Y-67127476D01*
X112390533Y-67127476D02*
X112533390Y-67175095D01*
X112533390Y-67175095D02*
X113104819Y-67746523D01*
X113104819Y-67746523D02*
X113104819Y-67127476D01*
X112104819Y-66222714D02*
X112104819Y-66698904D01*
X112104819Y-66698904D02*
X112581009Y-66746523D01*
X112581009Y-66746523D02*
X112533390Y-66698904D01*
X112533390Y-66698904D02*
X112485771Y-66603666D01*
X112485771Y-66603666D02*
X112485771Y-66365571D01*
X112485771Y-66365571D02*
X112533390Y-66270333D01*
X112533390Y-66270333D02*
X112581009Y-66222714D01*
X112581009Y-66222714D02*
X112676247Y-66175095D01*
X112676247Y-66175095D02*
X112914342Y-66175095D01*
X112914342Y-66175095D02*
X113009580Y-66222714D01*
X113009580Y-66222714D02*
X113057200Y-66270333D01*
X113057200Y-66270333D02*
X113104819Y-66365571D01*
X113104819Y-66365571D02*
X113104819Y-66603666D01*
X113104819Y-66603666D02*
X113057200Y-66698904D01*
X113057200Y-66698904D02*
X113009580Y-66746523D01*
X146423142Y-52906819D02*
X146089809Y-52430628D01*
X145851714Y-52906819D02*
X145851714Y-51906819D01*
X145851714Y-51906819D02*
X146232666Y-51906819D01*
X146232666Y-51906819D02*
X146327904Y-51954438D01*
X146327904Y-51954438D02*
X146375523Y-52002057D01*
X146375523Y-52002057D02*
X146423142Y-52097295D01*
X146423142Y-52097295D02*
X146423142Y-52240152D01*
X146423142Y-52240152D02*
X146375523Y-52335390D01*
X146375523Y-52335390D02*
X146327904Y-52383009D01*
X146327904Y-52383009D02*
X146232666Y-52430628D01*
X146232666Y-52430628D02*
X145851714Y-52430628D01*
X147375523Y-52906819D02*
X146804095Y-52906819D01*
X147089809Y-52906819D02*
X147089809Y-51906819D01*
X147089809Y-51906819D02*
X146994571Y-52049676D01*
X146994571Y-52049676D02*
X146899333Y-52144914D01*
X146899333Y-52144914D02*
X146804095Y-52192533D01*
X148232666Y-52240152D02*
X148232666Y-52906819D01*
X147994571Y-51859200D02*
X147756476Y-52573485D01*
X147756476Y-52573485D02*
X148375523Y-52573485D01*
X147049261Y-46283057D02*
X146954023Y-46235438D01*
X146954023Y-46235438D02*
X146858785Y-46140200D01*
X146858785Y-46140200D02*
X146715928Y-45997342D01*
X146715928Y-45997342D02*
X146620690Y-45949723D01*
X146620690Y-45949723D02*
X146525452Y-45949723D01*
X146573071Y-46187819D02*
X146477833Y-46140200D01*
X146477833Y-46140200D02*
X146382595Y-46044961D01*
X146382595Y-46044961D02*
X146334976Y-45854485D01*
X146334976Y-45854485D02*
X146334976Y-45521152D01*
X146334976Y-45521152D02*
X146382595Y-45330676D01*
X146382595Y-45330676D02*
X146477833Y-45235438D01*
X146477833Y-45235438D02*
X146573071Y-45187819D01*
X146573071Y-45187819D02*
X146763547Y-45187819D01*
X146763547Y-45187819D02*
X146858785Y-45235438D01*
X146858785Y-45235438D02*
X146954023Y-45330676D01*
X146954023Y-45330676D02*
X147001642Y-45521152D01*
X147001642Y-45521152D02*
X147001642Y-45854485D01*
X147001642Y-45854485D02*
X146954023Y-46044961D01*
X146954023Y-46044961D02*
X146858785Y-46140200D01*
X146858785Y-46140200D02*
X146763547Y-46187819D01*
X146763547Y-46187819D02*
X146573071Y-46187819D01*
X147382595Y-45283057D02*
X147430214Y-45235438D01*
X147430214Y-45235438D02*
X147525452Y-45187819D01*
X147525452Y-45187819D02*
X147763547Y-45187819D01*
X147763547Y-45187819D02*
X147858785Y-45235438D01*
X147858785Y-45235438D02*
X147906404Y-45283057D01*
X147906404Y-45283057D02*
X147954023Y-45378295D01*
X147954023Y-45378295D02*
X147954023Y-45473533D01*
X147954023Y-45473533D02*
X147906404Y-45616390D01*
X147906404Y-45616390D02*
X147334976Y-46187819D01*
X147334976Y-46187819D02*
X147954023Y-46187819D01*
X140922476Y-73876819D02*
X140922476Y-74591104D01*
X140922476Y-74591104D02*
X140874857Y-74733961D01*
X140874857Y-74733961D02*
X140779619Y-74829200D01*
X140779619Y-74829200D02*
X140636762Y-74876819D01*
X140636762Y-74876819D02*
X140541524Y-74876819D01*
X141922476Y-74876819D02*
X141351048Y-74876819D01*
X141636762Y-74876819D02*
X141636762Y-73876819D01*
X141636762Y-73876819D02*
X141541524Y-74019676D01*
X141541524Y-74019676D02*
X141446286Y-74114914D01*
X141446286Y-74114914D02*
X141351048Y-74162533D01*
X142255810Y-73876819D02*
X142874857Y-73876819D01*
X142874857Y-73876819D02*
X142541524Y-74257771D01*
X142541524Y-74257771D02*
X142684381Y-74257771D01*
X142684381Y-74257771D02*
X142779619Y-74305390D01*
X142779619Y-74305390D02*
X142827238Y-74353009D01*
X142827238Y-74353009D02*
X142874857Y-74448247D01*
X142874857Y-74448247D02*
X142874857Y-74686342D01*
X142874857Y-74686342D02*
X142827238Y-74781580D01*
X142827238Y-74781580D02*
X142779619Y-74829200D01*
X142779619Y-74829200D02*
X142684381Y-74876819D01*
X142684381Y-74876819D02*
X142398667Y-74876819D01*
X142398667Y-74876819D02*
X142303429Y-74829200D01*
X142303429Y-74829200D02*
X142255810Y-74781580D01*
X171643200Y-82613332D02*
X171690819Y-82470475D01*
X171690819Y-82470475D02*
X171690819Y-82232380D01*
X171690819Y-82232380D02*
X171643200Y-82137142D01*
X171643200Y-82137142D02*
X171595580Y-82089523D01*
X171595580Y-82089523D02*
X171500342Y-82041904D01*
X171500342Y-82041904D02*
X171405104Y-82041904D01*
X171405104Y-82041904D02*
X171309866Y-82089523D01*
X171309866Y-82089523D02*
X171262247Y-82137142D01*
X171262247Y-82137142D02*
X171214628Y-82232380D01*
X171214628Y-82232380D02*
X171167009Y-82422856D01*
X171167009Y-82422856D02*
X171119390Y-82518094D01*
X171119390Y-82518094D02*
X171071771Y-82565713D01*
X171071771Y-82565713D02*
X170976533Y-82613332D01*
X170976533Y-82613332D02*
X170881295Y-82613332D01*
X170881295Y-82613332D02*
X170786057Y-82565713D01*
X170786057Y-82565713D02*
X170738438Y-82518094D01*
X170738438Y-82518094D02*
X170690819Y-82422856D01*
X170690819Y-82422856D02*
X170690819Y-82184761D01*
X170690819Y-82184761D02*
X170738438Y-82041904D01*
X170690819Y-81708570D02*
X171690819Y-81470475D01*
X171690819Y-81470475D02*
X170976533Y-81279999D01*
X170976533Y-81279999D02*
X171690819Y-81089523D01*
X171690819Y-81089523D02*
X170690819Y-80851428D01*
X170690819Y-79994285D02*
X170690819Y-80470475D01*
X170690819Y-80470475D02*
X171167009Y-80518094D01*
X171167009Y-80518094D02*
X171119390Y-80470475D01*
X171119390Y-80470475D02*
X171071771Y-80375237D01*
X171071771Y-80375237D02*
X171071771Y-80137142D01*
X171071771Y-80137142D02*
X171119390Y-80041904D01*
X171119390Y-80041904D02*
X171167009Y-79994285D01*
X171167009Y-79994285D02*
X171262247Y-79946666D01*
X171262247Y-79946666D02*
X171500342Y-79946666D01*
X171500342Y-79946666D02*
X171595580Y-79994285D01*
X171595580Y-79994285D02*
X171643200Y-80041904D01*
X171643200Y-80041904D02*
X171690819Y-80137142D01*
X171690819Y-80137142D02*
X171690819Y-80375237D01*
X171690819Y-80375237D02*
X171643200Y-80470475D01*
X171643200Y-80470475D02*
X171595580Y-80518094D01*
X143264642Y-61707580D02*
X143217023Y-61755200D01*
X143217023Y-61755200D02*
X143074166Y-61802819D01*
X143074166Y-61802819D02*
X142978928Y-61802819D01*
X142978928Y-61802819D02*
X142836071Y-61755200D01*
X142836071Y-61755200D02*
X142740833Y-61659961D01*
X142740833Y-61659961D02*
X142693214Y-61564723D01*
X142693214Y-61564723D02*
X142645595Y-61374247D01*
X142645595Y-61374247D02*
X142645595Y-61231390D01*
X142645595Y-61231390D02*
X142693214Y-61040914D01*
X142693214Y-61040914D02*
X142740833Y-60945676D01*
X142740833Y-60945676D02*
X142836071Y-60850438D01*
X142836071Y-60850438D02*
X142978928Y-60802819D01*
X142978928Y-60802819D02*
X143074166Y-60802819D01*
X143074166Y-60802819D02*
X143217023Y-60850438D01*
X143217023Y-60850438D02*
X143264642Y-60898057D01*
X144217023Y-61802819D02*
X143645595Y-61802819D01*
X143931309Y-61802819D02*
X143931309Y-60802819D01*
X143931309Y-60802819D02*
X143836071Y-60945676D01*
X143836071Y-60945676D02*
X143740833Y-61040914D01*
X143740833Y-61040914D02*
X143645595Y-61088533D01*
X144693214Y-61802819D02*
X144883690Y-61802819D01*
X144883690Y-61802819D02*
X144978928Y-61755200D01*
X144978928Y-61755200D02*
X145026547Y-61707580D01*
X145026547Y-61707580D02*
X145121785Y-61564723D01*
X145121785Y-61564723D02*
X145169404Y-61374247D01*
X145169404Y-61374247D02*
X145169404Y-60993295D01*
X145169404Y-60993295D02*
X145121785Y-60898057D01*
X145121785Y-60898057D02*
X145074166Y-60850438D01*
X145074166Y-60850438D02*
X144978928Y-60802819D01*
X144978928Y-60802819D02*
X144788452Y-60802819D01*
X144788452Y-60802819D02*
X144693214Y-60850438D01*
X144693214Y-60850438D02*
X144645595Y-60898057D01*
X144645595Y-60898057D02*
X144597976Y-60993295D01*
X144597976Y-60993295D02*
X144597976Y-61231390D01*
X144597976Y-61231390D02*
X144645595Y-61326628D01*
X144645595Y-61326628D02*
X144693214Y-61374247D01*
X144693214Y-61374247D02*
X144788452Y-61421866D01*
X144788452Y-61421866D02*
X144978928Y-61421866D01*
X144978928Y-61421866D02*
X145074166Y-61374247D01*
X145074166Y-61374247D02*
X145121785Y-61326628D01*
X145121785Y-61326628D02*
X145169404Y-61231390D01*
X108433405Y-65745819D02*
X108433405Y-64745819D01*
X108433405Y-64745819D02*
X108671500Y-64745819D01*
X108671500Y-64745819D02*
X108814357Y-64793438D01*
X108814357Y-64793438D02*
X108909595Y-64888676D01*
X108909595Y-64888676D02*
X108957214Y-64983914D01*
X108957214Y-64983914D02*
X109004833Y-65174390D01*
X109004833Y-65174390D02*
X109004833Y-65317247D01*
X109004833Y-65317247D02*
X108957214Y-65507723D01*
X108957214Y-65507723D02*
X108909595Y-65602961D01*
X108909595Y-65602961D02*
X108814357Y-65698200D01*
X108814357Y-65698200D02*
X108671500Y-65745819D01*
X108671500Y-65745819D02*
X108433405Y-65745819D01*
X109861976Y-65079152D02*
X109861976Y-65745819D01*
X109623881Y-64698200D02*
X109385786Y-65412485D01*
X109385786Y-65412485D02*
X110004833Y-65412485D01*
X152948333Y-84085819D02*
X152615000Y-83609628D01*
X152376905Y-84085819D02*
X152376905Y-83085819D01*
X152376905Y-83085819D02*
X152757857Y-83085819D01*
X152757857Y-83085819D02*
X152853095Y-83133438D01*
X152853095Y-83133438D02*
X152900714Y-83181057D01*
X152900714Y-83181057D02*
X152948333Y-83276295D01*
X152948333Y-83276295D02*
X152948333Y-83419152D01*
X152948333Y-83419152D02*
X152900714Y-83514390D01*
X152900714Y-83514390D02*
X152853095Y-83562009D01*
X152853095Y-83562009D02*
X152757857Y-83609628D01*
X152757857Y-83609628D02*
X152376905Y-83609628D01*
X153281667Y-83085819D02*
X153900714Y-83085819D01*
X153900714Y-83085819D02*
X153567381Y-83466771D01*
X153567381Y-83466771D02*
X153710238Y-83466771D01*
X153710238Y-83466771D02*
X153805476Y-83514390D01*
X153805476Y-83514390D02*
X153853095Y-83562009D01*
X153853095Y-83562009D02*
X153900714Y-83657247D01*
X153900714Y-83657247D02*
X153900714Y-83895342D01*
X153900714Y-83895342D02*
X153853095Y-83990580D01*
X153853095Y-83990580D02*
X153805476Y-84038200D01*
X153805476Y-84038200D02*
X153710238Y-84085819D01*
X153710238Y-84085819D02*
X153424524Y-84085819D01*
X153424524Y-84085819D02*
X153329286Y-84038200D01*
X153329286Y-84038200D02*
X153281667Y-83990580D01*
X171323095Y-37529819D02*
X171323095Y-36529819D01*
X171323095Y-37006009D02*
X171894523Y-37006009D01*
X171894523Y-37529819D02*
X171894523Y-36529819D01*
X172323095Y-36625057D02*
X172370714Y-36577438D01*
X172370714Y-36577438D02*
X172465952Y-36529819D01*
X172465952Y-36529819D02*
X172704047Y-36529819D01*
X172704047Y-36529819D02*
X172799285Y-36577438D01*
X172799285Y-36577438D02*
X172846904Y-36625057D01*
X172846904Y-36625057D02*
X172894523Y-36720295D01*
X172894523Y-36720295D02*
X172894523Y-36815533D01*
X172894523Y-36815533D02*
X172846904Y-36958390D01*
X172846904Y-36958390D02*
X172275476Y-37529819D01*
X172275476Y-37529819D02*
X172894523Y-37529819D01*
X95805666Y-69431819D02*
X95805666Y-70146104D01*
X95805666Y-70146104D02*
X95758047Y-70288961D01*
X95758047Y-70288961D02*
X95662809Y-70384200D01*
X95662809Y-70384200D02*
X95519952Y-70431819D01*
X95519952Y-70431819D02*
X95424714Y-70431819D01*
X96805666Y-70431819D02*
X96234238Y-70431819D01*
X96519952Y-70431819D02*
X96519952Y-69431819D01*
X96519952Y-69431819D02*
X96424714Y-69574676D01*
X96424714Y-69574676D02*
X96329476Y-69669914D01*
X96329476Y-69669914D02*
X96234238Y-69717533D01*
X171699200Y-90487332D02*
X171746819Y-90344475D01*
X171746819Y-90344475D02*
X171746819Y-90106380D01*
X171746819Y-90106380D02*
X171699200Y-90011142D01*
X171699200Y-90011142D02*
X171651580Y-89963523D01*
X171651580Y-89963523D02*
X171556342Y-89915904D01*
X171556342Y-89915904D02*
X171461104Y-89915904D01*
X171461104Y-89915904D02*
X171365866Y-89963523D01*
X171365866Y-89963523D02*
X171318247Y-90011142D01*
X171318247Y-90011142D02*
X171270628Y-90106380D01*
X171270628Y-90106380D02*
X171223009Y-90296856D01*
X171223009Y-90296856D02*
X171175390Y-90392094D01*
X171175390Y-90392094D02*
X171127771Y-90439713D01*
X171127771Y-90439713D02*
X171032533Y-90487332D01*
X171032533Y-90487332D02*
X170937295Y-90487332D01*
X170937295Y-90487332D02*
X170842057Y-90439713D01*
X170842057Y-90439713D02*
X170794438Y-90392094D01*
X170794438Y-90392094D02*
X170746819Y-90296856D01*
X170746819Y-90296856D02*
X170746819Y-90058761D01*
X170746819Y-90058761D02*
X170794438Y-89915904D01*
X170746819Y-89582570D02*
X171746819Y-89344475D01*
X171746819Y-89344475D02*
X171032533Y-89153999D01*
X171032533Y-89153999D02*
X171746819Y-88963523D01*
X171746819Y-88963523D02*
X170746819Y-88725428D01*
X170746819Y-87915904D02*
X170746819Y-88106380D01*
X170746819Y-88106380D02*
X170794438Y-88201618D01*
X170794438Y-88201618D02*
X170842057Y-88249237D01*
X170842057Y-88249237D02*
X170984914Y-88344475D01*
X170984914Y-88344475D02*
X171175390Y-88392094D01*
X171175390Y-88392094D02*
X171556342Y-88392094D01*
X171556342Y-88392094D02*
X171651580Y-88344475D01*
X171651580Y-88344475D02*
X171699200Y-88296856D01*
X171699200Y-88296856D02*
X171746819Y-88201618D01*
X171746819Y-88201618D02*
X171746819Y-88011142D01*
X171746819Y-88011142D02*
X171699200Y-87915904D01*
X171699200Y-87915904D02*
X171651580Y-87868285D01*
X171651580Y-87868285D02*
X171556342Y-87820666D01*
X171556342Y-87820666D02*
X171318247Y-87820666D01*
X171318247Y-87820666D02*
X171223009Y-87868285D01*
X171223009Y-87868285D02*
X171175390Y-87915904D01*
X171175390Y-87915904D02*
X171127771Y-88011142D01*
X171127771Y-88011142D02*
X171127771Y-88201618D01*
X171127771Y-88201618D02*
X171175390Y-88296856D01*
X171175390Y-88296856D02*
X171223009Y-88344475D01*
X171223009Y-88344475D02*
X171318247Y-88392094D01*
X117054333Y-96371580D02*
X117006714Y-96419200D01*
X117006714Y-96419200D02*
X116863857Y-96466819D01*
X116863857Y-96466819D02*
X116768619Y-96466819D01*
X116768619Y-96466819D02*
X116625762Y-96419200D01*
X116625762Y-96419200D02*
X116530524Y-96323961D01*
X116530524Y-96323961D02*
X116482905Y-96228723D01*
X116482905Y-96228723D02*
X116435286Y-96038247D01*
X116435286Y-96038247D02*
X116435286Y-95895390D01*
X116435286Y-95895390D02*
X116482905Y-95704914D01*
X116482905Y-95704914D02*
X116530524Y-95609676D01*
X116530524Y-95609676D02*
X116625762Y-95514438D01*
X116625762Y-95514438D02*
X116768619Y-95466819D01*
X116768619Y-95466819D02*
X116863857Y-95466819D01*
X116863857Y-95466819D02*
X117006714Y-95514438D01*
X117006714Y-95514438D02*
X117054333Y-95562057D01*
X117387667Y-95466819D02*
X118006714Y-95466819D01*
X118006714Y-95466819D02*
X117673381Y-95847771D01*
X117673381Y-95847771D02*
X117816238Y-95847771D01*
X117816238Y-95847771D02*
X117911476Y-95895390D01*
X117911476Y-95895390D02*
X117959095Y-95943009D01*
X117959095Y-95943009D02*
X118006714Y-96038247D01*
X118006714Y-96038247D02*
X118006714Y-96276342D01*
X118006714Y-96276342D02*
X117959095Y-96371580D01*
X117959095Y-96371580D02*
X117911476Y-96419200D01*
X117911476Y-96419200D02*
X117816238Y-96466819D01*
X117816238Y-96466819D02*
X117530524Y-96466819D01*
X117530524Y-96466819D02*
X117435286Y-96419200D01*
X117435286Y-96419200D02*
X117387667Y-96371580D01*
X152910833Y-87516580D02*
X152863214Y-87564200D01*
X152863214Y-87564200D02*
X152720357Y-87611819D01*
X152720357Y-87611819D02*
X152625119Y-87611819D01*
X152625119Y-87611819D02*
X152482262Y-87564200D01*
X152482262Y-87564200D02*
X152387024Y-87468961D01*
X152387024Y-87468961D02*
X152339405Y-87373723D01*
X152339405Y-87373723D02*
X152291786Y-87183247D01*
X152291786Y-87183247D02*
X152291786Y-87040390D01*
X152291786Y-87040390D02*
X152339405Y-86849914D01*
X152339405Y-86849914D02*
X152387024Y-86754676D01*
X152387024Y-86754676D02*
X152482262Y-86659438D01*
X152482262Y-86659438D02*
X152625119Y-86611819D01*
X152625119Y-86611819D02*
X152720357Y-86611819D01*
X152720357Y-86611819D02*
X152863214Y-86659438D01*
X152863214Y-86659438D02*
X152910833Y-86707057D01*
X153863214Y-87611819D02*
X153291786Y-87611819D01*
X153577500Y-87611819D02*
X153577500Y-86611819D01*
X153577500Y-86611819D02*
X153482262Y-86754676D01*
X153482262Y-86754676D02*
X153387024Y-86849914D01*
X153387024Y-86849914D02*
X153291786Y-86897533D01*
X135937666Y-39332819D02*
X135937666Y-40047104D01*
X135937666Y-40047104D02*
X135890047Y-40189961D01*
X135890047Y-40189961D02*
X135794809Y-40285200D01*
X135794809Y-40285200D02*
X135651952Y-40332819D01*
X135651952Y-40332819D02*
X135556714Y-40332819D01*
X136556714Y-39761390D02*
X136461476Y-39713771D01*
X136461476Y-39713771D02*
X136413857Y-39666152D01*
X136413857Y-39666152D02*
X136366238Y-39570914D01*
X136366238Y-39570914D02*
X136366238Y-39523295D01*
X136366238Y-39523295D02*
X136413857Y-39428057D01*
X136413857Y-39428057D02*
X136461476Y-39380438D01*
X136461476Y-39380438D02*
X136556714Y-39332819D01*
X136556714Y-39332819D02*
X136747190Y-39332819D01*
X136747190Y-39332819D02*
X136842428Y-39380438D01*
X136842428Y-39380438D02*
X136890047Y-39428057D01*
X136890047Y-39428057D02*
X136937666Y-39523295D01*
X136937666Y-39523295D02*
X136937666Y-39570914D01*
X136937666Y-39570914D02*
X136890047Y-39666152D01*
X136890047Y-39666152D02*
X136842428Y-39713771D01*
X136842428Y-39713771D02*
X136747190Y-39761390D01*
X136747190Y-39761390D02*
X136556714Y-39761390D01*
X136556714Y-39761390D02*
X136461476Y-39809009D01*
X136461476Y-39809009D02*
X136413857Y-39856628D01*
X136413857Y-39856628D02*
X136366238Y-39951866D01*
X136366238Y-39951866D02*
X136366238Y-40142342D01*
X136366238Y-40142342D02*
X136413857Y-40237580D01*
X136413857Y-40237580D02*
X136461476Y-40285200D01*
X136461476Y-40285200D02*
X136556714Y-40332819D01*
X136556714Y-40332819D02*
X136747190Y-40332819D01*
X136747190Y-40332819D02*
X136842428Y-40285200D01*
X136842428Y-40285200D02*
X136890047Y-40237580D01*
X136890047Y-40237580D02*
X136937666Y-40142342D01*
X136937666Y-40142342D02*
X136937666Y-39951866D01*
X136937666Y-39951866D02*
X136890047Y-39856628D01*
X136890047Y-39856628D02*
X136842428Y-39809009D01*
X136842428Y-39809009D02*
X136747190Y-39761390D01*
X170815095Y-92139819D02*
X170815095Y-91139819D01*
X170815095Y-91616009D02*
X171386523Y-91616009D01*
X171386523Y-92139819D02*
X171386523Y-91139819D01*
X172291285Y-91473152D02*
X172291285Y-92139819D01*
X172053190Y-91092200D02*
X171815095Y-91806485D01*
X171815095Y-91806485D02*
X172434142Y-91806485D01*
X106119819Y-73699666D02*
X105643628Y-74032999D01*
X106119819Y-74271094D02*
X105119819Y-74271094D01*
X105119819Y-74271094D02*
X105119819Y-73890142D01*
X105119819Y-73890142D02*
X105167438Y-73794904D01*
X105167438Y-73794904D02*
X105215057Y-73747285D01*
X105215057Y-73747285D02*
X105310295Y-73699666D01*
X105310295Y-73699666D02*
X105453152Y-73699666D01*
X105453152Y-73699666D02*
X105548390Y-73747285D01*
X105548390Y-73747285D02*
X105596009Y-73794904D01*
X105596009Y-73794904D02*
X105643628Y-73890142D01*
X105643628Y-73890142D02*
X105643628Y-74271094D01*
X106119819Y-73223475D02*
X106119819Y-73032999D01*
X106119819Y-73032999D02*
X106072200Y-72937761D01*
X106072200Y-72937761D02*
X106024580Y-72890142D01*
X106024580Y-72890142D02*
X105881723Y-72794904D01*
X105881723Y-72794904D02*
X105691247Y-72747285D01*
X105691247Y-72747285D02*
X105310295Y-72747285D01*
X105310295Y-72747285D02*
X105215057Y-72794904D01*
X105215057Y-72794904D02*
X105167438Y-72842523D01*
X105167438Y-72842523D02*
X105119819Y-72937761D01*
X105119819Y-72937761D02*
X105119819Y-73128237D01*
X105119819Y-73128237D02*
X105167438Y-73223475D01*
X105167438Y-73223475D02*
X105215057Y-73271094D01*
X105215057Y-73271094D02*
X105310295Y-73318713D01*
X105310295Y-73318713D02*
X105548390Y-73318713D01*
X105548390Y-73318713D02*
X105643628Y-73271094D01*
X105643628Y-73271094D02*
X105691247Y-73223475D01*
X105691247Y-73223475D02*
X105738866Y-73128237D01*
X105738866Y-73128237D02*
X105738866Y-72937761D01*
X105738866Y-72937761D02*
X105691247Y-72842523D01*
X105691247Y-72842523D02*
X105643628Y-72794904D01*
X105643628Y-72794904D02*
X105548390Y-72747285D01*
X151693666Y-55820819D02*
X151693666Y-56535104D01*
X151693666Y-56535104D02*
X151646047Y-56677961D01*
X151646047Y-56677961D02*
X151550809Y-56773200D01*
X151550809Y-56773200D02*
X151407952Y-56820819D01*
X151407952Y-56820819D02*
X151312714Y-56820819D01*
X152169857Y-56820819D02*
X152169857Y-55820819D01*
X152169857Y-55820819D02*
X152550809Y-55820819D01*
X152550809Y-55820819D02*
X152646047Y-55868438D01*
X152646047Y-55868438D02*
X152693666Y-55916057D01*
X152693666Y-55916057D02*
X152741285Y-56011295D01*
X152741285Y-56011295D02*
X152741285Y-56154152D01*
X152741285Y-56154152D02*
X152693666Y-56249390D01*
X152693666Y-56249390D02*
X152646047Y-56297009D01*
X152646047Y-56297009D02*
X152550809Y-56344628D01*
X152550809Y-56344628D02*
X152169857Y-56344628D01*
X153693666Y-56820819D02*
X153122238Y-56820819D01*
X153407952Y-56820819D02*
X153407952Y-55820819D01*
X153407952Y-55820819D02*
X153312714Y-55963676D01*
X153312714Y-55963676D02*
X153217476Y-56058914D01*
X153217476Y-56058914D02*
X153122238Y-56106533D01*
X140826261Y-46410057D02*
X140731023Y-46362438D01*
X140731023Y-46362438D02*
X140635785Y-46267200D01*
X140635785Y-46267200D02*
X140492928Y-46124342D01*
X140492928Y-46124342D02*
X140397690Y-46076723D01*
X140397690Y-46076723D02*
X140302452Y-46076723D01*
X140350071Y-46314819D02*
X140254833Y-46267200D01*
X140254833Y-46267200D02*
X140159595Y-46171961D01*
X140159595Y-46171961D02*
X140111976Y-45981485D01*
X140111976Y-45981485D02*
X140111976Y-45648152D01*
X140111976Y-45648152D02*
X140159595Y-45457676D01*
X140159595Y-45457676D02*
X140254833Y-45362438D01*
X140254833Y-45362438D02*
X140350071Y-45314819D01*
X140350071Y-45314819D02*
X140540547Y-45314819D01*
X140540547Y-45314819D02*
X140635785Y-45362438D01*
X140635785Y-45362438D02*
X140731023Y-45457676D01*
X140731023Y-45457676D02*
X140778642Y-45648152D01*
X140778642Y-45648152D02*
X140778642Y-45981485D01*
X140778642Y-45981485D02*
X140731023Y-46171961D01*
X140731023Y-46171961D02*
X140635785Y-46267200D01*
X140635785Y-46267200D02*
X140540547Y-46314819D01*
X140540547Y-46314819D02*
X140350071Y-46314819D01*
X141111976Y-45314819D02*
X141731023Y-45314819D01*
X141731023Y-45314819D02*
X141397690Y-45695771D01*
X141397690Y-45695771D02*
X141540547Y-45695771D01*
X141540547Y-45695771D02*
X141635785Y-45743390D01*
X141635785Y-45743390D02*
X141683404Y-45791009D01*
X141683404Y-45791009D02*
X141731023Y-45886247D01*
X141731023Y-45886247D02*
X141731023Y-46124342D01*
X141731023Y-46124342D02*
X141683404Y-46219580D01*
X141683404Y-46219580D02*
X141635785Y-46267200D01*
X141635785Y-46267200D02*
X141540547Y-46314819D01*
X141540547Y-46314819D02*
X141254833Y-46314819D01*
X141254833Y-46314819D02*
X141159595Y-46267200D01*
X141159595Y-46267200D02*
X141111976Y-46219580D01*
X121221667Y-60931200D02*
X121364524Y-60978819D01*
X121364524Y-60978819D02*
X121602619Y-60978819D01*
X121602619Y-60978819D02*
X121697857Y-60931200D01*
X121697857Y-60931200D02*
X121745476Y-60883580D01*
X121745476Y-60883580D02*
X121793095Y-60788342D01*
X121793095Y-60788342D02*
X121793095Y-60693104D01*
X121793095Y-60693104D02*
X121745476Y-60597866D01*
X121745476Y-60597866D02*
X121697857Y-60550247D01*
X121697857Y-60550247D02*
X121602619Y-60502628D01*
X121602619Y-60502628D02*
X121412143Y-60455009D01*
X121412143Y-60455009D02*
X121316905Y-60407390D01*
X121316905Y-60407390D02*
X121269286Y-60359771D01*
X121269286Y-60359771D02*
X121221667Y-60264533D01*
X121221667Y-60264533D02*
X121221667Y-60169295D01*
X121221667Y-60169295D02*
X121269286Y-60074057D01*
X121269286Y-60074057D02*
X121316905Y-60026438D01*
X121316905Y-60026438D02*
X121412143Y-59978819D01*
X121412143Y-59978819D02*
X121650238Y-59978819D01*
X121650238Y-59978819D02*
X121793095Y-60026438D01*
X122126429Y-59978819D02*
X122364524Y-60978819D01*
X122364524Y-60978819D02*
X122555000Y-60264533D01*
X122555000Y-60264533D02*
X122745476Y-60978819D01*
X122745476Y-60978819D02*
X122983572Y-59978819D01*
X123269286Y-59978819D02*
X123888333Y-59978819D01*
X123888333Y-59978819D02*
X123555000Y-60359771D01*
X123555000Y-60359771D02*
X123697857Y-60359771D01*
X123697857Y-60359771D02*
X123793095Y-60407390D01*
X123793095Y-60407390D02*
X123840714Y-60455009D01*
X123840714Y-60455009D02*
X123888333Y-60550247D01*
X123888333Y-60550247D02*
X123888333Y-60788342D01*
X123888333Y-60788342D02*
X123840714Y-60883580D01*
X123840714Y-60883580D02*
X123793095Y-60931200D01*
X123793095Y-60931200D02*
X123697857Y-60978819D01*
X123697857Y-60978819D02*
X123412143Y-60978819D01*
X123412143Y-60978819D02*
X123316905Y-60931200D01*
X123316905Y-60931200D02*
X123269286Y-60883580D01*
X154948142Y-62431819D02*
X154614809Y-61955628D01*
X154376714Y-62431819D02*
X154376714Y-61431819D01*
X154376714Y-61431819D02*
X154757666Y-61431819D01*
X154757666Y-61431819D02*
X154852904Y-61479438D01*
X154852904Y-61479438D02*
X154900523Y-61527057D01*
X154900523Y-61527057D02*
X154948142Y-61622295D01*
X154948142Y-61622295D02*
X154948142Y-61765152D01*
X154948142Y-61765152D02*
X154900523Y-61860390D01*
X154900523Y-61860390D02*
X154852904Y-61908009D01*
X154852904Y-61908009D02*
X154757666Y-61955628D01*
X154757666Y-61955628D02*
X154376714Y-61955628D01*
X155900523Y-62431819D02*
X155329095Y-62431819D01*
X155614809Y-62431819D02*
X155614809Y-61431819D01*
X155614809Y-61431819D02*
X155519571Y-61574676D01*
X155519571Y-61574676D02*
X155424333Y-61669914D01*
X155424333Y-61669914D02*
X155329095Y-61717533D01*
X156233857Y-61431819D02*
X156852904Y-61431819D01*
X156852904Y-61431819D02*
X156519571Y-61812771D01*
X156519571Y-61812771D02*
X156662428Y-61812771D01*
X156662428Y-61812771D02*
X156757666Y-61860390D01*
X156757666Y-61860390D02*
X156805285Y-61908009D01*
X156805285Y-61908009D02*
X156852904Y-62003247D01*
X156852904Y-62003247D02*
X156852904Y-62241342D01*
X156852904Y-62241342D02*
X156805285Y-62336580D01*
X156805285Y-62336580D02*
X156757666Y-62384200D01*
X156757666Y-62384200D02*
X156662428Y-62431819D01*
X156662428Y-62431819D02*
X156376714Y-62431819D01*
X156376714Y-62431819D02*
X156281476Y-62384200D01*
X156281476Y-62384200D02*
X156233857Y-62336580D01*
X112881580Y-62745857D02*
X112929200Y-62793476D01*
X112929200Y-62793476D02*
X112976819Y-62936333D01*
X112976819Y-62936333D02*
X112976819Y-63031571D01*
X112976819Y-63031571D02*
X112929200Y-63174428D01*
X112929200Y-63174428D02*
X112833961Y-63269666D01*
X112833961Y-63269666D02*
X112738723Y-63317285D01*
X112738723Y-63317285D02*
X112548247Y-63364904D01*
X112548247Y-63364904D02*
X112405390Y-63364904D01*
X112405390Y-63364904D02*
X112214914Y-63317285D01*
X112214914Y-63317285D02*
X112119676Y-63269666D01*
X112119676Y-63269666D02*
X112024438Y-63174428D01*
X112024438Y-63174428D02*
X111976819Y-63031571D01*
X111976819Y-63031571D02*
X111976819Y-62936333D01*
X111976819Y-62936333D02*
X112024438Y-62793476D01*
X112024438Y-62793476D02*
X112072057Y-62745857D01*
X112976819Y-61793476D02*
X112976819Y-62364904D01*
X112976819Y-62079190D02*
X111976819Y-62079190D01*
X111976819Y-62079190D02*
X112119676Y-62174428D01*
X112119676Y-62174428D02*
X112214914Y-62269666D01*
X112214914Y-62269666D02*
X112262533Y-62364904D01*
X112405390Y-61222047D02*
X112357771Y-61317285D01*
X112357771Y-61317285D02*
X112310152Y-61364904D01*
X112310152Y-61364904D02*
X112214914Y-61412523D01*
X112214914Y-61412523D02*
X112167295Y-61412523D01*
X112167295Y-61412523D02*
X112072057Y-61364904D01*
X112072057Y-61364904D02*
X112024438Y-61317285D01*
X112024438Y-61317285D02*
X111976819Y-61222047D01*
X111976819Y-61222047D02*
X111976819Y-61031571D01*
X111976819Y-61031571D02*
X112024438Y-60936333D01*
X112024438Y-60936333D02*
X112072057Y-60888714D01*
X112072057Y-60888714D02*
X112167295Y-60841095D01*
X112167295Y-60841095D02*
X112214914Y-60841095D01*
X112214914Y-60841095D02*
X112310152Y-60888714D01*
X112310152Y-60888714D02*
X112357771Y-60936333D01*
X112357771Y-60936333D02*
X112405390Y-61031571D01*
X112405390Y-61031571D02*
X112405390Y-61222047D01*
X112405390Y-61222047D02*
X112453009Y-61317285D01*
X112453009Y-61317285D02*
X112500628Y-61364904D01*
X112500628Y-61364904D02*
X112595866Y-61412523D01*
X112595866Y-61412523D02*
X112786342Y-61412523D01*
X112786342Y-61412523D02*
X112881580Y-61364904D01*
X112881580Y-61364904D02*
X112929200Y-61317285D01*
X112929200Y-61317285D02*
X112976819Y-61222047D01*
X112976819Y-61222047D02*
X112976819Y-61031571D01*
X112976819Y-61031571D02*
X112929200Y-60936333D01*
X112929200Y-60936333D02*
X112881580Y-60888714D01*
X112881580Y-60888714D02*
X112786342Y-60841095D01*
X112786342Y-60841095D02*
X112595866Y-60841095D01*
X112595866Y-60841095D02*
X112500628Y-60888714D01*
X112500628Y-60888714D02*
X112453009Y-60936333D01*
X112453009Y-60936333D02*
X112405390Y-61031571D01*
X153567333Y-95769819D02*
X153234000Y-95293628D01*
X152995905Y-95769819D02*
X152995905Y-94769819D01*
X152995905Y-94769819D02*
X153376857Y-94769819D01*
X153376857Y-94769819D02*
X153472095Y-94817438D01*
X153472095Y-94817438D02*
X153519714Y-94865057D01*
X153519714Y-94865057D02*
X153567333Y-94960295D01*
X153567333Y-94960295D02*
X153567333Y-95103152D01*
X153567333Y-95103152D02*
X153519714Y-95198390D01*
X153519714Y-95198390D02*
X153472095Y-95246009D01*
X153472095Y-95246009D02*
X153376857Y-95293628D01*
X153376857Y-95293628D02*
X152995905Y-95293628D01*
X153948286Y-94865057D02*
X153995905Y-94817438D01*
X153995905Y-94817438D02*
X154091143Y-94769819D01*
X154091143Y-94769819D02*
X154329238Y-94769819D01*
X154329238Y-94769819D02*
X154424476Y-94817438D01*
X154424476Y-94817438D02*
X154472095Y-94865057D01*
X154472095Y-94865057D02*
X154519714Y-94960295D01*
X154519714Y-94960295D02*
X154519714Y-95055533D01*
X154519714Y-95055533D02*
X154472095Y-95198390D01*
X154472095Y-95198390D02*
X153900667Y-95769819D01*
X153900667Y-95769819D02*
X154519714Y-95769819D01*
X106121580Y-40266857D02*
X106169200Y-40314476D01*
X106169200Y-40314476D02*
X106216819Y-40457333D01*
X106216819Y-40457333D02*
X106216819Y-40552571D01*
X106216819Y-40552571D02*
X106169200Y-40695428D01*
X106169200Y-40695428D02*
X106073961Y-40790666D01*
X106073961Y-40790666D02*
X105978723Y-40838285D01*
X105978723Y-40838285D02*
X105788247Y-40885904D01*
X105788247Y-40885904D02*
X105645390Y-40885904D01*
X105645390Y-40885904D02*
X105454914Y-40838285D01*
X105454914Y-40838285D02*
X105359676Y-40790666D01*
X105359676Y-40790666D02*
X105264438Y-40695428D01*
X105264438Y-40695428D02*
X105216819Y-40552571D01*
X105216819Y-40552571D02*
X105216819Y-40457333D01*
X105216819Y-40457333D02*
X105264438Y-40314476D01*
X105264438Y-40314476D02*
X105312057Y-40266857D01*
X105312057Y-39885904D02*
X105264438Y-39838285D01*
X105264438Y-39838285D02*
X105216819Y-39743047D01*
X105216819Y-39743047D02*
X105216819Y-39504952D01*
X105216819Y-39504952D02*
X105264438Y-39409714D01*
X105264438Y-39409714D02*
X105312057Y-39362095D01*
X105312057Y-39362095D02*
X105407295Y-39314476D01*
X105407295Y-39314476D02*
X105502533Y-39314476D01*
X105502533Y-39314476D02*
X105645390Y-39362095D01*
X105645390Y-39362095D02*
X106216819Y-39933523D01*
X106216819Y-39933523D02*
X106216819Y-39314476D01*
X105216819Y-38981142D02*
X105216819Y-38362095D01*
X105216819Y-38362095D02*
X105597771Y-38695428D01*
X105597771Y-38695428D02*
X105597771Y-38552571D01*
X105597771Y-38552571D02*
X105645390Y-38457333D01*
X105645390Y-38457333D02*
X105693009Y-38409714D01*
X105693009Y-38409714D02*
X105788247Y-38362095D01*
X105788247Y-38362095D02*
X106026342Y-38362095D01*
X106026342Y-38362095D02*
X106121580Y-38409714D01*
X106121580Y-38409714D02*
X106169200Y-38457333D01*
X106169200Y-38457333D02*
X106216819Y-38552571D01*
X106216819Y-38552571D02*
X106216819Y-38838285D01*
X106216819Y-38838285D02*
X106169200Y-38933523D01*
X106169200Y-38933523D02*
X106121580Y-38981142D01*
X107465905Y-50280819D02*
X107465905Y-49280819D01*
X107465905Y-49280819D02*
X107704000Y-49280819D01*
X107704000Y-49280819D02*
X107846857Y-49328438D01*
X107846857Y-49328438D02*
X107942095Y-49423676D01*
X107942095Y-49423676D02*
X107989714Y-49518914D01*
X107989714Y-49518914D02*
X108037333Y-49709390D01*
X108037333Y-49709390D02*
X108037333Y-49852247D01*
X108037333Y-49852247D02*
X107989714Y-50042723D01*
X107989714Y-50042723D02*
X107942095Y-50137961D01*
X107942095Y-50137961D02*
X107846857Y-50233200D01*
X107846857Y-50233200D02*
X107704000Y-50280819D01*
X107704000Y-50280819D02*
X107465905Y-50280819D01*
X108894476Y-49280819D02*
X108704000Y-49280819D01*
X108704000Y-49280819D02*
X108608762Y-49328438D01*
X108608762Y-49328438D02*
X108561143Y-49376057D01*
X108561143Y-49376057D02*
X108465905Y-49518914D01*
X108465905Y-49518914D02*
X108418286Y-49709390D01*
X108418286Y-49709390D02*
X108418286Y-50090342D01*
X108418286Y-50090342D02*
X108465905Y-50185580D01*
X108465905Y-50185580D02*
X108513524Y-50233200D01*
X108513524Y-50233200D02*
X108608762Y-50280819D01*
X108608762Y-50280819D02*
X108799238Y-50280819D01*
X108799238Y-50280819D02*
X108894476Y-50233200D01*
X108894476Y-50233200D02*
X108942095Y-50185580D01*
X108942095Y-50185580D02*
X108989714Y-50090342D01*
X108989714Y-50090342D02*
X108989714Y-49852247D01*
X108989714Y-49852247D02*
X108942095Y-49757009D01*
X108942095Y-49757009D02*
X108894476Y-49709390D01*
X108894476Y-49709390D02*
X108799238Y-49661771D01*
X108799238Y-49661771D02*
X108608762Y-49661771D01*
X108608762Y-49661771D02*
X108513524Y-49709390D01*
X108513524Y-49709390D02*
X108465905Y-49757009D01*
X108465905Y-49757009D02*
X108418286Y-49852247D01*
X92456095Y-94053819D02*
X92456095Y-93053819D01*
X92456095Y-93530009D02*
X93027523Y-93530009D01*
X93027523Y-94053819D02*
X93027523Y-93053819D01*
X93408476Y-93053819D02*
X94027523Y-93053819D01*
X94027523Y-93053819D02*
X93694190Y-93434771D01*
X93694190Y-93434771D02*
X93837047Y-93434771D01*
X93837047Y-93434771D02*
X93932285Y-93482390D01*
X93932285Y-93482390D02*
X93979904Y-93530009D01*
X93979904Y-93530009D02*
X94027523Y-93625247D01*
X94027523Y-93625247D02*
X94027523Y-93863342D01*
X94027523Y-93863342D02*
X93979904Y-93958580D01*
X93979904Y-93958580D02*
X93932285Y-94006200D01*
X93932285Y-94006200D02*
X93837047Y-94053819D01*
X93837047Y-94053819D02*
X93551333Y-94053819D01*
X93551333Y-94053819D02*
X93456095Y-94006200D01*
X93456095Y-94006200D02*
X93408476Y-93958580D01*
X143286142Y-65769819D02*
X142952809Y-65293628D01*
X142714714Y-65769819D02*
X142714714Y-64769819D01*
X142714714Y-64769819D02*
X143095666Y-64769819D01*
X143095666Y-64769819D02*
X143190904Y-64817438D01*
X143190904Y-64817438D02*
X143238523Y-64865057D01*
X143238523Y-64865057D02*
X143286142Y-64960295D01*
X143286142Y-64960295D02*
X143286142Y-65103152D01*
X143286142Y-65103152D02*
X143238523Y-65198390D01*
X143238523Y-65198390D02*
X143190904Y-65246009D01*
X143190904Y-65246009D02*
X143095666Y-65293628D01*
X143095666Y-65293628D02*
X142714714Y-65293628D01*
X143667095Y-64865057D02*
X143714714Y-64817438D01*
X143714714Y-64817438D02*
X143809952Y-64769819D01*
X143809952Y-64769819D02*
X144048047Y-64769819D01*
X144048047Y-64769819D02*
X144143285Y-64817438D01*
X144143285Y-64817438D02*
X144190904Y-64865057D01*
X144190904Y-64865057D02*
X144238523Y-64960295D01*
X144238523Y-64960295D02*
X144238523Y-65055533D01*
X144238523Y-65055533D02*
X144190904Y-65198390D01*
X144190904Y-65198390D02*
X143619476Y-65769819D01*
X143619476Y-65769819D02*
X144238523Y-65769819D01*
X145095666Y-64769819D02*
X144905190Y-64769819D01*
X144905190Y-64769819D02*
X144809952Y-64817438D01*
X144809952Y-64817438D02*
X144762333Y-64865057D01*
X144762333Y-64865057D02*
X144667095Y-65007914D01*
X144667095Y-65007914D02*
X144619476Y-65198390D01*
X144619476Y-65198390D02*
X144619476Y-65579342D01*
X144619476Y-65579342D02*
X144667095Y-65674580D01*
X144667095Y-65674580D02*
X144714714Y-65722200D01*
X144714714Y-65722200D02*
X144809952Y-65769819D01*
X144809952Y-65769819D02*
X145000428Y-65769819D01*
X145000428Y-65769819D02*
X145095666Y-65722200D01*
X145095666Y-65722200D02*
X145143285Y-65674580D01*
X145143285Y-65674580D02*
X145190904Y-65579342D01*
X145190904Y-65579342D02*
X145190904Y-65341247D01*
X145190904Y-65341247D02*
X145143285Y-65246009D01*
X145143285Y-65246009D02*
X145095666Y-65198390D01*
X145095666Y-65198390D02*
X145000428Y-65150771D01*
X145000428Y-65150771D02*
X144809952Y-65150771D01*
X144809952Y-65150771D02*
X144714714Y-65198390D01*
X144714714Y-65198390D02*
X144667095Y-65246009D01*
X144667095Y-65246009D02*
X144619476Y-65341247D01*
X102563819Y-73699666D02*
X102087628Y-74032999D01*
X102563819Y-74271094D02*
X101563819Y-74271094D01*
X101563819Y-74271094D02*
X101563819Y-73890142D01*
X101563819Y-73890142D02*
X101611438Y-73794904D01*
X101611438Y-73794904D02*
X101659057Y-73747285D01*
X101659057Y-73747285D02*
X101754295Y-73699666D01*
X101754295Y-73699666D02*
X101897152Y-73699666D01*
X101897152Y-73699666D02*
X101992390Y-73747285D01*
X101992390Y-73747285D02*
X102040009Y-73794904D01*
X102040009Y-73794904D02*
X102087628Y-73890142D01*
X102087628Y-73890142D02*
X102087628Y-74271094D01*
X101992390Y-73128237D02*
X101944771Y-73223475D01*
X101944771Y-73223475D02*
X101897152Y-73271094D01*
X101897152Y-73271094D02*
X101801914Y-73318713D01*
X101801914Y-73318713D02*
X101754295Y-73318713D01*
X101754295Y-73318713D02*
X101659057Y-73271094D01*
X101659057Y-73271094D02*
X101611438Y-73223475D01*
X101611438Y-73223475D02*
X101563819Y-73128237D01*
X101563819Y-73128237D02*
X101563819Y-72937761D01*
X101563819Y-72937761D02*
X101611438Y-72842523D01*
X101611438Y-72842523D02*
X101659057Y-72794904D01*
X101659057Y-72794904D02*
X101754295Y-72747285D01*
X101754295Y-72747285D02*
X101801914Y-72747285D01*
X101801914Y-72747285D02*
X101897152Y-72794904D01*
X101897152Y-72794904D02*
X101944771Y-72842523D01*
X101944771Y-72842523D02*
X101992390Y-72937761D01*
X101992390Y-72937761D02*
X101992390Y-73128237D01*
X101992390Y-73128237D02*
X102040009Y-73223475D01*
X102040009Y-73223475D02*
X102087628Y-73271094D01*
X102087628Y-73271094D02*
X102182866Y-73318713D01*
X102182866Y-73318713D02*
X102373342Y-73318713D01*
X102373342Y-73318713D02*
X102468580Y-73271094D01*
X102468580Y-73271094D02*
X102516200Y-73223475D01*
X102516200Y-73223475D02*
X102563819Y-73128237D01*
X102563819Y-73128237D02*
X102563819Y-72937761D01*
X102563819Y-72937761D02*
X102516200Y-72842523D01*
X102516200Y-72842523D02*
X102468580Y-72794904D01*
X102468580Y-72794904D02*
X102373342Y-72747285D01*
X102373342Y-72747285D02*
X102182866Y-72747285D01*
X102182866Y-72747285D02*
X102087628Y-72794904D01*
X102087628Y-72794904D02*
X102040009Y-72842523D01*
X102040009Y-72842523D02*
X101992390Y-72937761D01*
X139835142Y-52779819D02*
X139501809Y-52303628D01*
X139263714Y-52779819D02*
X139263714Y-51779819D01*
X139263714Y-51779819D02*
X139644666Y-51779819D01*
X139644666Y-51779819D02*
X139739904Y-51827438D01*
X139739904Y-51827438D02*
X139787523Y-51875057D01*
X139787523Y-51875057D02*
X139835142Y-51970295D01*
X139835142Y-51970295D02*
X139835142Y-52113152D01*
X139835142Y-52113152D02*
X139787523Y-52208390D01*
X139787523Y-52208390D02*
X139739904Y-52256009D01*
X139739904Y-52256009D02*
X139644666Y-52303628D01*
X139644666Y-52303628D02*
X139263714Y-52303628D01*
X140787523Y-52779819D02*
X140216095Y-52779819D01*
X140501809Y-52779819D02*
X140501809Y-51779819D01*
X140501809Y-51779819D02*
X140406571Y-51922676D01*
X140406571Y-51922676D02*
X140311333Y-52017914D01*
X140311333Y-52017914D02*
X140216095Y-52065533D01*
X141692285Y-51779819D02*
X141216095Y-51779819D01*
X141216095Y-51779819D02*
X141168476Y-52256009D01*
X141168476Y-52256009D02*
X141216095Y-52208390D01*
X141216095Y-52208390D02*
X141311333Y-52160771D01*
X141311333Y-52160771D02*
X141549428Y-52160771D01*
X141549428Y-52160771D02*
X141644666Y-52208390D01*
X141644666Y-52208390D02*
X141692285Y-52256009D01*
X141692285Y-52256009D02*
X141739904Y-52351247D01*
X141739904Y-52351247D02*
X141739904Y-52589342D01*
X141739904Y-52589342D02*
X141692285Y-52684580D01*
X141692285Y-52684580D02*
X141644666Y-52732200D01*
X141644666Y-52732200D02*
X141549428Y-52779819D01*
X141549428Y-52779819D02*
X141311333Y-52779819D01*
X141311333Y-52779819D02*
X141216095Y-52732200D01*
X141216095Y-52732200D02*
X141168476Y-52684580D01*
X88773095Y-38173819D02*
X88773095Y-37173819D01*
X88773095Y-37650009D02*
X89344523Y-37650009D01*
X89344523Y-38173819D02*
X89344523Y-37173819D01*
X90344523Y-38173819D02*
X89773095Y-38173819D01*
X90058809Y-38173819D02*
X90058809Y-37173819D01*
X90058809Y-37173819D02*
X89963571Y-37316676D01*
X89963571Y-37316676D02*
X89868333Y-37411914D01*
X89868333Y-37411914D02*
X89773095Y-37459533D01*
X153567333Y-92342580D02*
X153519714Y-92390200D01*
X153519714Y-92390200D02*
X153376857Y-92437819D01*
X153376857Y-92437819D02*
X153281619Y-92437819D01*
X153281619Y-92437819D02*
X153138762Y-92390200D01*
X153138762Y-92390200D02*
X153043524Y-92294961D01*
X153043524Y-92294961D02*
X152995905Y-92199723D01*
X152995905Y-92199723D02*
X152948286Y-92009247D01*
X152948286Y-92009247D02*
X152948286Y-91866390D01*
X152948286Y-91866390D02*
X152995905Y-91675914D01*
X152995905Y-91675914D02*
X153043524Y-91580676D01*
X153043524Y-91580676D02*
X153138762Y-91485438D01*
X153138762Y-91485438D02*
X153281619Y-91437819D01*
X153281619Y-91437819D02*
X153376857Y-91437819D01*
X153376857Y-91437819D02*
X153519714Y-91485438D01*
X153519714Y-91485438D02*
X153567333Y-91533057D01*
X153948286Y-91533057D02*
X153995905Y-91485438D01*
X153995905Y-91485438D02*
X154091143Y-91437819D01*
X154091143Y-91437819D02*
X154329238Y-91437819D01*
X154329238Y-91437819D02*
X154424476Y-91485438D01*
X154424476Y-91485438D02*
X154472095Y-91533057D01*
X154472095Y-91533057D02*
X154519714Y-91628295D01*
X154519714Y-91628295D02*
X154519714Y-91723533D01*
X154519714Y-91723533D02*
X154472095Y-91866390D01*
X154472095Y-91866390D02*
X153900667Y-92437819D01*
X153900667Y-92437819D02*
X154519714Y-92437819D01*
X150411642Y-62431819D02*
X150078309Y-61955628D01*
X149840214Y-62431819D02*
X149840214Y-61431819D01*
X149840214Y-61431819D02*
X150221166Y-61431819D01*
X150221166Y-61431819D02*
X150316404Y-61479438D01*
X150316404Y-61479438D02*
X150364023Y-61527057D01*
X150364023Y-61527057D02*
X150411642Y-61622295D01*
X150411642Y-61622295D02*
X150411642Y-61765152D01*
X150411642Y-61765152D02*
X150364023Y-61860390D01*
X150364023Y-61860390D02*
X150316404Y-61908009D01*
X150316404Y-61908009D02*
X150221166Y-61955628D01*
X150221166Y-61955628D02*
X149840214Y-61955628D01*
X151364023Y-62431819D02*
X150792595Y-62431819D01*
X151078309Y-62431819D02*
X151078309Y-61431819D01*
X151078309Y-61431819D02*
X150983071Y-61574676D01*
X150983071Y-61574676D02*
X150887833Y-61669914D01*
X150887833Y-61669914D02*
X150792595Y-61717533D01*
X151935452Y-61860390D02*
X151840214Y-61812771D01*
X151840214Y-61812771D02*
X151792595Y-61765152D01*
X151792595Y-61765152D02*
X151744976Y-61669914D01*
X151744976Y-61669914D02*
X151744976Y-61622295D01*
X151744976Y-61622295D02*
X151792595Y-61527057D01*
X151792595Y-61527057D02*
X151840214Y-61479438D01*
X151840214Y-61479438D02*
X151935452Y-61431819D01*
X151935452Y-61431819D02*
X152125928Y-61431819D01*
X152125928Y-61431819D02*
X152221166Y-61479438D01*
X152221166Y-61479438D02*
X152268785Y-61527057D01*
X152268785Y-61527057D02*
X152316404Y-61622295D01*
X152316404Y-61622295D02*
X152316404Y-61669914D01*
X152316404Y-61669914D02*
X152268785Y-61765152D01*
X152268785Y-61765152D02*
X152221166Y-61812771D01*
X152221166Y-61812771D02*
X152125928Y-61860390D01*
X152125928Y-61860390D02*
X151935452Y-61860390D01*
X151935452Y-61860390D02*
X151840214Y-61908009D01*
X151840214Y-61908009D02*
X151792595Y-61955628D01*
X151792595Y-61955628D02*
X151744976Y-62050866D01*
X151744976Y-62050866D02*
X151744976Y-62241342D01*
X151744976Y-62241342D02*
X151792595Y-62336580D01*
X151792595Y-62336580D02*
X151840214Y-62384200D01*
X151840214Y-62384200D02*
X151935452Y-62431819D01*
X151935452Y-62431819D02*
X152125928Y-62431819D01*
X152125928Y-62431819D02*
X152221166Y-62384200D01*
X152221166Y-62384200D02*
X152268785Y-62336580D01*
X152268785Y-62336580D02*
X152316404Y-62241342D01*
X152316404Y-62241342D02*
X152316404Y-62050866D01*
X152316404Y-62050866D02*
X152268785Y-61955628D01*
X152268785Y-61955628D02*
X152221166Y-61908009D01*
X152221166Y-61908009D02*
X152125928Y-61860390D01*
X146566142Y-56589819D02*
X146232809Y-56113628D01*
X145994714Y-56589819D02*
X145994714Y-55589819D01*
X145994714Y-55589819D02*
X146375666Y-55589819D01*
X146375666Y-55589819D02*
X146470904Y-55637438D01*
X146470904Y-55637438D02*
X146518523Y-55685057D01*
X146518523Y-55685057D02*
X146566142Y-55780295D01*
X146566142Y-55780295D02*
X146566142Y-55923152D01*
X146566142Y-55923152D02*
X146518523Y-56018390D01*
X146518523Y-56018390D02*
X146470904Y-56066009D01*
X146470904Y-56066009D02*
X146375666Y-56113628D01*
X146375666Y-56113628D02*
X145994714Y-56113628D01*
X147518523Y-56589819D02*
X146947095Y-56589819D01*
X147232809Y-56589819D02*
X147232809Y-55589819D01*
X147232809Y-55589819D02*
X147137571Y-55732676D01*
X147137571Y-55732676D02*
X147042333Y-55827914D01*
X147042333Y-55827914D02*
X146947095Y-55875533D01*
X147994714Y-56589819D02*
X148185190Y-56589819D01*
X148185190Y-56589819D02*
X148280428Y-56542200D01*
X148280428Y-56542200D02*
X148328047Y-56494580D01*
X148328047Y-56494580D02*
X148423285Y-56351723D01*
X148423285Y-56351723D02*
X148470904Y-56161247D01*
X148470904Y-56161247D02*
X148470904Y-55780295D01*
X148470904Y-55780295D02*
X148423285Y-55685057D01*
X148423285Y-55685057D02*
X148375666Y-55637438D01*
X148375666Y-55637438D02*
X148280428Y-55589819D01*
X148280428Y-55589819D02*
X148089952Y-55589819D01*
X148089952Y-55589819D02*
X147994714Y-55637438D01*
X147994714Y-55637438D02*
X147947095Y-55685057D01*
X147947095Y-55685057D02*
X147899476Y-55780295D01*
X147899476Y-55780295D02*
X147899476Y-56018390D01*
X147899476Y-56018390D02*
X147947095Y-56113628D01*
X147947095Y-56113628D02*
X147994714Y-56161247D01*
X147994714Y-56161247D02*
X148089952Y-56208866D01*
X148089952Y-56208866D02*
X148280428Y-56208866D01*
X148280428Y-56208866D02*
X148375666Y-56161247D01*
X148375666Y-56161247D02*
X148423285Y-56113628D01*
X148423285Y-56113628D02*
X148470904Y-56018390D01*
X104036905Y-60398819D02*
X104036905Y-59398819D01*
X104036905Y-59398819D02*
X104275000Y-59398819D01*
X104275000Y-59398819D02*
X104417857Y-59446438D01*
X104417857Y-59446438D02*
X104513095Y-59541676D01*
X104513095Y-59541676D02*
X104560714Y-59636914D01*
X104560714Y-59636914D02*
X104608333Y-59827390D01*
X104608333Y-59827390D02*
X104608333Y-59970247D01*
X104608333Y-59970247D02*
X104560714Y-60160723D01*
X104560714Y-60160723D02*
X104513095Y-60255961D01*
X104513095Y-60255961D02*
X104417857Y-60351200D01*
X104417857Y-60351200D02*
X104275000Y-60398819D01*
X104275000Y-60398819D02*
X104036905Y-60398819D01*
X104989286Y-59494057D02*
X105036905Y-59446438D01*
X105036905Y-59446438D02*
X105132143Y-59398819D01*
X105132143Y-59398819D02*
X105370238Y-59398819D01*
X105370238Y-59398819D02*
X105465476Y-59446438D01*
X105465476Y-59446438D02*
X105513095Y-59494057D01*
X105513095Y-59494057D02*
X105560714Y-59589295D01*
X105560714Y-59589295D02*
X105560714Y-59684533D01*
X105560714Y-59684533D02*
X105513095Y-59827390D01*
X105513095Y-59827390D02*
X104941667Y-60398819D01*
X104941667Y-60398819D02*
X105560714Y-60398819D01*
X118663819Y-81613333D02*
X119378104Y-81613333D01*
X119378104Y-81613333D02*
X119520961Y-81660952D01*
X119520961Y-81660952D02*
X119616200Y-81756190D01*
X119616200Y-81756190D02*
X119663819Y-81899047D01*
X119663819Y-81899047D02*
X119663819Y-81994285D01*
X118759057Y-81184761D02*
X118711438Y-81137142D01*
X118711438Y-81137142D02*
X118663819Y-81041904D01*
X118663819Y-81041904D02*
X118663819Y-80803809D01*
X118663819Y-80803809D02*
X118711438Y-80708571D01*
X118711438Y-80708571D02*
X118759057Y-80660952D01*
X118759057Y-80660952D02*
X118854295Y-80613333D01*
X118854295Y-80613333D02*
X118949533Y-80613333D01*
X118949533Y-80613333D02*
X119092390Y-80660952D01*
X119092390Y-80660952D02*
X119663819Y-81232380D01*
X119663819Y-81232380D02*
X119663819Y-80613333D01*
X106386333Y-96244580D02*
X106338714Y-96292200D01*
X106338714Y-96292200D02*
X106195857Y-96339819D01*
X106195857Y-96339819D02*
X106100619Y-96339819D01*
X106100619Y-96339819D02*
X105957762Y-96292200D01*
X105957762Y-96292200D02*
X105862524Y-96196961D01*
X105862524Y-96196961D02*
X105814905Y-96101723D01*
X105814905Y-96101723D02*
X105767286Y-95911247D01*
X105767286Y-95911247D02*
X105767286Y-95768390D01*
X105767286Y-95768390D02*
X105814905Y-95577914D01*
X105814905Y-95577914D02*
X105862524Y-95482676D01*
X105862524Y-95482676D02*
X105957762Y-95387438D01*
X105957762Y-95387438D02*
X106100619Y-95339819D01*
X106100619Y-95339819D02*
X106195857Y-95339819D01*
X106195857Y-95339819D02*
X106338714Y-95387438D01*
X106338714Y-95387438D02*
X106386333Y-95435057D01*
X107243476Y-95673152D02*
X107243476Y-96339819D01*
X107005381Y-95292200D02*
X106767286Y-96006485D01*
X106767286Y-96006485D02*
X107386333Y-96006485D01*
X133413667Y-60804200D02*
X133556524Y-60851819D01*
X133556524Y-60851819D02*
X133794619Y-60851819D01*
X133794619Y-60851819D02*
X133889857Y-60804200D01*
X133889857Y-60804200D02*
X133937476Y-60756580D01*
X133937476Y-60756580D02*
X133985095Y-60661342D01*
X133985095Y-60661342D02*
X133985095Y-60566104D01*
X133985095Y-60566104D02*
X133937476Y-60470866D01*
X133937476Y-60470866D02*
X133889857Y-60423247D01*
X133889857Y-60423247D02*
X133794619Y-60375628D01*
X133794619Y-60375628D02*
X133604143Y-60328009D01*
X133604143Y-60328009D02*
X133508905Y-60280390D01*
X133508905Y-60280390D02*
X133461286Y-60232771D01*
X133461286Y-60232771D02*
X133413667Y-60137533D01*
X133413667Y-60137533D02*
X133413667Y-60042295D01*
X133413667Y-60042295D02*
X133461286Y-59947057D01*
X133461286Y-59947057D02*
X133508905Y-59899438D01*
X133508905Y-59899438D02*
X133604143Y-59851819D01*
X133604143Y-59851819D02*
X133842238Y-59851819D01*
X133842238Y-59851819D02*
X133985095Y-59899438D01*
X134318429Y-59851819D02*
X134556524Y-60851819D01*
X134556524Y-60851819D02*
X134747000Y-60137533D01*
X134747000Y-60137533D02*
X134937476Y-60851819D01*
X134937476Y-60851819D02*
X135175572Y-59851819D01*
X135985095Y-60185152D02*
X135985095Y-60851819D01*
X135747000Y-59804200D02*
X135508905Y-60518485D01*
X135508905Y-60518485D02*
X136127952Y-60518485D01*
X123107905Y-42814819D02*
X123107905Y-43624342D01*
X123107905Y-43624342D02*
X123155524Y-43719580D01*
X123155524Y-43719580D02*
X123203143Y-43767200D01*
X123203143Y-43767200D02*
X123298381Y-43814819D01*
X123298381Y-43814819D02*
X123488857Y-43814819D01*
X123488857Y-43814819D02*
X123584095Y-43767200D01*
X123584095Y-43767200D02*
X123631714Y-43719580D01*
X123631714Y-43719580D02*
X123679333Y-43624342D01*
X123679333Y-43624342D02*
X123679333Y-42814819D01*
X124679333Y-43814819D02*
X124107905Y-43814819D01*
X124393619Y-43814819D02*
X124393619Y-42814819D01*
X124393619Y-42814819D02*
X124298381Y-42957676D01*
X124298381Y-42957676D02*
X124203143Y-43052914D01*
X124203143Y-43052914D02*
X124107905Y-43100533D01*
X125298381Y-42814819D02*
X125393619Y-42814819D01*
X125393619Y-42814819D02*
X125488857Y-42862438D01*
X125488857Y-42862438D02*
X125536476Y-42910057D01*
X125536476Y-42910057D02*
X125584095Y-43005295D01*
X125584095Y-43005295D02*
X125631714Y-43195771D01*
X125631714Y-43195771D02*
X125631714Y-43433866D01*
X125631714Y-43433866D02*
X125584095Y-43624342D01*
X125584095Y-43624342D02*
X125536476Y-43719580D01*
X125536476Y-43719580D02*
X125488857Y-43767200D01*
X125488857Y-43767200D02*
X125393619Y-43814819D01*
X125393619Y-43814819D02*
X125298381Y-43814819D01*
X125298381Y-43814819D02*
X125203143Y-43767200D01*
X125203143Y-43767200D02*
X125155524Y-43719580D01*
X125155524Y-43719580D02*
X125107905Y-43624342D01*
X125107905Y-43624342D02*
X125060286Y-43433866D01*
X125060286Y-43433866D02*
X125060286Y-43195771D01*
X125060286Y-43195771D02*
X125107905Y-43005295D01*
X125107905Y-43005295D02*
X125155524Y-42910057D01*
X125155524Y-42910057D02*
X125203143Y-42862438D01*
X125203143Y-42862438D02*
X125298381Y-42814819D01*
X114211700Y-37554819D02*
X114211700Y-37792914D01*
X113973605Y-37697676D02*
X114211700Y-37792914D01*
X114211700Y-37792914D02*
X114449795Y-37697676D01*
X114068843Y-37983390D02*
X114211700Y-37792914D01*
X114211700Y-37792914D02*
X114354557Y-37983390D01*
X114211700Y-37554819D02*
X114211700Y-37792914D01*
X113973605Y-37697676D02*
X114211700Y-37792914D01*
X114211700Y-37792914D02*
X114449795Y-37697676D01*
X114068843Y-37983390D02*
X114211700Y-37792914D01*
X114211700Y-37792914D02*
X114354557Y-37983390D01*
X91392476Y-74638819D02*
X91392476Y-75353104D01*
X91392476Y-75353104D02*
X91344857Y-75495961D01*
X91344857Y-75495961D02*
X91249619Y-75591200D01*
X91249619Y-75591200D02*
X91106762Y-75638819D01*
X91106762Y-75638819D02*
X91011524Y-75638819D01*
X92392476Y-75638819D02*
X91821048Y-75638819D01*
X92106762Y-75638819D02*
X92106762Y-74638819D01*
X92106762Y-74638819D02*
X92011524Y-74781676D01*
X92011524Y-74781676D02*
X91916286Y-74876914D01*
X91916286Y-74876914D02*
X91821048Y-74924533D01*
X93344857Y-75638819D02*
X92773429Y-75638819D01*
X93059143Y-75638819D02*
X93059143Y-74638819D01*
X93059143Y-74638819D02*
X92963905Y-74781676D01*
X92963905Y-74781676D02*
X92868667Y-74876914D01*
X92868667Y-74876914D02*
X92773429Y-74924533D01*
X110312580Y-40288357D02*
X110360200Y-40335976D01*
X110360200Y-40335976D02*
X110407819Y-40478833D01*
X110407819Y-40478833D02*
X110407819Y-40574071D01*
X110407819Y-40574071D02*
X110360200Y-40716928D01*
X110360200Y-40716928D02*
X110264961Y-40812166D01*
X110264961Y-40812166D02*
X110169723Y-40859785D01*
X110169723Y-40859785D02*
X109979247Y-40907404D01*
X109979247Y-40907404D02*
X109836390Y-40907404D01*
X109836390Y-40907404D02*
X109645914Y-40859785D01*
X109645914Y-40859785D02*
X109550676Y-40812166D01*
X109550676Y-40812166D02*
X109455438Y-40716928D01*
X109455438Y-40716928D02*
X109407819Y-40574071D01*
X109407819Y-40574071D02*
X109407819Y-40478833D01*
X109407819Y-40478833D02*
X109455438Y-40335976D01*
X109455438Y-40335976D02*
X109503057Y-40288357D01*
X109503057Y-39907404D02*
X109455438Y-39859785D01*
X109455438Y-39859785D02*
X109407819Y-39764547D01*
X109407819Y-39764547D02*
X109407819Y-39526452D01*
X109407819Y-39526452D02*
X109455438Y-39431214D01*
X109455438Y-39431214D02*
X109503057Y-39383595D01*
X109503057Y-39383595D02*
X109598295Y-39335976D01*
X109598295Y-39335976D02*
X109693533Y-39335976D01*
X109693533Y-39335976D02*
X109836390Y-39383595D01*
X109836390Y-39383595D02*
X110407819Y-39955023D01*
X110407819Y-39955023D02*
X110407819Y-39335976D01*
X109741152Y-38478833D02*
X110407819Y-38478833D01*
X109360200Y-38716928D02*
X110074485Y-38955023D01*
X110074485Y-38955023D02*
X110074485Y-38335976D01*
D13*
%TO.C,R20*%
X140377936Y-57304000D02*
X140832064Y-57304000D01*
X140377936Y-58774000D02*
X140832064Y-58774000D01*
%TO.C,JP2*%
X151333000Y-67453000D02*
X156833000Y-67453000D01*
X151333000Y-69403000D02*
X151333000Y-67453000D01*
X152383000Y-69953000D02*
X152983000Y-69953000D01*
X152683000Y-69653000D02*
X152383000Y-69953000D01*
X152983000Y-69953000D02*
X152683000Y-69653000D01*
X156833000Y-67453000D02*
X156833000Y-69403000D01*
X156833000Y-69403000D02*
X151333000Y-69403000D01*
%TO.C,U4*%
X122799000Y-94590999D02*
G75*
G02*
X122799000Y-91591000I6400000J1499999D01*
G01*
X135429000Y-93091000D02*
G75*
G02*
X122969000Y-93091000I-6230000J0D01*
G01*
X122969000Y-93091000D02*
G75*
G02*
X135429000Y-93091000I6230000J0D01*
G01*
%TO.C,U7*%
X85838000Y-82858000D02*
X85838000Y-85058000D01*
X85838000Y-89158000D02*
X85838000Y-91458000D01*
X90438000Y-82858000D02*
X90438000Y-91458000D01*
%TO.C,R7*%
X108431064Y-51970000D02*
X107976936Y-51970000D01*
X108431064Y-53440000D02*
X107976936Y-53440000D01*
%TO.C,J12*%
X158508000Y-39494000D02*
X167628000Y-39494000D01*
X158508000Y-60074000D02*
X158508000Y-39494000D01*
X159818000Y-40794000D02*
X166318000Y-40794000D01*
X159818000Y-58774000D02*
X159818000Y-40794000D01*
X166318000Y-40794000D02*
X166318000Y-47734000D01*
X166318000Y-47734000D02*
X166318000Y-47734000D01*
X166318000Y-47734000D02*
X167628000Y-47734000D01*
X166318000Y-51834000D02*
X166318000Y-58774000D01*
X166318000Y-58774000D02*
X159818000Y-58774000D01*
X167628000Y-39494000D02*
X167628000Y-60074000D01*
X167628000Y-51834000D02*
X166318000Y-51834000D01*
X167628000Y-60074000D02*
X158508000Y-60074000D01*
X168018000Y-54864000D02*
X169018000Y-55364000D01*
X169018000Y-54364000D02*
X168018000Y-54864000D01*
X169018000Y-55364000D02*
X169018000Y-54364000D01*
%TO.C,U5*%
X107935000Y-86084000D02*
X107935000Y-92504000D01*
X107935000Y-92504000D02*
X108205000Y-92504000D01*
X114835000Y-86084000D02*
X114835000Y-92504000D01*
X114835000Y-92504000D02*
X114565000Y-92504000D01*
X108225000Y-93919000D02*
X107895000Y-94159000D01*
X107895000Y-93679000D01*
X108225000Y-93919000D01*
G36*
X108225000Y-93919000D02*
G01*
X107895000Y-94159000D01*
X107895000Y-93679000D01*
X108225000Y-93919000D01*
G37*
%TO.C,R25*%
X113565000Y-67664064D02*
X113565000Y-67209936D01*
X115035000Y-67664064D02*
X115035000Y-67209936D01*
%TO.C,R14*%
X146838936Y-53367000D02*
X147293064Y-53367000D01*
X146838936Y-54837000D02*
X147293064Y-54837000D01*
%TO.C,Q2*%
X147144500Y-46573000D02*
X146494500Y-46573000D01*
X147144500Y-46573000D02*
X147794500Y-46573000D01*
X147144500Y-49693000D02*
X146494500Y-49693000D01*
X147144500Y-49693000D02*
X147794500Y-49693000D01*
X145982000Y-46623000D02*
X145742000Y-46293000D01*
X146222000Y-46293000D01*
X145982000Y-46623000D01*
G36*
X145982000Y-46623000D02*
G01*
X145742000Y-46293000D01*
X146222000Y-46293000D01*
X145982000Y-46623000D01*
G37*
%TO.C,J13*%
X116526000Y-72965000D02*
X116526000Y-75625000D01*
X136906000Y-72965000D02*
X116526000Y-72965000D01*
X136906000Y-72965000D02*
X136906000Y-75625000D01*
X136906000Y-75625000D02*
X116526000Y-75625000D01*
X138176000Y-72965000D02*
X139506000Y-72965000D01*
X139506000Y-72965000D02*
X139506000Y-74295000D01*
%TO.C,SW5*%
X172186000Y-83030000D02*
X172186000Y-79530000D01*
X172186000Y-83030000D02*
X172226000Y-83030000D01*
X172226000Y-83830000D02*
X172226000Y-83030000D01*
%TO.C,C19*%
X143646248Y-62293000D02*
X144168752Y-62293000D01*
X143646248Y-63763000D02*
X144168752Y-63763000D01*
%TO.C,D4*%
X109171500Y-66131000D02*
X108521500Y-66131000D01*
X109171500Y-66131000D02*
X109821500Y-66131000D01*
X109171500Y-69251000D02*
X108521500Y-69251000D01*
X109171500Y-69251000D02*
X109821500Y-69251000D01*
X108009000Y-66181000D02*
X107769000Y-65851000D01*
X108249000Y-65851000D01*
X108009000Y-66181000D01*
G36*
X108009000Y-66181000D02*
G01*
X107769000Y-65851000D01*
X108249000Y-65851000D01*
X108009000Y-66181000D01*
G37*
%TO.C,R3*%
X152887936Y-84546000D02*
X153342064Y-84546000D01*
X152887936Y-86016000D02*
X153342064Y-86016000D01*
%TO.C,J1*%
X95444000Y-66040000D02*
X95444000Y-38040000D01*
X98104000Y-38040000D02*
X95444000Y-38040000D01*
X98104000Y-66040000D02*
X95444000Y-66040000D01*
X98104000Y-66040000D02*
X98104000Y-38040000D01*
X98104000Y-67310000D02*
X98104000Y-68640000D01*
X98104000Y-68640000D02*
X96774000Y-68640000D01*
%TO.C,SW6*%
X172242000Y-90904000D02*
X172242000Y-87404000D01*
X172242000Y-90904000D02*
X172282000Y-90904000D01*
X172282000Y-91704000D02*
X172282000Y-90904000D01*
%TO.C,C3*%
X113784748Y-96801000D02*
X114307252Y-96801000D01*
X113784748Y-98271000D02*
X114307252Y-98271000D01*
%TO.C,C1*%
X152816248Y-88102000D02*
X153338752Y-88102000D01*
X152816248Y-89572000D02*
X153338752Y-89572000D01*
%TO.C,J8*%
X137735000Y-41208000D02*
X137735000Y-39878000D01*
X139065000Y-41208000D02*
X137735000Y-41208000D01*
X140335000Y-38548000D02*
X150555000Y-38548000D01*
X140335000Y-41208000D02*
X140335000Y-38548000D01*
X140335000Y-41208000D02*
X150555000Y-41208000D01*
X150555000Y-41208000D02*
X150555000Y-38548000D01*
%TO.C,R9*%
X106580000Y-73760064D02*
X106580000Y-73305936D01*
X108050000Y-73760064D02*
X108050000Y-73305936D01*
%TO.C,JP1*%
X151127000Y-57166000D02*
X153927000Y-57166000D01*
X151127000Y-59166000D02*
X151127000Y-57166000D01*
X153927000Y-57166000D02*
X153927000Y-59166000D01*
X153927000Y-59166000D02*
X151127000Y-59166000D01*
%TO.C,Q3*%
X140921500Y-46700000D02*
X140271500Y-46700000D01*
X140921500Y-46700000D02*
X141571500Y-46700000D01*
X140921500Y-49820000D02*
X140271500Y-49820000D01*
X140921500Y-49820000D02*
X141571500Y-49820000D01*
X139759000Y-46750000D02*
X139519000Y-46420000D01*
X139999000Y-46420000D01*
X139759000Y-46750000D01*
G36*
X139759000Y-46750000D02*
G01*
X139519000Y-46420000D01*
X139999000Y-46420000D01*
X139759000Y-46750000D01*
G37*
%TO.C,SW3*%
X119405000Y-61574000D02*
X125705000Y-61574000D01*
X119405000Y-61824000D02*
X119405000Y-61574000D01*
X119405000Y-66324000D02*
X119405000Y-63724000D01*
X119405000Y-68474000D02*
X119405000Y-68224000D01*
X125705000Y-61574000D02*
X125705000Y-61824000D01*
X125705000Y-63724000D02*
X125705000Y-66324000D01*
X125705000Y-68224000D02*
X125705000Y-68474000D01*
X125705000Y-68474000D02*
X119405000Y-68474000D01*
%TO.C,R13*%
X155363936Y-62892000D02*
X155818064Y-62892000D01*
X155363936Y-64362000D02*
X155818064Y-64362000D01*
%TO.C,C18*%
X113565000Y-62364252D02*
X113565000Y-61841748D01*
X115035000Y-62364252D02*
X115035000Y-61841748D01*
%TO.C,R2*%
X153506936Y-96230000D02*
X153961064Y-96230000D01*
X153506936Y-97700000D02*
X153961064Y-97700000D01*
%TO.C,C23*%
X106707000Y-39885252D02*
X106707000Y-39362748D01*
X108177000Y-39885252D02*
X108177000Y-39362748D01*
%TO.C,D6*%
X106604000Y-49141000D02*
X110489000Y-49141000D01*
X110489000Y-46871000D02*
X106604000Y-46871000D01*
X110489000Y-49141000D02*
X110489000Y-46871000D01*
%TO.C,R26*%
X143701936Y-66230000D02*
X144156064Y-66230000D01*
X143701936Y-67700000D02*
X144156064Y-67700000D01*
%TO.C,R8*%
X103024000Y-73760064D02*
X103024000Y-73305936D01*
X104494000Y-73760064D02*
X104494000Y-73305936D01*
%TO.C,R15*%
X140250936Y-53240000D02*
X140705064Y-53240000D01*
X140250936Y-54710000D02*
X140705064Y-54710000D01*
%TO.C,C2*%
X153472748Y-92928000D02*
X153995252Y-92928000D01*
X153472748Y-94398000D02*
X153995252Y-94398000D01*
%TO.C,R18*%
X150827436Y-62892000D02*
X151281564Y-62892000D01*
X150827436Y-64362000D02*
X151281564Y-64362000D01*
%TO.C,R19*%
X146981936Y-57050000D02*
X147436064Y-57050000D01*
X146981936Y-58520000D02*
X147436064Y-58520000D01*
%TO.C,D2*%
X105157000Y-64056000D02*
X106427000Y-64056000D01*
X106457000Y-60936000D02*
X105157000Y-60936000D01*
X107047000Y-64336000D02*
X106567000Y-64336000D01*
X106807000Y-64006000D01*
X107047000Y-64336000D01*
G36*
X107047000Y-64336000D02*
G01*
X106567000Y-64336000D01*
X106807000Y-64006000D01*
X107047000Y-64336000D01*
G37*
%TO.C,J2*%
X120209000Y-82610000D02*
X120209000Y-81280000D01*
X121539000Y-82610000D02*
X120209000Y-82610000D01*
X122809000Y-79950000D02*
X138109000Y-79950000D01*
X122809000Y-82610000D02*
X122809000Y-79950000D01*
X122809000Y-82610000D02*
X138109000Y-82610000D01*
X138109000Y-82610000D02*
X138109000Y-79950000D01*
%TO.C,C4*%
X108577748Y-96928000D02*
X109100252Y-96928000D01*
X108577748Y-98398000D02*
X109100252Y-98398000D01*
%TO.C,SW4*%
X131597000Y-61447000D02*
X137897000Y-61447000D01*
X131597000Y-61697000D02*
X131597000Y-61447000D01*
X131597000Y-66197000D02*
X131597000Y-63597000D01*
X131597000Y-68347000D02*
X131597000Y-68097000D01*
X137897000Y-61447000D02*
X137897000Y-61697000D01*
X137897000Y-63597000D02*
X137897000Y-66197000D01*
X137897000Y-68097000D02*
X137897000Y-68347000D01*
X137897000Y-68347000D02*
X131597000Y-68347000D01*
D14*
%TO.C,U10*%
X115214700Y-30482200D02*
X133477300Y-30482200D01*
X115214700Y-37322760D02*
X115214700Y-30482200D01*
X115214700Y-56237800D02*
X115214700Y-55387240D01*
X116583760Y-56237800D02*
X115214700Y-56237800D01*
X133477300Y-30482200D02*
X133477300Y-37322760D01*
X133477300Y-55387240D02*
X133477300Y-56237800D01*
X133477300Y-56237800D02*
X132108240Y-56237800D01*
D13*
%TO.C,J11*%
X94428000Y-71187000D02*
X95758000Y-71187000D01*
X94428000Y-72517000D02*
X94428000Y-71187000D01*
X94428000Y-73787000D02*
X94428000Y-84007000D01*
X94428000Y-73787000D02*
X97088000Y-73787000D01*
X94428000Y-84007000D02*
X97088000Y-84007000D01*
X97088000Y-73787000D02*
X97088000Y-84007000D01*
%TO.C,C24*%
X110898000Y-39906752D02*
X110898000Y-39384248D01*
X112368000Y-39906752D02*
X112368000Y-39384248D01*
%TD*%
M02*
