M48
; DRILL file {KiCad 8.0.6} date 2024-11-05T17:21:08-0600
; FORMAT={-:-/ absolute / inch / decimal}
; #@! TF.CreationDate,2024-11-05T17:21:08-06:00
; #@! TF.GenerationSoftware,Kicad,Pcbnew,8.0.6
; #@! TF.FileFunction,Plated,1,2,PTH
FMAT,2
INCH
; #@! TA.AperFunction,Plated,PTH,ViaDrill
T1C0.0118
; #@! TA.AperFunction,Plated,PTH,ComponentDrill
T2C0.0354
; #@! TA.AperFunction,Plated,PTH,ComponentDrill
T3C0.0394
; #@! TA.AperFunction,Plated,PTH,ComponentDrill
T4C0.0591
%
G90
G05
T1
X3.545Y-3.4
X3.575Y-2.26
X3.61Y-2.55
X3.625Y-1.925
X3.645Y-2.64
X3.66Y-2.355
X3.7Y-2.75
X3.82Y-3.775
X3.87Y-3.125
X3.91Y-2.005
X3.915Y-1.685
X3.915Y-1.95
X3.92Y-2.27
X3.925Y-2.095
X3.94Y-1.795
X3.97Y-2.645
X3.975Y-2.04
X3.985Y-2.125
X4.005Y-2.515
X4.025Y-3.845
X4.05Y-1.63
X4.055Y-1.715
X4.075Y-2.64
X4.13Y-1.55
X4.1477Y-1.6773
X4.15Y-2.945
X4.155Y-2.8
X4.17Y-1.655
X4.175Y-2.7
X4.18Y-3.7
X4.2Y-2.75
X4.21Y-2.655
X4.23Y-3.26
X4.245Y-2.19
X4.245Y-3.07
X4.28Y-3.21
X4.32Y-3.17
X4.365Y-1.83
X4.39Y-2.6729
X4.39Y-2.74
X4.39Y-3.845
X4.41Y-2.91
X4.415Y-1.995
X4.435Y-2.82
X4.4489Y-2.0848
X4.45Y-1.625
X4.4502Y-2.1576
X4.455Y-3.035
X4.455Y-3.08
X4.4564Y-1.685
X4.47Y-3.165
X4.48Y-2.09
X4.48Y-2.17
X4.5Y-2.255
X4.5036Y-1.65
X4.5036Y-1.85
X4.5036Y-2.05
X4.5076Y-2.0186
X4.51Y-3.225
X4.5198Y-3.0789
X4.525Y-3.11
X4.53Y-3.035
X4.535Y-2.55
X4.54Y-2.195
X4.57Y-2.59
X4.57Y-2.65
X4.57Y-3.345
X4.605Y-2.295
X4.61Y-1.785
X4.61Y-2.135
X4.615Y-1.71
X4.62Y-1.66
X4.62Y-3.005
X4.625Y-2.025
X4.63Y-3.135
X4.64Y-2.77
X4.645Y-2.095
X4.655Y-2.545
X4.66Y-2.275
X4.67Y-2.075
X4.7Y-3.395
X4.705Y-2.73
X4.705Y-3.785
X4.735Y-2.13
X4.735Y-3.14
X4.74Y-2.625
X4.74Y-2.675
X4.77Y-2.105
X4.8Y-2.78
X4.81Y-3.01
X4.825Y-2.03
X4.825Y-2.265
X4.84Y-2.625
X4.84Y-2.68
X4.855Y-3.05
X4.865Y-2.585
X4.885Y-2.31
X4.91Y-1.91
X4.92Y-2.675
X4.945Y-2.285
X4.97Y-2.345
X4.975Y-2.515
X5.02Y-3.0355
X5.035Y-2.9864
X5.04Y-2.875
X5.055Y-2.405
X5.06Y-2.73
X5.075Y-2.525
X5.085Y-2.105
X5.15Y-1.6
X5.15Y-2.82
X5.165Y-2.08
X5.165Y-2.585
X5.17Y-3.325
X5.21Y-2.245
X5.21Y-2.4
X5.24Y-2.585
X5.24Y-3.43
X5.275Y-2.485
X5.297Y-2.153
X5.315Y-1.67
X5.315Y-1.95
X5.315Y-2.0
X5.34Y-2.27
X5.36Y-1.71
X5.375Y-2.585
X5.38Y-1.495
X5.405Y-2.29
X5.405Y-2.365
X5.425Y-2.0
X5.43Y-1.835
X5.47Y-2.375
X5.48Y-1.665
X5.4822Y-1.9872
X5.485Y-2.2
X5.5Y-1.775
X5.5045Y-1.9649
X5.5723Y-2.0773
X5.575Y-1.66
X5.595Y-1.7986
X5.62Y-1.86
X5.635Y-2.3
X5.635Y-2.35
X5.645Y-2.09
X5.67Y-2.535
X5.675Y-2.415
X5.68Y-1.82
X5.68Y-2.885
X5.705Y-2.855
X5.715Y-2.015
X5.745Y-2.575
X5.75Y-2.825
X5.805Y-2.83
X5.845Y-1.935
X5.85Y-2.465
X5.9Y-2.415
X5.96Y-2.555
X6.04Y-1.895
X6.115Y-2.55
X6.13Y-2.32
X6.1308Y-2.3592
X6.165Y-2.3136
X6.2Y-1.895
X6.205Y-2.58
X6.33Y-1.82
T2
X3.47Y-3.3527
X3.47Y-3.4314
X3.47Y-3.5102
T3
X3.77Y-2.855
X3.77Y-2.955
X3.77Y-3.055
X3.77Y-3.155
X3.77Y-3.255
X3.81Y-1.55
X3.81Y-1.65
X3.81Y-1.75
X3.81Y-1.85
X3.81Y-1.95
X3.81Y-2.05
X3.81Y-2.15
X3.81Y-2.25
X3.81Y-2.35
X3.81Y-2.45
X3.81Y-2.55
X3.81Y-2.65
X4.64Y-2.925
X4.74Y-2.925
X4.785Y-3.2
X4.84Y-2.925
X4.885Y-3.2
X4.94Y-2.925
X4.985Y-3.2
X4.9881Y-3.665
X5.04Y-2.925
X5.085Y-3.2
X5.14Y-2.925
X5.185Y-3.2
X5.185Y-3.665
X5.24Y-2.925
X5.285Y-3.2
X5.34Y-2.925
X5.385Y-3.2
X5.44Y-2.925
X5.475Y-1.57
X5.575Y-1.57
X5.675Y-1.57
X5.775Y-1.57
X5.875Y-1.57
X6.37Y-1.76
X6.37Y-1.86
X6.37Y-1.96
X6.37Y-2.06
X6.37Y-2.16
X6.47Y-1.76
X6.47Y-1.86
X6.47Y-1.96
X6.47Y-2.06
X6.47Y-2.16
T4
X3.47Y-3.27
X3.47Y-3.5928
M30
