%TF.GenerationSoftware,KiCad,Pcbnew,8.0.6*%
%TF.CreationDate,2024-11-05T17:21:10-06:00*%
%TF.ProjectId,werable_unit (1),77657261-626c-4655-9f75-6e6974202831,rev?*%
%TF.SameCoordinates,Original*%
%TF.FileFunction,Soldermask,Top*%
%TF.FilePolarity,Negative*%
%FSLAX46Y46*%
G04 Gerber Fmt 4.6, Leading zero omitted, Abs format (unit mm)*
G04 Created by KiCad (PCBNEW 8.0.6) date 2024-11-05 17:21:10*
%MOMM*%
%LPD*%
G01*
G04 APERTURE LIST*
G04 Aperture macros list*
%AMRoundRect*
0 Rectangle with rounded corners*
0 $1 Rounding radius*
0 $2 $3 $4 $5 $6 $7 $8 $9 X,Y pos of 4 corners*
0 Add a 4 corners polygon primitive as box body*
4,1,4,$2,$3,$4,$5,$6,$7,$8,$9,$2,$3,0*
0 Add four circle primitives for the rounded corners*
1,1,$1+$1,$2,$3*
1,1,$1+$1,$4,$5*
1,1,$1+$1,$6,$7*
1,1,$1+$1,$8,$9*
0 Add four rect primitives between the rounded corners*
20,1,$1+$1,$2,$3,$4,$5,0*
20,1,$1+$1,$4,$5,$6,$7,0*
20,1,$1+$1,$6,$7,$8,$9,0*
20,1,$1+$1,$8,$9,$2,$3,0*%
%AMFreePoly0*
4,1,6,1.000000,0.000000,0.500000,-0.750000,-0.500000,-0.750000,-0.500000,0.750000,0.500000,0.750000,1.000000,0.000000,1.000000,0.000000,$1*%
%AMFreePoly1*
4,1,6,0.500000,-0.750000,-0.650000,-0.750000,-0.150000,0.000000,-0.650000,0.750000,0.500000,0.750000,0.500000,-0.750000,0.500000,-0.750000,$1*%
G04 Aperture macros list end*
%ADD10RoundRect,0.250000X-0.350000X-0.450000X0.350000X-0.450000X0.350000X0.450000X-0.350000X0.450000X0*%
%ADD11R,1.500000X1.500000*%
%ADD12FreePoly0,0.000000*%
%ADD13FreePoly0,180.000000*%
%ADD14R,2.000000X2.000000*%
%ADD15C,2.000000*%
%ADD16O,3.500000X2.200000*%
%ADD17R,2.500000X1.500000*%
%ADD18O,2.500000X1.500000*%
%ADD19RoundRect,0.250000X0.350000X0.450000X-0.350000X0.450000X-0.350000X-0.450000X0.350000X-0.450000X0*%
%ADD20RoundRect,0.250000X0.600000X0.600000X-0.600000X0.600000X-0.600000X-0.600000X0.600000X-0.600000X0*%
%ADD21C,1.700000*%
%ADD22RoundRect,0.250000X0.350000X-0.850000X0.350000X0.850000X-0.350000X0.850000X-0.350000X-0.850000X0*%
%ADD23RoundRect,0.249997X2.650003X-2.950003X2.650003X2.950003X-2.650003X2.950003X-2.650003X-2.950003X0*%
%ADD24RoundRect,0.250000X0.450000X-0.350000X0.450000X0.350000X-0.450000X0.350000X-0.450000X-0.350000X0*%
%ADD25RoundRect,0.150000X-0.587500X-0.150000X0.587500X-0.150000X0.587500X0.150000X-0.587500X0.150000X0*%
%ADD26R,1.700000X1.700000*%
%ADD27O,1.700000X1.700000*%
%ADD28RoundRect,0.250000X0.275000X-0.450000X0.275000X0.450000X-0.275000X0.450000X-0.275000X-0.450000X0*%
%ADD29RoundRect,0.250000X-0.337500X-0.475000X0.337500X-0.475000X0.337500X0.475000X-0.337500X0.475000X0*%
%ADD30C,3.200000*%
%ADD31FreePoly1,0.000000*%
%ADD32R,1.550000X1.300000*%
%ADD33RoundRect,0.250000X0.475000X-0.337500X0.475000X0.337500X-0.475000X0.337500X-0.475000X-0.337500X0*%
%ADD34RoundRect,0.250000X0.375000X0.625000X-0.375000X0.625000X-0.375000X-0.625000X0.375000X-0.625000X0*%
%ADD35RoundRect,0.175000X0.175000X0.325000X-0.175000X0.325000X-0.175000X-0.325000X0.175000X-0.325000X0*%
%ADD36RoundRect,0.150000X0.200000X0.150000X-0.200000X0.150000X-0.200000X-0.150000X0.200000X-0.150000X0*%
%ADD37R,1.498600X0.889000*%
%ADD38R,0.889000X1.498600*%
%ADD39R,0.889000X0.889000*%
G04 APERTURE END LIST*
D10*
%TO.C,R20*%
X139605000Y-58039000D03*
X141605000Y-58039000D03*
%TD*%
D11*
%TO.C,JP2*%
X152883000Y-68453000D03*
X155283000Y-68453000D03*
D12*
X152083000Y-68453000D03*
D13*
X156083000Y-68453000D03*
%TD*%
D14*
%TO.C,U4*%
X126699000Y-93091000D03*
D15*
X131699000Y-93091000D03*
%TD*%
D16*
%TO.C,U7*%
X88138000Y-83058000D03*
X88138000Y-91258000D03*
D17*
X88138000Y-85158000D03*
D18*
X88138000Y-87158000D03*
X88138000Y-89158000D03*
%TD*%
D19*
%TO.C,R7*%
X109204000Y-52705000D03*
X107204000Y-52705000D03*
%TD*%
D20*
%TO.C,J12*%
X164338000Y-54864000D03*
D21*
X161798000Y-54864000D03*
X164338000Y-52324000D03*
X161798000Y-52324000D03*
X164338000Y-49784000D03*
X161798000Y-49784000D03*
X164338000Y-47244000D03*
X161798000Y-47244000D03*
X164338000Y-44704000D03*
X161798000Y-44704000D03*
%TD*%
D22*
%TO.C,U5*%
X109105000Y-94234000D03*
X111385000Y-94234000D03*
D23*
X111385000Y-87934000D03*
D22*
X113665000Y-94234000D03*
%TD*%
D24*
%TO.C,R25*%
X114300000Y-68437000D03*
X114300000Y-66437000D03*
%TD*%
D10*
%TO.C,R14*%
X146066000Y-54102000D03*
X148066000Y-54102000D03*
%TD*%
D25*
%TO.C,Q2*%
X146207000Y-47183000D03*
X146207000Y-49083000D03*
X148082000Y-48133000D03*
%TD*%
D26*
%TO.C,J13*%
X138176000Y-74295000D03*
D27*
X135636000Y-74295000D03*
X133096000Y-74295000D03*
X130556000Y-74295000D03*
X128016000Y-74295000D03*
X125476000Y-74295000D03*
X122936000Y-74295000D03*
X120396000Y-74295000D03*
X117856000Y-74295000D03*
%TD*%
D28*
%TO.C,SW5*%
X173016000Y-83080000D03*
X173016000Y-79480000D03*
X174456000Y-83080000D03*
X174456000Y-79480000D03*
%TD*%
D29*
%TO.C,C19*%
X142870000Y-63028000D03*
X144945000Y-63028000D03*
%TD*%
D25*
%TO.C,D4*%
X108234000Y-66741000D03*
X108234000Y-68641000D03*
X110109000Y-67691000D03*
%TD*%
D10*
%TO.C,R3*%
X152115000Y-85281000D03*
X154115000Y-85281000D03*
%TD*%
D30*
%TO.C,H2*%
X172085000Y-41275000D03*
%TD*%
D26*
%TO.C,J1*%
X96774000Y-67310000D03*
D27*
X96774000Y-64770000D03*
X96774000Y-62230000D03*
X96774000Y-59690000D03*
X96774000Y-57150000D03*
X96774000Y-54610000D03*
X96774000Y-52070000D03*
X96774000Y-49530000D03*
X96774000Y-46990000D03*
X96774000Y-44450000D03*
X96774000Y-41910000D03*
X96774000Y-39370000D03*
%TD*%
D28*
%TO.C,SW6*%
X173072000Y-90954000D03*
X173072000Y-87354000D03*
X174512000Y-90954000D03*
X174512000Y-87354000D03*
%TD*%
D29*
%TO.C,C3*%
X113008500Y-97536000D03*
X115083500Y-97536000D03*
%TD*%
%TO.C,C1*%
X152040000Y-88837000D03*
X154115000Y-88837000D03*
%TD*%
D26*
%TO.C,J8*%
X139065000Y-39878000D03*
D27*
X141605000Y-39878000D03*
X144145000Y-39878000D03*
X146685000Y-39878000D03*
X149225000Y-39878000D03*
%TD*%
D30*
%TO.C,H4*%
X171577000Y-95885000D03*
%TD*%
D24*
%TO.C,R9*%
X107315000Y-74533000D03*
X107315000Y-72533000D03*
%TD*%
D12*
%TO.C,JP1*%
X151802000Y-58166000D03*
D31*
X153252000Y-58166000D03*
%TD*%
D25*
%TO.C,Q3*%
X139984000Y-47310000D03*
X139984000Y-49210000D03*
X141859000Y-48260000D03*
%TD*%
D32*
%TO.C,SW3*%
X118580000Y-62774000D03*
X126530000Y-62774000D03*
X118580000Y-67274000D03*
X126530000Y-67274000D03*
%TD*%
D10*
%TO.C,R13*%
X154591000Y-63627000D03*
X156591000Y-63627000D03*
%TD*%
D33*
%TO.C,C18*%
X114300000Y-63140500D03*
X114300000Y-61065500D03*
%TD*%
D10*
%TO.C,R2*%
X152734000Y-96965000D03*
X154734000Y-96965000D03*
%TD*%
D33*
%TO.C,C23*%
X107442000Y-40661500D03*
X107442000Y-38586500D03*
%TD*%
D34*
%TO.C,D6*%
X109604000Y-48006000D03*
X106804000Y-48006000D03*
%TD*%
D30*
%TO.C,H3*%
X89154000Y-96393000D03*
%TD*%
D10*
%TO.C,R26*%
X142929000Y-66965000D03*
X144929000Y-66965000D03*
%TD*%
D24*
%TO.C,R8*%
X103759000Y-74533000D03*
X103759000Y-72533000D03*
%TD*%
D10*
%TO.C,R15*%
X139478000Y-53975000D03*
X141478000Y-53975000D03*
%TD*%
D30*
%TO.C,H1*%
X89408000Y-41402000D03*
%TD*%
D29*
%TO.C,C2*%
X152696500Y-93663000D03*
X154771500Y-93663000D03*
%TD*%
D10*
%TO.C,R18*%
X150054500Y-63627000D03*
X152054500Y-63627000D03*
%TD*%
%TO.C,R19*%
X146209000Y-57785000D03*
X148209000Y-57785000D03*
%TD*%
D35*
%TO.C,D2*%
X106807000Y-63246000D03*
D36*
X106807000Y-61546000D03*
X104807000Y-61546000D03*
X104807000Y-63446000D03*
%TD*%
D26*
%TO.C,J2*%
X121539000Y-81280000D03*
D27*
X124079000Y-81280000D03*
X126619000Y-81280000D03*
X129159000Y-81280000D03*
X131699000Y-81280000D03*
X134239000Y-81280000D03*
X136779000Y-81280000D03*
%TD*%
D29*
%TO.C,C4*%
X107801500Y-97663000D03*
X109876500Y-97663000D03*
%TD*%
D32*
%TO.C,SW4*%
X130772000Y-62647000D03*
X138722000Y-62647000D03*
X130772000Y-67147000D03*
X138722000Y-67147000D03*
%TD*%
D37*
%TO.C,U10*%
X115596000Y-38100000D03*
X115596000Y-39370000D03*
X115596000Y-40640000D03*
X115596000Y-41910000D03*
X115596000Y-43180000D03*
X115596000Y-44450000D03*
X115596000Y-45720000D03*
X115596000Y-46990000D03*
X115596000Y-48260000D03*
X115596000Y-49530000D03*
X115596000Y-50800000D03*
X115596000Y-52070000D03*
X115596000Y-53340000D03*
X115596000Y-54610000D03*
D38*
X117361000Y-55860000D03*
X118631000Y-55860000D03*
X119901000Y-55860000D03*
X121171000Y-55860000D03*
X122441000Y-55860000D03*
X123711000Y-55860000D03*
X124981000Y-55860000D03*
X126251000Y-55860000D03*
X127521000Y-55860000D03*
X128791000Y-55860000D03*
X130061000Y-55860000D03*
X131331000Y-55860000D03*
D37*
X133096000Y-54610000D03*
X133096000Y-53340000D03*
X133096000Y-52070000D03*
X133096000Y-50800000D03*
X133096000Y-49530000D03*
X133096000Y-48260000D03*
X133096000Y-46990000D03*
X133096000Y-45720000D03*
X133096000Y-44450000D03*
X133096000Y-43180000D03*
X133096000Y-41910000D03*
X133096000Y-40640000D03*
X133096000Y-39370000D03*
X133096000Y-38100000D03*
D39*
X123096000Y-45820000D03*
X123096000Y-44420000D03*
X121696000Y-44420000D03*
X121696000Y-45820000D03*
X121696000Y-47220000D03*
X123096000Y-47220000D03*
X124496000Y-47220000D03*
X124496000Y-45820000D03*
X124496000Y-44420000D03*
%TD*%
D26*
%TO.C,J11*%
X95758000Y-72517000D03*
D27*
X95758000Y-75057000D03*
X95758000Y-77597000D03*
X95758000Y-80137000D03*
X95758000Y-82677000D03*
%TD*%
D33*
%TO.C,C24*%
X111633000Y-40683000D03*
X111633000Y-38608000D03*
%TD*%
M02*
