M48
; DRILL file {KiCad 8.0.5} date 2024-10-15T02:56:04-0500
; FORMAT={-:-/ absolute / inch / decimal}
; #@! TF.CreationDate,2024-10-15T02:56:04-05:00
; #@! TF.GenerationSoftware,Kicad,Pcbnew,8.0.5
; #@! TF.FileFunction,Plated,1,2,PTH
FMAT,2
INCH
; #@! TA.AperFunction,Plated,PTH,ViaDrill
T1C0.0118
; #@! TA.AperFunction,Plated,PTH,ViaDrill
T2C0.0157
; #@! TA.AperFunction,Plated,PTH,ComponentDrill
T3C0.0354
; #@! TA.AperFunction,Plated,PTH,ComponentDrill
T4C0.0394
; #@! TA.AperFunction,Plated,PTH,ComponentDrill
T5C0.0591
%
G90
G05
T1
X2.9972Y-3.6362
X3.0004Y-4.0795
X3.1457Y-2.2516
X3.1799Y-3.2134
X3.2201Y-3.3079
X3.2591Y-4.1772
X3.2811Y-2.1358
X3.3346Y-2.6134
X3.3811Y-3.4413
X3.391Y-2.71
X3.4063Y-3.1902
X3.414Y-2.108
X3.416Y-2.355
X3.4185Y-2.7626
X3.5304Y-2.915
X3.534Y-3.7518
X3.536Y-2.403
X3.5406Y-4.2028
X3.5756Y-2.9693
X3.5776Y-3.5488
X3.5785Y-2.5035
X3.5815Y-3.6437
X3.587Y-3.8591
X3.5921Y-3.224
X3.5953Y-2.7594
X3.5972Y-2.8272
X3.61Y-2.907
X3.6945Y-3.6264
X3.7071Y-3.4567
X3.7366Y-2.9894
X3.772Y-3.2783
X3.7827Y-2.8524
X3.798Y-2.909
X3.8Y-4.319
X3.828Y-2.7732
X3.8563Y-2.9874
X3.882Y-4.321
X3.8921Y-2.9008
X3.898Y-2.594
X3.946Y-2.723
X3.9736Y-2.9902
X3.981Y-4.32
X3.994Y-2.725
X4.046Y-2.725
X4.0677Y-2.9636
X4.08Y-4.064
X4.082Y-4.321
X4.1031Y-3.6201
X4.113Y-2.552
X4.115Y-2.403
X4.115Y-2.45
X4.115Y-2.503
X4.1283Y-3.4551
X4.178Y-4.062
X4.18Y-3.987
X4.18Y-4.3231
X4.2039Y-3.0776
X4.2087Y-2.9846
X4.223Y-2.305
X4.224Y-2.357
X4.226Y-2.254
X4.237Y-2.5354
X4.2417Y-2.6031
X4.25Y-2.8799
X4.2563Y-2.761
X4.2654Y-3.0193
X4.281Y-4.3389
X4.282Y-4.032
X4.2874Y-2.1157
X4.2894Y-2.1933
X4.317Y-2.537
X4.329Y-2.365
X4.3709Y-2.6413
X4.3886Y-2.5508
X4.4213Y-2.722
X4.422Y-2.357
X4.4972Y-2.5366
X4.508Y-2.23
X4.508Y-2.299
X4.526Y-2.8425
X4.535Y-2.7154
X4.5386Y-2.1547
X4.5547Y-3.6583
X4.556Y-2.2423
X4.6004Y-2.8346
X4.6169Y-3.5984
X4.6228Y-3.7035
X4.6925Y-2.7209
X4.704Y-2.511
X4.722Y-2.8252
X4.739Y-2.6417
X4.7574Y-3.8843
X4.7886Y-4.0992
X4.7996Y-2.5335
X4.8004Y-2.8953
X4.8059Y-2.7252
X4.828Y-3.2232
X4.8732Y-3.3843
X4.922Y-3.0091
T2
X4.2196Y-3.1334
X4.4623Y-3.1326
T3
X2.8Y-3.98
X2.8Y-4.0587
X2.8Y-4.1375
T4
X2.88Y-2.44
X2.88Y-2.54
X2.88Y-2.64
X2.88Y-2.74
X2.88Y-2.84
X2.88Y-2.94
X2.88Y-3.18
X2.88Y-3.28
X2.88Y-3.38
X2.88Y-3.48
X2.88Y-3.58
X3.57Y-3.08
X3.67Y-3.08
X3.77Y-3.08
X3.78Y-3.92
X3.78Y-4.16
X3.78Y-4.42
X3.87Y-3.08
X3.88Y-3.92
X3.88Y-4.16
X3.88Y-4.42
X3.97Y-3.08
X3.98Y-3.92
X3.98Y-4.16
X3.98Y-4.42
X4.07Y-3.08
X4.08Y-3.92
X4.08Y-4.16
X4.08Y-4.42
X4.18Y-3.92
X4.18Y-4.16
X4.18Y-4.42
X4.28Y-3.92
X4.28Y-4.16
X4.28Y-4.42
X4.38Y-2.081
X4.38Y-3.92
X4.38Y-4.16
X4.38Y-4.42
X4.48Y-2.081
X4.48Y-3.92
X4.48Y-4.16
X4.48Y-4.42
X4.58Y-2.081
X4.58Y-3.92
X4.58Y-4.16
X4.58Y-4.42
X4.68Y-2.081
X4.78Y-2.081
X4.8431Y-3.5
X4.96Y-2.54
X4.96Y-2.64
X4.96Y-2.74
X4.96Y-2.84
X4.96Y-2.94
X5.04Y-3.5
X5.06Y-2.54
X5.06Y-2.64
X5.06Y-2.74
X5.06Y-2.84
X5.06Y-2.94
T5
X2.8Y-3.8973
X2.8Y-4.2202
M30
