%TF.GenerationSoftware,KiCad,Pcbnew,8.0.5*%
%TF.CreationDate,2024-10-15T02:56:11-05:00*%
%TF.ProjectId,werable_unit,77657261-626c-4655-9f75-6e69742e6b69,rev?*%
%TF.SameCoordinates,Original*%
%TF.FileFunction,Soldermask,Top*%
%TF.FilePolarity,Negative*%
%FSLAX46Y46*%
G04 Gerber Fmt 4.6, Leading zero omitted, Abs format (unit mm)*
G04 Created by KiCad (PCBNEW 8.0.5) date 2024-10-15 02:56:11*
%MOMM*%
%LPD*%
G01*
G04 APERTURE LIST*
G04 Aperture macros list*
%AMRoundRect*
0 Rectangle with rounded corners*
0 $1 Rounding radius*
0 $2 $3 $4 $5 $6 $7 $8 $9 X,Y pos of 4 corners*
0 Add a 4 corners polygon primitive as box body*
4,1,4,$2,$3,$4,$5,$6,$7,$8,$9,$2,$3,0*
0 Add four circle primitives for the rounded corners*
1,1,$1+$1,$2,$3*
1,1,$1+$1,$4,$5*
1,1,$1+$1,$6,$7*
1,1,$1+$1,$8,$9*
0 Add four rect primitives between the rounded corners*
20,1,$1+$1,$2,$3,$4,$5,0*
20,1,$1+$1,$4,$5,$6,$7,0*
20,1,$1+$1,$6,$7,$8,$9,0*
20,1,$1+$1,$8,$9,$2,$3,0*%
%AMFreePoly0*
4,1,6,1.000000,0.000000,0.500000,-0.750000,-0.500000,-0.750000,-0.500000,0.750000,0.500000,0.750000,1.000000,0.000000,1.000000,0.000000,$1*%
%AMFreePoly1*
4,1,6,0.500000,-0.750000,-0.650000,-0.750000,-0.150000,0.000000,-0.650000,0.750000,0.500000,0.750000,0.500000,-0.750000,0.500000,-0.750000,$1*%
G04 Aperture macros list end*
%ADD10R,1.500000X1.500000*%
%ADD11FreePoly0,0.000000*%
%ADD12FreePoly0,180.000000*%
%ADD13RoundRect,0.150000X-0.150000X0.587500X-0.150000X-0.587500X0.150000X-0.587500X0.150000X0.587500X0*%
%ADD14R,1.550000X1.300000*%
%ADD15RoundRect,0.250000X-0.450000X0.350000X-0.450000X-0.350000X0.450000X-0.350000X0.450000X0.350000X0*%
%ADD16R,1.700000X1.700000*%
%ADD17O,1.700000X1.700000*%
%ADD18RoundRect,0.250000X-0.350000X-0.450000X0.350000X-0.450000X0.350000X0.450000X-0.350000X0.450000X0*%
%ADD19C,3.200000*%
%ADD20O,2.500000X1.500000*%
%ADD21R,2.500000X1.500000*%
%ADD22O,3.500000X2.200000*%
%ADD23RoundRect,0.250000X-0.337500X-0.475000X0.337500X-0.475000X0.337500X0.475000X-0.337500X0.475000X0*%
%ADD24RoundRect,0.250000X0.600000X0.600000X-0.600000X0.600000X-0.600000X-0.600000X0.600000X-0.600000X0*%
%ADD25C,1.700000*%
%ADD26R,1.498600X0.889000*%
%ADD27R,0.889000X1.498600*%
%ADD28R,0.889000X0.889000*%
%ADD29RoundRect,0.250000X0.450000X-0.350000X0.450000X0.350000X-0.450000X0.350000X-0.450000X-0.350000X0*%
%ADD30RoundRect,0.250000X0.275000X-0.450000X0.275000X0.450000X-0.275000X0.450000X-0.275000X-0.450000X0*%
%ADD31RoundRect,0.250000X-0.475000X0.337500X-0.475000X-0.337500X0.475000X-0.337500X0.475000X0.337500X0*%
%ADD32FreePoly1,180.000000*%
%ADD33RoundRect,0.250000X0.350000X-0.850000X0.350000X0.850000X-0.350000X0.850000X-0.350000X-0.850000X0*%
%ADD34RoundRect,0.249997X2.650003X-2.950003X2.650003X2.950003X-2.650003X2.950003X-2.650003X-2.950003X0*%
%ADD35R,2.000000X2.000000*%
%ADD36C,2.000000*%
%ADD37RoundRect,0.250000X0.475000X-0.337500X0.475000X0.337500X-0.475000X0.337500X-0.475000X-0.337500X0*%
%ADD38RoundRect,0.250000X0.625000X-0.375000X0.625000X0.375000X-0.625000X0.375000X-0.625000X-0.375000X0*%
%ADD39RoundRect,0.250000X0.337500X0.475000X-0.337500X0.475000X-0.337500X-0.475000X0.337500X-0.475000X0*%
%ADD40RoundRect,0.150000X-0.587500X-0.150000X0.587500X-0.150000X0.587500X0.150000X-0.587500X0.150000X0*%
%ADD41RoundRect,0.175000X0.325000X-0.175000X0.325000X0.175000X-0.325000X0.175000X-0.325000X-0.175000X0*%
%ADD42RoundRect,0.150000X0.150000X-0.200000X0.150000X0.200000X-0.150000X0.200000X-0.150000X-0.200000X0*%
G04 APERTURE END LIST*
D10*
%TO.C,JP2*%
X110696500Y-78266000D03*
X113096500Y-78266000D03*
D11*
X109896500Y-78266000D03*
D12*
X113896500Y-78266000D03*
%TD*%
D13*
%TO.C,Q2*%
X117346900Y-61216300D03*
X115446900Y-61216300D03*
X116396900Y-63091300D03*
%TD*%
D14*
%TO.C,SW4*%
X106769000Y-85634000D03*
X114719000Y-85634000D03*
X106769000Y-90134000D03*
X114719000Y-90134000D03*
%TD*%
D15*
%TO.C,R14*%
X116896900Y-56653800D03*
X116896900Y-58653800D03*
%TD*%
D16*
%TO.C,J15*%
X96012000Y-105664000D03*
D17*
X98552000Y-105664000D03*
X101092000Y-105664000D03*
X103632000Y-105664000D03*
X106172000Y-105664000D03*
X108712000Y-105664000D03*
X111252000Y-105664000D03*
X113792000Y-105664000D03*
X116332000Y-105664000D03*
%TD*%
D18*
%TO.C,R9*%
X79000600Y-108940600D03*
X81000600Y-108940600D03*
%TD*%
%TO.C,R8*%
X78997500Y-106347000D03*
X80997500Y-106347000D03*
%TD*%
D16*
%TO.C,J14*%
X96012000Y-99568000D03*
D17*
X98552000Y-99568000D03*
X101092000Y-99568000D03*
X103632000Y-99568000D03*
X106172000Y-99568000D03*
X108712000Y-99568000D03*
X111252000Y-99568000D03*
X113792000Y-99568000D03*
X116332000Y-99568000D03*
%TD*%
D19*
%TO.C,H4*%
X128524000Y-115824000D03*
%TD*%
D18*
%TO.C,R25*%
X94989500Y-94546000D03*
X96989500Y-94546000D03*
%TD*%
D20*
%TO.C,U7*%
X71120000Y-105092000D03*
X71120000Y-103092000D03*
D21*
X71120000Y-101092000D03*
D22*
X71120000Y-107192000D03*
X71120000Y-98992000D03*
%TD*%
D23*
%TO.C,C19*%
X111738500Y-94488000D03*
X113813500Y-94488000D03*
%TD*%
D16*
%TO.C,J9*%
X103378000Y-78232000D03*
D17*
X100838000Y-78232000D03*
X98298000Y-78232000D03*
X95758000Y-78232000D03*
X93218000Y-78232000D03*
X90678000Y-78232000D03*
%TD*%
D24*
%TO.C,J12*%
X128524000Y-74676000D03*
D25*
X125984000Y-74676000D03*
X128524000Y-72136000D03*
X125984000Y-72136000D03*
X128524000Y-69596000D03*
X125984000Y-69596000D03*
X128524000Y-67056000D03*
X125984000Y-67056000D03*
X128524000Y-64516000D03*
X125984000Y-64516000D03*
%TD*%
D26*
%TO.C,U10*%
X88278000Y-49604000D03*
X88278000Y-50874000D03*
X88278000Y-52144000D03*
X88278000Y-53414000D03*
X88278000Y-54684000D03*
X88278000Y-55954000D03*
X88278000Y-57224000D03*
X88278000Y-58494000D03*
X88278000Y-59764000D03*
X88278000Y-61034000D03*
X88278000Y-62304000D03*
X88278000Y-63574000D03*
X88278000Y-64844000D03*
X88278000Y-66114000D03*
D27*
X90043000Y-67364000D03*
X91313000Y-67364000D03*
X92583000Y-67364000D03*
X93853000Y-67364000D03*
X95123000Y-67364000D03*
X96393000Y-67364000D03*
X97663000Y-67364000D03*
X98933000Y-67364000D03*
X100203000Y-67364000D03*
X101473000Y-67364000D03*
X102743000Y-67364000D03*
X104013000Y-67364000D03*
D26*
X105778000Y-66114000D03*
X105778000Y-64844000D03*
X105778000Y-63574000D03*
X105778000Y-62304000D03*
X105778000Y-61034000D03*
X105778000Y-59764000D03*
X105778000Y-58494000D03*
X105778000Y-57224000D03*
X105778000Y-55954000D03*
X105778000Y-54684000D03*
X105778000Y-53414000D03*
X105778000Y-52144000D03*
X105778000Y-50874000D03*
X105778000Y-49604000D03*
D28*
X95778000Y-57324000D03*
X95778000Y-55924000D03*
X94378000Y-55924000D03*
X94378000Y-57324000D03*
X94378000Y-58724000D03*
X95778000Y-58724000D03*
X97178000Y-58724000D03*
X97178000Y-57324000D03*
X97178000Y-55924000D03*
%TD*%
D29*
%TO.C,R7*%
X79756000Y-73752000D03*
X79756000Y-71752000D03*
%TD*%
D15*
%TO.C,R15*%
X112896900Y-56653800D03*
X112896900Y-58653800D03*
%TD*%
D30*
%TO.C,SW5*%
X131035000Y-103050000D03*
X131035000Y-99450000D03*
X132475000Y-103050000D03*
X132475000Y-99450000D03*
%TD*%
D31*
%TO.C,C2*%
X126944000Y-106086500D03*
X126944000Y-108161500D03*
%TD*%
D15*
%TO.C,R20*%
X112896900Y-65653800D03*
X112896900Y-67653800D03*
%TD*%
D12*
%TO.C,JP1*%
X120904000Y-75184000D03*
D32*
X119454000Y-75184000D03*
%TD*%
D16*
%TO.C,J1*%
X73152000Y-61976000D03*
D17*
X73152000Y-64516000D03*
X73152000Y-67056000D03*
X73152000Y-69596000D03*
X73152000Y-72136000D03*
X73152000Y-74676000D03*
%TD*%
D33*
%TO.C,U5*%
X82048000Y-98248000D03*
X84328000Y-98248000D03*
D34*
X84328000Y-91948000D03*
D33*
X86608000Y-98248000D03*
%TD*%
D19*
%TO.C,H3*%
X73660000Y-115824000D03*
%TD*%
D30*
%TO.C,SW6*%
X131055000Y-109772000D03*
X131055000Y-106172000D03*
X132495000Y-109772000D03*
X132495000Y-106172000D03*
%TD*%
D35*
%TO.C,U4*%
X123016000Y-88900000D03*
D36*
X128016000Y-88900000D03*
%TD*%
D18*
%TO.C,R18*%
X111621500Y-74676000D03*
X109621500Y-74676000D03*
%TD*%
D37*
%TO.C,C24*%
X82296000Y-52875000D03*
X82296000Y-50800000D03*
%TD*%
D18*
%TO.C,R13*%
X113477800Y-74676000D03*
X115477800Y-74676000D03*
%TD*%
D19*
%TO.C,H1*%
X73660000Y-54356000D03*
%TD*%
D38*
%TO.C,D6*%
X83312000Y-74044000D03*
X83312000Y-71244000D03*
%TD*%
D15*
%TO.C,R19*%
X116896900Y-65653800D03*
X116896900Y-67653800D03*
%TD*%
D16*
%TO.C,J13*%
X116332000Y-112268000D03*
D17*
X113792000Y-112268000D03*
X111252000Y-112268000D03*
X108712000Y-112268000D03*
X106172000Y-112268000D03*
X103632000Y-112268000D03*
X101092000Y-112268000D03*
X98552000Y-112268000D03*
X96012000Y-112268000D03*
%TD*%
D16*
%TO.C,J11*%
X73152000Y-80772000D03*
D17*
X73152000Y-83312000D03*
X73152000Y-85852000D03*
X73152000Y-88392000D03*
X73152000Y-90932000D03*
%TD*%
D18*
%TO.C,R26*%
X107113500Y-94488000D03*
X109113500Y-94488000D03*
%TD*%
D29*
%TO.C,R3*%
X123444000Y-103124000D03*
X123444000Y-101124000D03*
%TD*%
D19*
%TO.C,H2*%
X128524000Y-54356000D03*
%TD*%
D29*
%TO.C,R2*%
X123444000Y-108124000D03*
X123444000Y-106124000D03*
%TD*%
D16*
%TO.C,J8*%
X111252000Y-52857400D03*
D17*
X113792000Y-52857400D03*
X116332000Y-52857400D03*
X118872000Y-52857400D03*
X121412000Y-52857400D03*
%TD*%
D14*
%TO.C,SW3*%
X94921000Y-85634000D03*
X102871000Y-85634000D03*
X94921000Y-90134000D03*
X102871000Y-90134000D03*
%TD*%
D13*
%TO.C,Q3*%
X113396900Y-61153800D03*
X111496900Y-61153800D03*
X112446900Y-63028800D03*
%TD*%
D39*
%TO.C,C4*%
X83469250Y-101243000D03*
X81394250Y-101243000D03*
%TD*%
D23*
%TO.C,C18*%
X99452000Y-94546000D03*
X101527000Y-94546000D03*
%TD*%
D37*
%TO.C,C23*%
X84836000Y-52875000D03*
X84836000Y-50800000D03*
%TD*%
D40*
%TO.C,D4*%
X84362500Y-107767500D03*
X84362500Y-109667500D03*
X86237500Y-108717500D03*
%TD*%
D41*
%TO.C,D2*%
X83253000Y-86273000D03*
D42*
X84953000Y-86273000D03*
X84953000Y-84273000D03*
X83053000Y-84273000D03*
%TD*%
D31*
%TO.C,C1*%
X126944000Y-101086500D03*
X126944000Y-103161500D03*
%TD*%
D39*
%TO.C,C3*%
X87469250Y-101243000D03*
X85394250Y-101243000D03*
%TD*%
M02*
